<svg xmlns="http://www.w3.org/2000/svg" xmlns:xlink="http://www.w3.org/1999/xlink" width="1080" zoomAndPan="magnify" viewBox="0 0 810 809.999993" height="1080" preserveAspectRatio="xMidYMid meet" version="1.0"><defs><clipPath id="id1"><path d="M 4.140625 114.878906 L 805.890625 114.878906 L 805.890625 695.378906 L 4.140625 695.378906 Z M 4.140625 114.878906 " clip-rule="nonzero"/></clipPath></defs><path fill="#e04285" d="M 576.933594 274.871094 C 578.0625 275.554688 579.257812 276.082031 580.523438 276.449219 C 581.789062 276.820312 583.082031 277.019531 584.398438 277.046875 C 585.71875 277.078125 587.019531 276.9375 588.300781 276.625 C 589.582031 276.3125 590.800781 275.839844 591.957031 275.207031 L 686.628906 224.28125 C 687.839844 223.632812 688.945312 222.832031 689.941406 221.882812 C 690.9375 220.929688 691.789062 219.867188 692.496094 218.683594 C 693.203125 217.503906 693.738281 216.25 694.105469 214.921875 C 694.472656 213.59375 694.65625 212.242188 694.65625 210.867188 C 694.65625 209.488281 694.472656 208.136719 694.105469 206.8125 C 693.738281 205.484375 693.203125 204.230469 692.496094 203.046875 C 691.789062 201.867188 690.9375 200.800781 689.941406 199.851562 C 688.945312 198.902344 687.839844 198.101562 686.628906 197.453125 L 591.957031 146.527344 C 591.378906 146.214844 590.785156 145.941406 590.171875 145.707031 C 589.558594 145.476562 588.933594 145.28125 588.292969 145.128906 C 587.65625 144.976562 587.011719 144.863281 586.359375 144.792969 C 585.707031 144.722656 585.050781 144.695312 584.394531 144.710938 C 583.738281 144.726562 583.085938 144.78125 582.4375 144.882812 C 581.789062 144.980469 581.152344 145.121094 580.519531 145.304688 C 579.890625 145.484375 579.273438 145.707031 578.671875 145.96875 C 578.070312 146.230469 577.488281 146.527344 576.925781 146.867188 C 576.363281 147.203125 575.824219 147.574219 575.308594 147.980469 C 574.792969 148.386719 574.304688 148.824219 573.847656 149.292969 C 573.386719 149.761719 572.960938 150.261719 572.566406 150.785156 C 572.171875 151.308594 571.8125 151.855469 571.492188 152.429688 C 571.167969 153 570.882812 153.589844 570.632812 154.195312 C 570.386719 154.804688 570.179688 155.425781 570.011719 156.058594 C 569.84375 156.695312 569.71875 157.335938 569.632812 157.988281 C 569.550781 158.640625 569.507812 159.292969 569.507812 159.949219 L 569.507812 261.800781 C 569.503906 263.117188 569.667969 264.414062 570.003906 265.691406 C 570.339844 266.964844 570.832031 268.175781 571.480469 269.324219 C 572.132812 270.472656 572.921875 271.515625 573.84375 272.453125 C 574.769531 273.394531 575.796875 274.203125 576.933594 274.871094 Z M 576.933594 274.871094 " fill-opacity="1" fill-rule="nonzero"/><path fill="#e04285" d="M 193.605469 269.703125 C 194.675781 269.703125 195.738281 269.652344 196.800781 269.546875 C 197.863281 269.441406 198.917969 269.285156 199.964844 269.078125 C 201.011719 268.867188 202.046875 268.609375 203.066406 268.296875 C 204.089844 267.988281 205.09375 267.628906 206.078125 267.21875 C 207.066406 266.8125 208.027344 266.355469 208.96875 265.851562 C 209.910156 265.347656 210.824219 264.800781 211.714844 264.207031 C 212.601562 263.613281 213.457031 262.976562 214.28125 262.300781 C 215.105469 261.621094 215.898438 260.90625 216.652344 260.152344 C 217.40625 259.394531 218.121094 258.605469 218.800781 257.777344 C 219.476562 256.953125 220.113281 256.097656 220.703125 255.207031 C 221.296875 254.320312 221.847656 253.40625 222.347656 252.464844 C 222.851562 251.523438 223.308594 250.558594 223.714844 249.570312 C 224.125 248.585938 224.484375 247.582031 224.792969 246.558594 C 225.105469 245.535156 225.363281 244.5 225.570312 243.453125 C 225.777344 242.40625 225.933594 241.351562 226.039062 240.289062 C 226.144531 239.226562 226.195312 238.160156 226.195312 237.09375 C 226.195312 236.023438 226.144531 234.957031 226.039062 233.894531 C 225.933594 232.832031 225.777344 231.777344 225.570312 230.730469 C 225.359375 229.683594 225.101562 228.648438 224.792969 227.625 C 224.480469 226.605469 224.121094 225.597656 223.714844 224.613281 C 223.304688 223.625 222.847656 222.660156 222.347656 221.71875 C 221.84375 220.777344 221.292969 219.863281 220.703125 218.972656 C 220.109375 218.085938 219.472656 217.230469 218.796875 216.402344 C 218.117188 215.578125 217.402344 214.789062 216.648438 214.03125 C 215.890625 213.277344 215.101562 212.5625 214.277344 211.882812 C 213.453125 211.207031 212.59375 210.570312 211.707031 209.976562 C 210.820312 209.382812 209.90625 208.835938 208.964844 208.332031 C 208.023438 207.828125 207.058594 207.371094 206.074219 206.964844 C 205.085938 206.554688 204.082031 206.195312 203.058594 205.886719 C 202.039062 205.574219 201.003906 205.316406 199.957031 205.109375 C 198.910156 204.898438 197.855469 204.742188 196.792969 204.636719 C 195.730469 204.535156 194.667969 204.480469 193.597656 204.480469 C 192.53125 204.480469 191.464844 204.535156 190.402344 204.640625 C 189.339844 204.742188 188.285156 204.898438 187.238281 205.109375 C 186.191406 205.316406 185.15625 205.578125 184.136719 205.886719 C 183.113281 206.195312 182.109375 206.554688 181.125 206.964844 C 180.136719 207.375 179.171875 207.828125 178.230469 208.332031 C 177.289062 208.835938 176.375 209.382812 175.488281 209.976562 C 174.601562 210.570312 173.742188 211.207031 172.917969 211.882812 C 172.09375 212.5625 171.304688 213.277344 170.546875 214.03125 C 169.792969 214.789062 169.078125 215.578125 168.398438 216.402344 C 167.722656 217.226562 167.085938 218.085938 166.492188 218.972656 C 165.902344 219.859375 165.351562 220.773438 164.847656 221.71875 C 164.347656 222.660156 163.890625 223.621094 163.480469 224.609375 C 163.074219 225.59375 162.714844 226.597656 162.402344 227.621094 C 162.09375 228.644531 161.835938 229.675781 161.625 230.726562 C 161.417969 231.773438 161.261719 232.828125 161.15625 233.890625 C 161.050781 234.953125 161 236.015625 161 237.085938 C 161 238.152344 161.054688 239.21875 161.160156 240.28125 C 161.265625 241.34375 161.421875 242.398438 161.628906 243.445312 C 161.839844 244.496094 162.097656 245.527344 162.410156 246.550781 C 162.71875 247.574219 163.078125 248.578125 163.488281 249.5625 C 163.898438 250.550781 164.351562 251.515625 164.855469 252.457031 C 165.359375 253.398438 165.910156 254.3125 166.503906 255.203125 C 167.09375 256.089844 167.730469 256.945312 168.410156 257.773438 C 169.085938 258.597656 169.800781 259.386719 170.558594 260.144531 C 171.3125 260.898438 172.101562 261.613281 172.925781 262.292969 C 173.753906 262.96875 174.609375 263.605469 175.496094 264.199219 C 176.382812 264.792969 177.300781 265.34375 178.242188 265.847656 C 179.183594 266.347656 180.144531 266.804688 181.132812 267.214844 C 182.117188 267.625 183.121094 267.984375 184.144531 268.292969 C 185.164062 268.605469 186.199219 268.863281 187.246094 269.074219 C 188.292969 269.28125 189.347656 269.441406 190.410156 269.542969 C 191.472656 269.648438 192.539062 269.703125 193.605469 269.703125 Z M 193.605469 269.703125 " fill-opacity="1" fill-rule="nonzero"/><g clip-path="url(#id1)"><path fill="#e04285" d="M 758.851562 484.441406 L 688.21875 484.441406 L 684.578125 481.878906 L 684.578125 308.652344 L 699.140625 308.652344 C 721.253906 308.652344 739.25 291.921875 739.25 271.375 L 739.25 152.15625 C 739.25 131.59375 721.253906 114.878906 699.140625 114.878906 L 544.691406 114.878906 C 522.578125 114.878906 504.582031 131.59375 504.582031 152.15625 L 504.582031 197.832031 L 297.515625 197.832031 C 290.328125 182.707031 274 172.117188 255.050781 172.117188 L 51.195312 172.117188 C 25.597656 172.117188 4.789062 191.425781 4.789062 215.152344 L 4.789062 356.761719 C 4.789062 380.492188 25.597656 399.800781 51.195312 399.800781 L 131.015625 399.800781 L 131.015625 572.105469 C 131.015625 594.878906 150.414062 613.40625 174.242188 613.40625 L 348.5625 613.40625 L 339.101562 657.320312 L 302.507812 657.320312 L 302.507812 695.410156 L 513.105469 695.410156 L 513.105469 657.320312 L 476.507812 657.320312 L 467.046875 613.40625 L 518.429688 613.40625 L 518.429688 627.261719 C 518.429688 651.003906 539.238281 670.296875 564.835938 670.296875 L 758.851562 670.296875 C 784.445312 670.296875 805.257812 651.003906 805.257812 627.261719 L 805.257812 527.476562 C 805.257812 503.75 784.445312 484.441406 758.851562 484.441406 Z M 517.699219 152.15625 C 517.699219 138.828125 529.8125 128 544.691406 128 L 699.140625 128 C 714.019531 128 726.132812 138.828125 726.132812 152.15625 L 726.132812 271.375 C 726.132812 284.703125 714.019531 295.53125 699.140625 295.53125 L 632.335938 295.53125 L 568.699219 340.382812 L 576.328125 295.53125 L 544.691406 295.53125 C 529.8125 295.53125 517.699219 284.703125 517.699219 271.375 Z M 671.460938 308.652344 L 671.460938 472.625 L 664.101562 467.441406 L 664.101562 308.652344 Z M 391.691406 485.554688 L 391.691406 472.449219 L 499.242188 472.449219 L 499.242188 485.554688 Z M 499.242188 496.035156 L 499.242188 509.15625 L 451.101562 509.15625 L 451.101562 496.035156 Z M 447.84375 399.019531 L 447.84375 412.140625 L 318.722656 412.140625 L 318.722656 399.019531 Z M 319.707031 387.347656 L 319.707031 270.148438 L 495.664062 270.148438 L 495.664062 387.347656 Z M 432.820312 437.332031 L 408.417969 437.332031 L 408.417969 424.210938 L 432.820312 424.210938 Z M 461.691406 450.089844 L 461.691406 463.210938 L 353.171875 463.210938 L 353.171875 450.089844 Z M 380.992188 424.210938 L 380.992188 437.332031 L 318.722656 437.332031 L 318.722656 424.210938 Z M 339.308594 450.089844 L 339.308594 463.210938 L 318.722656 463.210938 L 318.722656 450.089844 Z M 359.898438 472.449219 L 359.898438 485.554688 L 318.722656 485.554688 L 318.722656 472.449219 Z M 429.957031 496.035156 L 429.957031 509.15625 L 318.722656 509.15625 L 318.722656 496.035156 Z M 469.511719 463.210938 L 469.511719 450.089844 L 499.242188 450.089844 L 499.242188 463.210938 Z M 445.472656 437.332031 L 445.472656 424.210938 L 499.242188 424.210938 L 499.242188 437.332031 Z M 463.503906 412.140625 L 463.503906 399.019531 L 499.242188 399.019531 L 499.242188 412.140625 Z M 504.582031 210.953125 L 504.582031 232.679688 L 301.457031 232.679688 L 301.457031 215.152344 C 301.453125 213.75 301.378906 212.351562 301.234375 210.953125 Z M 17.90625 215.152344 C 17.90625 198.660156 32.832031 185.238281 51.195312 185.238281 L 255.050781 185.238281 C 257.640625 185.203125 260.199219 185.453125 262.730469 185.996094 C 265.261719 186.535156 267.699219 187.351562 270.046875 188.441406 C 272.394531 189.53125 274.589844 190.871094 276.636719 192.457031 C 278.683594 194.039062 280.53125 195.832031 282.171875 197.832031 C 283.699219 199.726562 284.957031 201.789062 285.949219 204.011719 C 286.9375 206.234375 287.625 208.550781 288.007812 210.953125 C 288.230469 212.34375 288.34375 213.746094 288.339844 215.152344 L 288.339844 308.046875 L 243.320312 261.71875 L 190.824219 312.820312 L 112.371094 221.515625 L 17.90625 312.40625 Z M 51.195312 386.679688 C 32.832031 386.679688 17.90625 373.253906 17.90625 356.761719 L 17.90625 330.601562 L 111.429688 240.535156 L 189.964844 331.953125 L 243.066406 280.28125 L 288.339844 326.863281 L 288.339844 356.761719 C 288.339844 373.253906 273.414062 386.679688 255.050781 386.679688 L 218.949219 386.679688 L 228.265625 441.421875 L 164.59375 396.554688 L 151.492188 387.332031 L 150.570312 386.679688 Z M 499.988281 670.425781 L 499.988281 682.289062 L 315.621094 682.289062 L 315.621094 670.425781 Z M 352.503906 657.320312 L 361.964844 613.40625 L 453.628906 613.40625 L 463.105469 657.320312 Z M 518.429688 600.300781 L 174.242188 600.300781 C 157.644531 600.300781 144.132812 587.644531 144.132812 572.105469 L 144.132812 552.574219 L 518.429688 552.574219 Z M 518.429688 539.453125 L 144.132812 539.453125 L 144.132812 399.800781 L 146.421875 399.800781 L 151.492188 403.378906 L 151.492188 528.910156 L 518.429688 528.910156 Z M 792.15625 627.261719 C 792.15625 643.769531 777.210938 657.191406 758.851562 657.191406 L 564.835938 657.191406 C 546.472656 657.191406 531.527344 643.769531 531.527344 627.261719 L 531.527344 527.476562 C 531.53125 523.386719 532.410156 519.496094 534.167969 515.804688 C 539.238281 505.085938 551.082031 497.546875 564.835938 497.546875 L 615.691406 497.546875 L 606.375 442.804688 L 651 474.246094 L 664.101562 483.488281 L 671.460938 488.671875 L 684.050781 497.546875 L 758.851562 497.546875 C 777.210938 497.546875 792.15625 510.96875 792.15625 527.476562 Z M 792.15625 627.261719 " fill-opacity="1" fill-rule="nonzero"/></g><path fill="#e04285" d="M 600.429688 560.355469 C 601.109375 561.035156 601.714844 561.773438 602.25 562.570312 C 602.78125 563.371094 603.230469 564.214844 603.601562 565.101562 C 603.96875 565.988281 604.246094 566.902344 604.433594 567.84375 C 604.621094 568.789062 604.714844 569.738281 604.714844 570.699219 C 604.714844 571.660156 604.621094 572.609375 604.433594 573.554688 C 604.246094 574.496094 603.96875 575.410156 603.601562 576.296875 C 603.230469 577.183594 602.78125 578.027344 602.25 578.828125 C 601.714844 579.625 601.109375 580.363281 600.429688 581.042969 C 599.75 581.722656 599.011719 582.328125 598.214844 582.863281 C 597.414062 583.398438 596.574219 583.847656 595.683594 584.214844 C 594.796875 584.582031 593.882812 584.859375 592.941406 585.046875 C 592 585.234375 591.050781 585.328125 590.089844 585.328125 C 589.128906 585.328125 588.175781 585.234375 587.234375 585.046875 C 586.292969 584.859375 585.378906 584.582031 584.492188 584.214844 C 583.605469 583.847656 582.761719 583.398438 581.964844 582.863281 C 581.164062 582.332031 580.425781 581.722656 579.746094 581.042969 C 579.070312 580.363281 578.460938 579.625 577.929688 578.828125 C 577.394531 578.027344 576.945312 577.183594 576.578125 576.296875 C 576.210938 575.410156 575.933594 574.496094 575.746094 573.554688 C 575.558594 572.609375 575.464844 571.660156 575.464844 570.699219 C 575.464844 569.738281 575.558594 568.789062 575.746094 567.84375 C 575.933594 566.902344 576.210938 565.988281 576.578125 565.101562 C 576.945312 564.214844 577.394531 563.371094 577.929688 562.570312 C 578.460938 561.773438 579.070312 561.035156 579.746094 560.355469 C 580.425781 559.675781 581.164062 559.070312 581.964844 558.535156 C 582.761719 558 583.605469 557.550781 584.492188 557.183594 C 585.378906 556.816406 586.292969 556.539062 587.234375 556.351562 C 588.175781 556.164062 589.128906 556.070312 590.089844 556.070312 C 591.050781 556.070312 592 556.164062 592.941406 556.351562 C 593.882812 556.539062 594.796875 556.816406 595.683594 557.183594 C 596.574219 557.550781 597.414062 558 598.214844 558.535156 C 599.011719 559.066406 599.75 559.675781 600.429688 560.355469 Z M 600.429688 560.355469 " fill-opacity="1" fill-rule="nonzero"/><path fill="#e04285" d="M 638.121094 556.070312 C 637.160156 556.070312 636.207031 556.164062 635.265625 556.351562 C 634.324219 556.539062 633.410156 556.816406 632.523438 557.183594 C 631.636719 557.550781 630.792969 558 629.996094 558.535156 C 629.195312 559.066406 628.457031 559.675781 627.777344 560.355469 C 627.097656 561.035156 626.492188 561.773438 625.960938 562.570312 C 625.425781 563.371094 624.976562 564.214844 624.609375 565.101562 C 624.238281 565.988281 623.960938 566.902344 623.773438 567.847656 C 623.589844 568.789062 623.496094 569.738281 623.496094 570.699219 C 623.496094 571.660156 623.589844 572.613281 623.773438 573.554688 C 623.960938 574.496094 624.238281 575.410156 624.609375 576.300781 C 624.976562 577.1875 625.425781 578.03125 625.960938 578.828125 C 626.492188 579.628906 627.097656 580.367188 627.777344 581.046875 C 628.457031 581.726562 629.195312 582.332031 629.996094 582.867188 C 630.792969 583.398438 631.636719 583.851562 632.523438 584.21875 C 633.410156 584.585938 634.324219 584.863281 635.265625 585.050781 C 636.207031 585.238281 637.160156 585.332031 638.121094 585.332031 C 639.082031 585.332031 640.03125 585.238281 640.972656 585.050781 C 641.914062 584.863281 642.828125 584.585938 643.71875 584.21875 C 644.605469 583.851562 645.449219 583.398438 646.246094 582.867188 C 647.042969 582.332031 647.785156 581.726562 648.460938 581.046875 C 649.140625 580.367188 649.746094 579.628906 650.28125 578.828125 C 650.816406 578.03125 651.265625 577.1875 651.632812 576.300781 C 652 575.410156 652.277344 574.496094 652.464844 573.554688 C 652.652344 572.613281 652.746094 571.660156 652.746094 570.699219 C 652.746094 569.738281 652.652344 568.789062 652.464844 567.847656 C 652.277344 566.902344 652 565.988281 651.632812 565.101562 C 651.265625 564.214844 650.816406 563.371094 650.28125 562.570312 C 649.746094 561.773438 649.140625 561.035156 648.460938 560.355469 C 647.785156 559.675781 647.042969 559.066406 646.246094 558.535156 C 645.449219 558 644.605469 557.550781 643.71875 557.183594 C 642.828125 556.816406 641.914062 556.539062 640.972656 556.351562 C 640.03125 556.164062 639.082031 556.070312 638.121094 556.070312 Z M 638.121094 556.070312 " fill-opacity="1" fill-rule="nonzero"/><path fill="#e04285" d="M 686.308594 556.070312 C 685.347656 556.070312 684.398438 556.164062 683.457031 556.351562 C 682.515625 556.539062 681.601562 556.816406 680.710938 557.183594 C 679.824219 557.550781 678.980469 558 678.183594 558.535156 C 677.386719 559.066406 676.644531 559.675781 675.96875 560.355469 C 675.289062 561.035156 674.683594 561.773438 674.148438 562.570312 C 673.613281 563.371094 673.164062 564.214844 672.796875 565.101562 C 672.429688 565.988281 672.152344 566.902344 671.964844 567.847656 C 671.777344 568.789062 671.683594 569.738281 671.683594 570.699219 C 671.683594 571.660156 671.777344 572.613281 671.964844 573.554688 C 672.152344 574.496094 672.429688 575.410156 672.796875 576.300781 C 673.164062 577.1875 673.613281 578.03125 674.148438 578.828125 C 674.683594 579.628906 675.289062 580.367188 675.96875 581.046875 C 676.644531 581.726562 677.386719 582.332031 678.183594 582.867188 C 678.980469 583.398438 679.824219 583.851562 680.710938 584.21875 C 681.601562 584.585938 682.515625 584.863281 683.457031 585.050781 C 684.398438 585.238281 685.347656 585.332031 686.308594 585.332031 C 687.269531 585.332031 688.222656 585.238281 689.164062 585.050781 C 690.105469 584.863281 691.019531 584.585938 691.90625 584.21875 C 692.792969 583.851562 693.636719 583.398438 694.433594 582.867188 C 695.234375 582.332031 695.972656 581.726562 696.652344 581.046875 C 697.332031 580.367188 697.9375 579.628906 698.46875 578.828125 C 699.003906 578.03125 699.453125 577.1875 699.820312 576.300781 C 700.191406 575.410156 700.46875 574.496094 700.65625 573.554688 C 700.839844 572.613281 700.933594 571.660156 700.933594 570.699219 C 700.933594 569.738281 700.839844 568.789062 700.65625 567.847656 C 700.46875 566.902344 700.191406 565.988281 699.820312 565.101562 C 699.453125 564.214844 699.003906 563.371094 698.46875 562.570312 C 697.9375 561.773438 697.332031 561.035156 696.652344 560.355469 C 695.972656 559.675781 695.234375 559.066406 694.433594 558.535156 C 693.636719 558 692.792969 557.550781 691.90625 557.183594 C 691.019531 556.816406 690.105469 556.539062 689.164062 556.351562 C 688.222656 556.164062 687.269531 556.070312 686.308594 556.070312 Z M 686.308594 556.070312 " fill-opacity="1" fill-rule="nonzero"/><path fill="#e04285" d="M 748.234375 567.332031 C 748.457031 568.265625 748.582031 569.214844 748.617188 570.175781 C 748.652344 571.132812 748.589844 572.089844 748.4375 573.035156 C 748.285156 573.984375 748.039062 574.910156 747.703125 575.808594 C 747.367188 576.710938 746.945312 577.566406 746.441406 578.386719 C 745.9375 579.203125 745.359375 579.960938 744.703125 580.664062 C 744.050781 581.367188 743.332031 582 742.554688 582.5625 C 741.773438 583.125 740.949219 583.605469 740.074219 584.003906 C 739.199219 584.402344 738.296875 584.710938 737.363281 584.933594 C 736.425781 585.152344 735.480469 585.28125 734.519531 585.316406 C 733.5625 585.347656 732.605469 585.289062 731.660156 585.136719 C 730.710938 584.980469 729.789062 584.734375 728.886719 584.398438 C 727.988281 584.0625 727.128906 583.644531 726.3125 583.140625 C 725.496094 582.632812 724.738281 582.054688 724.035156 581.398438 C 723.332031 580.746094 722.699219 580.027344 722.136719 579.25 C 721.578125 578.46875 721.097656 577.640625 720.699219 576.769531 C 720.300781 575.894531 719.988281 574.988281 719.769531 574.054688 C 719.546875 573.121094 719.421875 572.171875 719.386719 571.210938 C 719.351562 570.253906 719.414062 569.296875 719.566406 568.351562 C 719.71875 567.402344 719.964844 566.476562 720.300781 565.578125 C 720.636719 564.679688 721.058594 563.820312 721.5625 563.003906 C 722.066406 562.183594 722.644531 561.425781 723.300781 560.722656 C 723.957031 560.019531 724.671875 559.386719 725.449219 558.824219 C 726.230469 558.261719 727.054688 557.78125 727.929688 557.382812 C 728.804688 556.984375 729.707031 556.675781 730.640625 556.453125 C 731.578125 556.234375 732.523438 556.105469 733.484375 556.074219 C 734.441406 556.039062 735.398438 556.097656 736.34375 556.253906 C 737.292969 556.40625 738.214844 556.652344 739.117188 556.988281 C 740.015625 557.324219 740.875 557.742188 741.691406 558.25 C 742.507812 558.753906 743.265625 559.332031 743.96875 559.988281 C 744.671875 560.644531 745.304688 561.359375 745.867188 562.140625 C 746.425781 562.917969 746.90625 563.746094 747.304688 564.617188 C 747.703125 565.492188 748.015625 566.398438 748.234375 567.332031 Z M 748.234375 567.332031 " fill-opacity="1" fill-rule="nonzero"/><path fill="#e04285" d="M 332.824219 283.269531 L 482.5625 283.269531 L 482.5625 374.242188 L 332.824219 374.242188 Z M 332.824219 283.269531 " fill-opacity="1" fill-rule="nonzero"/></svg>