<svg xmlns="http://www.w3.org/2000/svg" xmlns:xlink="http://www.w3.org/1999/xlink" width="1080" zoomAndPan="magnify" viewBox="0 0 810 809.999993" height="1080" preserveAspectRatio="xMidYMid meet" version="1.0"><defs><clipPath id="70f17c6928"><path d="M 104.042969 21.597656 L 706.167969 21.597656 L 706.167969 714.394531 L 104.042969 714.394531 Z M 104.042969 21.597656 " clip-rule="nonzero"/></clipPath><clipPath id="68e43b582e"><path d="M 132 100.285156 L 667 100.285156 L 667 809.847656 L 132 809.847656 Z M 132 100.285156 " clip-rule="nonzero"/></clipPath></defs><g clip-path="url(#70f17c6928)"><path fill="#ffbf01" d="M 485.363281 714.058594 C 198.050781 714.058594 128.320312 596.921875 106.773438 497.835938 C 85.222656 398.746094 194.453125 54.179688 321.632812 26.554688 C 448.804688 -1.070312 643.394531 91.605469 688.757812 182.308594 C 729.894531 264.558594 711.496094 714.058594 485.363281 714.058594 " fill-opacity="1" fill-rule="nonzero"/></g><path fill="#eca97c" d="M 276.511719 142.601562 L 276.191406 150.308594 C 277.5625 148.761719 279.1875 147.441406 280.972656 146.371094 C 281.941406 145.78125 282.964844 145.296875 284.011719 144.875 C 285.316406 144.347656 286.667969 143.917969 288.042969 143.597656 C 290.53125 143.105469 293.105469 142.941406 295.625 143.242188 C 296.535156 143.359375 297.4375 143.542969 298.328125 143.765625 C 299.785156 144.132812 301.195312 144.648438 302.519531 145.335938 L 301.28125 137.84375 C 301.28125 137.84375 308.582031 132.117188 309.8125 127.632812 C 311.050781 123.144531 314.527344 116.863281 314.640625 112.371094 C 314.753906 107.890625 307.679688 113.609375 306.109375 116.523438 C 304.539062 119.441406 301.28125 124.378906 301.28125 124.378906 C 301.28125 124.378906 299.484375 105.308594 299.035156 105.082031 L 294.554688 81.734375 C 294.183594 79.785156 291.480469 79.109375 290.484375 80.832031 C 290.40625 80.972656 290.332031 81.132812 290.285156 81.300781 C 289.828125 82.792969 290.804688 99.636719 291.355469 108.390625 C 291.039062 108.539062 290.71875 108.675781 290.390625 108.824219 L 282.898438 82.929688 C 282.328125 80.988281 279.558594 80.4375 278.738281 82.210938 C 278.671875 82.355469 278.617188 82.515625 278.585938 82.691406 C 278.242188 84.367188 281.550781 104.902344 282.769531 112.339844 C 282.742188 112.351562 282.714844 112.359375 282.695312 112.371094 L 273.335938 89.902344 C 272.566406 88.070312 269.785156 87.96875 269.171875 89.859375 C 269.117188 90.015625 269.085938 90.179688 269.0625 90.355469 C 268.9375 91.851562 273.070312 107.074219 275.46875 115.726562 C 275.226562 115.839844 274.996094 115.949219 274.765625 116.0625 L 267.761719 99.542969 C 266.984375 97.707031 264.203125 97.617188 263.59375 99.507812 C 263.542969 99.671875 263.507812 99.835938 263.496094 100.011719 C 263.382812 101.285156 266.390625 112.472656 268.785156 121.121094 C 269.011719 126.199219 270.226562 138.492188 276.511719 142.601562 Z M 444.863281 335.539062 C 439.546875 332.652344 434.277344 329.667969 429.078125 326.558594 C 428.988281 326.511719 428.941406 326.433594 428.929688 326.347656 L 428.375 326.066406 C 428.375 326.066406 421.273438 333.949219 418.132812 337.992188 C 417.335938 339.007812 411.515625 340.464844 403.257812 342.074219 C 396.730469 343.351562 388.695312 344.714844 380.40625 346.03125 C 357.675781 349.652344 333.117188 352.921875 333.117188 352.921875 C 333.117188 352.921875 322.84375 342.484375 312.265625 342.484375 C 301.695312 342.484375 296.214844 342.371094 296.703125 344.730469 C 297.191406 347.085938 311.972656 352.695312 311.972656 352.695312 L 271.15625 352.921875 C 271.15625 352.921875 294.0625 367.5 310.214844 367.726562 C 326.367188 367.949219 333.117188 367.726562 333.117188 367.726562 C 333.117188 367.726562 358.890625 367.726562 384.53125 367.726562 C 406.621094 367.726562 428.609375 367.726562 433.910156 367.726562 C 443.867188 367.726562 456.386719 348.671875 459.496094 343.679688 C 454.648438 340.917969 449.753906 338.242188 444.863281 335.539062 Z M 425.71875 150.839844 C 425.199219 150.40625 424.722656 149.925781 424.308594 149.398438 C 424.878906 150.246094 425.371094 151.230469 425.605469 152.222656 C 425.640625 151.761719 425.679688 151.296875 425.71875 150.839844 Z M 380.066406 165.488281 L 380.085938 165.488281 C 380.734375 165.382812 381.328125 165.320312 381.921875 165.339844 C 382.511719 165.375 383.085938 165.441406 383.640625 165.589844 C 384.210938 165.714844 384.746094 165.929688 385.273438 166.171875 C 385.808594 166.425781 386.296875 166.75 386.816406 167.132812 L 386.835938 167.144531 C 386.945312 167.21875 387.078125 167.246094 387.210938 167.199219 C 387.417969 167.125 387.527344 166.890625 387.453125 166.683594 C 387.199219 165.976562 386.691406 165.375 386.09375 164.902344 C 385.5 164.414062 384.777344 164.105469 384.042969 163.925781 C 382.566406 163.589844 380.875 163.871094 379.777344 164.914062 C 379.703125 164.980469 379.65625 165.09375 379.675781 165.207031 C 379.710938 165.394531 379.882812 165.523438 380.066406 165.488281 Z M 381.65625 156.519531 L 381.667969 156.527344 C 382.21875 156.816406 382.738281 157.070312 383.21875 157.371094 C 383.695312 157.675781 384.167969 157.972656 384.597656 158.320312 C 385.046875 158.640625 385.453125 159.019531 385.867188 159.394531 C 386.28125 159.78125 386.664062 160.203125 387.089844 160.644531 L 387.097656 160.65625 C 387.183594 160.75 387.3125 160.796875 387.445312 160.777344 C 387.667969 160.75 387.820312 160.550781 387.792969 160.324219 C 387.699219 159.640625 387.414062 159.007812 387.039062 158.433594 C 386.671875 157.851562 386.175781 157.363281 385.621094 156.949219 C 385.066406 156.546875 384.449219 156.214844 383.78125 156.039062 C 383.125 155.851562 382.4375 155.765625 381.761719 155.878906 C 381.664062 155.894531 381.570312 155.960938 381.515625 156.054688 C 381.429688 156.21875 381.488281 156.425781 381.65625 156.519531 Z M 386.9375 171.136719 C 385.941406 172.589844 384.84375 174.082031 384.054688 175.847656 C 383.300781 177.597656 382.878906 179.6875 383.546875 181.660156 C 384.191406 183.605469 386.027344 185.214844 388.101562 185.074219 C 388.246094 185.058594 388.375 184.953125 388.402344 184.800781 C 388.429688 184.621094 388.308594 184.453125 388.128906 184.425781 L 388.113281 184.417969 C 386.488281 184.160156 385.28125 182.726562 384.933594 181.257812 C 384.589844 179.722656 384.933594 178.050781 385.621094 176.535156 C 386.296875 174.992188 387.324219 173.535156 388.226562 171.929688 C 389.125 170.339844 389.960938 168.550781 390.011719 166.617188 C 390.019531 166.445312 389.890625 166.269531 389.710938 166.230469 C 389.503906 166.175781 389.296875 166.308594 389.242188 166.515625 C 388.808594 168.1875 387.925781 169.679688 386.9375 171.136719 Z M 389.851562 192.378906 C 389.730469 192.511719 389.738281 192.726562 389.871094 192.851562 C 390.761719 193.671875 392.03125 194.046875 393.25 194.054688 C 394.480469 194.074219 395.683594 193.734375 396.765625 193.171875 C 397.820312 192.597656 398.75 191.84375 399.519531 190.988281 C 400.296875 190.144531 400.96875 189.242188 401.546875 188.289062 C 401.625 188.148438 401.617188 187.972656 401.511719 187.839844 C 401.378906 187.667969 401.136719 187.640625 400.964844 187.773438 C 400.175781 188.394531 399.453125 189.0625 398.722656 189.675781 C 398.644531 189.75 398.558594 189.824219 398.476562 189.890625 C 397.863281 190.394531 397.246094 190.847656 396.613281 191.246094 C 396.390625 191.386719 396.175781 191.546875 395.957031 191.667969 C 394.230469 192.597656 392.164062 193.039062 390.226562 192.296875 L 390.214844 192.289062 C 390.09375 192.25 389.953125 192.277344 389.851562 192.378906 Z M 398.84375 155.042969 C 398.859375 155.226562 399.019531 155.359375 399.207031 155.34375 C 400.382812 155.25 401.527344 155.277344 402.636719 155.464844 C 403.746094 155.671875 404.816406 155.988281 405.796875 156.480469 C 406.792969 156.960938 407.703125 157.609375 408.539062 158.351562 C 409.367188 159.105469 410.082031 159.996094 410.738281 160.972656 C 410.824219 161.105469 411 161.179688 411.167969 161.132812 C 411.375 161.078125 411.5 160.863281 411.445312 160.65625 C 411.125 159.421875 410.472656 158.285156 409.628906 157.304688 C 408.792969 156.3125 407.722656 155.519531 406.546875 154.945312 C 405.355469 154.390625 404.074219 154.0625 402.777344 154.027344 C 401.484375 153.988281 400.195312 154.195312 399.039062 154.710938 C 398.910156 154.769531 398.832031 154.902344 398.84375 155.042969 Z M 408.222656 165.75 C 408.222656 164.585938 407.28125 163.636719 406.113281 163.636719 C 404.949219 163.636719 404 164.585938 404 165.75 C 404 166.910156 404.949219 167.859375 406.113281 167.859375 C 407.28125 167.859375 408.222656 166.910156 408.222656 165.75 Z M 379.878906 195.464844 C 374.738281 180.347656 379.261719 151.855469 379.75 141.03125 C 379.851562 138.714844 380.277344 136.414062 380.988281 134.214844 C 382.304688 133.066406 383.9375 132.25 385.585938 131.949219 C 383.582031 136.941406 385.492188 142.761719 388.742188 147.050781 C 389.726562 148.347656 390.882812 149.597656 392.386719 150.226562 C 393.890625 150.855469 395.816406 150.707031 396.917969 149.503906 C 396.945312 149.476562 396.960938 149.445312 396.984375 149.410156 C 397.5 148.789062 397.6875 147.921875 397.546875 147.132812 C 398.984375 148.796875 400.824219 150.113281 402.875 150.910156 C 403.890625 151.296875 405.035156 151.5625 406.070312 151.203125 C 407.300781 150.773438 408.097656 149.511719 408.34375 148.230469 C 408.585938 146.945312 408.378906 145.621094 408.171875 144.328125 C 410.53125 148.601562 413.96875 152.285156 418.078125 154.917969 C 419.371094 155.746094 420.792969 156.488281 422.324219 156.488281 C 423.574219 156.480469 424.863281 155.820312 425.441406 154.757812 C 425.324219 156.910156 425.285156 159.066406 425.3125 161.21875 C 426.503906 159.480469 427.800781 157.757812 429.664062 156.796875 C 431.703125 155.746094 434.605469 155.992188 435.816406 157.945312 C 436.746094 159.449219 436.398438 161.386719 435.902344 163.082031 C 435.046875 166.023438 433.777344 168.9375 431.617188 171.109375 C 430.167969 172.570312 428.242188 173.632812 426.230469 173.980469 C 427.0625 180.269531 428.476562 186.476562 430.453125 192.503906 C 432.359375 198.332031 434.898438 204.144531 439.277344 208.433594 C 439.601562 208.742188 439.953125 209.042969 440.320312 209.308594 C 440.703125 212.304688 441.078125 215.054688 441.371094 217.140625 C 441.699219 219.488281 441.925781 220.96875 441.925781 220.96875 L 434.191406 224.566406 L 414.949219 233.484375 C 410.804688 235.410156 406.183594 232.027344 406.746094 227.492188 C 406.753906 227.453125 406.753906 227.40625 406.761719 227.359375 C 407.035156 225.097656 407.179688 222.632812 407.074219 220.109375 C 406.96875 217.601562 406.621094 215.042969 405.890625 212.558594 C 405.644531 211.703125 405.257812 211.074219 404.773438 210.59375 C 405.214844 210.59375 405.664062 210.597656 406.105469 210.578125 C 408.539062 210.457031 410.933594 209.878906 413.210938 209.027344 C 415.457031 208.101562 417.597656 206.878906 419.464844 205.308594 C 421.320312 203.738281 422.925781 201.867188 424.070312 199.746094 C 424.15625 199.582031 424.117188 199.375 423.96875 199.253906 C 423.796875 199.121094 423.554688 199.152344 423.421875 199.320312 C 421.988281 201.144531 420.351562 202.761719 418.519531 204.125 C 416.695312 205.480469 414.703125 206.625 412.578125 207.4375 C 410.484375 208.320312 408.246094 208.855469 405.984375 209.136719 C 404.632812 209.304688 403.277344 209.34375 401.90625 209.28125 C 396.550781 208.335938 387.371094 210.964844 381.101562 198.417969 C 380.640625 197.507812 380.238281 196.519531 379.878906 195.464844 Z M 302.511719 146.199219 C 300.230469 145.394531 297.867188 144.894531 295.484375 144.753906 C 294.300781 144.679688 293.113281 144.679688 291.929688 144.765625 C 291.828125 144.773438 291.726562 144.789062 291.628906 144.792969 C 290.539062 144.882812 289.460938 145.035156 288.390625 145.273438 C 286.050781 145.714844 283.800781 146.550781 281.671875 147.632812 C 279.679688 148.648438 277.828125 149.953125 276.136719 151.476562 L 272.011719 248.808594 L 312.78125 248.808594 C 318.804688 248.808594 323.9375 253.183594 324.886719 259.132812 L 326.1875 267.277344 L 333.652344 267.183594 L 316.4375 229.949219 L 302.660156 146.199219 C 302.605469 146.199219 302.558594 146.210938 302.511719 146.199219 Z M 352.273438 226.0625 L 324.027344 229.128906 Z M 352.273438 226.0625 " fill-opacity="1" fill-rule="nonzero"/><path fill="#14ae5c" d="M 226.015625 425.320312 C 230.074219 425.320312 233.375 428.621094 233.375 432.679688 C 233.375 436.734375 230.074219 440.027344 226.015625 440.027344 C 221.957031 440.027344 218.65625 436.734375 218.65625 432.679688 C 218.65625 428.621094 221.957031 425.320312 226.015625 425.320312 Z M 226.015625 441.738281 C 231.015625 441.738281 235.089844 437.675781 235.089844 432.679688 C 235.089844 427.679688 231.015625 423.609375 226.015625 423.609375 C 221.015625 423.609375 216.941406 427.679688 216.941406 432.679688 C 216.941406 437.675781 221.015625 441.738281 226.015625 441.738281 Z M 247.296875 654.390625 L 212.910156 654.390625 C 212.007812 653.828125 211.148438 653.253906 210.265625 652.679688 L 247.296875 652.679688 Z M 254.824219 652.679688 L 277.648438 652.679688 L 277.648438 654.390625 L 254.824219 654.390625 Z M 211.46875 642.460938 L 277.648438 642.460938 L 277.648438 644.171875 L 211.46875 644.171875 Z M 228.355469 632.246094 L 277.648438 632.246094 L 277.648438 633.957031 L 228.355469 633.957031 Z M 247.976562 673.121094 L 277.648438 673.121094 L 277.648438 674.828125 L 251.769531 674.828125 C 250.484375 674.261719 249.234375 673.6875 247.976562 673.121094 Z M 242.503906 662.902344 L 277.648438 662.902344 L 277.648438 664.613281 L 242.503906 664.613281 Z M 227.453125 662.902344 L 232.921875 662.902344 L 232.921875 664.613281 L 230.609375 664.613281 C 229.546875 664.046875 228.503906 663.46875 227.453125 662.902344 Z M 195.554688 642.460938 L 203.941406 642.460938 L 203.941406 644.171875 L 197.875 644.171875 C 197.101562 643.597656 196.316406 643.03125 195.554688 642.460938 Z M 220.820312 633.957031 L 184.871094 633.957031 C 184.222656 633.40625 183.582031 632.851562 182.941406 632.304688 L 182.941406 632.246094 L 220.820312 632.246094 Z M 182.941406 583.257812 L 247.296875 583.257812 L 247.296875 584.96875 L 182.941406 584.96875 Z M 254.824219 583.257812 L 277.648438 583.257812 L 277.648438 584.96875 L 254.824219 584.96875 Z M 211.46875 573.042969 L 277.648438 573.042969 L 277.648438 574.753906 L 211.46875 574.753906 Z M 228.355469 562.816406 L 277.648438 562.816406 L 277.648438 564.527344 L 228.355469 564.527344 Z M 182.941406 603.691406 L 277.648438 603.691406 L 277.648438 605.402344 L 182.941406 605.402344 Z M 254.824219 615.625 L 182.941406 615.625 L 182.941406 613.917969 L 254.824219 613.917969 Z M 242.503906 593.476562 L 277.648438 593.476562 L 277.648438 595.1875 L 242.503906 595.1875 Z M 182.941406 593.476562 L 232.921875 593.476562 L 232.921875 595.1875 L 182.941406 595.1875 Z M 182.941406 573.042969 L 203.941406 573.042969 L 203.941406 574.753906 L 182.941406 574.753906 Z M 182.941406 562.816406 L 220.820312 562.816406 L 220.820312 564.527344 L 182.941406 564.527344 Z M 182.941406 542.382812 L 201.878906 542.382812 L 201.878906 544.09375 L 182.941406 544.09375 Z M 220.820312 533.878906 L 182.941406 533.878906 L 182.941406 532.167969 L 220.820312 532.167969 Z M 170.679688 517.507812 L 291.054688 517.507812 L 291.054688 689.34375 C 290.476562 689.167969 289.917969 688.984375 289.339844 688.800781 L 289.339844 519.21875 L 172.390625 519.21875 L 172.390625 622.628906 C 171.808594 622.0625 171.246094 621.488281 170.679688 620.914062 Z M 172.390625 471.480469 L 202.644531 457.289062 L 249.054688 501.945312 L 172.390625 501.945312 Z M 172.390625 409.550781 L 289.339844 409.550781 L 289.339844 477.011719 L 256.335938 453.039062 L 255.933594 452.738281 L 218.359375 470.042969 L 202.976562 455.242188 L 172.390625 469.589844 Z M 289.339844 501.945312 L 251.519531 501.945312 L 219.683594 471.320312 L 255.734375 454.714844 L 289.339844 479.125 Z M 170.679688 503.65625 L 291.054688 503.65625 L 291.054688 407.839844 L 170.679688 407.839844 Z M 594.089844 150.527344 C 594.089844 154.582031 590.789062 157.882812 586.730469 157.882812 C 582.671875 157.882812 579.375 154.582031 579.375 150.527344 C 579.375 146.476562 582.671875 143.175781 586.730469 143.175781 C 590.789062 143.175781 594.089844 146.476562 594.089844 150.527344 Z M 577.664062 150.527344 C 577.664062 155.53125 581.730469 159.59375 586.730469 159.59375 C 591.738281 159.59375 595.800781 155.53125 595.800781 150.527344 C 595.800781 145.527344 591.738281 141.464844 586.730469 141.464844 C 581.730469 141.464844 577.664062 145.527344 577.664062 150.527344 Z M 608.015625 372.246094 L 543.660156 372.246094 L 543.660156 370.535156 L 608.015625 370.535156 Z M 615.542969 370.535156 L 638.363281 370.535156 L 638.363281 372.246094 L 615.542969 372.246094 Z M 572.179688 360.316406 L 638.363281 360.316406 L 638.363281 362.027344 L 572.179688 362.027344 Z M 589.070312 350.09375 L 638.363281 350.09375 L 638.363281 351.804688 L 589.070312 351.804688 Z M 543.660156 390.976562 L 638.363281 390.976562 L 638.363281 392.6875 L 543.660156 392.6875 Z M 543.660156 401.191406 L 615.542969 401.191406 L 615.542969 402.902344 L 543.660156 402.902344 Z M 603.222656 380.757812 L 638.363281 380.757812 L 638.363281 382.46875 L 603.222656 382.46875 Z M 593.636719 382.46875 L 543.660156 382.46875 L 543.660156 380.757812 L 593.636719 380.757812 Z M 564.652344 362.027344 L 543.660156 362.027344 L 543.660156 360.316406 L 564.652344 360.316406 Z M 581.542969 351.804688 L 543.660156 351.804688 L 543.660156 350.09375 L 581.542969 350.09375 Z M 608.015625 302.824219 L 543.660156 302.824219 L 543.660156 301.113281 L 608.015625 301.113281 Z M 615.542969 301.113281 L 638.363281 301.113281 L 638.363281 302.824219 L 615.542969 302.824219 Z M 572.179688 290.898438 L 638.363281 290.898438 L 638.363281 292.609375 L 572.179688 292.609375 Z M 589.070312 280.675781 L 638.363281 280.675781 L 638.363281 282.386719 L 589.070312 282.386719 Z M 543.660156 321.554688 L 638.363281 321.554688 L 638.363281 323.265625 L 543.660156 323.265625 Z M 615.542969 333.484375 L 543.660156 333.484375 L 543.660156 331.773438 L 615.542969 331.773438 Z M 603.222656 311.332031 L 638.363281 311.332031 L 638.363281 313.042969 L 603.222656 313.042969 Z M 593.636719 313.042969 L 543.660156 313.042969 L 543.660156 311.332031 L 593.636719 311.332031 Z M 564.652344 292.609375 L 543.660156 292.609375 L 543.660156 290.898438 L 564.652344 290.898438 Z M 581.542969 282.386719 L 543.660156 282.386719 L 543.660156 280.675781 L 581.542969 280.675781 Z M 562.601562 261.949219 L 543.660156 261.949219 L 543.660156 260.242188 L 562.601562 260.242188 Z M 581.542969 251.726562 L 543.660156 251.726562 L 543.660156 250.015625 L 581.542969 250.015625 Z M 533.105469 237.074219 L 650.054688 237.074219 L 650.054688 422.828125 L 533.105469 422.828125 Z M 531.394531 424.539062 L 651.765625 424.539062 L 651.765625 235.363281 L 531.394531 235.363281 Z M 650.054688 219.800781 L 612.242188 219.800781 L 580.40625 189.175781 L 616.453125 172.570312 L 650.054688 196.980469 Z M 533.105469 219.800781 L 533.105469 189.335938 L 563.355469 175.144531 L 609.769531 219.800781 Z M 650.054688 132.953125 L 650.054688 194.871094 L 616.648438 170.601562 L 579.082031 187.898438 L 563.699219 173.097656 L 533.105469 187.445312 L 533.105469 127.40625 L 643.992188 127.40625 C 643.351562 126.832031 642.6875 126.265625 642.03125 125.695312 L 531.394531 125.695312 L 531.394531 221.511719 L 651.765625 221.511719 L 651.765625 134.582031 C 651.207031 134.042969 650.628906 133.496094 650.054688 132.953125 Z M 120.015625 106.453125 L 222.59375 106.453125 L 222.59375 211.035156 L 120.015625 211.035156 Z M 255.273438 310.582031 C 242.609375 306.933594 236.492188 291.144531 244.195312 291.144531 C 250.632812 291.144531 252.984375 294.992188 252.984375 294.992188 C 252.984375 294.992188 255.386719 291.144531 260.273438 291.144531 C 267.980469 291.144531 266.796875 306.933594 255.273438 310.582031 Z M 514.566406 792.78125 C 514.183594 794.667969 513.054688 794.875 512.042969 793.234375 C 511.035156 791.605469 510.519531 788.753906 510.902344 786.863281 C 511.28125 784.984375 512.414062 784.777344 513.429688 786.414062 C 514.4375 788.042969 514.953125 790.898438 514.566406 792.78125 Z M 345.027344 791.773438 C 344.820312 794.296875 342.605469 796.34375 340.078125 796.34375 C 337.550781 796.34375 335.671875 794.296875 335.878906 791.773438 C 336.085938 789.246094 338.300781 787.203125 340.828125 787.203125 C 343.355469 787.203125 345.238281 789.246094 345.027344 791.773438 Z M 444.960938 224.484375 C 441.804688 226.253906 438.597656 227.917969 435.386719 229.578125 C 433.203125 230.707031 430.996094 231.800781 428.789062 232.898438 C 427.757812 233.40625 426.730469 233.914062 425.699219 234.433594 C 422.457031 235.957031 419.101562 237.6875 415.335938 238.191406 C 413.460938 238.4375 411.535156 238.351562 409.707031 237.828125 C 407.898438 237.289062 406.164062 236.3125 404.96875 234.84375 C 404.855469 234.695312 404.875 234.496094 405.015625 234.378906 C 405.148438 234.273438 405.335938 234.289062 405.449219 234.402344 C 407.996094 236.820312 411.773438 237.375 415.117188 236.765625 C 418.535156 236.144531 421.722656 234.527344 424.945312 232.898438 C 426.808594 232.007812 428.667969 231.105469 430.527344 230.210938 C 431.925781 229.542969 433.320312 228.875 434.726562 228.21875 C 438.003906 226.695312 441.285156 225.191406 444.621094 223.78125 C 444.816406 223.703125 445.042969 223.796875 445.128906 223.988281 C 445.203125 224.175781 445.128906 224.382812 444.960938 224.484375 Z M 441.371094 217.140625 C 441.699219 219.488281 441.925781 220.96875 441.925781 220.96875 L 434.191406 224.566406 L 414.949219 233.484375 C 410.804688 235.410156 406.183594 232.027344 406.746094 227.492188 C 406.753906 227.453125 406.753906 227.40625 406.761719 227.359375 C 407.035156 225.097656 407.179688 222.632812 407.074219 220.109375 L 352.273438 226.0625 L 324.027344 229.128906 C 325.503906 232.554688 326.921875 236.011719 328.3125 239.472656 C 329.835938 243.261719 331.273438 247.082031 332.765625 250.878906 L 336.996094 262.378906 C 337.566406 263.957031 338.121094 265.539062 338.675781 267.121094 C 339.464844 269.394531 340.246094 271.671875 340.980469 273.964844 C 341.046875 274.171875 340.933594 274.386719 340.726562 274.453125 C 340.539062 274.511719 340.332031 274.417969 340.257812 274.238281 C 339.230469 271.886719 338.253906 269.515625 337.285156 267.136719 C 336.714844 265.726562 336.148438 264.324219 335.578125 262.914062 L 331.160156 251.488281 C 329.761719 247.652344 328.320312 243.828125 326.953125 239.980469 C 325.691406 236.40625 324.449219 232.824219 323.277344 229.207031 L 316.4375 229.949219 L 333.652344 267.183594 L 336.976562 274.378906 L 374.109375 281.28125 C 374.554688 278.242188 375.203125 275.226562 376.011719 272.253906 C 376.988281 268.644531 378.257812 265.125 379.683594 261.671875 C 381.167969 258.242188 382.820312 254.882812 384.71875 251.660156 C 386.625 248.445312 388.722656 245.351562 391.074219 242.460938 C 391.210938 242.292969 391.449219 242.273438 391.617188 242.398438 C 391.769531 242.53125 391.804688 242.753906 391.699219 242.914062 C 389.691406 246.019531 387.78125 249.167969 386.035156 252.410156 C 384.289062 255.644531 382.660156 258.9375 381.253906 262.339844 C 380.058594 265.050781 379.042969 267.839844 378.09375 270.652344 C 377.863281 271.320312 377.617188 271.988281 377.402344 272.664062 C 376.527344 275.375 375.785156 278.128906 375.089844 280.902344 C 375.050781 281.082031 374.996094 281.261719 374.957031 281.4375 L 375.015625 281.449219 C 373.292969 295.941406 376.007812 319.128906 379.230469 339.007812 L 403.613281 339.007812 C 403.613281 340.066406 403.484375 341.085938 403.257812 342.074219 C 411.515625 340.464844 417.335938 339.007812 418.132812 337.992188 C 421.273438 333.949219 428.375 326.066406 428.375 326.066406 L 428.929688 326.347656 C 428.910156 326.273438 428.917969 326.1875 428.964844 326.113281 C 429.050781 325.964844 429.242188 325.910156 429.398438 325.992188 C 434.707031 328.886719 440.113281 331.589844 445.476562 334.390625 C 450.589844 337.03125 455.707031 339.703125 460.726562 342.535156 C 464.871094 333.851562 468.542969 324.941406 471.605469 315.816406 C 473.175781 311.125 474.652344 306.394531 475.9375 301.601562 C 477.226562 296.816406 478.4375 292.007812 479.433594 287.148438 C 479.480469 286.933594 479.679688 286.800781 479.894531 286.847656 C 480.101562 286.886719 480.234375 287.082031 480.195312 287.289062 C 479.367188 292.199219 478.410156 297.097656 477.214844 301.9375 C 476.007812 306.773438 474.679688 311.585938 473.121094 316.316406 C 470.019531 325.796875 466.273438 335.078125 461.816406 344.011719 L 461.433594 344.773438 L 460.699219 344.355469 C 460.296875 344.128906 459.898438 343.90625 459.496094 343.679688 C 456.386719 348.671875 443.867188 367.726562 433.910156 367.726562 C 428.609375 367.726562 406.621094 367.726562 384.53125 367.726562 C 385.695312 373.375 386.476562 376.808594 386.476562 376.808594 L 412.027344 376.808594 C 412.027344 376.730469 412.023438 376.65625 412.023438 376.582031 C 412.023438 376.386719 412.175781 376.242188 412.363281 376.246094 C 412.488281 376.246094 412.597656 376.320312 412.65625 376.421875 C 412.722656 376.546875 412.769531 376.683594 412.824219 376.808594 L 444.027344 376.808594 C 444.085938 376.683594 444.191406 376.582031 444.339844 376.59375 C 444.46875 376.609375 444.574219 376.6875 444.621094 376.796875 C 444.621094 376.800781 444.628906 376.800781 444.628906 376.808594 L 458.207031 376.808594 C 458.207031 376.808594 494.128906 305.011719 487.84375 265.519531 C 482.382812 231.207031 449.828125 219.601562 441.371094 217.140625 " fill-opacity="1" fill-rule="nonzero"/><path fill="#e04285" d="M 130.070312 119.609375 L 212.539062 119.609375 L 212.539062 183.496094 L 130.070312 183.496094 Z M 547.992188 622.335938 L 666.664062 622.335938 L 666.664062 726.917969 L 547.992188 726.917969 Z M 666.664062 502.625 L 666.664062 607.207031 L 547.992188 607.207031 L 547.992188 502.625 Z M 413.53125 378.746094 C 413.351562 378.085938 413.125 377.4375 412.824219 376.808594 L 444.027344 376.808594 C 444.011719 376.84375 443.980469 376.863281 443.980469 376.902344 C 443.90625 377.765625 443.9375 378.601562 443.984375 379.441406 C 444.027344 380.285156 444.144531 381.113281 444.257812 381.941406 C 444.394531 382.769531 444.539062 383.589844 444.753906 384.40625 C 444.894531 384.953125 445.0625 385.503906 445.242188 386.050781 C 444.5 386.039062 443.757812 386.015625 443.023438 386.003906 L 428.453125 385.910156 L 413.886719 386.042969 C 413.78125 386.042969 413.671875 386.042969 413.558594 386.050781 C 413.808594 385.269531 413.921875 384.46875 413.988281 383.660156 C 414.066406 382.835938 414.035156 382.007812 413.972656 381.1875 C 413.878906 380.363281 413.765625 379.550781 413.53125 378.746094 Z M 456.328125 610.695312 C 456.167969 610.800781 455.953125 610.769531 455.824219 610.628906 C 454.015625 608.558594 452.410156 606.320312 450.9375 603.980469 C 449.472656 601.648438 448.210938 599.195312 447.046875 596.695312 C 445.957031 594.164062 444.953125 591.589844 444.191406 588.945312 C 443.425781 586.300781 442.816406 583.613281 442.46875 580.886719 C 442.449219 580.707031 442.574219 580.546875 442.753906 580.519531 C 442.914062 580.5 443.070312 580.597656 443.109375 580.753906 C 443.867188 583.371094 444.652344 585.957031 445.570312 588.496094 C 446.484375 591.035156 447.457031 593.554688 448.605469 595.996094 C 449.6875 598.460938 450.9375 600.851562 452.242188 603.210938 C 453.550781 605.578125 454.976562 607.875 456.449219 610.160156 C 456.5625 610.339844 456.507812 610.582031 456.328125 610.695312 Z M 442.195312 423.691406 C 442.167969 423.597656 442.179688 423.503906 442.21875 423.429688 C 442.460938 422.96875 442.769531 422.589844 443.082031 422.21875 C 443.390625 421.847656 443.75 421.53125 444.113281 421.21875 C 444.488281 420.925781 444.863281 420.628906 445.28125 420.394531 C 445.703125 420.15625 446.132812 419.929688 446.625 419.78125 C 446.855469 419.722656 447.085938 419.847656 447.148438 420.074219 C 447.179688 420.183594 447.160156 420.296875 447.113281 420.382812 C 446.875 420.84375 446.558594 421.210938 446.238281 421.574219 C 445.925781 421.941406 445.558594 422.246094 445.1875 422.546875 C 444.808594 422.835938 444.425781 423.121094 443.992188 423.34375 C 443.570312 423.578125 443.136719 423.796875 442.636719 423.9375 C 442.449219 423.992188 442.246094 423.878906 442.195312 423.691406 Z M 486.550781 565.289062 C 489.394531 536.570312 507.15625 493.710938 495.390625 456.800781 C 483.617188 419.886719 458.207031 376.808594 458.207031 376.808594 L 444.628906 376.808594 C 444.960938 377.597656 445.195312 378.40625 445.417969 379.214844 C 445.644531 380.023438 445.796875 380.84375 445.945312 381.667969 C 446.078125 382.496094 446.199219 383.324219 446.253906 384.160156 C 446.296875 384.792969 446.3125 385.429688 446.296875 386.070312 C 450.0625 386.136719 453.828125 386.21875 457.585938 386.371094 C 457.796875 386.382812 457.964844 386.566406 457.957031 386.777344 C 457.945312 386.980469 457.785156 387.140625 457.585938 387.152344 C 452.730469 387.355469 447.875 387.441406 443.023438 387.519531 L 428.453125 387.613281 L 424.652344 387.582031 C 425.582031 390.441406 426.625 393.246094 427.851562 395.972656 C 429.117188 398.765625 430.507812 401.507812 432.132812 404.105469 C 433.691406 406.738281 435.46875 409.242188 437.375 411.648438 C 439.171875 413.941406 441.132812 416.105469 443.175781 418.203125 C 443.355469 418.050781 443.53125 417.882812 443.710938 417.722656 C 444.554688 417.023438 445.429688 416.339844 446.359375 415.753906 C 447.289062 415.152344 448.238281 414.597656 449.261719 414.160156 C 449.460938 414.074219 449.6875 414.167969 449.773438 414.371094 C 449.84375 414.523438 449.800781 414.695312 449.6875 414.804688 C 448.898438 415.570312 448.078125 416.261719 447.261719 416.960938 L 444.808594 419.035156 L 442.328125 421.070312 C 441.484375 421.746094 440.664062 422.429688 439.765625 423.070312 C 439.613281 423.175781 439.40625 423.144531 439.304688 422.996094 C 439.21875 422.882812 439.21875 422.734375 439.292969 422.621094 C 439.886719 421.6875 440.597656 420.835938 441.332031 420.023438 C 441.726562 419.582031 442.132812 419.171875 442.554688 418.773438 C 440.253906 416.929688 438.140625 414.84375 436.203125 412.613281 C 434.144531 410.238281 432.324219 407.660156 430.667969 404.988281 C 429.082031 402.269531 427.644531 399.460938 426.515625 396.527344 C 425.394531 393.621094 424.503906 390.628906 423.949219 387.574219 L 413.886719 387.488281 C 409.035156 387.398438 404.179688 387.300781 399.320312 387.085938 C 399.144531 387.078125 399.003906 386.925781 399.011719 386.746094 C 399.019531 386.578125 399.152344 386.445312 399.320312 386.4375 C 403.804688 386.238281 408.292969 386.144531 412.777344 386.0625 C 412.777344 386.058594 412.777344 386.058594 412.777344 386.058594 C 412.628906 385.25 412.5625 384.460938 412.476562 383.671875 L 412.269531 381.332031 L 412.109375 378.980469 C 412.070312 378.265625 412.023438 377.550781 412.027344 376.808594 L 386.476562 376.808594 L 428.5 537.546875 L 490.992188 776.585938 C 492.808594 776.410156 494.636719 776.3125 496.453125 776.238281 C 498.480469 776.136719 500.503906 776.117188 502.53125 776.101562 C 504.5625 776.101562 506.589844 776.117188 508.613281 776.203125 C 510.640625 776.277344 512.667969 776.363281 514.691406 776.570312 C 514.90625 776.589844 515.066406 776.785156 515.046875 777 C 515.027344 777.179688 514.871094 777.328125 514.691406 777.347656 C 512.667969 777.546875 510.640625 777.640625 508.613281 777.714844 C 506.589844 777.800781 504.5625 777.808594 502.53125 777.8125 C 500.503906 777.792969 498.480469 777.773438 496.453125 777.679688 C 494.703125 777.605469 492.945312 777.507812 491.191406 777.351562 L 492.300781 781.589844 L 514.773438 781.589844 C 514.773438 781.589844 523.769531 718.992188 509.585938 667.832031 C 495.398438 616.667969 483.703125 594.011719 486.550781 565.289062 " fill-opacity="1" fill-rule="nonzero"/><g clip-path="url(#68e43b582e)"><path fill="#000000" d="M 592.417969 692.144531 C 590.746094 690.5 587.679688 689.398438 584.15625 689.398438 C 578.855469 689.398438 574.554688 691.890625 574.554688 694.964844 C 574.554688 698.042969 578.855469 700.535156 584.15625 700.535156 C 589.402344 700.535156 593.65625 698.089844 593.742188 695.054688 L 593.808594 695.0625 L 597.839844 659.636719 L 636.75 654.71875 L 633.066406 687.011719 C 631.402344 685.367188 628.328125 684.257812 624.804688 684.257812 C 619.507812 684.257812 615.210938 686.75 615.210938 689.832031 C 615.210938 692.90625 619.507812 695.398438 624.804688 695.398438 C 630.050781 695.398438 634.304688 692.953125 634.390625 689.917969 L 634.457031 689.925781 L 638.695312 652.746094 L 596.296875 658.105469 Z M 134.582031 186.296875 L 215.34375 186.296875 L 215.34375 124.125 L 134.582031 124.125 Z M 132.871094 122.414062 L 217.058594 122.414062 L 217.058594 188.007812 L 132.871094 188.007812 Z M 666.664062 591.410156 L 666.664062 593.121094 L 580.3125 593.121094 C 579.917969 595.105469 578.164062 596.601562 576.066406 596.601562 C 573.960938 596.601562 572.214844 595.105469 571.8125 593.121094 L 547.992188 593.121094 L 547.992188 591.410156 L 571.8125 591.410156 C 572.214844 589.433594 573.960938 587.9375 576.066406 587.9375 C 578.164062 587.9375 579.917969 589.433594 580.3125 591.410156 Z M 406.113281 163.636719 C 407.28125 163.636719 408.222656 164.585938 408.222656 165.75 C 408.222656 166.910156 407.28125 167.859375 406.113281 167.859375 C 404.949219 167.859375 404 166.910156 404 165.75 C 404 164.585938 404.949219 163.636719 406.113281 163.636719 Z M 275.335938 151.757812 C 275.226562 151.636719 275.222656 151.457031 275.316406 151.335938 C 275.589844 150.976562 275.890625 150.640625 276.191406 150.308594 C 277.5625 148.761719 279.1875 147.441406 280.972656 146.371094 C 281.941406 145.78125 282.964844 145.296875 284.011719 144.875 C 285.316406 144.347656 286.667969 143.917969 288.042969 143.597656 C 290.53125 143.105469 293.105469 142.941406 295.625 143.242188 C 296.535156 143.359375 297.4375 143.542969 298.328125 143.765625 C 299.785156 144.132812 301.195312 144.648438 302.519531 145.335938 C 302.617188 145.390625 302.734375 145.4375 302.832031 145.488281 C 303.019531 145.589844 303.085938 145.828125 302.988281 146.015625 C 302.914062 146.136719 302.785156 146.191406 302.660156 146.199219 C 302.605469 146.199219 302.558594 146.210938 302.511719 146.199219 C 300.230469 145.394531 297.867188 144.894531 295.484375 144.753906 C 294.300781 144.679688 293.113281 144.679688 291.929688 144.765625 C 291.828125 144.773438 291.726562 144.789062 291.628906 144.792969 C 290.539062 144.882812 289.460938 145.035156 288.390625 145.273438 C 286.050781 145.714844 283.800781 146.550781 281.671875 147.632812 C 279.679688 148.648438 277.828125 149.953125 276.136719 151.476562 C 276.023438 151.578125 275.910156 151.671875 275.796875 151.769531 C 275.667969 151.898438 275.460938 151.890625 275.335938 151.757812 Z M 490.082031 776.925781 C 490.097656 776.765625 490.222656 776.644531 490.375 776.632812 C 490.585938 776.609375 490.785156 776.597656 490.992188 776.585938 C 492.808594 776.410156 494.636719 776.3125 496.453125 776.238281 C 498.480469 776.136719 500.503906 776.117188 502.53125 776.101562 C 504.5625 776.101562 506.589844 776.117188 508.613281 776.203125 C 510.640625 776.277344 512.667969 776.363281 514.691406 776.570312 C 514.90625 776.589844 515.066406 776.785156 515.046875 777 C 515.027344 777.179688 514.871094 777.328125 514.691406 777.347656 C 512.667969 777.546875 510.640625 777.640625 508.613281 777.714844 C 506.589844 777.800781 504.5625 777.808594 502.53125 777.8125 C 500.503906 777.792969 498.480469 777.773438 496.453125 777.679688 C 494.703125 777.605469 492.945312 777.507812 491.191406 777.351562 C 490.917969 777.328125 490.652344 777.3125 490.375 777.285156 C 490.195312 777.265625 490.0625 777.105469 490.082031 776.925781 Z M 456.449219 610.160156 C 456.5625 610.339844 456.507812 610.582031 456.328125 610.695312 C 456.167969 610.800781 455.953125 610.769531 455.824219 610.628906 C 454.015625 608.558594 452.410156 606.320312 450.9375 603.980469 C 449.472656 601.648438 448.210938 599.195312 447.046875 596.695312 C 445.957031 594.164062 444.953125 591.589844 444.191406 588.945312 C 443.425781 586.300781 442.816406 583.613281 442.46875 580.886719 C 442.449219 580.707031 442.574219 580.546875 442.753906 580.519531 C 442.914062 580.5 443.070312 580.597656 443.109375 580.753906 C 443.867188 583.371094 444.652344 585.957031 445.570312 588.496094 C 446.484375 591.035156 447.457031 593.554688 448.605469 595.996094 C 449.6875 598.460938 450.9375 600.851562 452.242188 603.210938 C 453.550781 605.578125 454.976562 607.875 456.449219 610.160156 Z M 442.636719 423.9375 C 442.449219 423.992188 442.246094 423.878906 442.195312 423.691406 C 442.167969 423.597656 442.179688 423.503906 442.21875 423.429688 C 442.460938 422.96875 442.769531 422.589844 443.082031 422.21875 C 443.390625 421.847656 443.75 421.53125 444.113281 421.21875 C 444.488281 420.925781 444.863281 420.628906 445.28125 420.394531 C 445.703125 420.15625 446.132812 419.929688 446.625 419.78125 C 446.855469 419.722656 447.085938 419.847656 447.148438 420.074219 C 447.179688 420.183594 447.160156 420.296875 447.113281 420.382812 C 446.875 420.84375 446.558594 421.210938 446.238281 421.574219 C 445.925781 421.941406 445.558594 422.246094 445.1875 422.546875 C 444.808594 422.835938 444.425781 423.121094 443.992188 423.34375 C 443.570312 423.578125 443.136719 423.796875 442.636719 423.9375 Z M 457.957031 386.777344 C 457.945312 386.980469 457.785156 387.140625 457.585938 387.152344 C 452.730469 387.355469 447.875 387.441406 443.023438 387.519531 L 428.453125 387.613281 L 424.652344 387.582031 C 425.582031 390.441406 426.625 393.246094 427.851562 395.972656 C 429.117188 398.765625 430.507812 401.507812 432.132812 404.105469 C 433.691406 406.738281 435.46875 409.242188 437.375 411.648438 C 439.171875 413.941406 441.132812 416.105469 443.175781 418.203125 C 443.355469 418.050781 443.53125 417.882812 443.710938 417.722656 C 444.554688 417.023438 445.429688 416.339844 446.359375 415.753906 C 447.289062 415.152344 448.238281 414.597656 449.261719 414.160156 C 449.460938 414.074219 449.6875 414.167969 449.773438 414.371094 C 449.84375 414.523438 449.800781 414.695312 449.6875 414.804688 C 448.898438 415.570312 448.078125 416.261719 447.261719 416.960938 L 444.808594 419.035156 L 442.328125 421.070312 C 441.484375 421.746094 440.664062 422.429688 439.765625 423.070312 C 439.613281 423.175781 439.40625 423.144531 439.304688 422.996094 C 439.21875 422.882812 439.21875 422.734375 439.292969 422.621094 C 439.886719 421.6875 440.597656 420.835938 441.332031 420.023438 C 441.726562 419.582031 442.132812 419.171875 442.554688 418.773438 C 440.253906 416.929688 438.140625 414.84375 436.203125 412.613281 C 434.144531 410.238281 432.324219 407.660156 430.667969 404.988281 C 429.082031 402.269531 427.644531 399.460938 426.515625 396.527344 C 425.394531 393.621094 424.503906 390.628906 423.949219 387.574219 L 413.886719 387.488281 C 409.035156 387.398438 404.179688 387.300781 399.320312 387.085938 C 399.144531 387.078125 399.003906 386.925781 399.011719 386.746094 C 399.019531 386.578125 399.152344 386.445312 399.320312 386.4375 C 403.804688 386.238281 408.292969 386.144531 412.777344 386.0625 C 412.777344 386.058594 412.777344 386.058594 412.777344 386.058594 C 412.628906 385.25 412.5625 384.460938 412.476562 383.671875 L 412.269531 381.332031 L 412.109375 378.980469 C 412.070312 378.265625 412.023438 377.550781 412.027344 376.808594 C 412.027344 376.730469 412.023438 376.65625 412.023438 376.582031 C 412.023438 376.386719 412.175781 376.242188 412.363281 376.246094 C 412.488281 376.246094 412.597656 376.320312 412.65625 376.421875 C 412.722656 376.546875 412.769531 376.683594 412.824219 376.808594 C 413.125 377.4375 413.351562 378.085938 413.53125 378.746094 C 413.765625 379.550781 413.878906 380.363281 413.972656 381.1875 C 414.035156 382.007812 414.066406 382.835938 413.988281 383.660156 C 413.921875 384.46875 413.808594 385.269531 413.558594 386.050781 C 413.671875 386.042969 413.78125 386.042969 413.886719 386.042969 L 428.453125 385.910156 L 443.023438 386.003906 C 443.757812 386.015625 444.5 386.039062 445.242188 386.050781 C 445.0625 385.503906 444.894531 384.953125 444.753906 384.40625 C 444.539062 383.589844 444.394531 382.769531 444.257812 381.941406 C 444.144531 381.113281 444.027344 380.285156 443.984375 379.441406 C 443.9375 378.601562 443.90625 377.765625 443.980469 376.902344 C 443.980469 376.863281 444.011719 376.84375 444.027344 376.808594 C 444.085938 376.683594 444.191406 376.582031 444.339844 376.59375 C 444.46875 376.609375 444.574219 376.6875 444.621094 376.796875 C 444.621094 376.800781 444.628906 376.800781 444.628906 376.808594 C 444.960938 377.597656 445.195312 378.40625 445.417969 379.214844 C 445.644531 380.023438 445.796875 380.84375 445.945312 381.667969 C 446.078125 382.496094 446.199219 383.324219 446.253906 384.160156 C 446.296875 384.792969 446.3125 385.429688 446.296875 386.070312 C 450.0625 386.136719 453.828125 386.21875 457.585938 386.371094 C 457.796875 386.382812 457.964844 386.566406 457.957031 386.777344 Z M 480.195312 287.289062 C 479.367188 292.199219 478.410156 297.097656 477.214844 301.9375 C 476.007812 306.773438 474.679688 311.585938 473.121094 316.316406 C 470.019531 325.796875 466.273438 335.078125 461.816406 344.011719 L 461.433594 344.773438 L 460.699219 344.355469 C 460.296875 344.128906 459.898438 343.90625 459.496094 343.679688 C 454.648438 340.917969 449.753906 338.242188 444.863281 335.539062 C 439.546875 332.652344 434.277344 329.667969 429.078125 326.558594 C 428.988281 326.511719 428.941406 326.433594 428.929688 326.347656 C 428.910156 326.273438 428.917969 326.1875 428.964844 326.113281 C 429.050781 325.964844 429.242188 325.910156 429.398438 325.992188 C 434.707031 328.886719 440.113281 331.589844 445.476562 334.390625 C 450.589844 337.03125 455.707031 339.703125 460.726562 342.535156 C 464.871094 333.851562 468.542969 324.941406 471.605469 315.816406 C 473.175781 311.125 474.652344 306.394531 475.9375 301.601562 C 477.226562 296.816406 478.4375 292.007812 479.433594 287.148438 C 479.480469 286.933594 479.679688 286.800781 479.894531 286.847656 C 480.101562 286.886719 480.234375 287.082031 480.195312 287.289062 Z M 323.277344 229.207031 C 323.183594 228.929688 323.089844 228.660156 322.996094 228.378906 C 322.941406 228.207031 323.035156 228.027344 323.210938 227.972656 C 323.371094 227.917969 323.542969 228 323.613281 228.152344 C 323.753906 228.472656 323.886719 228.800781 324.027344 229.128906 C 325.503906 232.554688 326.921875 236.011719 328.3125 239.472656 C 329.835938 243.261719 331.273438 247.082031 332.765625 250.878906 L 336.996094 262.378906 C 337.566406 263.957031 338.121094 265.539062 338.675781 267.121094 C 339.464844 269.394531 340.246094 271.671875 340.980469 273.964844 C 341.046875 274.171875 340.933594 274.386719 340.726562 274.453125 C 340.539062 274.511719 340.332031 274.417969 340.257812 274.238281 C 339.230469 271.886719 338.253906 269.515625 337.285156 267.136719 C 336.714844 265.726562 336.148438 264.324219 335.578125 262.914062 L 331.160156 251.488281 C 329.761719 247.652344 328.320312 243.828125 326.953125 239.980469 C 325.691406 236.40625 324.449219 232.824219 323.277344 229.207031 Z M 404.96875 234.84375 C 404.855469 234.695312 404.875 234.496094 405.015625 234.378906 C 405.148438 234.273438 405.335938 234.289062 405.449219 234.402344 C 407.996094 236.820312 411.773438 237.375 415.117188 236.765625 C 418.535156 236.144531 421.722656 234.527344 424.945312 232.898438 C 426.808594 232.007812 428.667969 231.105469 430.527344 230.210938 C 431.925781 229.542969 433.320312 228.875 434.726562 228.21875 C 438.003906 226.695312 441.285156 225.191406 444.621094 223.78125 C 444.816406 223.703125 445.042969 223.796875 445.128906 223.988281 C 445.203125 224.175781 445.128906 224.382812 444.960938 224.484375 C 441.804688 226.253906 438.597656 227.917969 435.386719 229.578125 C 433.203125 230.707031 430.996094 231.800781 428.789062 232.898438 C 427.757812 233.40625 426.730469 233.914062 425.699219 234.433594 C 422.457031 235.957031 419.101562 237.6875 415.335938 238.191406 C 413.460938 238.4375 411.535156 238.351562 409.707031 237.828125 C 407.898438 237.289062 406.164062 236.3125 404.96875 234.84375 Z M 379.683594 261.671875 C 381.167969 258.242188 382.820312 254.882812 384.71875 251.660156 C 386.625 248.445312 388.722656 245.351562 391.074219 242.460938 C 391.210938 242.292969 391.449219 242.273438 391.617188 242.398438 C 391.769531 242.53125 391.804688 242.753906 391.699219 242.914062 C 389.691406 246.019531 387.78125 249.167969 386.035156 252.410156 C 384.289062 255.644531 382.660156 258.9375 381.253906 262.339844 C 380.058594 265.050781 379.042969 267.839844 378.09375 270.652344 C 377.863281 271.320312 377.617188 271.988281 377.402344 272.664062 C 376.527344 275.375 375.785156 278.128906 375.089844 280.902344 C 375.050781 281.082031 374.996094 281.261719 374.957031 281.4375 C 374.804688 282.070312 374.628906 282.699219 374.480469 283.332031 C 374.433594 283.507812 374.261719 283.613281 374.085938 283.574219 C 373.921875 283.535156 373.8125 283.378906 373.832031 283.21875 C 373.914062 282.570312 374.007812 281.921875 374.109375 281.28125 C 374.554688 278.242188 375.203125 275.226562 376.011719 272.253906 C 376.988281 268.644531 378.257812 265.125 379.683594 261.671875 Z M 398.746094 209.25 C 398.796875 209.101562 398.953125 209.007812 399.105469 209.035156 C 400.035156 209.167969 400.96875 209.242188 401.90625 209.28125 C 403.277344 209.34375 404.632812 209.304688 405.984375 209.136719 C 408.246094 208.855469 410.484375 208.320312 412.578125 207.4375 C 414.703125 206.625 416.695312 205.480469 418.519531 204.125 C 420.351562 202.761719 421.988281 201.144531 423.421875 199.320312 C 423.554688 199.152344 423.796875 199.121094 423.96875 199.253906 C 424.117188 199.375 424.15625 199.582031 424.070312 199.746094 C 422.925781 201.867188 421.320312 203.738281 419.464844 205.308594 C 417.597656 206.878906 415.457031 208.101562 413.210938 209.027344 C 410.933594 209.878906 408.539062 210.457031 406.105469 210.578125 C 405.664062 210.597656 405.214844 210.59375 404.773438 210.59375 C 402.789062 210.574219 400.816406 210.292969 398.953125 209.671875 C 398.777344 209.609375 398.683594 209.421875 398.746094 209.25 Z M 379.777344 164.914062 C 380.875 163.871094 382.566406 163.589844 384.042969 163.925781 C 384.777344 164.105469 385.5 164.414062 386.09375 164.902344 C 386.691406 165.375 387.199219 165.976562 387.453125 166.683594 C 387.527344 166.890625 387.417969 167.125 387.210938 167.199219 C 387.078125 167.246094 386.945312 167.21875 386.835938 167.144531 L 386.816406 167.132812 C 386.296875 166.75 385.808594 166.425781 385.273438 166.171875 C 384.746094 165.929688 384.210938 165.714844 383.640625 165.589844 C 383.085938 165.441406 382.511719 165.375 381.921875 165.339844 C 381.328125 165.320312 380.734375 165.382812 380.085938 165.488281 L 380.066406 165.488281 C 379.882812 165.523438 379.710938 165.394531 379.675781 165.207031 C 379.65625 165.09375 379.703125 164.980469 379.777344 164.914062 Z M 393.25 194.054688 C 392.03125 194.046875 390.761719 193.671875 389.871094 192.851562 C 389.738281 192.726562 389.730469 192.511719 389.851562 192.378906 C 389.953125 192.277344 390.09375 192.25 390.214844 192.289062 L 390.226562 192.296875 C 392.164062 193.039062 394.230469 192.597656 395.957031 191.667969 C 396.175781 191.546875 396.390625 191.386719 396.613281 191.246094 C 397.246094 190.847656 397.863281 190.394531 398.476562 189.890625 C 398.558594 189.824219 398.644531 189.75 398.722656 189.675781 C 399.453125 189.0625 400.175781 188.394531 400.964844 187.773438 C 401.136719 187.640625 401.378906 187.667969 401.511719 187.839844 C 401.617188 187.972656 401.625 188.148438 401.546875 188.289062 C 400.96875 189.242188 400.296875 190.144531 399.519531 190.988281 C 398.75 191.84375 397.820312 192.597656 396.765625 193.171875 C 395.683594 193.734375 394.480469 194.074219 393.25 194.054688 Z M 387.039062 158.433594 C 387.414062 159.007812 387.699219 159.640625 387.792969 160.324219 C 387.820312 160.550781 387.667969 160.75 387.445312 160.777344 C 387.3125 160.796875 387.183594 160.75 387.097656 160.65625 L 387.089844 160.644531 C 386.664062 160.203125 386.28125 159.78125 385.867188 159.394531 C 385.453125 159.019531 385.046875 158.640625 384.597656 158.320312 C 384.167969 157.972656 383.695312 157.675781 383.21875 157.371094 C 382.738281 157.070312 382.21875 156.816406 381.667969 156.527344 L 381.65625 156.519531 C 381.488281 156.425781 381.429688 156.21875 381.515625 156.054688 C 381.570312 155.960938 381.664062 155.894531 381.761719 155.878906 C 382.4375 155.765625 383.125 155.851562 383.78125 156.039062 C 384.449219 156.214844 385.066406 156.546875 385.621094 156.949219 C 386.175781 157.363281 386.671875 157.851562 387.039062 158.433594 Z M 408.539062 158.351562 C 407.703125 157.609375 406.792969 156.960938 405.796875 156.480469 C 404.816406 155.988281 403.746094 155.671875 402.636719 155.464844 C 401.527344 155.277344 400.382812 155.25 399.207031 155.34375 C 399.019531 155.359375 398.859375 155.226562 398.84375 155.042969 C 398.832031 154.902344 398.910156 154.769531 399.039062 154.710938 C 400.195312 154.195312 401.484375 153.988281 402.777344 154.027344 C 404.074219 154.0625 405.355469 154.390625 406.546875 154.945312 C 407.722656 155.519531 408.792969 156.3125 409.628906 157.304688 C 410.472656 158.285156 411.125 159.421875 411.445312 160.65625 C 411.5 160.863281 411.375 161.078125 411.167969 161.132812 C 411 161.179688 410.824219 161.105469 410.738281 160.972656 C 410.082031 159.996094 409.367188 159.105469 408.539062 158.351562 Z M 385.621094 176.535156 C 384.933594 178.050781 384.589844 179.722656 384.933594 181.257812 C 385.28125 182.726562 386.488281 184.160156 388.113281 184.417969 L 388.128906 184.425781 C 388.308594 184.453125 388.429688 184.621094 388.402344 184.800781 C 388.375 184.953125 388.246094 185.058594 388.101562 185.074219 C 386.027344 185.214844 384.191406 183.605469 383.546875 181.660156 C 382.878906 179.6875 383.300781 177.597656 384.054688 175.847656 C 384.84375 174.082031 385.941406 172.589844 386.9375 171.136719 C 387.925781 169.679688 388.808594 168.1875 389.242188 166.515625 C 389.296875 166.308594 389.503906 166.175781 389.710938 166.230469 C 389.890625 166.269531 390.019531 166.445312 390.011719 166.617188 C 389.960938 168.550781 389.125 170.339844 388.226562 171.929688 C 387.324219 173.535156 386.296875 174.992188 385.621094 176.535156 Z M 514.566406 792.78125 C 514.183594 794.667969 513.054688 794.875 512.042969 793.234375 C 511.035156 791.605469 510.519531 788.753906 510.902344 786.863281 C 511.28125 784.984375 512.414062 784.777344 513.429688 786.414062 C 514.4375 788.042969 514.953125 790.898438 514.566406 792.78125 Z M 514.773438 781.589844 L 492.300781 781.589844 C 492.300781 781.589844 490.917969 789.96875 485.410156 794.230469 C 480.273438 798.214844 480.109375 809.859375 480.109375 809.859375 L 519.667969 809.859375 Z M 255.273438 310.582031 C 242.609375 306.933594 236.492188 291.144531 244.195312 291.144531 C 250.632812 291.144531 252.984375 294.992188 252.984375 294.992188 C 252.984375 294.992188 255.386719 291.144531 260.273438 291.144531 C 267.980469 291.144531 266.796875 306.933594 255.273438 310.582031 Z M 296.703125 344.730469 C 296.214844 342.371094 301.695312 342.484375 312.265625 342.484375 C 322.84375 342.484375 333.117188 352.921875 333.117188 352.921875 C 333.117188 352.921875 357.675781 349.652344 380.40625 346.03125 C 388.695312 344.714844 396.730469 343.351562 403.257812 342.074219 C 403.484375 341.085938 403.613281 340.066406 403.613281 339.007812 L 337.632812 339.007812 L 326.1875 267.277344 L 324.886719 259.132812 C 323.9375 253.183594 318.804688 248.808594 312.78125 248.808594 L 203.804688 248.808594 C 196.265625 248.808594 190.515625 255.542969 191.707031 262.988281 L 204.402344 342.597656 C 205.351562 348.542969 210.484375 352.921875 216.507812 352.921875 L 271.15625 352.921875 L 311.972656 352.695312 C 311.972656 352.695312 297.191406 347.085938 296.703125 344.730469 Z M 340.078125 796.34375 C 337.550781 796.34375 335.671875 794.296875 335.878906 791.773438 C 336.085938 789.246094 338.300781 787.203125 340.828125 787.203125 C 343.355469 787.203125 345.238281 789.246094 345.027344 791.773438 C 344.820312 794.296875 342.605469 796.34375 340.078125 796.34375 Z M 333.3125 781.589844 L 333.367188 781.589844 C 333.367188 781.589844 330.175781 790.46875 313.402344 792.695312 C 297.679688 794.78125 286.976562 809.859375 286.976562 809.859375 L 349.605469 809.859375 L 355.835938 781.589844 L 355.78125 781.589844 C 355.78125 781.589844 389.378906 718.992188 395.28125 667.832031 C 401.183594 616.667969 398.398438 594.011719 412.523438 565.289062 C 416.574219 557.050781 422.316406 547.644531 428.5 537.546875 L 386.476562 376.808594 Z M 425.71875 150.839844 C 425.679688 151.296875 425.640625 151.761719 425.605469 152.222656 C 425.371094 151.230469 424.878906 150.246094 424.308594 149.398438 C 424.722656 149.925781 425.199219 150.40625 425.71875 150.839844 Z M 365.042969 189.804688 C 365.765625 189.457031 366.171875 188.703125 366.539062 187.988281 C 367.777344 185.566406 369.011719 183.140625 370.25 180.722656 C 369.863281 185.84375 372.328125 191.085938 376.527344 194.054688 C 377.511719 194.75 378.699219 195.316406 379.878906 195.464844 C 374.738281 180.347656 379.261719 151.855469 379.75 141.03125 C 379.851562 138.714844 380.277344 136.414062 380.988281 134.214844 C 382.304688 133.066406 383.9375 132.25 385.585938 131.949219 C 383.582031 136.941406 385.492188 142.761719 388.742188 147.050781 C 389.726562 148.347656 390.882812 149.597656 392.386719 150.226562 C 393.890625 150.855469 395.816406 150.707031 396.917969 149.503906 C 396.945312 149.476562 396.960938 149.445312 396.984375 149.410156 C 397.5 148.789062 397.6875 147.921875 397.546875 147.132812 C 398.984375 148.796875 400.824219 150.113281 402.875 150.910156 C 403.890625 151.296875 405.035156 151.5625 406.070312 151.203125 C 407.300781 150.773438 408.097656 149.511719 408.34375 148.230469 C 408.585938 146.945312 408.378906 145.621094 408.171875 144.328125 C 410.53125 148.601562 413.96875 152.285156 418.078125 154.917969 C 419.371094 155.746094 420.792969 156.488281 422.324219 156.488281 C 423.574219 156.480469 424.863281 155.820312 425.441406 154.757812 C 425.324219 156.910156 425.285156 159.066406 425.3125 161.21875 C 426.503906 159.480469 427.800781 157.757812 429.664062 156.796875 C 431.703125 155.746094 434.605469 155.992188 435.816406 157.945312 C 436.746094 159.449219 436.398438 161.386719 435.902344 163.082031 C 435.046875 166.023438 433.777344 168.9375 431.617188 171.109375 C 430.167969 172.570312 428.242188 173.632812 426.230469 173.980469 C 427.0625 180.269531 428.476562 186.476562 430.453125 192.503906 C 432.359375 198.332031 434.898438 204.144531 439.277344 208.433594 C 439.601562 208.742188 439.953125 209.042969 440.320312 209.308594 C 441.15625 209.902344 442.101562 210.296875 443.054688 210.058594 C 444.847656 209.617188 445.441406 207.339844 445.261719 205.5 C 445.082031 203.667969 444.480469 201.746094 445.175781 200.042969 C 447.5625 201.230469 448.464844 204.738281 451.085938 205.195312 C 453.183594 205.5625 455.082031 203.53125 455.378906 201.417969 C 455.671875 199.3125 454.84375 197.234375 454.019531 195.269531 C 457.054688 196.285156 460.171875 197.316406 463.367188 197.242188 C 466.570312 197.167969 469.933594 195.765625 471.488281 192.964844 C 473.550781 189.261719 471.878906 184.671875 470.179688 180.789062 C 473.347656 182.589844 477.621094 182.1875 480.394531 179.828125 C 483.175781 177.46875 484.265625 173.320312 483.007812 169.90625 C 482.730469 169.148438 482.335938 168.363281 482.496094 167.566406 C 482.707031 166.558594 483.710938 165.964844 484.5 165.300781 C 487.488281 162.800781 487.976562 158.125 486.339844 154.582031 C 484.707031 151.046875 481.371094 148.550781 477.808594 146.964844 C 474.25 145.375 470.40625 144.558594 466.667969 143.449219 C 462.933594 142.328125 459.195312 140.851562 456.339844 138.191406 C 455.191406 137.128906 454.207031 135.894531 453.210938 134.664062 C 451.300781 129.097656 446.941406 124.332031 441.398438 122.261719 C 443.125 122.289062 447.148438 123.164062 448.613281 122.261719 C 450.074219 121.351562 451.011719 119.382812 450.222656 117.851562 C 449.59375 116.628906 448.152344 116.09375 446.8125 115.742188 C 443.125 114.777344 439.3125 114.128906 435.515625 114.304688 C 436.449219 113.941406 437.238281 113.113281 437.527344 112.132812 C 437.980469 110.617188 437.414062 108.925781 436.390625 107.707031 C 434.15625 105.050781 430.246094 104.554688 426.785156 104.867188 C 423.601562 105.15625 420.652344 106.003906 417.726562 107.289062 C 418.980469 105.992188 418.566406 103.6875 417.269531 102.4375 C 415.972656 101.171875 414.085938 100.753906 412.289062 100.59375 C 408.851562 100.296875 405.289062 100.832031 402.292969 102.53125 C 399.292969 104.21875 397.152344 106.613281 396.523438 109.992188 C 395.808594 108.625 395.074219 107.234375 393.984375 106.136719 C 392.894531 105.042969 391.382812 104.261719 389.847656 104.425781 C 388.429688 104.574219 387.210938 105.484375 386.222656 106.511719 C 385.066406 107.714844 384.101562 109.191406 383.914062 110.855469 C 383.613281 113.621094 385.765625 116.523438 387.539062 118.675781 C 382.164062 119.027344 376.6875 119.402344 371.675781 121.367188 C 371.050781 121.613281 370.425781 121.886719 369.941406 122.355469 C 369.460938 122.816406 369.148438 123.503906 369.292969 124.152344 C 369.449219 124.828125 370.03125 125.300781 370.605469 125.683594 C 372.796875 127.132812 375.425781 127.632812 378.058594 127.566406 C 373.921875 131.082031 370.597656 135.734375 368.152344 140.429688 C 364.28125 147.875 362.214844 156.113281 360.488281 164.324219 C 358.886719 171.96875 357.621094 180.296875 361.0625 187.320312 C 361.828125 188.882812 363.472656 190.554688 365.042969 189.804688 " fill-opacity="1" fill-rule="nonzero"/></g></svg>