<svg xmlns="http://www.w3.org/2000/svg" xmlns:xlink="http://www.w3.org/1999/xlink" width="1080" zoomAndPan="magnify" viewBox="0 0 810 809.999993" height="1080" preserveAspectRatio="xMidYMid meet" version="1.0"><defs><clipPath id="id1"><path d="M 97 49 L 760.589844 49 L 760.589844 472 L 97 472 Z M 97 49 " clip-rule="nonzero"/></clipPath><clipPath id="id2"><path d="M 98 13.753906 L 583 13.753906 L 583 795.921875 L 98 795.921875 Z M 98 13.753906 " clip-rule="nonzero"/></clipPath></defs><g clip-path="url(#id1)"><path fill="#ffbf01" d="M 97.402344 461.992188 L 143.738281 471.980469 L 204.558594 189.695312 L 158.226562 179.710938 Z M 639.683594 377.703125 C 611.902344 373.8125 560.535156 309.355469 530.695312 298.171875 C 500.863281 286.992188 430.792969 319.777344 415.167969 276.558594 C 399.542969 233.339844 491.855469 232.496094 491.855469 232.496094 C 311.703125 179.152344 410.390625 95.3125 441.035156 63.621094 C 485.582031 17.550781 569.34375 95.84375 593.109375 121.601562 C 616.875 147.363281 738.136719 203.652344 758.183594 232.570312 C 778.230469 261.492188 667.464844 381.59375 639.683594 377.703125 " fill-opacity="1" fill-rule="nonzero"/></g><path fill="#000000" d="M 152.894531 444.496094 L 93.550781 431.707031 C 93.550781 431.707031 85.496094 429.367188 81.636719 440.675781 C 77.769531 451.988281 49.089844 575.167969 53.652344 587.085938 C 58.21875 598.996094 127.3125 612.667969 131.535156 606.292969 C 135.097656 600.917969 161.304688 495.152344 165.003906 458.902344 C 165.675781 452.355469 160.441406 446.121094 152.894531 444.496094 Z M 491.597656 590.390625 C 444.097656 639.738281 362.203125 651.769531 299.917969 623.191406 C 237.875 594.726562 197.738281 521.976562 203.492188 453.929688 C 209.164062 386.84375 261.941406 332.667969 326.820312 314.675781 C 335.21875 312.34375 343.796875 310.695312 352.457031 309.722656 C 419.726562 302.175781 486.386719 338.332031 516.691406 398.890625 C 547.351562 460.136719 539.042969 541.101562 491.597656 590.390625 " fill-opacity="1" fill-rule="nonzero"/><path fill="#e04285" d="M 589.375 500.546875 C 531.097656 573.042969 522.097656 646.769531 525.992188 661.464844 C 529.882812 676.160156 563.722656 691.691406 563.722656 691.691406 C 563.722656 691.691406 749.691406 465.363281 746.933594 462.0625 C 739.140625 452.734375 647.648438 428.054688 589.375 500.546875 Z M 356.945312 352.574219 C 350.523438 353.289062 344.15625 354.503906 337.933594 356.222656 C 289.835938 369.5 250.65625 409.601562 246.386719 459.324219 C 242.050781 509.753906 276.460938 569.257812 322.429688 590.417969 C 368.5625 611.660156 422.042969 593.492188 457.300781 556.960938 C 492.519531 520.46875 501.253906 464.257812 478.59375 418.832031 C 456.183594 373.914062 406.8125 347.046875 356.945312 352.574219 Z M 467.835938 106.355469 C 482.363281 123.035156 508.160156 100.554688 493.632812 83.878906 C 479.097656 67.199219 453.300781 89.675781 467.835938 106.355469 Z M 549.847656 158.613281 C 535.3125 141.933594 509.515625 164.414062 524.042969 181.097656 C 538.578125 197.769531 564.375 175.292969 549.847656 158.613281 Z M 682.269531 209.257812 C 667.742188 192.578125 641.945312 215.0625 656.472656 231.734375 C 671.007812 248.414062 696.804688 225.9375 682.269531 209.257812 Z M 232.023438 610.140625 C 225.550781 604.765625 216.011719 605.320312 210.238281 611.449219 C 181.324219 642.125 126.5 699.207031 128.140625 707.332031 C 129.09375 712.027344 163.257812 743.832031 167.601562 743.59375 C 181.195312 742.835938 236.859375 672.621094 244.335938 660.066406 C 262.5 629.5625 257.113281 630.992188 232.023438 610.140625 Z M 601.8125 276.710938 C 616.347656 293.390625 642.144531 270.910156 627.609375 254.234375 C 613.082031 237.554688 587.285156 260.03125 601.8125 276.710938 Z M 475.433594 168.800781 C 460.902344 152.121094 435.101562 174.601562 449.636719 191.285156 C 464.164062 207.964844 489.960938 185.480469 475.433594 168.800781 Z M 537.75 226.664062 C 521.09375 249.921875 557.058594 275.683594 573.714844 252.433594 C 590.367188 229.175781 554.402344 203.414062 537.75 226.664062 Z M 597.257812 167.703125 C 610.136719 149.722656 637.949219 169.644531 625.074219 187.632812 C 612.191406 205.617188 584.371094 185.6875 597.257812 167.703125 " fill-opacity="1" fill-rule="nonzero"/><g clip-path="url(#id2)"><path fill="#14ae5c" d="M 271.5 605.980469 L 252.886719 628.609375 C 249.578125 623.707031 242.539062 618.882812 232.023438 610.140625 C 231.597656 609.785156 231.152344 609.464844 230.699219 609.15625 L 249.777344 585.960938 C 256.441406 593.289062 263.703125 600.007812 271.5 605.980469 Z M 579.027344 679.867188 L 492.175781 788.777344 C 491.574219 789.542969 490.90625 790.261719 490.136719 790.867188 C 470.546875 806.269531 436.179688 784.050781 429.085938 756.9375 C 421.855469 729.296875 459.125 730.71875 476.777344 729.03125 C 494.425781 727.347656 509.105469 645.191406 532.972656 636.851562 C 549.476562 631.078125 568.542969 649.652344 578.734375 661.652344 C 583.175781 666.882812 583.304688 674.503906 579.027344 679.867188 Z M 261.804688 89.957031 C 261.609375 91.03125 261.339844 92.09375 261.113281 93.164062 C 259.703125 99.699219 258.296875 106.234375 256.894531 112.761719 C 253.375 129.070312 249.863281 145.371094 246.351562 161.671875 C 245.210938 166.988281 244.667969 173.039062 237.265625 174.578125 C 230.710938 175.933594 222.632812 172.300781 220.867188 166.4375 C 220.226562 164.3125 220.660156 162.386719 221.09375 160.371094 C 224.273438 145.605469 227.457031 130.835938 230.636719 116.066406 C 232.316406 108.285156 233.992188 100.511719 235.664062 92.730469 C 236.574219 88.535156 236.78125 82.695312 240.597656 79.734375 C 243.253906 77.675781 247.121094 76.90625 250.808594 77.699219 C 257.742188 79.191406 262.914062 83.726562 261.804688 89.957031 Z M 219.667969 58.496094 C 219.320312 60.324219 218.882812 62.136719 218.492188 63.957031 C 216.628906 72.613281 214.765625 81.261719 212.902344 89.910156 C 208.371094 110.929688 203.839844 131.960938 199.308594 152.988281 C 198.105469 158.582031 197.996094 166.320312 190.835938 168.628906 C 182.109375 171.445312 171.546875 164.714844 172.980469 156.671875 C 173.195312 155.457031 173.5 154.246094 173.761719 153.042969 C 177.9375 133.652344 182.117188 114.257812 186.292969 94.875 C 188.449219 84.875 190.597656 74.878906 192.753906 64.878906 C 193.414062 61.835938 194.066406 58.785156 194.726562 55.734375 C 195.171875 53.652344 195.460938 51.523438 196.824219 49.738281 C 199.277344 46.5 204.082031 44.992188 208.730469 45.996094 C 215.859375 47.535156 220.867188 52.179688 219.667969 58.496094 Z M 168.007812 67.230469 C 167.820312 68.304688 167.550781 69.367188 167.320312 70.4375 C 165.90625 76.972656 164.503906 83.507812 163.097656 90.035156 C 159.585938 106.34375 156.070312 122.644531 152.558594 138.945312 C 151.414062 144.261719 150.871094 150.3125 143.46875 151.851562 C 136.917969 153.207031 128.835938 149.574219 127.074219 143.710938 C 126.429688 141.585938 126.863281 139.660156 127.296875 137.652344 C 130.480469 122.878906 133.664062 108.109375 136.851562 93.339844 C 138.523438 85.558594 140.195312 77.785156 141.871094 70.003906 C 142.78125 65.8125 142.988281 59.96875 146.8125 57.007812 C 149.460938 54.949219 153.328125 54.179688 157.015625 54.972656 C 163.941406 56.460938 169.121094 61 168.007812 67.230469 Z M 216.816406 21.03125 C 154.4375 6.886719 138.109375 10.179688 121.898438 59.785156 C 110.796875 93.773438 105.710938 130.445312 98.34375 165.5625 C 97.445312 169.871094 100.867188 174.242188 106.039062 175.359375 L 148.507812 184.511719 L 144.960938 200.996094 L 203.425781 213.589844 L 206.972656 197.109375 L 250.707031 206.535156 C 255.816406 207.640625 260.691406 205.128906 261.722656 200.910156 C 270.714844 164.09375 283.433594 126.546875 287.292969 89.046875 C 292.308594 40.34375 270.78125 33.277344 216.816406 21.03125 " fill-opacity="1" fill-rule="nonzero"/></g><path fill="#110f0d" d="M 562.117188 679.75 C 560.078125 678.535156 557.4375 679.207031 556.222656 681.253906 C 556.015625 681.601562 534.855469 716.882812 485.910156 768.421875 C 482.945312 771.546875 479.378906 773.289062 469.933594 772.890625 C 467.542969 772.777344 465.554688 774.632812 465.457031 777.007812 C 465.359375 779.382812 467.207031 781.386719 469.582031 781.484375 C 470.570312 781.527344 471.523438 781.546875 472.4375 781.546875 C 481.648438 781.546875 487.324219 779.433594 492.148438 774.351562 C 541.839844 722.019531 562.757812 687.101562 563.621094 685.644531 C 564.835938 683.597656 564.164062 680.960938 562.117188 679.75 Z M 130.230469 520.125 C 129.324219 519.855469 107.851562 513.589844 94.257812 512.394531 C 91.847656 512.175781 89.804688 513.933594 89.597656 516.300781 C 89.390625 518.667969 91.136719 520.753906 93.5 520.960938 C 106.246094 522.085938 127.597656 528.316406 127.8125 528.378906 C 128.214844 528.5 128.625 528.554688 129.027344 528.554688 C 130.882812 528.554688 132.597656 527.339844 133.148438 525.464844 C 133.820312 523.179688 132.515625 520.792969 130.230469 520.125 Z M 121.238281 560.449219 C 108.5 559.332031 87.148438 553.101562 86.9375 553.035156 C 84.65625 552.367188 82.265625 553.675781 81.597656 555.953125 C 80.933594 558.230469 82.234375 560.625 84.511719 561.292969 C 85.421875 561.558594 106.894531 567.820312 120.484375 569.023438 C 120.617188 569.03125 120.738281 569.035156 120.867188 569.035156 C 123.074219 569.035156 124.953125 567.351562 125.148438 565.113281 C 125.355469 562.746094 123.605469 560.65625 121.238281 560.449219 Z M 138.992188 475.453125 C 126.25 474.332031 104.898438 468.101562 104.683594 468.039062 C 102.40625 467.367188 100.019531 468.675781 99.347656 470.960938 C 98.675781 473.238281 99.980469 475.625 102.265625 476.292969 C 103.167969 476.558594 124.640625 482.828125 138.238281 484.023438 C 138.363281 484.035156 138.492188 484.042969 138.613281 484.042969 C 140.824219 484.042969 142.699219 482.355469 142.894531 480.113281 C 143.105469 477.75 141.355469 475.664062 138.992188 475.453125 Z M 727.738281 240.304688 C 699.914062 298.230469 633.972656 350.890625 631.183594 353.105469 C 630.390625 353.730469 629.449219 354.035156 628.515625 354.035156 C 627.242188 354.035156 625.984375 353.472656 625.136719 352.402344 C 623.664062 350.539062 623.976562 347.835938 625.839844 346.363281 C 626.503906 345.832031 693.03125 292.695312 719.988281 236.578125 C 721.011719 234.441406 723.585938 233.535156 725.726562 234.570312 C 727.867188 235.59375 728.769531 238.164062 727.738281 240.304688 " fill-opacity="1" fill-rule="nonzero"/></svg>