<svg xmlns="http://www.w3.org/2000/svg" xmlns:xlink="http://www.w3.org/1999/xlink" width="1080" zoomAndPan="magnify" viewBox="0 0 810 809.999993" height="1080" preserveAspectRatio="xMidYMid meet" version="1.0"><defs><clipPath id="id1"><path d="M 102.003906 174 L 749.453125 174 L 749.453125 771.320312 L 102.003906 771.320312 Z M 102.003906 174 " clip-rule="nonzero"/></clipPath><clipPath id="id2"><path d="M 94 85 L 800.644531 85 L 800.644531 383 L 94 383 Z M 94 85 " clip-rule="nonzero"/></clipPath></defs><path fill="#14ae5c" d="M 352.992188 131.308594 C 343.804688 132.328125 332.867188 134.222656 320.910156 137.578125 C 309.683594 140.785156 299.914062 144.71875 291.890625 148.511719 C 285.039062 151.425781 276.726562 155.800781 268.269531 162.503906 C 249.167969 177.523438 239.835938 195.75 235.605469 206.101562 C 249.894531 214.117188 264.332031 222.28125 278.621094 230.300781 C 286.351562 219.222656 293.933594 208.140625 301.664062 196.914062 C 298.601562 220.96875 297.289062 253.773438 303.996094 291.386719 C 307.789062 312.964844 313.472656 331.625 319.308594 347.226562 C 331.847656 345.039062 348.761719 340.8125 367.136719 332.0625 C 384.78125 323.753906 398.195312 313.984375 407.675781 305.96875 C 398.34375 288.472656 389.15625 270.832031 379.824219 253.335938 L 397.320312 239.339844 C 393.238281 237.152344 383.175781 231.320312 377.925781 219.511719 C 376.175781 215.429688 375.300781 211.785156 374.863281 208.578125 C 381.425781 188.308594 388.132812 168.191406 394.695312 147.925781 C 392.507812 148.214844 387.550781 148.511719 382.15625 146.027344 C 378.074219 144.136719 375.449219 141.363281 373.988281 139.761719 C 372.09375 143.261719 369.324219 148.652344 367.136719 155.503906 C 362.761719 169.0625 363.492188 177.8125 361.011719 178.101562 C 358.386719 178.398438 354.449219 168.191406 352.554688 159.445312 C 350.222656 147.484375 351.535156 137.429688 352.992188 131.308594 Z M 146.070312 205.226562 C 158.023438 217.035156 151.027344 230.738281 162.398438 254.355469 C 163.710938 257.128906 172.316406 274.914062 190.25 287.742188 C 214.019531 304.65625 229.914062 295.90625 244.203125 312.527344 C 244.933594 313.402344 258.933594 330.316406 253.828125 345.914062 C 246.976562 367.054688 213 360.492188 202.355469 382.800781 C 194.042969 400.292969 210.226562 414 202.355469 433.097656 C 195.644531 449.570312 176.398438 457.445312 160.503906 461.527344 C 127.84375 446.65625 95.324219 431.640625 62.660156 416.769531 C 38.742188 417.789062 29.703125 411.8125 26.058594 405.835938 C 17.019531 391.691406 35.386719 374.925781 28.246094 347.957031 C 22.992188 328.128906 10.746094 328.128906 10.164062 314.132812 C 9.429688 293.285156 36.847656 292.410156 60.90625 255.378906 C 75.636719 232.632812 77.242188 214.703125 98.238281 202.453125 C 105.382812 198.226562 112.09375 196.332031 116.613281 195.3125 C 125.363281 195.164062 137.613281 196.769531 146.070312 205.226562 " fill-opacity="1" fill-rule="nonzero"/><path fill="#e04285" d="M 101.449219 296.636719 L 74.035156 280.890625 C 69.519531 265 64.851562 249.253906 60.332031 233.363281 C 50.269531 237.738281 40.207031 242.109375 30.148438 246.484375 C 35.832031 254.503906 42.25 264.855469 47.9375 277.828125 C 53.621094 290.949219 56.976562 302.90625 58.871094 312.527344 C 56.832031 318.503906 54.058594 329.585938 55.808594 343.144531 C 56.976562 352.621094 60.039062 360.054688 62.519531 365.011719 C 61.5 388.632812 60.476562 412.25 59.453125 435.867188 C 67.914062 438.347656 86.140625 442.574219 108.160156 437.324219 C 125.800781 433.097656 138.195312 424.789062 144.90625 419.539062 C 141.699219 415.164062 135.140625 405.398438 133.390625 391.109375 C 131.492188 375.800781 136.007812 363.992188 138.195312 359.035156 C 145.199219 344.601562 152.347656 330.167969 159.339844 315.882812 C 164.734375 311.507812 171.007812 305.675781 176.839844 297.949219 C 187.339844 284.246094 192.441406 270.832031 195.066406 261.648438 C 187.046875 257.855469 179.171875 254.066406 171.152344 250.421875 C 160.214844 265.4375 149.28125 280.597656 138.34375 295.617188 L 122.304688 296.78125 C 121.574219 297.511719 117.640625 301.300781 111.367188 301.15625 C 105.824219 300.863281 102.328125 297.367188 101.449219 296.636719 Z M 427.070312 409.917969 C 430.425781 400.003906 427.945312 391.546875 427.070312 388.921875 C 416.28125 377.113281 405.488281 365.304688 394.550781 353.351562 C 399.800781 364.574219 405.199219 377.988281 409.425781 393.734375 C 412.488281 405.105469 414.53125 415.75 415.988281 425.226562 C 418.320312 423.476562 424.152344 418.519531 427.070312 409.917969 Z M 453.902344 357.433594 C 476.503906 386.445312 479.128906 396.941406 478.984375 405.835938 C 478.984375 409.332031 478.253906 422.164062 459.589844 445.34375 C 448.652344 459.046875 428.527344 480.042969 394.550781 497.101562 L 356.929688 565.769531 C 335.640625 560.082031 314.203125 554.398438 292.914062 548.855469 C 307.496094 529.464844 322.953125 506.285156 337.683594 479.460938 C 347.304688 461.671875 355.328125 444.617188 362.035156 428.578125 C 358.242188 415.601562 352.992188 400.730469 345.847656 384.988281 C 338.996094 370.117188 331.703125 357.140625 324.851562 346.207031 C 337.097656 343.726562 353.140625 339.0625 370.636719 330.460938 C 386.386719 322.585938 398.636719 313.695312 407.675781 306.113281 C 427.945312 325.503906 443.257812 343.582031 453.902344 357.433594 Z M 572.308594 256.398438 L 584.410156 266.894531 C 579.015625 281.183594 573.621094 295.46875 568.226562 309.757812 C 565.019531 318.359375 561.664062 330.460938 560.933594 345.332031 C 559.769531 369.824219 566.765625 389.070312 571.433594 399.417969 C 582.078125 416.625 605.554688 449.425781 648.136719 472.898438 C 675.40625 487.914062 701.070312 493.894531 718.421875 496.371094 C 707.484375 516.78125 686.488281 550.023438 649.011719 579.617188 C 618.097656 603.964844 587.765625 616.648438 567.351562 623.210938 C 546.9375 557.457031 526.375 491.851562 505.960938 426.101562 C 503.042969 408.023438 501.441406 384.402344 505.960938 357.433594 C 507.417969 348.683594 509.460938 340.519531 511.648438 333.230469 C 510.773438 331.773438 506.105469 324.335938 508.4375 314.714844 C 511.0625 303.34375 520.980469 298.675781 522.292969 298.242188 C 530.894531 287.890625 539.5 277.539062 548.101562 267.039062 L 572.308594 256.398438 " fill-opacity="1" fill-rule="nonzero"/><g clip-path="url(#id1)"><path fill="#000000" d="M 120.117188 747.863281 C 104.078125 762.003906 101.890625 767.398438 103.199219 769.585938 C 105.972656 774.398438 126.53125 768.855469 141.410156 761.128906 C 153.804688 754.714844 162.550781 746.550781 167.945312 740.71875 C 161.238281 742.757812 153.367188 744.507812 144.617188 745.820312 C 135.429688 747.277344 127.261719 747.863281 120.117188 747.863281 Z M 590.101562 174.027344 C 599.578125 177.8125 612.558594 184.523438 622.472656 197.5 C 636.617188 216.015625 629.765625 227.96875 639.386719 243.570312 C 660.53125 277.832031 721.777344 265.4375 726.296875 285.558594 C 727.320312 290.367188 725.570312 298.386719 708.800781 311.507812 C 714.921875 317.339844 757.648438 359.183594 747.585938 375.367188 C 745.691406 378.425781 739.859375 383.675781 718.570312 381.050781 C 724.402344 389.800781 744.378906 421.726562 734.753906 433.535156 C 725.570312 444.761719 691.300781 435.578125 649.15625 410.9375 C 645.660156 419.25 639.824219 429.015625 631.367188 430.328125 C 615.328125 432.660156 596.515625 403.359375 588.496094 378.574219 C 580.332031 353.207031 586.890625 342.417969 581.789062 302.324219 C 579.164062 282.351562 575.226562 266.460938 572.308594 256.546875 L 562.25 196.769531 L 590.101562 174.027344 " fill-opacity="1" fill-rule="nonzero"/></g><path fill="#ffbf01" d="M 64.125 437.179688 L 64.125 471.148438 C 49.542969 489.957031 37.4375 507.742188 27.371094 523.78125 C 11.332031 549.292969 9.875 555.707031 10.167969 561.976562 C 10.894531 577.867188 22.558594 586.472656 49.683594 614.027344 C 60.332031 624.960938 75.640625 640.851562 93.289062 661.261719 C 97.953125 669.863281 102.765625 680.359375 106.554688 692.753906 C 113.40625 714.332031 115.015625 733.574219 115.015625 747.863281 C 124.929688 748.007812 137.175781 747.425781 150.742188 744.800781 C 160.945312 742.90625 169.839844 740.28125 177.421875 737.511719 C 179.171875 704.855469 172.609375 681.671875 166.484375 666.65625 C 160.945312 653.242188 155.113281 644.496094 127.699219 591.574219 C 118.511719 573.933594 115.890625 568.539062 116.183594 560.082031 C 116.761719 542.296875 129.15625 537.191406 145.199219 506.722656 C 154.238281 489.8125 160.507812 477.417969 160.363281 461.234375 C 160.070312 442.28125 150.886719 427.558594 144.617188 419.394531 C 137.617188 424.933594 122.886719 434.847656 101.601562 438.492188 C 85.699219 441.40625 72.285156 439.222656 64.125 437.179688 Z M 303.855469 551.773438 L 295.398438 576.121094 C 341.769531 587.78125 365.972656 590.699219 368.160156 585.160156 C 369.621094 581.367188 360.726562 573.496094 341.621094 561.6875 Z M 381.578125 119.644531 C 377.785156 111.625 374.140625 103.609375 370.347656 95.589844 C 370.347656 89.609375 371.222656 78.234375 377.929688 66.429688 C 381.429688 60.160156 389.015625 46.75 403.011719 43.394531 C 423.136719 38.582031 441.21875 58.554688 445.007812 62.785156 C 458.425781 77.65625 460.902344 94.859375 461.632812 102.292969 C 452.007812 106.230469 442.238281 110.019531 432.613281 113.953125 L 381.578125 119.644531 " fill-opacity="1" fill-rule="nonzero"/><path fill="#eca97c" d="M 379.53125 253.191406 C 381.71875 257.128906 383.761719 261.210938 385.949219 265.144531 C 399.21875 268.207031 410.589844 269.957031 419.195312 271.121094 C 437.128906 273.457031 442.671875 272.582031 447.484375 270.101562 C 455.796875 265.730469 459.585938 257.710938 461.773438 252.753906 C 470.230469 234.382812 480.003906 213.242188 491.085938 188.894531 C 495.460938 187.4375 499.980469 186.121094 504.355469 184.664062 C 505.375 182.042969 506.394531 178.25 506.832031 173.726562 C 507.417969 166.4375 505.667969 160.753906 504.355469 157.402344 C 503.332031 157.257812 492.398438 155.941406 484.960938 164.109375 C 480.003906 169.652344 479.566406 176.210938 479.566406 178.101562 L 437.714844 239.195312 L 397.175781 239.195312 Z M 193.027344 265.144531 L 216.355469 154.925781 C 219.710938 153.316406 224.378906 150.699219 229.625 146.757812 C 236.773438 141.363281 246.542969 132.328125 245.082031 129.847656 C 243.773438 127.804688 234.4375 131.015625 226.273438 133.785156 C 222.917969 134.953125 220.292969 135.972656 218.398438 136.847656 C 215.628906 129.699219 213.292969 126.347656 211.398438 126.496094 C 208.628906 126.785156 207.023438 134.953125 206.296875 150.988281 L 172.171875 253.480469 Z M 58.871094 239.632812 L 58.871094 142.242188 C 62.664062 138.304688 67.769531 131.597656 70.097656 122.269531 C 71.996094 114.832031 72.285156 105.503906 69.808594 104.773438 C 68.203125 104.335938 66.3125 107.542969 58.289062 118.039062 C 54.644531 122.699219 51.730469 126.496094 49.832031 128.972656 C 44.730469 121.101562 41.375 117.457031 39.765625 118.039062 C 37.730469 118.914062 38.457031 126.347656 41.953125 140.492188 L 35.832031 250.128906 Z M 664.03125 566.789062 L 749.191406 546.816406 C 752.109375 548.128906 756.046875 550.3125 760.417969 553.523438 C 773.691406 563.289062 777.917969 574.222656 779.8125 573.496094 C 781.855469 572.765625 780.398438 560.082031 767.710938 513.574219 C 757.359375 518.96875 747.148438 524.507812 736.796875 529.902344 L 696.988281 530.339844 L 664.03125 537.191406 Z M 636.617188 588.65625 L 628.304688 718.121094 C 624.367188 721.328125 618.535156 725.992188 611.390625 731.386719 C 599.578125 740.28125 587.621094 749.320312 585.871094 747.570312 C 584.265625 745.96875 594.476562 736.492188 601.765625 719.289062 C 606.140625 708.644531 607.746094 699.167969 608.472656 692.605469 L 598.414062 610.816406 L 636.617188 588.65625 " fill-opacity="1" fill-rule="nonzero"/><g clip-path="url(#id2)"><path fill="#eca97c" d="M 117.640625 217.472656 C 114.433594 217.761719 109.179688 218.636719 104.367188 222.429688 C 95.765625 229.136719 95.039062 240.214844 94.597656 247.359375 C 93.578125 262.375 99.265625 274.332031 102.910156 280.597656 C 102.46875 285.992188 102.039062 291.242188 101.601562 296.636719 C 102.765625 297.804688 105.246094 299.84375 108.890625 300.71875 C 116.183594 302.324219 122.015625 297.21875 122.59375 296.636719 L 122.59375 282.933594 C 124.34375 282.347656 127.117188 281.183594 129.597656 278.851562 C 134.261719 274.476562 134.988281 269.226562 137.175781 250.710938 C 139.074219 234.527344 139.074219 232.925781 138.054688 230.59375 C 133.53125 220.96875 121.425781 218.199219 117.640625 217.472656 Z M 240.417969 208.871094 C 233.273438 223.886719 229.625 237.007812 227.585938 246.046875 C 224.230469 261.355469 222.480469 269.664062 225.835938 278.703125 C 230.5 291.386719 242.167969 297.804688 250.625 302.324219 C 279.933594 317.921875 311.578125 313.839844 326.890625 310.777344 C 343.367188 316.320312 357.21875 313.984375 360.867188 307.132812 C 362.617188 303.78125 362.179688 299.113281 360.28125 295.617188 C 357.65625 290.511719 351.679688 287.453125 345.117188 287.742188 C 338.703125 290.367188 332.140625 292.992188 325.722656 295.617188 C 304.578125 287.160156 283.289062 278.703125 262.144531 270.25 L 273.519531 227.53125 Z M 415.988281 100.542969 C 407.527344 95.730469 403.15625 89.027344 401.40625 85.964844 C 394.40625 90.335938 387.40625 94.859375 380.40625 99.234375 C 377.34375 96.167969 373.40625 94.273438 370.34375 95.4375 C 365.96875 96.898438 362.761719 104.773438 366.699219 113.519531 C 365.386719 117.019531 362.90625 122.121094 358.242188 126.785156 C 356.492188 128.679688 354.597656 130.140625 352.992188 131.160156 C 349.929688 146.90625 352.117188 158.570312 354.160156 165.417969 C 354.449219 166.148438 358.09375 178.25 361.011719 177.960938 C 363.492188 177.667969 362.90625 168.484375 367.136719 155.363281 C 369.324219 148.363281 372.09375 142.96875 373.988281 139.617188 C 377.050781 142.820312 382.300781 147.34375 389.300781 147.925781 C 399.800781 148.945312 408.113281 140.925781 418.027344 131.160156 C 423.570312 125.765625 431.007812 117.308594 437.859375 105.355469 C 434.359375 105.644531 425.320312 105.933594 415.988281 100.542969 Z M 595.785156 317.773438 C 610.660156 327.6875 625.09375 337.453125 638.949219 347.222656 C 656.300781 353.78125 677.152344 360.050781 701.214844 364.570312 C 718.566406 367.777344 734.753906 369.527344 749.1875 370.402344 C 751.667969 372.589844 755.167969 375.359375 759.832031 377.546875 C 777.914062 386.292969 799.933594 381.773438 800.664062 377.109375 C 800.957031 374.921875 796.289062 373.902344 784.039062 365.445312 C 778.0625 361.21875 773.394531 357.574219 770.332031 354.949219 C 782 352.617188 787.832031 351.011719 787.6875 350.136719 C 787.539062 348.679688 774.707031 348.679688 749.1875 350.136719 C 736.941406 347.222656 723.816406 343.722656 710.109375 339.203125 C 689.839844 332.644531 671.757812 325.207031 655.71875 317.773438 C 642.886719 307.421875 627.867188 296.488281 610.367188 285.84375 C 598.117188 278.410156 586.304688 272.140625 575.222656 266.890625 C 567.496094 263.683594 558.746094 266.597656 554.664062 273.304688 C 551.015625 279.28125 551.890625 287.15625 556.703125 292.695312 C 569.535156 300.714844 582.515625 309.023438 595.785156 317.773438 Z M 594.179688 192.683594 C 592.285156 204.054688 583.390625 209.59375 582.078125 210.46875 C 582.367188 210.761719 586.597656 215.132812 585.285156 220.089844 C 584.117188 225.046875 578.140625 228.691406 571.578125 227.382812 L 572.453125 256.394531 C 564.433594 259.894531 556.265625 263.390625 548.246094 266.890625 C 549.703125 264.265625 552.765625 257.707031 552.328125 249.105469 C 551.890625 242.6875 549.703125 238.023438 548.246094 235.398438 C 542.121094 231.753906 530.894531 223.882812 530.3125 212.800781 C 529.289062 195.160156 556.265625 181.742188 570.996094 177.226562 C 579.015625 174.75 585.867188 174.164062 590.390625 174.019531 C 591.265625 175.621094 595.785156 182.910156 594.179688 192.683594 " fill-opacity="1" fill-rule="nonzero"/></g><path fill="#000000" d="M 501.292969 378.28125 C 511.5 382.070312 524.332031 381.925781 535.121094 380.90625 C 545.621094 380.03125 556.414062 377.695312 565.890625 372.886719 C 567.203125 372.15625 566.328125 370.261719 564.871094 370.554688 C 554.078125 373.324219 543.726562 376.09375 532.496094 376.675781 C 522 377.257812 512.082031 375.074219 501.730469 374.34375 C 499.398438 374.199219 499.25 377.550781 501.292969 378.28125 Z M 569.390625 387.171875 C 570.265625 386.734375 569.828125 385.570312 568.953125 385.425781 C 558.015625 384.988281 546.496094 388.339844 535.558594 389.507812 C 524.332031 390.671875 513.105469 390.816406 501.730469 390.816406 C 498.523438 390.816406 498.523438 395.628906 501.730469 395.773438 C 513.980469 396.210938 526.226562 395.484375 538.332031 394.027344 C 548.394531 392.859375 560.351562 391.839844 569.390625 387.171875 Z M 719.296875 495.496094 C 711.421875 503.660156 703.984375 511.972656 696.402344 520.425781 C 696.402344 519.699219 696.109375 518.824219 695.234375 518.386719 C 676.570312 511.097656 658.925781 500.597656 643.90625 487.1875 C 642.886719 486.3125 641.425781 487.769531 642.449219 488.644531 C 657.757812 502.933594 674.820312 514.011719 694.214844 521.886719 C 694.503906 522.03125 694.652344 522.03125 694.941406 522.03125 C 688.527344 529.175781 681.964844 536.320312 675.402344 543.460938 C 666.652344 535.296875 656.445312 528.300781 647.550781 520.136719 C 638.074219 511.386719 629.175781 502.347656 620.574219 492.726562 C 603.222656 473.042969 587.765625 451.46875 574.785156 428.578125 C 574.203125 427.703125 572.890625 428.433594 573.328125 429.453125 C 585.285156 452.78125 599.722656 474.792969 616.78125 494.769531 C 625.386719 504.828125 634.574219 514.304688 644.34375 523.34375 C 652.945312 531.214844 662.277344 540.402344 672.488281 546.523438 C 665.632812 553.8125 658.488281 560.8125 651.050781 567.519531 C 644.195312 573.640625 637.050781 579.617188 629.761719 585.160156 C 625.96875 576.847656 619.554688 569.558594 615.46875 561.25 C 610.949219 552.0625 607.011719 542.441406 603.074219 532.964844 C 595.347656 514.742188 587.472656 496.808594 579.742188 478.585938 C 579.308594 477.417969 577.121094 478.292969 577.703125 479.460938 C 585.722656 499.726562 593.742188 520.136719 601.910156 540.402344 C 605.410156 548.855469 608.761719 557.457031 612.84375 565.621094 C 616.492188 572.914062 620.71875 581.953125 627.429688 586.910156 C 615.46875 595.800781 602.785156 603.675781 589.367188 610.234375 C 565.890625 562.851562 548.390625 512.261719 538.914062 460.359375 C 538.769531 459.484375 537.308594 459.777344 537.601562 460.796875 C 546.207031 513.429688 561.953125 564.3125 585.578125 612.128906 C 579.160156 615.046875 572.597656 617.671875 565.890625 620.003906 C 563.121094 620.878906 564.285156 625.398438 567.058594 624.523438 C 598.847656 613.878906 626.84375 595.363281 651.632812 573.058594 C 677.007812 550.316406 700.777344 524.363281 721.046875 497.101562 C 721.921875 495.789062 720.171875 494.476562 719.296875 495.496094 Z M 556.414062 234.964844 C 558.601562 235.402344 560.496094 234.675781 562.539062 233.945312 C 564.433594 233.21875 566.910156 232.632812 568.371094 231.175781 C 569.097656 230.59375 568.515625 228.988281 567.496094 229.136719 C 563.558594 229.574219 560.789062 233.21875 556.703125 233.21875 C 555.539062 233.070312 555.390625 234.675781 556.414062 234.964844 Z M 573.765625 225.199219 C 577.121094 225.199219 580.910156 222.574219 582.078125 219.511719 C 582.953125 217.035156 582.222656 212.953125 579.453125 212.078125 C 578.722656 211.785156 577.847656 212.804688 578.433594 213.390625 C 579.015625 214.117188 579.746094 214.703125 580.183594 215.429688 C 580.617188 216.304688 580.765625 217.179688 580.472656 218.054688 C 579.746094 217.910156 578.871094 218.054688 577.996094 218.054688 C 577.121094 218.054688 576.097656 218.054688 575.222656 218.347656 C 574.203125 218.785156 574.203125 220.097656 575.222656 220.535156 C 576.097656 220.96875 577.121094 220.824219 577.996094 220.824219 L 578.578125 220.824219 C 577.121094 221.992188 575.078125 222.28125 573.472656 223.15625 C 572.308594 223.742188 572.746094 225.199219 573.765625 225.199219 Z M 368.59375 533.257812 C 362.761719 531.363281 356.78125 529.613281 350.949219 528.007812 C 339.140625 524.65625 327.472656 520.71875 315.371094 518.09375 C 312.890625 517.511719 311.871094 521.15625 314.347656 522.03125 C 324.117188 525.382812 334.472656 527.714844 344.386719 530.339844 C 348.910156 531.507812 353.574219 532.820312 358.09375 533.984375 C 362.46875 535.007812 368.304688 537.484375 372.386719 536.757812 C 371.804688 536.902344 371.65625 537.777344 372.238281 538.066406 C 372.386719 538.214844 372.53125 538.214844 372.824219 538.359375 C 373.113281 538.503906 373.699219 538.503906 373.84375 538.214844 C 373.988281 538.066406 374.136719 537.921875 374.28125 537.628906 C 374.574219 537.339844 374.71875 536.757812 374.425781 536.320312 C 373.261719 534.277344 370.78125 533.984375 368.59375 533.257812 Z M 365.53125 548.128906 C 345.699219 544.335938 326.597656 537.921875 307.640625 531.507812 C 305.308594 530.777344 303.558594 534.570312 305.890625 535.589844 C 324.847656 543.753906 344.824219 547.835938 365.242188 550.023438 C 366.40625 550.167969 366.554688 548.273438 365.53125 548.128906 Z M 472.417969 402.480469 C 469.792969 403.066406 468.042969 405.25 465.710938 406.417969 C 462.066406 408.3125 457.835938 408.605469 453.898438 407.4375 C 452.441406 407 452.003906 409.042969 453.316406 409.625 C 460.609375 412.25 468.191406 410.0625 473.585938 404.523438 C 474.460938 403.648438 473.585938 402.191406 472.417969 402.480469 Z M 400.382812 436.304688 C 404.464844 435.867188 407.238281 433.390625 411.027344 431.929688 C 411.613281 431.640625 412.050781 430.765625 411.464844 430.328125 C 408.839844 428.285156 407.238281 430.328125 404.757812 431.785156 C 400.09375 434.703125 394.113281 434.117188 388.863281 433.390625 C 387.988281 433.242188 387.550781 434.554688 388.425781 434.847656 C 392.21875 435.867188 396.15625 436.886719 400.382812 436.304688 Z M 396.59375 352.765625 C 390.90625 344.601562 384.78125 336.4375 378.074219 329.148438 C 377.199219 328.128906 375.300781 329.441406 376.175781 330.605469 C 382.15625 338.480469 387.988281 346.207031 393.53125 354.515625 C 394.695312 356.558594 397.90625 354.660156 396.59375 352.765625 Z M 416.132812 423.765625 C 409.277344 448.550781 402.28125 472.753906 391.925781 496.515625 C 391.050781 498.558594 393.96875 500.308594 394.988281 498.265625 C 405.339844 474.792969 414.527344 449.863281 419.050781 424.640625 C 419.195312 422.601562 416.570312 421.871094 416.132812 423.765625 Z M 305.746094 267.914062 C 310.703125 265.144531 314.933594 261.355469 319.746094 258.292969 C 325.140625 254.941406 330.828125 252.023438 336.804688 249.546875 C 348.179688 244.734375 359.699219 242.984375 371.367188 239.777344 C 371.367188 239.921875 371.511719 240.070312 371.511719 240.359375 C 370.929688 241.089844 371.367188 242.257812 372.09375 242.695312 C 373.550781 247.503906 375.59375 252.023438 378.800781 255.667969 C 379.675781 256.691406 381.574219 255.667969 381.136719 254.355469 C 380.261719 251.878906 379.09375 249.546875 377.925781 247.214844 C 380.550781 246.777344 383.03125 245.027344 385.363281 243.714844 C 388.425781 241.964844 391.050781 239.632812 393.96875 237.589844 C 394.695312 237.007812 393.96875 235.695312 393.238281 236.277344 C 390.46875 238.027344 387.40625 239.484375 384.488281 240.945312 C 382.011719 242.257812 379.09375 243.132812 376.90625 244.878906 C 376.46875 243.714844 375.886719 242.695312 375.449219 241.527344 C 380.113281 239.195312 384.78125 236.570312 388.863281 233.21875 C 389.738281 232.488281 388.570312 231.320312 387.699219 231.757812 C 383.175781 233.945312 378.949219 236.425781 374.425781 238.613281 C 374.28125 238.175781 374.136719 237.882812 373.988281 237.445312 C 372.238281 230.882812 371.367188 224.03125 371.804688 217.324219 C 371.804688 216.449219 370.492188 216.449219 370.492188 217.324219 C 370.054688 220.824219 369.761719 224.617188 369.90625 228.40625 C 358.242188 224.324219 345.699219 227.96875 334.035156 230.15625 C 321.058594 232.488281 310.847656 236.132812 300.933594 245.027344 C 299.328125 246.484375 301.515625 249.546875 303.265625 248.089844 C 307.203125 245.171875 310.847656 241.820312 315.222656 239.484375 C 320.910156 236.277344 327.179688 235.113281 333.597656 233.800781 C 345.410156 231.320312 357.949219 227.386719 370.054688 229.71875 C 370.199219 232.488281 370.492188 235.257812 370.929688 237.882812 C 358.679688 237.300781 345.554688 241.527344 334.328125 246.191406 C 323.828125 250.566406 311.140625 256.398438 303.558594 265 C 302.390625 266.605469 303.996094 268.9375 305.746094 267.914062 Z M 269.582031 198.519531 C 262.582031 193.417969 256.167969 187.289062 248.730469 182.773438 C 247.125 181.746094 245.375 184.082031 246.6875 185.390625 C 252.375 191.375 259.8125 196.039062 266.664062 200.851562 C 274.25 206.101562 281.976562 211.058594 289.996094 215.285156 C 291.019531 215.867188 291.746094 214.410156 290.871094 213.679688 C 283.871094 208.578125 276.582031 203.621094 269.582031 198.519531 Z M 266.664062 206.539062 C 259.226562 200.996094 251.5 195.601562 243.332031 191.230469 C 241.148438 190.0625 239.105469 193.417969 241.292969 194.582031 C 249.019531 198.957031 256.457031 203.765625 263.75 208.871094 C 269.875 213.242188 276.433594 219.511719 283.582031 221.84375 C 284.019531 221.992188 284.457031 221.40625 284.164062 221.117188 C 280.082031 215.140625 272.351562 210.765625 266.664062 206.539062 Z M 301.664062 215.429688 C 304.871094 199.683594 305.308594 184.8125 316.246094 171.980469 C 317.121094 170.960938 315.660156 169.503906 314.785156 170.523438 C 303.265625 181.746094 298.746094 199.539062 299.621094 215.285156 C 299.621094 216.304688 301.515625 216.742188 301.664062 215.429688 Z M 359.554688 178.101562 C 359.84375 178.25 360.136719 178.398438 360.28125 178.398438 C 360.867188 179.417969 362.46875 180.148438 363.34375 179.125 C 366.992188 174.894531 367.429688 169.214844 368.304688 163.820312 C 369.617188 156.09375 371.074219 148.945312 373.699219 141.511719 C 373.988281 140.785156 372.824219 140.34375 372.386719 140.925781 C 369.617188 146.324219 368.15625 152.15625 366.554688 157.988281 C 364.949219 163.671875 364.367188 170.671875 361.15625 175.773438 C 357.074219 169.214844 353.867188 163.382812 352.699219 155.363281 C 351.535156 147.632812 352.410156 139.90625 352.117188 132.035156 C 352.117188 131.160156 350.660156 130.867188 350.367188 131.746094 C 347.597656 146.027344 347.011719 167.753906 359.554688 178.101562 Z M 370.78125 131.015625 C 368.59375 127.804688 368.742188 124.746094 368.742188 121.101562 C 368.742188 119.933594 366.84375 119.644531 366.699219 120.808594 C 365.96875 124.597656 367.867188 128.53125 370.054688 131.449219 C 370.34375 131.886719 371.074219 131.449219 370.78125 131.015625 Z M 369.617188 108.269531 C 369.617188 106.375 369.03125 104.773438 369.90625 103.019531 C 370.054688 102.878906 370.054688 102.585938 370.199219 102.4375 C 370.78125 102.878906 371.074219 103.75 371.511719 104.335938 C 371.949219 104.914062 372.53125 105.355469 372.96875 105.933594 C 373.40625 106.523438 374.28125 106.082031 373.84375 105.355469 C 373.550781 104.625 373.261719 104.042969 372.96875 103.316406 C 372.675781 102.730469 372.09375 102 371.949219 101.269531 C 371.800781 100.980469 371.800781 100.832031 371.65625 100.691406 C 372.386719 100.101562 373.261719 99.960938 374.136719 100.398438 C 374.574219 100.542969 375.15625 100.398438 375.011719 99.8125 C 374.71875 96.457031 370.492188 98.792969 369.324219 100.101562 C 367.429688 102.148438 365.824219 106.230469 367.574219 108.710938 C 368.15625 109.578125 369.617188 109.4375 369.617188 108.269531 Z M 107.71875 282.636719 C 110.925781 284.53125 115.300781 284.09375 118.21875 281.910156 C 118.804688 281.472656 118.367188 280.449219 117.636719 280.886719 C 114.429688 282.492188 111.65625 282.347656 108.449219 281.035156 C 107.429688 280.742188 106.84375 282.199219 107.71875 282.636719 Z M 16.433594 562.121094 C 27.664062 529.753906 52.019531 504.679688 69.953125 475.957031 C 70.683594 474.792969 68.929688 473.917969 68.199219 474.9375 C 49.242188 503.367188 24.75 528.441406 13.226562 561.246094 C 12.644531 563.140625 15.851562 564.015625 16.433594 562.121094 Z M 93.285156 468.8125 C 93.285156 460.359375 93.429688 452.046875 93.136719 443.59375 C 92.988281 441.113281 89.203125 441.113281 89.34375 443.59375 C 89.78125 452.046875 90.511719 460.359375 91.097656 468.8125 C 91.242188 470.273438 93.285156 470.273438 93.285156 468.8125 Z M 66.160156 468.8125 C 64.554688 468.667969 64.414062 471.148438 65.722656 471.585938 C 73.160156 474.0625 80.890625 475.230469 88.613281 475.8125 C 80.742188 490.972656 72.722656 505.992188 64.703125 521.152344 C 56.683594 536.460938 46.476562 552.0625 40.492188 568.390625 C 39.914062 569.847656 41.953125 570.429688 42.679688 569.410156 C 47.785156 562.121094 51.429688 553.519531 55.664062 545.644531 C 59.890625 537.628906 63.972656 529.609375 68.058594 521.589844 C 75.785156 506.574219 83.21875 491.410156 90.511719 476.105469 C 96.929688 476.6875 104.363281 477.5625 110.054688 474.792969 C 111.074219 474.207031 110.636719 472.75 109.757812 472.457031 C 103.492188 470.273438 95.617188 471.875 88.910156 471.4375 C 81.324219 471 73.742188 469.6875 66.160156 468.8125 Z M 131.632812 644.054688 C 121.71875 615.042969 108.886719 587.050781 90.800781 562.121094 C 95.175781 538.792969 112.09375 520.277344 121.132812 498.703125 C 130.171875 477.125 135.714844 452.484375 133.820312 428.867188 C 133.675781 427.847656 132.359375 427.847656 132.21875 428.867188 C 130.902344 454.378906 127.117188 478.726562 116.179688 502.199219 C 107.136719 521.445312 92.699219 538.210938 88.179688 559.351562 C 87.304688 559.351562 86.574219 560.226562 87.15625 561.101562 C 87.304688 561.390625 87.59375 561.828125 87.742188 562.121094 C 87.742188 562.414062 88.035156 562.703125 88.179688 562.851562 C 104.65625 589.820312 118.074219 617.667969 128.28125 647.847656 C 138.632812 678.609375 149.128906 709.515625 154.09375 741.738281 C 154.53125 744.652344 159.046875 743.484375 158.609375 740.425781 C 153.503906 707.476562 142.425781 675.546875 131.632812 644.054688 Z M 74.179688 623.0625 C 68.929688 614.167969 63.246094 605.566406 57.121094 597.257812 C 51.289062 589.238281 43.847656 581.800781 40.933594 572.179688 C 40.492188 570.867188 38.601562 571.453125 38.894531 572.761719 C 40.203125 581.511719 45.894531 588.070312 50.996094 594.925781 C 51.578125 595.652344 52.019531 596.382812 52.453125 597.109375 C 47.054688 592.300781 41.371094 587.632812 36.265625 582.386719 C 29.707031 575.535156 23.722656 567.078125 14.535156 563.722656 C 13.078125 563.289062 12.496094 565.328125 13.515625 566.058594 C 22.703125 572.035156 29.125 581.65625 36.847656 589.382812 C 43.996094 596.671875 51.578125 605.128906 60.476562 610.085938 C 60.765625 610.230469 61.203125 610.378906 61.496094 610.378906 C 63.972656 614.167969 66.308594 617.960938 68.640625 621.894531 C 73.890625 630.789062 78.847656 639.828125 83.371094 649.011719 C 88.035156 658.488281 91.679688 668.839844 97.074219 678.023438 C 97.804688 679.335938 99.699219 678.460938 99.410156 677.003906 C 95.324219 658.34375 83.949219 639.390625 74.179688 623.0625 Z M 149.425781 313.691406 C 152.34375 309.464844 151.464844 301.738281 150.738281 296.925781 C 150.589844 295.90625 148.988281 295.90625 149.128906 296.925781 C 149.277344 299.695312 149.277344 302.464844 148.988281 305.089844 C 148.699219 307.714844 147.671875 310.484375 147.96875 313.253906 C 147.96875 313.984375 148.988281 314.273438 149.425781 313.691406 Z M 120.40625 380.902344 C 125.65625 381.777344 131.78125 381.046875 134.113281 375.652344 C 134.84375 374.195312 132.949219 372.445312 131.632812 373.757812 C 125.21875 380.316406 119.675781 375.363281 112.242188 375.070312 C 107.429688 374.925781 104.804688 377.546875 100.867188 379.882812 C 92.699219 384.691406 89.34375 378.570312 82.203125 377.257812 C 76.515625 376.234375 66.742188 383.378906 62.664062 376.382812 C 62.078125 375.214844 60.476562 376.234375 61.058594 377.402344 C 62.953125 381.777344 67.179688 382.503906 71.554688 381.921875 C 73.742188 381.628906 75.785156 380.753906 78.117188 380.609375 C 81.761719 380.464844 84.386719 382.359375 87.59375 383.671875 C 90.800781 385.128906 93.429688 386.296875 97.074219 385.566406 C 99.988281 385.128906 102.175781 383.527344 104.65625 381.777344 C 109.90625 378.132812 114.429688 379.882812 120.40625 380.902344 Z M 63.824219 364.71875 C 65.140625 365.886719 66.160156 366.324219 68.058594 366.324219 C 69.222656 366.324219 70.386719 365.738281 71.410156 365.300781 C 74.621094 363.699219 73.890625 362.824219 78.40625 362.96875 C 83.371094 363.113281 86.425781 366.324219 91.097656 367.195312 C 93.867188 367.632812 96.785156 367.050781 99.550781 366.320312 C 103.054688 365.300781 106.410156 363.699219 110.054688 362.675781 C 115.589844 361.21875 118.507812 363.40625 123.613281 364.71875 C 129.59375 366.175781 134.695312 364.136719 138.34375 359.324219 C 138.921875 358.59375 137.902344 357.71875 137.324219 358.304688 C 133.238281 362.824219 127.984375 363.550781 122.59375 361.511719 C 120.40625 360.78125 118.65625 359.761719 116.46875 359.324219 C 111.074219 358.59375 105.824219 361.074219 100.71875 362.53125 C 96.492188 363.84375 92.554688 364.28125 88.179688 362.53125 C 85.554688 361.367188 83.511719 359.46875 80.742188 358.742188 C 78.996094 358.15625 77.097656 358.011719 75.199219 358.59375 C 72.433594 359.46875 69.078125 364.425781 65.722656 362.238281 C 64.265625 361.367188 62.515625 363.699219 63.824219 364.71875 Z M 55.953125 338.914062 C 58.140625 332.351562 56.972656 325.0625 58.289062 318.210938 C 59.449219 311.648438 61.636719 305.234375 63.535156 298.820312 C 63.824219 297.945312 62.367188 297.21875 61.933594 298.089844 C 59.160156 304.359375 56.683594 310.628906 55.371094 317.335938 C 53.914062 324.335938 54.347656 331.476562 54.203125 338.621094 C 54.203125 339.640625 55.664062 339.789062 55.953125 338.914062 Z M 101.597656 294.59375 C 104.949219 295.757812 107.867188 297.800781 111.511719 297.945312 C 115.589844 298.089844 118.65625 296.488281 121.71875 294.007812 C 122.742188 293.136719 124.488281 294.300781 123.613281 295.46875 C 121.28125 298.527344 117.925781 300.425781 114.132812 301.007812 C 109.179688 301.882812 105.242188 299.550781 100.578125 297.800781 C 98.679688 297.070312 99.550781 293.863281 101.597656 294.59375 " fill-opacity="1" fill-rule="nonzero"/></svg>