<svg xmlns="http://www.w3.org/2000/svg" xmlns:xlink="http://www.w3.org/1999/xlink" width="1080" zoomAndPan="magnify" viewBox="0 0 810 809.999993" height="1080" preserveAspectRatio="xMidYMid meet" version="1.0"><defs><clipPath id="id1"><path d="M 34.46875 112 L 775.46875 112 L 775.46875 697.695312 L 34.46875 697.695312 Z M 34.46875 112 " clip-rule="nonzero"/></clipPath><clipPath id="id2"><path d="M 200 533 L 662 533 L 662 697.695312 L 200 697.695312 Z M 200 533 " clip-rule="nonzero"/></clipPath><clipPath id="id3"><path d="M 34.46875 212 L 216 212 L 216 332 L 34.46875 332 Z M 34.46875 212 " clip-rule="nonzero"/></clipPath><clipPath id="id4"><path d="M 404 212 L 775.46875 212 L 775.46875 434 L 404 434 Z M 404 212 " clip-rule="nonzero"/></clipPath></defs><g clip-path="url(#id1)"><path fill="#000000" d="M 775.46875 254.902344 L 775.46875 212.078125 L 404.96875 112.15625 L 34.46875 212.078125 L 34.46875 254.902344 L 167.847656 319.171875 C 170 357.8125 165.277344 400.875 162.710938 447.644531 C 162.351562 453.972656 161.992188 460.183594 161.515625 466.335938 L 161.574219 466.335938 C 160.199219 470.339844 159.484375 474.519531 159.484375 478.699219 C 153.269531 503.605469 151.117188 524.570312 150.339844 539.382812 C 148.070312 583.042969 156.613281 596.125 159.484375 600.066406 C 164.921875 607.652344 171.792969 613.085938 176.992188 616.429688 C 181.292969 619.296875 184.519531 620.730469 184.941406 620.910156 C 190.496094 623.359375 195.753906 624.671875 200.058594 625.390625 C 243.5625 659.253906 313.0625 697.480469 404.96875 697.480469 C 409.988281 697.480469 423.910156 697.300781 443.511719 694.734375 C 496.339844 687.625 590.21875 662.898438 661.449219 576.117188 C 659.179688 562.558594 657.085938 548.402344 655.175781 533.648438 C 651.648438 506.773438 648.902344 478.042969 647.226562 447.644531 C 644.65625 400.875 639.816406 357.871094 641.910156 319.230469 Z M 775.46875 254.902344 " fill-opacity="1" fill-rule="nonzero"/></g><path fill="#ef9d26" d="M 251.449219 600.066406 C 249.898438 602.277344 248.164062 604.304688 246.429688 606.097656 C 242.1875 610.636719 237.644531 614.042969 233.941406 616.429688 C 229.578125 619.296875 226.351562 620.730469 225.992188 620.910156 C 217.867188 624.492188 210.394531 625.6875 205.496094 626.105469 C 203.941406 625.988281 202.089844 625.75 200.058594 625.390625 C 195.753906 624.671875 190.496094 623.359375 184.941406 620.910156 C 184.519531 620.730469 181.292969 619.296875 176.992188 616.429688 C 171.792969 613.085938 164.921875 607.652344 159.484375 600.066406 C 156.613281 596.125 148.070312 583.042969 150.339844 539.382812 C 151.117188 524.570312 153.269531 503.605469 159.484375 478.699219 L 251.449219 478.699219 C 257.664062 503.605469 259.816406 524.570312 260.59375 539.382812 C 262.863281 583.042969 254.320312 596.125 251.449219 600.066406 Z M 251.449219 600.066406 " fill-opacity="1" fill-rule="nonzero"/><path fill="#ffbf01" d="M 381.601562 250.304688 L 247.566406 314.75 L 233.105469 321.679688 C 224.976562 325.621094 219.71875 333.980469 219.71875 343.0625 L 219.71875 435.816406 C 237.289062 441.910156 251.449219 460.066406 251.449219 478.699219 L 159.484375 478.699219 C 159.484375 474.519531 160.199219 470.339844 161.574219 466.335938 C 165.996094 452.539062 177.589844 440.535156 191.214844 435.816406 L 191.214844 343.0625 C 191.214844 339 191.691406 334.996094 192.648438 331.117188 C 195.695312 318.035156 203.761719 306.449219 215.175781 299.101562 C 216.96875 297.96875 218.824219 296.890625 220.792969 295.9375 L 362.300781 227.90625 L 362.359375 227.90625 C 363.078125 237.285156 370.546875 245.40625 381.601562 250.246094 Z M 381.601562 250.304688 " fill-opacity="1" fill-rule="nonzero"/><path fill="#ffbf01" d="M 404.96875 197.804688 C 428.574219 197.804688 447.695312 210.585938 447.695312 226.355469 C 447.695312 242.121094 428.574219 254.902344 404.96875 254.902344 C 396.304688 254.902344 388.296875 253.171875 381.601562 250.246094 C 370.546875 245.40625 363.078125 237.285156 362.359375 227.90625 C 362.242188 227.371094 362.242188 226.890625 362.242188 226.355469 C 362.242188 210.585938 381.363281 197.804688 404.96875 197.804688 Z M 404.96875 197.804688 " fill-opacity="1" fill-rule="nonzero"/><g clip-path="url(#id2)"><path fill="#333333" d="M 661.449219 576.117188 C 590.21875 662.898438 496.339844 687.625 443.511719 694.734375 C 423.910156 697.300781 409.988281 697.480469 404.96875 697.480469 C 313.0625 697.480469 243.5625 659.253906 200.058594 625.390625 C 202.089844 625.75 203.941406 625.988281 205.496094 626.105469 C 210.394531 625.6875 217.867188 624.492188 225.992188 620.910156 C 226.351562 620.730469 229.578125 619.296875 233.941406 616.429688 C 237.644531 614.042969 242.1875 610.636719 246.429688 606.097656 C 287.542969 628.855469 340.789062 647.488281 404.96875 647.488281 C 409.988281 647.488281 423.972656 647.308594 443.511719 644.683594 C 494.785156 637.871094 584.78125 614.339844 655.175781 533.648438 C 657.089844 548.402344 659.179688 562.558594 661.449219 576.117188 Z M 661.449219 576.117188 " fill-opacity="1" fill-rule="nonzero"/></g><path fill="#000000" d="M 192.648438 331.117188 C 191.691406 334.996094 191.214844 339 191.214844 343.0625 L 191.214844 435.816406 C 177.589844 440.535156 165.996094 452.539062 161.574219 466.335938 L 161.515625 466.335938 C 161.992188 460.183594 162.351562 453.972656 162.710938 447.644531 C 165.277344 400.875 170 357.8125 167.847656 319.171875 Z M 192.648438 331.117188 " fill-opacity="1" fill-rule="nonzero"/><g clip-path="url(#id3)"><path fill="#333333" d="M 215.175781 299.101562 C 203.761719 306.449219 195.695312 318.035156 192.648438 331.117188 L 167.847656 319.171875 L 34.46875 254.902344 L 34.46875 212.078125 Z M 215.175781 299.101562 " fill-opacity="1" fill-rule="nonzero"/></g><path fill="#333333" d="M 404.96875 390.542969 L 404.96875 433.367188 L 219.71875 344.136719 L 219.71875 343.0625 C 219.71875 333.980469 224.976562 325.621094 233.105469 321.679688 L 247.566406 314.75 Z M 404.96875 390.542969 " fill-opacity="1" fill-rule="nonzero"/><g clip-path="url(#id4)"><path fill="#333333" d="M 775.46875 212.078125 L 775.46875 254.902344 L 641.910156 319.230469 L 404.96875 433.367188 L 404.96875 390.542969 Z M 775.46875 212.078125 " fill-opacity="1" fill-rule="nonzero"/></g><path fill="#ffbf01" d="M 205.496094 541.59375 C 202.199219 541.59375 199.519531 544.261719 199.519531 547.566406 L 199.519531 620.132812 C 199.519531 623.429688 202.199219 626.105469 205.496094 626.105469 C 208.792969 626.105469 211.472656 623.429688 211.472656 620.132812 L 211.472656 547.566406 C 211.472656 544.269531 208.792969 541.59375 205.496094 541.59375 Z M 205.496094 541.59375 " fill-opacity="1" fill-rule="nonzero"/><path fill="#ffbf01" d="M 233.941406 541.59375 C 230.640625 541.59375 227.964844 544.261719 227.964844 547.566406 L 227.964844 610.457031 C 227.964844 613.753906 230.640625 616.429688 233.941406 616.429688 C 237.238281 616.429688 239.917969 613.753906 239.917969 610.457031 L 239.917969 547.566406 C 239.917969 544.269531 237.238281 541.59375 233.941406 541.59375 Z M 233.941406 541.59375 " fill-opacity="1" fill-rule="nonzero"/><path fill="#ffbf01" d="M 176.992188 541.59375 C 173.691406 541.59375 171.015625 544.261719 171.015625 547.566406 L 171.015625 610.457031 C 171.015625 613.753906 173.691406 616.429688 176.992188 616.429688 C 180.289062 616.429688 182.96875 613.753906 182.96875 610.457031 L 182.96875 547.566406 C 182.96875 544.269531 180.289062 541.59375 176.992188 541.59375 Z M 176.992188 541.59375 " fill-opacity="1" fill-rule="nonzero"/><path fill="#ffbf01" d="M 205.496094 478.699219 C 202.199219 478.699219 199.519531 481.375 199.519531 484.671875 L 199.519531 511.910156 C 199.519531 515.210938 202.199219 517.882812 205.496094 517.882812 C 208.792969 517.882812 211.472656 515.210938 211.472656 511.910156 L 211.472656 484.671875 C 211.472656 481.375 208.792969 478.699219 205.496094 478.699219 Z M 205.496094 478.699219 " fill-opacity="1" fill-rule="nonzero"/><path fill="#ffbf01" d="M 233.941406 478.699219 C 230.640625 478.699219 227.964844 481.375 227.964844 484.671875 L 227.964844 511.910156 C 227.964844 515.210938 230.640625 517.882812 233.941406 517.882812 C 237.238281 517.882812 239.917969 515.210938 239.917969 511.910156 L 239.917969 484.671875 C 239.917969 481.375 237.238281 478.699219 233.941406 478.699219 Z M 233.941406 478.699219 " fill-opacity="1" fill-rule="nonzero"/><path fill="#ffbf01" d="M 176.992188 478.699219 C 173.691406 478.699219 171.015625 481.375 171.015625 484.671875 L 171.015625 511.910156 C 171.015625 515.210938 173.691406 517.882812 176.992188 517.882812 C 180.289062 517.882812 182.96875 515.210938 182.96875 511.910156 L 182.96875 484.671875 C 182.96875 481.375 180.289062 478.699219 176.992188 478.699219 Z M 176.992188 478.699219 " fill-opacity="1" fill-rule="nonzero"/></svg>