<svg xmlns="http://www.w3.org/2000/svg" xmlns:xlink="http://www.w3.org/1999/xlink" width="1080" zoomAndPan="magnify" viewBox="0 0 810 809.999993" height="1080" preserveAspectRatio="xMidYMid meet" version="1.0"><defs><clipPath id="id1"><path d="M 30.550781 282 L 131 282 L 131 341 L 30.550781 341 Z M 30.550781 282 " clip-rule="nonzero"/></clipPath><clipPath id="id2"><path d="M 679 282 L 779.800781 282 L 779.800781 341 L 679 341 Z M 679 282 " clip-rule="nonzero"/></clipPath><clipPath id="id3"><path d="M 30.550781 470 L 131 470 L 131 528 L 30.550781 528 Z M 30.550781 470 " clip-rule="nonzero"/></clipPath><clipPath id="id4"><path d="M 679 470 L 779.800781 470 L 779.800781 528 L 679 528 Z M 679 470 " clip-rule="nonzero"/></clipPath><clipPath id="id5"><path d="M 470 30.550781 L 528 30.550781 L 528 131 L 470 131 Z M 470 30.550781 " clip-rule="nonzero"/></clipPath><clipPath id="id6"><path d="M 470 679 L 528 679 L 528 779.800781 L 470 779.800781 Z M 470 679 " clip-rule="nonzero"/></clipPath><clipPath id="id7"><path d="M 282 30.550781 L 341 30.550781 L 341 131 L 282 131 Z M 282 30.550781 " clip-rule="nonzero"/></clipPath><clipPath id="id8"><path d="M 282 679 L 341 679 L 341 779.800781 L 282 779.800781 Z M 282 679 " clip-rule="nonzero"/></clipPath></defs><rect x="-81" width="972" fill="#14ae5c" y="-80.999999" height="971.999992" fill-opacity="1"/><rect x="-81" width="972" fill="#ffffff" y="-80.999999" height="971.999992" fill-opacity="1"/><rect x="-81" width="972" fill="#14ae5c" y="-80.999999" height="971.999992" fill-opacity="1"/><path fill="#ffbf01" d="M 129.957031 224.601562 C 129.957031 224.601562 122.167969 320.84375 195.082031 301.265625 C 215.117188 256.964844 180.316406 244.929688 154.4375 236.992188 C 140.136719 232.601562 129.957031 224.601562 129.957031 224.601562 " fill-opacity="1" fill-rule="nonzero"/><g clip-path="url(#id1)"><path fill="#ffbf01" d="M 30.558594 304.898438 C 30.558594 304.898438 93.109375 378.460938 130.820312 313.0625 C 113.664062 267.566406 80.542969 283.660156 56.628906 296.347656 C 43.414062 303.359375 30.558594 304.898438 30.558594 304.898438 " fill-opacity="1" fill-rule="nonzero"/></g><path fill="#ffbf01" d="M 129.800781 320.625 C 129.800781 320.625 125.171875 389.3125 176.960938 374.65625 C 190.820312 342.886719 165.894531 334.636719 147.371094 329.222656 C 137.132812 326.230469 129.800781 320.625 129.800781 320.625 " fill-opacity="1" fill-rule="nonzero"/><path fill="#000000" d="M 178.183594 278.128906 C 178.183594 281.308594 175.609375 283.882812 172.429688 283.882812 C 169.253906 283.882812 166.675781 281.308594 166.675781 278.128906 C 166.675781 274.949219 169.253906 272.375 172.429688 272.375 C 175.609375 272.375 178.183594 274.949219 178.183594 278.128906 Z M 162.261719 278.128906 C 162.261719 283.746094 166.816406 288.296875 172.429688 288.296875 C 174.121094 288.296875 175.707031 287.878906 177.109375 287.148438 L 231.617188 341.65625 L 265.535156 341.65625 L 294.238281 370.359375 L 337.316406 370.359375 L 337.316406 363.9375 L 296.898438 363.9375 L 268.199219 335.234375 L 234.273438 335.234375 L 181.582031 282.542969 C 182.226562 281.207031 182.601562 279.714844 182.601562 278.128906 C 182.601562 272.511719 178.046875 267.960938 172.429688 267.960938 C 166.816406 267.960938 162.261719 272.511719 162.261719 278.128906 " fill-opacity="1" fill-rule="nonzero"/><path fill="#000000" d="M 97.332031 313.550781 C 97.332031 310.378906 99.90625 307.800781 103.082031 307.800781 C 106.261719 307.800781 108.835938 310.378906 108.835938 313.550781 C 108.835938 316.730469 106.261719 319.308594 103.082031 319.308594 C 99.90625 319.308594 97.332031 316.730469 97.332031 313.550781 Z M 112.585938 317.152344 L 169.84375 317.152344 L 223.054688 370.359375 L 273.089844 370.359375 L 273.089844 363.9375 L 225.710938 363.9375 L 172.503906 310.726562 L 112.847656 310.726562 C 111.621094 306.488281 107.71875 303.386719 103.082031 303.386719 C 97.464844 303.386719 92.914062 307.941406 92.914062 313.550781 C 92.914062 319.171875 97.464844 323.726562 103.082031 323.726562 C 107.433594 323.726562 111.132812 320.992188 112.585938 317.152344 " fill-opacity="1" fill-rule="nonzero"/><path fill="#ffbf01" d="M 680.394531 224.601562 C 680.394531 224.601562 688.1875 320.84375 615.273438 301.265625 C 595.234375 256.964844 630.039062 244.929688 655.914062 236.992188 C 670.21875 232.601562 680.394531 224.601562 680.394531 224.601562 " fill-opacity="1" fill-rule="nonzero"/><g clip-path="url(#id2)"><path fill="#ffbf01" d="M 779.796875 304.898438 C 779.796875 304.898438 717.25 378.457031 679.53125 313.0625 C 696.6875 267.566406 729.8125 283.660156 753.726562 296.347656 C 766.945312 303.359375 779.796875 304.898438 779.796875 304.898438 " fill-opacity="1" fill-rule="nonzero"/></g><path fill="#ffbf01" d="M 680.550781 320.625 C 680.550781 320.625 685.179688 389.3125 633.390625 374.65625 C 619.535156 342.886719 644.460938 334.636719 662.984375 329.222656 C 673.222656 326.230469 680.550781 320.625 680.550781 320.625 " fill-opacity="1" fill-rule="nonzero"/><path fill="#000000" d="M 637.925781 272.375 C 641.101562 272.375 643.679688 274.949219 643.679688 278.128906 C 643.679688 281.308594 641.101562 283.882812 637.925781 283.882812 C 634.746094 283.882812 632.175781 281.308594 632.175781 278.128906 C 632.175781 274.949219 634.746094 272.375 637.925781 272.375 Z M 637.925781 267.960938 C 632.308594 267.960938 627.753906 272.511719 627.753906 278.128906 C 627.753906 279.714844 628.128906 281.207031 628.773438 282.542969 L 576.078125 335.234375 L 542.15625 335.234375 L 513.457031 363.9375 L 473.039062 363.9375 L 473.039062 370.359375 L 516.113281 370.359375 L 544.820312 341.65625 L 578.738281 341.65625 L 633.242188 287.148438 C 634.644531 287.878906 636.234375 288.296875 637.925781 288.296875 C 643.539062 288.296875 648.09375 283.746094 648.09375 278.128906 C 648.09375 272.511719 643.539062 267.960938 637.925781 267.960938 " fill-opacity="1" fill-rule="nonzero"/><path fill="#000000" d="M 707.269531 319.308594 C 704.089844 319.308594 701.519531 316.730469 701.519531 313.550781 C 701.519531 310.378906 704.089844 307.800781 707.269531 307.800781 C 710.445312 307.800781 713.027344 310.378906 713.027344 313.550781 C 713.027344 316.730469 710.445312 319.308594 707.269531 319.308594 Z M 707.269531 323.726562 C 712.886719 323.726562 717.441406 319.171875 717.441406 313.550781 C 717.441406 307.941406 712.886719 303.386719 707.269531 303.386719 C 702.636719 303.386719 698.734375 306.488281 697.507812 310.726562 L 637.851562 310.726562 L 584.640625 363.9375 L 537.269531 363.9375 L 537.269531 370.359375 L 587.304688 370.359375 L 640.507812 317.152344 L 697.773438 317.152344 C 699.222656 320.992188 702.925781 323.726562 707.269531 323.726562 " fill-opacity="1" fill-rule="nonzero"/><path fill="#ffbf01" d="M 129.957031 585.753906 C 129.957031 585.753906 122.167969 489.511719 195.082031 509.089844 C 215.117188 553.390625 180.316406 565.425781 154.4375 573.363281 C 140.136719 577.753906 129.957031 585.753906 129.957031 585.753906 " fill-opacity="1" fill-rule="nonzero"/><g clip-path="url(#id3)"><path fill="#ffbf01" d="M 30.558594 505.453125 C 30.558594 505.453125 93.109375 431.894531 130.820312 497.292969 C 113.664062 542.789062 80.542969 526.695312 56.628906 514.007812 C 43.414062 506.996094 30.558594 505.453125 30.558594 505.453125 " fill-opacity="1" fill-rule="nonzero"/></g><path fill="#ffbf01" d="M 129.800781 489.730469 C 129.800781 489.730469 125.171875 421.042969 176.960938 435.699219 C 190.820312 467.46875 165.894531 475.71875 147.371094 481.128906 C 137.132812 484.121094 129.800781 489.730469 129.800781 489.730469 " fill-opacity="1" fill-rule="nonzero"/><path fill="#000000" d="M 172.429688 537.980469 C 169.253906 537.980469 166.675781 535.40625 166.675781 532.226562 C 166.675781 529.046875 169.253906 526.472656 172.429688 526.472656 C 175.609375 526.472656 178.183594 529.046875 178.183594 532.226562 C 178.183594 535.40625 175.609375 537.980469 172.429688 537.980469 Z M 172.429688 542.394531 C 178.046875 542.394531 182.601562 537.84375 182.601562 532.226562 C 182.601562 530.640625 182.226562 529.148438 181.582031 527.8125 L 234.273438 475.121094 L 268.199219 475.121094 L 296.898438 446.417969 L 337.316406 446.417969 L 337.316406 439.996094 L 294.238281 439.996094 L 265.535156 468.699219 L 231.617188 468.699219 L 177.109375 523.207031 C 175.707031 522.476562 174.121094 522.054688 172.429688 522.054688 C 166.816406 522.054688 162.261719 526.609375 162.261719 532.226562 C 162.261719 537.84375 166.816406 542.394531 172.429688 542.394531 " fill-opacity="1" fill-rule="nonzero"/><path fill="#000000" d="M 103.082031 491.042969 C 106.261719 491.042969 108.835938 493.625 108.835938 496.796875 C 108.835938 499.976562 106.261719 502.554688 103.082031 502.554688 C 99.90625 502.554688 97.332031 499.976562 97.332031 496.796875 C 97.332031 493.625 99.90625 491.042969 103.082031 491.042969 Z M 103.082031 486.628906 C 97.464844 486.628906 92.914062 491.183594 92.914062 496.796875 C 92.914062 502.414062 97.464844 506.96875 103.082031 506.96875 C 107.71875 506.96875 111.621094 503.867188 112.847656 499.628906 L 172.503906 499.628906 L 225.710938 446.417969 L 273.089844 446.417969 L 273.089844 439.996094 L 223.054688 439.996094 L 169.84375 493.203125 L 112.585938 493.203125 C 111.132812 489.363281 107.433594 486.628906 103.082031 486.628906 " fill-opacity="1" fill-rule="nonzero"/><path fill="#ffbf01" d="M 680.394531 585.753906 C 680.394531 585.753906 688.1875 489.511719 615.273438 509.089844 C 595.234375 553.390625 630.039062 565.425781 655.914062 573.363281 C 670.21875 577.753906 680.394531 585.753906 680.394531 585.753906 " fill-opacity="1" fill-rule="nonzero"/><g clip-path="url(#id4)"><path fill="#ffbf01" d="M 779.796875 505.453125 C 779.796875 505.453125 717.25 431.894531 679.53125 497.292969 C 696.6875 542.789062 729.8125 526.695312 753.726562 514.007812 C 766.945312 506.996094 779.796875 505.453125 779.796875 505.453125 " fill-opacity="1" fill-rule="nonzero"/></g><path fill="#ffbf01" d="M 680.550781 489.730469 C 680.550781 489.730469 685.179688 421.042969 633.390625 435.699219 C 619.535156 467.46875 644.460938 475.71875 662.984375 481.128906 C 673.222656 484.121094 680.550781 489.730469 680.550781 489.730469 " fill-opacity="1" fill-rule="nonzero"/><path fill="#000000" d="M 632.175781 532.226562 C 632.175781 529.046875 634.746094 526.472656 637.925781 526.472656 C 641.101562 526.472656 643.679688 529.046875 643.679688 532.226562 C 643.679688 535.40625 641.101562 537.980469 637.925781 537.980469 C 634.746094 537.980469 632.175781 535.40625 632.175781 532.226562 Z M 648.09375 532.226562 C 648.09375 526.609375 643.539062 522.054688 637.925781 522.054688 C 636.234375 522.054688 634.644531 522.476562 633.242188 523.207031 L 578.738281 468.699219 L 544.820312 468.699219 L 516.113281 439.996094 L 473.039062 439.996094 L 473.039062 446.417969 L 513.457031 446.417969 L 542.15625 475.121094 L 576.078125 475.121094 L 628.773438 527.8125 C 628.128906 529.148438 627.753906 530.640625 627.753906 532.226562 C 627.753906 537.84375 632.308594 542.394531 637.925781 542.394531 C 643.539062 542.394531 648.09375 537.84375 648.09375 532.226562 " fill-opacity="1" fill-rule="nonzero"/><path fill="#000000" d="M 713.027344 496.796875 C 713.027344 499.976562 710.445312 502.554688 707.269531 502.554688 C 704.089844 502.554688 701.519531 499.976562 701.519531 496.796875 C 701.519531 493.625 704.089844 491.042969 707.269531 491.042969 C 710.445312 491.042969 713.027344 493.625 713.027344 496.796875 Z M 697.773438 493.203125 L 640.507812 493.203125 L 587.304688 439.996094 L 537.269531 439.996094 L 537.269531 446.417969 L 584.640625 446.417969 L 637.851562 499.628906 L 697.507812 499.628906 C 698.734375 503.867188 702.636719 506.96875 707.269531 506.96875 C 712.886719 506.96875 717.441406 502.414062 717.441406 496.796875 C 717.441406 491.183594 712.886719 486.628906 707.269531 486.628906 C 702.925781 486.628906 699.222656 489.363281 697.773438 493.203125 " fill-opacity="1" fill-rule="nonzero"/><path fill="#000000" d="M 251.742188 272.375 C 254.921875 272.375 257.496094 274.949219 257.496094 278.128906 C 257.496094 281.308594 254.921875 283.882812 251.742188 283.882812 C 248.566406 283.882812 245.992188 281.308594 245.992188 278.128906 C 245.992188 274.949219 248.566406 272.375 251.742188 272.375 Z M 558.613281 272.375 C 561.792969 272.375 564.363281 274.949219 564.363281 278.128906 C 564.363281 281.308594 561.792969 283.882812 558.613281 283.882812 C 555.433594 283.882812 552.855469 281.308594 552.855469 278.128906 C 552.855469 274.949219 555.433594 272.375 558.613281 272.375 Z M 251.742188 288.296875 C 253.433594 288.296875 255.019531 287.878906 256.421875 287.148438 L 310.929688 341.65625 L 344.851562 341.65625 L 373.550781 370.359375 L 436.804688 370.359375 L 465.503906 341.65625 L 499.425781 341.65625 L 553.929688 287.148438 C 555.332031 287.878906 556.921875 288.296875 558.613281 288.296875 C 564.226562 288.296875 568.777344 283.746094 568.777344 278.128906 C 568.777344 272.511719 564.226562 267.960938 558.613281 267.960938 C 552.992188 267.960938 548.441406 272.511719 548.441406 278.128906 C 548.441406 279.714844 548.816406 281.207031 549.457031 282.542969 L 496.765625 335.234375 L 462.84375 335.234375 L 434.140625 363.9375 L 376.214844 363.9375 L 347.511719 335.234375 L 313.589844 335.234375 L 260.898438 282.542969 C 261.542969 281.207031 261.914062 279.714844 261.914062 278.128906 C 261.914062 272.511719 257.359375 267.960938 251.742188 267.960938 C 246.125 267.960938 241.574219 272.511719 241.574219 278.128906 C 241.574219 283.746094 246.125 288.296875 251.742188 288.296875 " fill-opacity="1" fill-rule="nonzero"/><path fill="#000000" d="M 155.472656 347.328125 C 158.648438 347.328125 161.222656 349.90625 161.222656 353.082031 C 161.222656 356.257812 158.648438 358.835938 155.472656 358.835938 C 152.292969 358.835938 149.714844 356.257812 149.714844 353.082031 C 149.714844 349.90625 152.292969 347.328125 155.472656 347.328125 Z M 654.882812 347.328125 C 658.0625 347.328125 660.640625 349.90625 660.640625 353.082031 C 660.640625 356.257812 658.0625 358.835938 654.882812 358.835938 C 651.703125 358.835938 649.128906 356.257812 649.128906 353.082031 C 649.128906 349.90625 651.703125 347.328125 654.882812 347.328125 Z M 155.472656 363.25 C 157.046875 363.25 158.527344 362.882812 159.859375 362.246094 L 193.261719 395.648438 L 617.09375 395.648438 L 650.496094 362.246094 C 651.828125 362.882812 653.308594 363.25 654.882812 363.25 C 660.5 363.25 665.054688 358.699219 665.054688 353.082031 C 665.054688 347.464844 660.5 342.914062 654.882812 342.914062 C 649.269531 342.914062 644.714844 347.464844 644.714844 353.082031 C 644.714844 354.78125 645.140625 356.375 645.871094 357.785156 L 614.433594 389.226562 L 195.921875 389.226562 L 164.480469 357.785156 C 165.21875 356.375 165.640625 354.78125 165.640625 353.082031 C 165.640625 347.464844 161.085938 342.914062 155.472656 342.914062 C 149.855469 342.914062 145.300781 347.464844 145.300781 353.082031 C 145.300781 358.699219 149.855469 363.25 155.472656 363.25 " fill-opacity="1" fill-rule="nonzero"/><path fill="#000000" d="M 558.613281 537.980469 C 555.433594 537.980469 552.855469 535.40625 552.855469 532.226562 C 552.855469 529.046875 555.433594 526.472656 558.613281 526.472656 C 561.792969 526.472656 564.363281 529.046875 564.363281 532.226562 C 564.363281 535.40625 561.792969 537.980469 558.613281 537.980469 Z M 251.742188 537.980469 C 248.566406 537.980469 245.992188 535.40625 245.992188 532.226562 C 245.992188 529.046875 248.566406 526.472656 251.742188 526.472656 C 254.921875 526.472656 257.496094 529.046875 257.496094 532.226562 C 257.496094 535.40625 254.921875 537.980469 251.742188 537.980469 Z M 558.613281 522.054688 C 556.921875 522.054688 555.332031 522.476562 553.929688 523.207031 L 499.425781 468.699219 L 465.503906 468.699219 L 436.804688 439.996094 L 373.550781 439.996094 L 344.851562 468.699219 L 310.929688 468.699219 L 256.421875 523.207031 C 255.019531 522.476562 253.433594 522.054688 251.742188 522.054688 C 246.125 522.054688 241.574219 526.609375 241.574219 532.226562 C 241.574219 537.84375 246.125 542.394531 251.742188 542.394531 C 257.359375 542.394531 261.914062 537.84375 261.914062 532.226562 C 261.914062 530.640625 261.542969 529.148438 260.898438 527.8125 L 313.589844 475.121094 L 347.511719 475.121094 L 376.214844 446.417969 L 434.140625 446.417969 L 462.84375 475.121094 L 496.765625 475.121094 L 549.457031 527.8125 C 548.816406 529.148438 548.441406 530.640625 548.441406 532.226562 C 548.441406 537.84375 552.992188 542.394531 558.613281 542.394531 C 564.226562 542.394531 568.777344 537.84375 568.777344 532.226562 C 568.777344 526.609375 564.226562 522.054688 558.613281 522.054688 " fill-opacity="1" fill-rule="nonzero"/><path fill="#000000" d="M 654.882812 463.027344 C 651.703125 463.027344 649.128906 460.453125 649.128906 457.273438 C 649.128906 454.097656 651.703125 451.519531 654.882812 451.519531 C 658.0625 451.519531 660.640625 454.097656 660.640625 457.273438 C 660.640625 460.453125 658.0625 463.027344 654.882812 463.027344 Z M 155.472656 463.027344 C 152.292969 463.027344 149.714844 460.453125 149.714844 457.273438 C 149.714844 454.097656 152.292969 451.519531 155.472656 451.519531 C 158.648438 451.519531 161.222656 454.097656 161.222656 457.273438 C 161.222656 460.453125 158.648438 463.027344 155.472656 463.027344 Z M 654.882812 447.105469 C 653.308594 447.105469 651.828125 447.472656 650.496094 448.109375 L 617.09375 414.707031 L 193.261719 414.707031 L 159.859375 448.109375 C 158.527344 447.472656 157.046875 447.105469 155.472656 447.105469 C 149.855469 447.105469 145.300781 451.65625 145.300781 457.273438 C 145.300781 462.890625 149.855469 467.441406 155.472656 467.441406 C 161.085938 467.441406 165.640625 462.890625 165.640625 457.273438 C 165.640625 455.574219 165.21875 453.980469 164.480469 452.570312 L 195.921875 421.128906 L 614.433594 421.128906 L 645.871094 452.570312 C 645.140625 453.980469 644.714844 455.574219 644.714844 457.273438 C 644.714844 462.890625 649.269531 467.441406 654.882812 467.441406 C 660.5 467.441406 665.054688 462.890625 665.054688 457.273438 C 665.054688 451.65625 660.5 447.105469 654.882812 447.105469 " fill-opacity="1" fill-rule="nonzero"/><path fill="#ffbf01" d="M 585.753906 129.960938 C 585.753906 129.960938 489.511719 122.167969 509.089844 195.082031 C 553.390625 215.121094 565.425781 180.316406 573.363281 154.441406 C 577.753906 140.136719 585.753906 129.960938 585.753906 129.960938 " fill-opacity="1" fill-rule="nonzero"/><g clip-path="url(#id5)"><path fill="#ffbf01" d="M 505.457031 30.558594 C 505.457031 30.558594 431.898438 93.105469 497.300781 130.816406 C 542.789062 113.660156 526.695312 80.542969 514.007812 56.628906 C 506.996094 43.410156 505.457031 30.558594 505.457031 30.558594 " fill-opacity="1" fill-rule="nonzero"/></g><path fill="#ffbf01" d="M 489.730469 129.804688 C 489.730469 129.804688 421.042969 125.167969 435.699219 176.964844 C 467.46875 190.820312 475.71875 165.894531 481.128906 147.371094 C 484.121094 137.132812 489.730469 129.804688 489.730469 129.804688 " fill-opacity="1" fill-rule="nonzero"/><path fill="#000000" d="M 532.226562 178.179688 C 529.046875 178.179688 526.472656 175.609375 526.472656 172.429688 C 526.472656 169.253906 529.046875 166.675781 532.226562 166.675781 C 535.40625 166.675781 537.980469 169.253906 537.980469 172.429688 C 537.980469 175.609375 535.40625 178.179688 532.226562 178.179688 Z M 532.226562 162.261719 C 526.609375 162.261719 522.054688 166.816406 522.054688 172.429688 C 522.054688 174.121094 522.476562 175.710938 523.207031 177.109375 L 468.699219 231.617188 L 468.699219 265.535156 L 439.996094 294.238281 L 439.996094 337.316406 L 446.417969 337.316406 L 446.417969 296.898438 L 475.121094 268.199219 L 475.121094 234.277344 L 527.8125 181.582031 C 529.148438 182.226562 530.640625 182.601562 532.226562 182.601562 C 537.84375 182.601562 542.394531 178.046875 542.394531 172.429688 C 542.394531 166.816406 537.84375 162.261719 532.226562 162.261719 " fill-opacity="1" fill-rule="nonzero"/><path fill="#000000" d="M 496.804688 97.328125 C 499.976562 97.328125 502.554688 99.90625 502.554688 103.085938 C 502.554688 106.257812 499.976562 108.835938 496.804688 108.835938 C 493.625 108.835938 491.042969 106.257812 491.042969 103.085938 C 491.042969 99.90625 493.625 97.328125 496.804688 97.328125 Z M 493.203125 112.589844 L 493.203125 169.84375 L 439.996094 223.050781 L 439.996094 273.085938 L 446.417969 273.085938 L 446.417969 225.710938 L 499.628906 172.503906 L 499.628906 112.847656 C 503.867188 111.621094 506.96875 107.71875 506.96875 103.085938 C 506.96875 97.464844 502.414062 92.914062 496.804688 92.914062 C 491.183594 92.914062 486.628906 97.464844 486.628906 103.085938 C 486.628906 107.429688 489.363281 111.132812 493.203125 112.589844 " fill-opacity="1" fill-rule="nonzero"/><path fill="#ffbf01" d="M 585.753906 680.394531 C 585.753906 680.394531 489.511719 688.1875 509.089844 615.273438 C 553.390625 595.234375 565.425781 630.039062 573.363281 655.914062 C 577.753906 670.21875 585.753906 680.394531 585.753906 680.394531 " fill-opacity="1" fill-rule="nonzero"/><g clip-path="url(#id6)"><path fill="#ffbf01" d="M 505.453125 779.796875 C 505.453125 779.796875 431.894531 717.25 497.292969 679.535156 C 542.789062 696.691406 526.695312 729.8125 514.007812 753.726562 C 506.996094 766.945312 505.453125 779.796875 505.453125 779.796875 " fill-opacity="1" fill-rule="nonzero"/></g><path fill="#ffbf01" d="M 489.730469 680.550781 C 489.730469 680.550781 421.042969 685.179688 435.699219 633.390625 C 467.46875 619.535156 475.71875 644.460938 481.128906 662.984375 C 484.121094 673.222656 489.730469 680.550781 489.730469 680.550781 " fill-opacity="1" fill-rule="nonzero"/><path fill="#000000" d="M 537.980469 637.925781 C 537.980469 641.101562 535.40625 643.679688 532.226562 643.679688 C 529.046875 643.679688 526.472656 641.101562 526.472656 637.925781 C 526.472656 634.746094 529.046875 632.175781 532.226562 632.175781 C 535.40625 632.175781 537.980469 634.746094 537.980469 637.925781 Z M 542.394531 637.925781 C 542.394531 632.308594 537.84375 627.753906 532.226562 627.753906 C 530.640625 627.753906 529.148438 628.128906 527.8125 628.773438 L 475.121094 576.078125 L 475.121094 542.15625 L 446.417969 513.457031 L 446.417969 473.039062 L 439.996094 473.039062 L 439.996094 516.113281 L 468.699219 544.820312 L 468.699219 578.738281 L 523.207031 633.242188 C 522.476562 634.644531 522.054688 636.234375 522.054688 637.925781 C 522.054688 643.539062 526.609375 648.09375 532.226562 648.09375 C 537.84375 648.09375 542.394531 643.539062 542.394531 637.925781 " fill-opacity="1" fill-rule="nonzero"/><path fill="#000000" d="M 491.042969 707.269531 C 491.042969 704.089844 493.625 701.519531 496.804688 701.519531 C 499.976562 701.519531 502.554688 704.089844 502.554688 707.269531 C 502.554688 710.445312 499.976562 713.027344 496.804688 713.027344 C 493.625 713.027344 491.042969 710.445312 491.042969 707.269531 Z M 486.628906 707.269531 C 486.628906 712.886719 491.183594 717.441406 496.804688 717.441406 C 502.414062 717.441406 506.96875 712.886719 506.96875 707.269531 C 506.96875 702.636719 503.867188 698.734375 499.628906 697.507812 L 499.628906 637.851562 L 446.417969 584.640625 L 446.417969 537.269531 L 439.996094 537.269531 L 439.996094 587.304688 L 493.203125 640.507812 L 493.203125 697.773438 C 489.363281 699.222656 486.628906 702.925781 486.628906 707.269531 " fill-opacity="1" fill-rule="nonzero"/><path fill="#ffbf01" d="M 224.601562 129.960938 C 224.601562 129.960938 320.84375 122.167969 301.265625 195.082031 C 256.96875 215.121094 244.929688 180.316406 236.988281 154.441406 C 232.597656 140.136719 224.601562 129.960938 224.601562 129.960938 " fill-opacity="1" fill-rule="nonzero"/><g clip-path="url(#id7)"><path fill="#ffbf01" d="M 304.898438 30.558594 C 304.898438 30.558594 378.460938 93.105469 313.0625 130.816406 C 267.570312 113.660156 283.664062 80.542969 296.347656 56.628906 C 303.359375 43.410156 304.898438 30.558594 304.898438 30.558594 " fill-opacity="1" fill-rule="nonzero"/></g><path fill="#ffbf01" d="M 320.628906 129.804688 C 320.628906 129.804688 389.3125 125.167969 374.65625 176.964844 C 342.882812 190.820312 334.636719 165.894531 329.222656 147.371094 C 326.230469 137.132812 320.628906 129.804688 320.628906 129.804688 " fill-opacity="1" fill-rule="nonzero"/><path fill="#000000" d="M 272.375 172.429688 C 272.375 169.253906 274.953125 166.675781 278.128906 166.675781 C 281.304688 166.675781 283.882812 169.253906 283.882812 172.429688 C 283.882812 175.609375 281.304688 178.179688 278.128906 178.179688 C 274.953125 178.179688 272.375 175.609375 272.375 172.429688 Z M 267.960938 172.429688 C 267.960938 178.046875 272.511719 182.601562 278.128906 182.601562 C 279.710938 182.601562 281.207031 182.226562 282.542969 181.582031 L 335.234375 234.277344 L 335.234375 268.199219 L 363.9375 296.898438 L 363.9375 337.316406 L 370.359375 337.316406 L 370.359375 294.238281 L 341.65625 265.535156 L 341.65625 231.617188 L 287.152344 177.109375 C 287.878906 175.710938 288.296875 174.121094 288.296875 172.429688 C 288.296875 166.816406 283.746094 162.261719 278.128906 162.261719 C 272.511719 162.261719 267.960938 166.816406 267.960938 172.429688 " fill-opacity="1" fill-rule="nonzero"/><path fill="#000000" d="M 319.308594 103.085938 C 319.308594 106.257812 316.734375 108.835938 313.554688 108.835938 C 310.375 108.835938 307.800781 106.257812 307.800781 103.085938 C 307.800781 99.90625 310.375 97.328125 313.554688 97.328125 C 316.734375 97.328125 319.308594 99.90625 319.308594 103.085938 Z M 323.726562 103.085938 C 323.726562 97.464844 319.171875 92.914062 313.554688 92.914062 C 307.9375 92.914062 303.386719 97.464844 303.386719 103.085938 C 303.386719 107.71875 306.488281 111.621094 310.730469 112.847656 L 310.730469 172.503906 L 363.9375 225.710938 L 363.9375 273.085938 L 370.359375 273.085938 L 370.359375 223.050781 L 317.152344 169.84375 L 317.152344 112.589844 C 320.992188 111.132812 323.726562 107.429688 323.726562 103.085938 " fill-opacity="1" fill-rule="nonzero"/><path fill="#ffbf01" d="M 224.601562 680.394531 C 224.601562 680.394531 320.84375 688.1875 301.265625 615.273438 C 256.96875 595.234375 244.929688 630.039062 236.988281 655.914062 C 232.597656 670.21875 224.601562 680.394531 224.601562 680.394531 " fill-opacity="1" fill-rule="nonzero"/><g clip-path="url(#id8)"><path fill="#ffbf01" d="M 304.898438 779.796875 C 304.898438 779.796875 378.460938 717.25 313.0625 679.535156 C 267.570312 696.691406 283.664062 729.8125 296.347656 753.726562 C 303.359375 766.945312 304.898438 779.796875 304.898438 779.796875 " fill-opacity="1" fill-rule="nonzero"/></g><path fill="#ffbf01" d="M 320.628906 680.550781 C 320.628906 680.550781 389.3125 685.179688 374.65625 633.390625 C 342.882812 619.535156 334.636719 644.460938 329.222656 662.984375 C 326.230469 673.222656 320.628906 680.550781 320.628906 680.550781 " fill-opacity="1" fill-rule="nonzero"/><path fill="#000000" d="M 278.128906 632.175781 C 281.304688 632.175781 283.882812 634.746094 283.882812 637.925781 C 283.882812 641.101562 281.304688 643.679688 278.128906 643.679688 C 274.953125 643.679688 272.375 641.101562 272.375 637.925781 C 272.375 634.746094 274.953125 632.175781 278.128906 632.175781 Z M 278.128906 648.09375 C 283.746094 648.09375 288.296875 643.539062 288.296875 637.925781 C 288.296875 636.234375 287.878906 634.644531 287.152344 633.242188 L 341.65625 578.738281 L 341.65625 544.820312 L 370.359375 516.113281 L 370.359375 473.039062 L 363.9375 473.039062 L 363.9375 513.457031 L 335.234375 542.15625 L 335.234375 576.078125 L 282.542969 628.773438 C 281.207031 628.128906 279.710938 627.753906 278.128906 627.753906 C 272.511719 627.753906 267.960938 632.308594 267.960938 637.925781 C 267.960938 643.539062 272.511719 648.09375 278.128906 648.09375 " fill-opacity="1" fill-rule="nonzero"/><path fill="#000000" d="M 313.554688 713.027344 C 310.375 713.027344 307.800781 710.445312 307.800781 707.269531 C 307.800781 704.089844 310.375 701.519531 313.554688 701.519531 C 316.734375 701.519531 319.308594 704.089844 319.308594 707.269531 C 319.308594 710.445312 316.734375 713.027344 313.554688 713.027344 Z M 317.152344 697.773438 L 317.152344 640.507812 L 370.359375 587.304688 L 370.359375 537.269531 L 363.9375 537.269531 L 363.9375 584.640625 L 310.730469 637.851562 L 310.730469 697.507812 C 306.488281 698.734375 303.386719 702.636719 303.386719 707.269531 C 303.386719 712.886719 307.9375 717.441406 313.554688 717.441406 C 319.171875 717.441406 323.726562 712.886719 323.726562 707.269531 C 323.726562 702.925781 320.992188 699.222656 317.152344 697.773438 " fill-opacity="1" fill-rule="nonzero"/><path fill="#000000" d="M 537.980469 251.742188 C 537.980469 254.921875 535.40625 257.496094 532.226562 257.496094 C 529.046875 257.496094 526.472656 254.921875 526.472656 251.742188 C 526.472656 248.5625 529.046875 245.992188 532.226562 245.992188 C 535.40625 245.992188 537.980469 248.5625 537.980469 251.742188 Z M 537.980469 558.613281 C 537.980469 561.792969 535.40625 564.363281 532.226562 564.363281 C 529.046875 564.363281 526.472656 561.792969 526.472656 558.613281 C 526.472656 555.433594 529.046875 552.855469 532.226562 552.855469 C 535.40625 552.855469 537.980469 555.433594 537.980469 558.613281 Z M 522.054688 251.742188 C 522.054688 253.433594 522.476562 255.023438 523.207031 256.425781 L 468.699219 310.929688 L 468.699219 344.851562 L 439.996094 373.550781 L 439.996094 436.804688 L 468.699219 465.503906 L 468.699219 499.425781 L 523.207031 553.929688 C 522.476562 555.332031 522.054688 556.921875 522.054688 558.613281 C 522.054688 564.226562 526.609375 568.777344 532.226562 568.777344 C 537.84375 568.777344 542.394531 564.226562 542.394531 558.613281 C 542.394531 552.992188 537.84375 548.441406 532.226562 548.441406 C 530.640625 548.441406 529.148438 548.816406 527.8125 549.457031 L 475.121094 496.765625 L 475.121094 462.84375 L 446.417969 434.140625 L 446.417969 376.214844 L 475.121094 347.511719 L 475.121094 313.589844 L 527.8125 260.898438 C 529.148438 261.539062 530.640625 261.914062 532.226562 261.914062 C 537.84375 261.914062 542.394531 257.363281 542.394531 251.742188 C 542.394531 246.128906 537.84375 241.578125 532.226562 241.578125 C 526.609375 241.578125 522.054688 246.128906 522.054688 251.742188 " fill-opacity="1" fill-rule="nonzero"/><path fill="#000000" d="M 463.027344 155.472656 C 463.027344 158.644531 460.453125 161.226562 457.273438 161.226562 C 454.097656 161.226562 451.519531 158.644531 451.519531 155.472656 C 451.519531 152.292969 454.097656 149.714844 457.273438 149.714844 C 460.453125 149.714844 463.027344 152.292969 463.027344 155.472656 Z M 463.027344 654.882812 C 463.027344 658.0625 460.453125 660.640625 457.273438 660.640625 C 454.097656 660.640625 451.519531 658.0625 451.519531 654.882812 C 451.519531 651.707031 454.097656 649.128906 457.273438 649.128906 C 460.453125 649.128906 463.027344 651.707031 463.027344 654.882812 Z M 447.105469 155.472656 C 447.105469 157.046875 447.472656 158.527344 448.109375 159.859375 L 414.707031 193.261719 L 414.707031 617.09375 L 448.109375 650.496094 C 447.472656 651.828125 447.105469 653.308594 447.105469 654.882812 C 447.105469 660.5 451.65625 665.054688 457.273438 665.054688 C 462.890625 665.054688 467.441406 660.5 467.441406 654.882812 C 467.441406 649.269531 462.890625 644.714844 457.273438 644.714844 C 455.574219 644.714844 453.980469 645.140625 452.570312 645.871094 L 421.128906 614.433594 L 421.128906 195.921875 L 452.570312 164.484375 C 453.980469 165.214844 455.574219 165.640625 457.273438 165.640625 C 462.890625 165.640625 467.441406 161.085938 467.441406 155.472656 C 467.441406 149.855469 462.890625 145.300781 457.273438 145.300781 C 451.65625 145.300781 447.105469 149.855469 447.105469 155.472656 " fill-opacity="1" fill-rule="nonzero"/><path fill="#000000" d="M 272.375 558.613281 C 272.375 555.433594 274.953125 552.855469 278.128906 552.855469 C 281.304688 552.855469 283.882812 555.433594 283.882812 558.613281 C 283.882812 561.792969 281.304688 564.363281 278.128906 564.363281 C 274.953125 564.363281 272.375 561.792969 272.375 558.613281 Z M 272.375 251.742188 C 272.375 248.5625 274.953125 245.992188 278.128906 245.992188 C 281.304688 245.992188 283.882812 248.5625 283.882812 251.742188 C 283.882812 254.921875 281.304688 257.496094 278.128906 257.496094 C 274.953125 257.496094 272.375 254.921875 272.375 251.742188 Z M 288.296875 558.613281 C 288.296875 556.921875 287.878906 555.332031 287.152344 553.929688 L 341.65625 499.425781 L 341.65625 465.503906 L 370.359375 436.804688 L 370.359375 373.550781 L 341.65625 344.851562 L 341.65625 310.929688 L 287.152344 256.425781 C 287.878906 255.023438 288.296875 253.433594 288.296875 251.742188 C 288.296875 246.128906 283.746094 241.578125 278.128906 241.578125 C 272.511719 241.578125 267.960938 246.128906 267.960938 251.742188 C 267.960938 257.363281 272.511719 261.914062 278.128906 261.914062 C 279.710938 261.914062 281.207031 261.539062 282.542969 260.898438 L 335.234375 313.589844 L 335.234375 347.511719 L 363.9375 376.214844 L 363.9375 434.140625 L 335.234375 462.84375 L 335.234375 496.765625 L 282.542969 549.457031 C 281.207031 548.816406 279.710938 548.441406 278.128906 548.441406 C 272.511719 548.441406 267.960938 552.992188 267.960938 558.613281 C 267.960938 564.226562 272.511719 568.777344 278.128906 568.777344 C 283.746094 568.777344 288.296875 564.226562 288.296875 558.613281 " fill-opacity="1" fill-rule="nonzero"/><path fill="#000000" d="M 347.328125 654.882812 C 347.328125 651.707031 349.902344 649.128906 353.082031 649.128906 C 356.257812 649.128906 358.835938 651.707031 358.835938 654.882812 C 358.835938 658.0625 356.257812 660.640625 353.082031 660.640625 C 349.902344 660.640625 347.328125 658.0625 347.328125 654.882812 Z M 347.328125 155.472656 C 347.328125 152.292969 349.902344 149.714844 353.082031 149.714844 C 356.257812 149.714844 358.835938 152.292969 358.835938 155.472656 C 358.835938 158.644531 356.257812 161.226562 353.082031 161.226562 C 349.902344 161.226562 347.328125 158.644531 347.328125 155.472656 Z M 363.25 654.882812 C 363.25 653.308594 362.882812 651.828125 362.242188 650.496094 L 395.648438 617.09375 L 395.648438 193.261719 L 362.242188 159.859375 C 362.882812 158.527344 363.25 157.046875 363.25 155.472656 C 363.25 149.855469 358.699219 145.300781 353.082031 145.300781 C 347.464844 145.300781 342.910156 149.855469 342.910156 155.472656 C 342.910156 161.085938 347.464844 165.640625 353.082031 165.640625 C 354.78125 165.640625 356.375 165.214844 357.785156 164.484375 L 389.226562 195.921875 L 389.226562 614.433594 L 357.785156 645.871094 C 356.375 645.140625 354.78125 644.714844 353.082031 644.714844 C 347.464844 644.714844 342.910156 649.269531 342.910156 654.882812 C 342.910156 660.5 347.464844 665.054688 353.082031 665.054688 C 358.699219 665.054688 363.25 660.5 363.25 654.882812 " fill-opacity="1" fill-rule="nonzero"/></svg>