<svg xmlns="http://www.w3.org/2000/svg" xmlns:xlink="http://www.w3.org/1999/xlink" width="1080" zoomAndPan="magnify" viewBox="0 0 810 809.999993" height="1080" preserveAspectRatio="xMidYMid meet" version="1.0"><defs><clipPath id="id1"><path d="M 20 389 L 790 389 L 790 779.972656 L 20 779.972656 Z M 20 389 " clip-rule="nonzero"/></clipPath><clipPath id="id2"><path d="M 256 29.972656 L 555 29.972656 L 555 501 L 256 501 Z M 256 29.972656 " clip-rule="nonzero"/></clipPath><clipPath id="id3"><path d="M 59 649 L 288 649 L 288 779.972656 L 59 779.972656 Z M 59 649 " clip-rule="nonzero"/></clipPath></defs><g clip-path="url(#id1)"><path fill="#14ae5c" d="M 183.695312 389.257812 L 626.621094 389.257812 L 789.800781 779.730469 L 20.515625 779.730469 L 183.695312 389.257812 " fill-opacity="1" fill-rule="nonzero"/></g><path fill="#f8a62b" d="M 472.5 507.269531 C 472.5 522.984375 442.675781 535.691406 405.917969 535.691406 C 369.121094 535.691406 339.339844 522.984375 339.339844 507.269531 C 339.339844 491.558594 369.121094 478.808594 405.917969 478.808594 C 442.675781 478.808594 472.5 491.558594 472.5 507.269531 " fill-opacity="1" fill-rule="nonzero"/><path fill="#ffc05a" d="M 471.136719 500.375 C 471.136719 516.089844 441.632812 528.796875 405.238281 528.796875 C 368.84375 528.796875 339.339844 516.089844 339.339844 500.375 C 339.339844 484.664062 368.84375 471.914062 405.238281 471.914062 C 441.632812 471.914062 471.136719 484.664062 471.136719 500.375 " fill-opacity="1" fill-rule="nonzero"/><g clip-path="url(#id2)"><path fill="#e04285" d="M 407.761719 29.8125 C 406.921875 29.8125 406.039062 29.851562 405.15625 29.851562 C 404.277344 29.851562 403.394531 29.8125 402.550781 29.8125 C 321.703125 29.8125 256.167969 98.15625 256.167969 182.457031 C 256.167969 196.808594 261.738281 230.078125 270.117188 243.867188 L 405.15625 500.375 L 540.199219 243.867188 C 548.578125 230.078125 554.148438 196.808594 554.148438 182.457031 C 554.148438 98.15625 488.652344 29.8125 407.761719 29.8125 " fill-opacity="1" fill-rule="nonzero"/></g><path fill="#ffffff" d="M 486.007812 165.421875 C 486.007812 210.078125 449.8125 246.273438 405.15625 246.273438 C 360.503906 246.273438 324.308594 210.078125 324.308594 165.421875 C 324.308594 120.765625 360.503906 84.570312 405.15625 84.570312 C 449.8125 84.570312 486.007812 120.765625 486.007812 165.421875 " fill-opacity="1" fill-rule="nonzero"/><path stroke-linecap="square" transform="matrix(0.400838, 0, 0, -0.400855, -447.022534, 1256.989997)" fill="none" stroke-linejoin="miter" d="M 2792.997315 1846.798347 C 2792.997315 1846.798347 2781.497955 1847.899509 2763.09898 1847.802061 " stroke="#351f16" stroke-width="20" stroke-opacity="1" stroke-miterlimit="10"/><path fill="#351f16" d="M 635.785156 514.085938 C 627.042969 515.351562 618.941406 517.257812 611.476562 519.800781 L 607.683594 521.089844 L 610.265625 528.679688 L 614.0625 527.386719 C 621.058594 525.003906 628.683594 523.214844 636.9375 522.019531 L 640.902344 521.445312 L 639.753906 513.511719 Z M 588.753906 530.933594 C 581.34375 536.011719 575.28125 542.035156 570.566406 549.007812 L 568.324219 552.328125 L 574.964844 556.816406 L 577.210938 553.496094 C 581.351562 547.367188 586.710938 542.050781 593.285156 537.550781 L 596.589844 535.285156 L 592.0625 528.667969 Z M 560.601562 572.648438 C 558.90625 580.394531 558.320312 588.804688 558.839844 597.875 L 559.070312 601.875 L 567.074219 601.414062 L 566.84375 597.414062 C 566.367188 589.078125 566.894531 581.394531 568.433594 574.359375 L 569.289062 570.445312 L 561.457031 568.730469 Z M 557.988281 620.808594 C 556.234375 628.144531 553.226562 635.132812 548.960938 641.777344 L 546.792969 645.148438 L 553.539062 649.480469 L 555.703125 646.109375 C 560.460938 638.703125 563.820312 630.890625 565.785156 622.671875 L 566.71875 618.773438 L 558.921875 616.910156 Z M 533.789062 659.140625 C 528.195312 664.019531 521.777344 668.449219 514.535156 672.425781 L 511.019531 674.355469 L 514.878906 681.382812 L 518.394531 679.453125 C 526.140625 675.195312 533.027344 670.441406 539.058594 665.183594 L 542.078125 662.550781 L 536.808594 656.507812 Z M 493.015625 682.035156 C 485.917969 684.601562 478.304688 686.839844 470.179688 688.757812 L 466.28125 689.679688 L 468.121094 697.484375 L 472.023438 696.5625 C 480.445312 694.574219 488.351562 692.246094 495.738281 689.578125 L 499.511719 688.214844 L 496.789062 680.675781 Z M 446.699219 693.195312 C 439.085938 694.3125 431.125 695.195312 422.820312 695.84375 L 418.824219 696.15625 L 419.449219 704.148438 L 423.445312 703.835938 C 431.933594 703.171875 440.070312 702.269531 447.859375 701.128906 L 451.828125 700.546875 L 450.664062 692.617188 Z M 398.808594 697.050781 C 391.511719 697.230469 383.988281 697.25 376.246094 697.117188 L 374.582031 697.105469 L 370.574219 697.078125 L 370.519531 705.097656 L 374.53125 705.121094 L 376.109375 705.132812 C 383.960938 705.269531 392.929688 705.214844 403.011719 704.96875 L 402.816406 696.953125 Z M 350.101562 697.640625 C 341.914062 697.980469 333.792969 698.464844 325.742188 699.09375 L 321.742188 699.40625 L 322.367188 707.398438 L 326.363281 707.085938 C 334.324219 706.464844 342.347656 705.984375 350.433594 705.648438 L 354.4375 705.484375 L 354.105469 697.472656 Z M 301.46875 701.46875 C 293.027344 702.472656 284.929688 703.628906 277.175781 704.941406 L 273.226562 705.609375 L 274.5625 713.515625 L 278.515625 712.847656 C 286.140625 711.554688 294.105469 710.417969 302.414062 709.429688 L 306.394531 708.957031 L 305.449219 700.996094 Z M 253.074219 709.789062 C 244.53125 711.816406 236.613281 714.058594 229.328125 716.519531 L 225.53125 717.800781 L 228.09375 725.398438 L 231.890625 724.113281 C 238.945312 721.734375 246.621094 719.558594 254.921875 717.589844 L 258.820312 716.667969 L 256.972656 708.867188 Z M 206.410156 726.023438 C 198.0625 730.300781 191.082031 735.011719 185.476562 740.15625 L 182.523438 742.867188 L 187.941406 748.773438 L 190.894531 746.0625 C 195.96875 741.40625 202.359375 737.105469 210.0625 733.160156 L 213.632812 731.332031 L 209.976562 724.199219 Z M 206.410156 726.023438 " fill-opacity="1" fill-rule="nonzero"/><g clip-path="url(#id3)"><path stroke-linecap="square" transform="matrix(0.400838, 0, 0, -0.400855, -447.022534, 1256.989997)" fill="none" stroke-linejoin="miter" d="M 1550.803345 1232.204038 C 1547.704365 1222.99521 1545.804047 1213.201693 1545.501946 1202.804 " stroke="#351f16" stroke-width="20" stroke-opacity="1" stroke-miterlimit="10"/></g></svg>