<svg xmlns="http://www.w3.org/2000/svg" xmlns:xlink="http://www.w3.org/1999/xlink" width="1080" zoomAndPan="magnify" viewBox="0 0 810 809.999993" height="1080" preserveAspectRatio="xMidYMid meet" version="1.0"><defs><clipPath id="id1"><path d="M 201 30 L 700 30 L 700 777 L 201 777 Z M 201 30 " clip-rule="nonzero"/></clipPath><clipPath id="id2"><path d="M 355.027344 -45.324219 L 775.585938 144.097656 L 455.261719 855.289062 L 34.703125 665.867188 Z M 355.027344 -45.324219 " clip-rule="nonzero"/></clipPath><clipPath id="id3"><path d="M 355.027344 -45.324219 L 775.585938 144.097656 L 455.261719 855.289062 L 34.703125 665.867188 Z M 355.027344 -45.324219 " clip-rule="nonzero"/></clipPath><clipPath id="id4"><path d="M 240 29 L 702 29 L 702 490 L 240 490 Z M 240 29 " clip-rule="nonzero"/></clipPath><clipPath id="id5"><path d="M 355.027344 -45.324219 L 775.585938 144.097656 L 455.261719 855.289062 L 34.703125 665.867188 Z M 355.027344 -45.324219 " clip-rule="nonzero"/></clipPath><clipPath id="id6"><path d="M 355.027344 -45.324219 L 775.585938 144.097656 L 455.261719 855.289062 L 34.703125 665.867188 Z M 355.027344 -45.324219 " clip-rule="nonzero"/></clipPath><clipPath id="id7"><path d="M 309 97 L 544 97 L 544 295 L 309 295 Z M 309 97 " clip-rule="nonzero"/></clipPath><clipPath id="id8"><path d="M 355.027344 -45.324219 L 775.585938 144.097656 L 455.261719 855.289062 L 34.703125 665.867188 Z M 355.027344 -45.324219 " clip-rule="nonzero"/></clipPath><clipPath id="id9"><path d="M 355.027344 -45.324219 L 775.585938 144.097656 L 455.261719 855.289062 L 34.703125 665.867188 Z M 355.027344 -45.324219 " clip-rule="nonzero"/></clipPath><clipPath id="id10"><path d="M 203 66 L 664 66 L 664 763 L 203 763 Z M 203 66 " clip-rule="nonzero"/></clipPath><clipPath id="id11"><path d="M 355.027344 -45.324219 L 775.585938 144.097656 L 455.261719 855.289062 L 34.703125 665.867188 Z M 355.027344 -45.324219 " clip-rule="nonzero"/></clipPath><clipPath id="id12"><path d="M 355.027344 -45.324219 L 775.585938 144.097656 L 455.261719 855.289062 L 34.703125 665.867188 Z M 355.027344 -45.324219 " clip-rule="nonzero"/></clipPath></defs><g clip-path="url(#id1)"><g clip-path="url(#id2)"><g clip-path="url(#id3)"><path fill="#14ae5c" d="M 564.589844 50.898438 C 449.714844 -0.839844 314.195312 50.453125 262.496094 165.242188 C 238.929688 217.558594 235.902344 276.347656 253.96875 330.785156 C 271.925781 384.886719 309.074219 430.027344 358.574219 457.890625 L 359.90625 458.640625 L 359.222656 460.15625 C 358.734375 459.882812 358.238281 459.621094 357.753906 459.347656 L 349.8125 476.976562 C 350.296875 477.25 350.792969 477.515625 351.28125 477.785156 L 335.636719 512.519531 L 334.539062 512.023438 C 334.394531 511.960938 334.25 511.914062 334.105469 511.851562 C 325.527344 508.230469 315.699219 511.125 310.414062 518.5625 L 311.980469 519.269531 C 311.914062 519.355469 311.839844 519.441406 311.777344 519.53125 L 310.980469 520.648438 L 309.410156 519.941406 C 308.988281 519.753906 308.492188 519.941406 308.304688 520.359375 C 308.125 520.753906 308.289062 521.226562 308.675781 521.429688 L 310.152344 522.21875 L 309.410156 523.609375 L 308.035156 522.988281 C 307.984375 522.964844 307.941406 522.933594 307.890625 522.90625 L 206.074219 713.761719 C 206.371094 713.777344 206.671875 713.84375 206.960938 713.972656 L 207.683594 714.296875 L 207.046875 715.492188 L 205.980469 715.429688 C 205.628906 715.410156 205.3125 715.597656 205.167969 715.914062 C 205.046875 716.1875 205.085938 716.503906 205.273438 716.757812 L 205.917969 717.609375 L 205.320312 718.730469 L 204.902344 718.542969 C 204.503906 718.363281 204.1875 718.085938 203.941406 717.761719 L 203.382812 718.804688 C 198.019531 728.855469 202.289062 741.351562 212.683594 746.03125 L 277.21875 775.097656 C 287.613281 779.78125 299.800781 774.699219 303.773438 764.019531 L 304.1875 762.914062 C 303.78125 762.945312 303.363281 762.890625 302.964844 762.710938 L 302.546875 762.523438 L 302.992188 761.332031 L 304.054688 761.246094 C 304.371094 761.222656 304.632812 761.042969 304.753906 760.769531 C 304.898438 760.453125 304.828125 760.089844 304.582031 759.839844 L 303.828125 759.082031 L 304.300781 757.8125 L 305.023438 758.140625 C 305.3125 758.269531 305.558594 758.453125 305.765625 758.664062 L 381.222656 555.933594 C 381.171875 555.914062 381.117188 555.90625 381.0625 555.882812 L 379.6875 555.261719 L 380.238281 553.785156 L 381.808594 554.367188 C 382.21875 554.523438 382.679688 554.332031 382.855469 553.941406 C 383.046875 553.519531 382.855469 553.023438 382.4375 552.835938 L 380.863281 552.125 L 381.175781 550.789062 C 381.199219 550.679688 381.214844 550.570312 381.238281 550.460938 L 382.804688 551.167969 C 384.871094 542.28125 380.527344 533 372.128906 528.980469 C 371.988281 528.910156 371.855469 528.832031 371.710938 528.765625 L 370.613281 528.273438 L 386.257812 493.539062 C 386.785156 493.726562 387.308594 493.921875 387.835938 494.105469 L 395.777344 476.476562 C 395.25 476.292969 394.726562 476.09375 394.199219 475.910156 L 394.878906 474.394531 L 396.324219 474.894531 C 449.992188 493.5 508.417969 491.402344 560.835938 468.996094 C 613.574219 446.453125 655.59375 405.226562 679.15625 352.910156 C 730.859375 238.121094 679.464844 102.636719 564.589844 50.898438 Z M 396.648438 423.769531 C 305.765625 382.835938 265.109375 275.65625 306.011719 184.84375 C 346.914062 94.03125 454.125 53.449219 545.003906 94.382812 C 635.882812 135.316406 676.542969 242.496094 635.640625 333.308594 C 594.738281 424.121094 487.527344 464.703125 396.648438 423.769531 Z M 331.234375 282.035156 C 332.066406 287.035156 328.671875 291.777344 323.671875 292.605469 C 321.875 292.902344 320.050781 292.664062 318.398438 291.921875 C 315.582031 290.652344 313.597656 288.078125 313.09375 285.039062 C 310.523438 269.582031 310.242188 253.894531 312.261719 238.414062 C 312.914062 233.386719 317.539062 229.835938 322.566406 230.492188 C 323.46875 230.609375 324.339844 230.855469 325.160156 231.222656 C 328.820312 232.875 331.015625 236.808594 330.5 240.796875 C 328.714844 254.488281 328.960938 268.363281 331.234375 282.035156 Z M 541.042969 125.566406 C 538.964844 130.1875 533.507812 132.253906 528.886719 130.171875 C 504.519531 119.195312 477.722656 115.328125 451.394531 118.992188 C 402.867188 125.738281 361.90625 156.386719 341.824219 200.972656 C 339.742188 205.59375 334.289062 207.65625 329.664062 205.574219 C 325.042969 203.492188 322.972656 198.039062 325.054688 193.417969 C 347.746094 143.039062 394.027344 108.40625 448.851562 100.785156 C 478.617188 96.644531 508.902344 101.011719 536.433594 113.410156 C 541.058594 115.496094 543.125 120.949219 541.042969 125.566406 Z M 541.042969 125.566406 " fill-opacity="1" fill-rule="nonzero"/></g></g></g><g clip-path="url(#id4)"><g clip-path="url(#id5)"><g clip-path="url(#id6)"><path fill="#ffbf01" d="M 565.277344 49.375 C 449.375 -2.828125 313.132812 48.742188 260.96875 164.554688 C 211.691406 273.964844 255.089844 401.554688 357.753906 459.347656 C 363.761719 462.730469 369.964844 465.890625 376.375 468.777344 C 382.785156 471.664062 389.261719 474.214844 395.777344 476.476562 C 507.089844 515.058594 631.402344 463.003906 680.679688 353.597656 C 732.84375 237.78125 681.175781 101.578125 565.277344 49.375 Z M 391.792969 434.542969 C 294.8125 390.863281 251.582031 276.894531 295.226562 179.984375 C 338.875 83.078125 452.878906 39.929688 549.855469 83.609375 C 646.835938 127.289062 690.070312 241.257812 646.421875 338.164062 C 602.773438 435.074219 488.773438 478.222656 391.792969 434.542969 Z M 391.792969 434.542969 " fill-opacity="1" fill-rule="nonzero"/></g></g></g><g clip-path="url(#id7)"><g clip-path="url(#id8)"><g clip-path="url(#id9)"><path fill="#000000" d="M 332.882812 281.761719 C 333.867188 287.679688 329.867188 293.273438 323.945312 294.253906 C 321.75 294.617188 319.597656 294.292969 317.710938 293.445312 C 314.507812 292 312.0625 289.035156 311.441406 285.3125 C 308.847656 269.691406 308.566406 253.839844 310.601562 238.195312 C 311.378906 232.25 316.828125 228.058594 322.78125 228.835938 C 328.734375 229.609375 332.929688 235.0625 332.15625 241.011719 C 330.394531 254.542969 330.640625 268.25 332.882812 281.761719 Z M 537.121094 111.886719 C 509.300781 99.359375 478.699219 94.945312 448.621094 99.128906 C 393.222656 106.832031 346.460938 141.824219 323.53125 192.734375 C 321.066406 198.203125 323.507812 204.632812 328.980469 207.097656 C 334.453125 209.5625 340.886719 207.128906 343.347656 201.660156 C 363.195312 157.597656 403.671875 127.3125 451.625 120.644531 C 477.640625 117.027344 504.121094 120.847656 528.199219 131.695312 C 533.671875 134.160156 540.105469 131.722656 542.570312 126.253906 C 545.03125 120.785156 542.59375 114.351562 537.121094 111.886719 Z M 537.121094 111.886719 " fill-opacity="1" fill-rule="nonzero"/></g></g></g><g clip-path="url(#id10)"><g clip-path="url(#id11)"><g clip-path="url(#id12)"><path fill="#e04285" d="M 327.597656 526.300781 L 365.621094 543.429688 L 382.804688 551.167969 L 383.121094 551.3125 C 384.386719 551.878906 384.949219 553.363281 384.378906 554.625 C 383.835938 555.835938 382.449219 556.390625 381.222656 555.933594 C 381.171875 555.914062 381.117188 555.90625 381.0625 555.882812 L 363.5625 548 L 325.539062 530.871094 L 308.035156 522.988281 C 307.984375 522.964844 307.941406 522.933594 307.890625 522.90625 C 306.734375 522.289062 306.234375 520.882812 306.777344 519.675781 C 307.347656 518.410156 308.832031 517.851562 310.09375 518.417969 L 310.414062 518.5625 Z M 305.765625 758.664062 C 305.558594 758.453125 305.3125 758.269531 305.023438 758.140625 L 206.960938 713.972656 C 206.671875 713.84375 206.371094 713.777344 206.074219 713.761719 C 205.066406 713.703125 204.082031 714.253906 203.644531 715.226562 C 203.253906 716.09375 203.40625 717.054688 203.941406 717.761719 C 204.1875 718.085938 204.503906 718.363281 204.902344 718.542969 L 302.964844 762.710938 C 303.363281 762.890625 303.78125 762.945312 304.1875 762.914062 C 305.070312 762.84375 305.890625 762.320312 306.28125 761.453125 C 306.71875 760.480469 306.476562 759.378906 305.765625 758.664062 Z M 646.421875 338.164062 C 602.773438 435.074219 488.773438 478.222656 391.792969 434.542969 C 294.8125 390.863281 251.582031 276.894531 295.226562 179.984375 C 338.875 83.078125 452.878906 39.929688 549.855469 83.609375 C 646.835938 127.289062 690.070312 241.257812 646.421875 338.164062 Z M 634.117188 332.621094 C 674.703125 242.507812 634.5 136.523438 544.316406 95.90625 C 454.136719 55.289062 348.125 95.414062 307.535156 185.527344 C 266.945312 275.644531 307.148438 381.628906 397.332031 422.246094 C 487.515625 462.863281 593.527344 422.738281 634.117188 332.621094 Z M 372.128906 528.980469 L 387.835938 494.105469 C 381.320312 491.84375 374.84375 489.292969 368.433594 486.40625 C 362.023438 483.519531 355.824219 480.363281 349.8125 476.976562 L 334.105469 511.851562 C 334.25 511.914062 334.394531 511.960938 334.539062 512.023438 L 371.710938 528.765625 C 371.855469 528.832031 371.988281 528.910156 372.128906 528.980469 Z M 372.128906 528.980469 " fill-opacity="1" fill-rule="nonzero"/></g></g></g></svg>