<svg xmlns="http://www.w3.org/2000/svg" xmlns:xlink="http://www.w3.org/1999/xlink" width="1080" zoomAndPan="magnify" viewBox="0 0 810 809.999993" height="1080" preserveAspectRatio="xMidYMid meet" version="1.0"><defs><clipPath id="id1"><path d="M 85 98 L 368 98 L 368 335 L 85 335 Z M 85 98 " clip-rule="nonzero"/></clipPath><clipPath id="id2"><path d="M 58.839844 116.738281 L 312.070312 32.101562 L 404.789062 309.519531 L 151.558594 394.152344 Z M 58.839844 116.738281 " clip-rule="nonzero"/></clipPath><clipPath id="id3"><path d="M 58.839844 116.738281 L 312.070312 32.101562 L 404.789062 309.519531 L 151.558594 394.152344 Z M 58.839844 116.738281 " clip-rule="nonzero"/></clipPath><clipPath id="id4"><path d="M 85 120 L 368 120 L 368 335 L 85 335 Z M 85 120 " clip-rule="nonzero"/></clipPath><clipPath id="id5"><path d="M 58.839844 116.738281 L 312.070312 32.101562 L 404.789062 309.519531 L 151.558594 394.152344 Z M 58.839844 116.738281 " clip-rule="nonzero"/></clipPath><clipPath id="id6"><path d="M 58.839844 116.738281 L 312.070312 32.101562 L 404.789062 309.519531 L 151.558594 394.152344 Z M 58.839844 116.738281 " clip-rule="nonzero"/></clipPath><clipPath id="id7"><path d="M 119 118 L 369 118 L 369 313 L 119 313 Z M 119 118 " clip-rule="nonzero"/></clipPath><clipPath id="id8"><path d="M 58.839844 116.738281 L 312.070312 32.101562 L 404.789062 309.519531 L 151.558594 394.152344 Z M 58.839844 116.738281 " clip-rule="nonzero"/></clipPath><clipPath id="id9"><path d="M 58.839844 116.738281 L 312.070312 32.101562 L 404.789062 309.519531 L 151.558594 394.152344 Z M 58.839844 116.738281 " clip-rule="nonzero"/></clipPath><clipPath id="id10"><path d="M 149 63 L 338 63 L 338 351 L 149 351 Z M 149 63 " clip-rule="nonzero"/></clipPath><clipPath id="id11"><path d="M 58.839844 116.738281 L 312.070312 32.101562 L 404.789062 309.519531 L 151.558594 394.152344 Z M 58.839844 116.738281 " clip-rule="nonzero"/></clipPath><clipPath id="id12"><path d="M 58.839844 116.738281 L 312.070312 32.101562 L 404.789062 309.519531 L 151.558594 394.152344 Z M 58.839844 116.738281 " clip-rule="nonzero"/></clipPath><clipPath id="id13"><path d="M 445 392 L 652.664062 392 L 652.664062 728 L 445 728 Z M 445 392 " clip-rule="nonzero"/></clipPath></defs><g clip-path="url(#id1)"><g clip-path="url(#id2)"><g clip-path="url(#id3)"><path fill="#e04285" d="M 343.988281 186.296875 C 339.699219 174.886719 339.007812 119.191406 339.007812 119.191406 C 339.007812 119.191406 315.367188 95.648438 300.554688 98.417969 C 274.722656 103.253906 99.777344 153.5625 87.898438 173.503906 C 86.097656 176.53125 85.816406 180.414062 85.84375 184.046875 C 87.214844 201.199219 92.09375 213.085938 97.859375 229.738281 C 101.90625 241.554688 105.578125 253.503906 110.125 265.140625 C 115.523438 279.496094 120.425781 294.035156 125.699219 308.441406 C 128.320312 315.027344 128.839844 316.453125 132.265625 322.179688 C 133.980469 325.0625 135.898438 327.875 138.398438 330.023438 C 142.195312 333.480469 147.136719 334.652344 151.820312 334.832031 C 158.730469 334.699219 165.164062 331.980469 171.605469 329.828125 C 256.480469 301.460938 302.710938 286.707031 347.304688 271.800781 C 361.71875 266.984375 367.050781 242.132812 367.050781 242.132812 C 367.050781 242.132812 348.179688 196.34375 343.988281 186.296875 Z M 343.988281 186.296875 " fill-opacity="1" fill-rule="nonzero"/></g></g></g><g clip-path="url(#id4)"><g clip-path="url(#id5)"><g clip-path="url(#id6)"><path fill="#000000" d="M 341.558594 123.796875 C 342.085938 125.636719 342.675781 127.457031 343.222656 129.296875 C 345.601562 137.011719 347.53125 144.855469 349.625 152.660156 C 353.1875 165.875 356.613281 179.125 359.710938 192.457031 C 362.59375 203.855469 364.761719 215.410156 366.105469 227.089844 C 366.503906 230.285156 366.976562 233.46875 367.351562 236.667969 C 367.8125 238.226562 366.199219 241.328125 364.628906 242.011719 C 359.070312 243.972656 353.535156 245.949219 347.960938 247.855469 C 336.476562 251.828125 324.714844 254.992188 313.148438 258.75 C 296.160156 264.175781 279.230469 269.769531 262.222656 275.128906 C 237.332031 283.1875 212.582031 291.6875 187.703125 299.785156 C 180.90625 302 174.140625 304.300781 167.316406 306.398438 C 165.398438 306.984375 163.464844 307.539062 161.507812 307.929688 C 161.292969 307.988281 161.085938 308.054688 160.871094 308.101562 C 159.542969 311.152344 158.273438 314.226562 157.082031 317.335938 C 155.058594 322.285156 153.507812 327.453125 151.1875 332.261719 C 151.253906 332.082031 151.296875 331.9375 151.335938 331.832031 C 151.242188 332.035156 151.128906 332.3125 150.984375 332.570312 C 150.980469 332.59375 150.964844 332.609375 150.964844 332.632812 C 150.8125 332.914062 150.640625 333.179688 150.476562 333.351562 C 150.464844 333.367188 150.449219 333.390625 150.4375 333.417969 C 148.875 335.246094 145.769531 335.066406 144.464844 333.027344 C 144.15625 332.605469 143.980469 332.136719 143.925781 331.625 C 143.792969 331.175781 143.792969 330.699219 143.898438 330.238281 C 143.910156 330.085938 143.929688 329.921875 143.945312 329.757812 C 146.140625 321.011719 149.203125 312.40625 152.746094 304.078125 C 151.117188 300.652344 150.253906 296.808594 148.84375 293.28125 C 146.308594 286.007812 143.90625 278.683594 141.601562 271.324219 C 134.027344 248.40625 127.722656 225.050781 123.976562 201.199219 C 123.398438 197.511719 122.757812 192.898438 122.429688 190.117188 C 122.371094 189.632812 122.359375 189.175781 122.378906 188.757812 C 115.871094 187.644531 109.230469 186.398438 103.277344 185.347656 C 99.195312 184.582031 95.113281 183.84375 91.03125 183.0625 C 89.414062 182.636719 87.410156 182.507812 86.378906 181.023438 C 84.976562 179.128906 86.417969 176.289062 88.734375 176.191406 C 89.042969 176.195312 89.34375 176.238281 89.636719 176.3125 C 89.621094 176.304688 89.640625 176.296875 89.722656 176.324219 C 89.863281 176.332031 89.910156 176.347656 89.894531 176.355469 C 90.570312 176.433594 91.253906 176.519531 91.929688 176.597656 C 91.949219 176.605469 91.972656 176.601562 91.992188 176.609375 C 104.21875 178.4375 116.425781 180.460938 128.664062 182.28125 C 129.710938 181.738281 130.773438 181.226562 131.882812 180.855469 C 222.46875 150.582031 316.714844 123.804688 335.011719 121.113281 C 336.488281 120.894531 337.492188 120.515625 338.375 120.507812 C 339.167969 120.492188 339.964844 120.796875 340.570312 121.539062 C 341.175781 122.097656 341.292969 123.003906 341.558594 123.796875 Z M 341.558594 123.796875 " fill-opacity="1" fill-rule="nonzero"/></g></g></g><g clip-path="url(#id7)"><g clip-path="url(#id8)"><g clip-path="url(#id9)"><path fill="#ffbf01" d="M 192.078125 210.085938 C 189.21875 203.558594 184.171875 197.589844 176.367188 198.566406 C 170.230469 199.617188 165.53125 204.703125 162.269531 209.707031 C 160.496094 212.675781 159.335938 215.941406 158.472656 219.285156 C 156.726562 224.742188 155.90625 230.507812 156.101562 236.195312 C 156.296875 238.867188 156.71875 241.582031 157.386719 244.238281 C 157.804688 246.5625 158.363281 248.855469 159.078125 251.105469 C 159.570312 252.597656 160.191406 254.054688 160.890625 255.464844 C 160.96875 255.628906 161.046875 255.789062 161.132812 255.953125 C 161.1875 256.066406 161.246094 256.179688 161.300781 256.289062 C 161.25 256.191406 161.203125 256.09375 161.152344 255.992188 C 161.480469 256.589844 161.875 257.152344 162.351562 257.65625 C 162.605469 257.957031 162.867188 258.25 163.148438 258.535156 C 167.578125 262.996094 172.273438 263.683594 173.847656 264.019531 C 179.246094 265.164062 185 263.609375 188.304688 258.546875 C 193.003906 252.414062 194.554688 244.617188 195.371094 237.09375 C 195.472656 236.082031 196.15625 228.324219 195.511719 223.496094 C 195.023438 218.886719 193.960938 214.316406 192.078125 210.085938 Z M 185.964844 226.597656 C 186.671875 235.523438 185.734375 242.878906 183.9375 248.035156 C 181.867188 252.792969 180.46875 254.277344 179.5 254.953125 C 177.761719 256.242188 173.238281 255.242188 171.042969 252.578125 C 170.453125 251.78125 169.925781 250.972656 169.421875 250.152344 C 169.214844 249.59375 169.015625 249.035156 168.851562 248.460938 C 167.042969 242.472656 167.308594 243.191406 166.691406 237.367188 C 166.445312 230.742188 166.546875 229.648438 168.136719 222.246094 C 169.347656 217.980469 168.539062 220.046875 170.242188 216.175781 C 171.40625 214.136719 170.492188 215.28125 172.628906 212.570312 C 175.34375 209.847656 173.964844 210.742188 177.398438 208.640625 C 177.425781 208.632812 177.457031 208.628906 177.484375 208.621094 C 177.71875 208.609375 177.949219 208.605469 178.179688 208.605469 C 178.449219 208.644531 178.710938 208.699219 178.976562 208.761719 C 179.035156 208.789062 179.109375 208.832031 179.175781 208.871094 C 179.328125 208.996094 179.523438 209.164062 179.753906 209.378906 C 183.058594 212.28125 185.742188 221.40625 185.964844 226.597656 Z M 227.917969 190.402344 C 227.0625 188.285156 224.460938 187.367188 222.359375 188.046875 C 217.125 189.976562 219.988281 196.265625 220.453125 200.277344 C 220.375 199.882812 220.300781 199.480469 220.226562 199.085938 C 220.585938 201.132812 220.960938 203.183594 221.347656 205.230469 C 221.40625 205.570312 221.453125 205.820312 221.484375 205.988281 C 222.917969 213.757812 224.09375 220.050781 225.300781 226.335938 C 218.746094 216.59375 212.671875 206.539062 206.871094 196.332031 C 206.476562 195.628906 206.078125 194.921875 205.710938 194.203125 C 205.6875 194.164062 205.671875 194.132812 205.652344 194.089844 C 204.175781 190.363281 200.152344 190.78125 198.453125 193.011719 C 197.542969 193.832031 196.960938 195.027344 197.042969 196.511719 C 197.164062 203.808594 198.308594 211.054688 199.113281 218.300781 C 199.941406 225.996094 201.710938 239.453125 202.621094 242.875 C 203.148438 245.019531 203.714844 247.152344 204.410156 249.246094 C 204.40625 249.21875 204.398438 249.191406 204.394531 249.160156 C 204.589844 249.808594 204.957031 250.40625 205.472656 250.855469 C 207.191406 252.425781 210.132812 251.828125 211.148438 249.738281 C 212.558594 244.824219 210.554688 233 209.65625 224.957031 C 209.21875 221.351562 208.765625 217.742188 208.308594 214.144531 C 212.144531 220.316406 216.089844 226.425781 220.164062 232.4375 C 221.796875 234.871094 223.507812 237.25 225.199219 239.636719 C 226.671875 241.617188 227.785156 244.101562 229.976562 245.378906 C 232.160156 246.519531 235.078125 245.027344 235.523438 242.617188 C 235.910156 240.4375 235.382812 238.242188 235.089844 236.082031 C 234.195312 229.253906 232.960938 222.480469 231.851562 215.6875 C 230.871094 209.800781 229.902344 203.910156 229.179688 197.988281 C 228.902344 196.050781 228.785156 194.09375 228.410156 192.171875 C 228.414062 192.179688 228.414062 192.179688 228.417969 192.175781 C 228.484375 192.515625 228.546875 192.851562 228.613281 193.195312 C 228.558594 192.921875 228.511719 192.652344 228.457031 192.375 C 228.4375 192.308594 228.429688 192.246094 228.417969 192.175781 C 228.40625 191.523438 228.242188 190.9375 227.917969 190.402344 Z M 286.53125 223.152344 C 286.6875 223.46875 286.839844 223.78125 286.992188 224.09375 C 284.769531 219.722656 278.5625 206.269531 273.925781 196.261719 C 271.945312 191.988281 269.933594 187.71875 267.722656 183.546875 C 266.15625 180.757812 264.648438 177.667969 261.804688 175.972656 C 259.210938 174.300781 255.957031 175.972656 255.378906 178.914062 C 254.902344 181.59375 255.3125 184.382812 255.292969 187.09375 C 255.414062 193.039062 255.359375 198.984375 255.183594 204.929688 C 255.148438 205.835938 255.121094 206.738281 255.085938 207.644531 C 254.621094 208.605469 254.628906 209.667969 254.980469 210.628906 C 254.804688 216.425781 254.71875 222.222656 254.628906 228.023438 C 254.542969 230.023438 254.394531 232.023438 254.25 234.027344 C 254.183594 234.871094 254.039062 235.792969 254.539062 236.53125 C 256.023438 239.84375 261.191406 238.488281 260.960938 234.859375 C 261.5 230.917969 261.605469 219.910156 261.847656 212.929688 C 261.859375 212.777344 261.863281 212.625 261.871094 212.46875 C 264.550781 211.484375 267.253906 210.578125 269.949219 209.640625 C 270.417969 209.480469 270.90625 209.316406 271.375 209.117188 C 271.847656 210.152344 272.316406 211.164062 272.761719 212.132812 C 274.640625 216.210938 276.472656 220.320312 278.453125 224.355469 C 279.304688 225.78125 279.691406 227.710938 281.175781 228.628906 C 284.648438 231.09375 288.980469 226.628906 286.53125 223.152344 Z M 268.019531 202.28125 C 266.15625 202.777344 264.320312 203.367188 262.472656 203.917969 C 262.386719 203.953125 262.296875 203.976562 262.210938 204.011719 C 262.328125 199.25 262.351562 194.496094 262.359375 189.738281 C 262.410156 189.835938 262.460938 189.933594 262.503906 190.03125 C 263.828125 192.660156 265.984375 197.324219 268.234375 202.230469 C 268.160156 202.246094 268.085938 202.265625 268.019531 202.28125 Z M 291.21875 171.632812 C 294.121094 188.167969 297.867188 205.03125 301.394531 222.308594 C 301.65625 223.695312 302.28125 225.109375 301.585938 226.46875 C 300.667969 228.460938 297.605469 228.925781 296.25 227.148438 C 295.582031 226.554688 295.5 225.625 295.285156 224.808594 C 294.402344 221.203125 293.578125 217.585938 292.613281 214.007812 C 288.730469 199.472656 285.113281 184.863281 281.953125 170.152344 C 280.484375 165.882812 285.796875 162.371094 289.160156 165.359375 C 290.960938 166.941406 290.707031 169.476562 291.21875 171.632812 Z M 330.113281 163.933594 C 329.507812 153.671875 319.851562 154.257812 312.386719 156.875 C 309.082031 157.992188 305.738281 159.097656 302.734375 160.898438 C 302.1875 161.132812 301.769531 161.4375 301.453125 161.785156 C 300.285156 162.710938 299.609375 164.265625 300.183594 166.191406 C 302.0625 175.035156 304.367188 190.554688 307.25 202.738281 C 308.074219 206.359375 308.898438 209.984375 309.878906 213.566406 C 310.464844 215.226562 310.726562 217.164062 311.84375 218.554688 C 314.101562 221.304688 318.632812 218.6875 317.480469 215.332031 C 316.757812 211.316406 315.757812 207.351562 315.027344 203.328125 C 314.839844 202.351562 314.660156 201.371094 314.476562 200.386719 C 316.390625 202.070312 318.371094 203.671875 320.34375 205.273438 C 325.707031 209.601562 334.058594 216.25 337.28125 217.035156 C 337.460938 217.140625 337.644531 217.210938 337.835938 217.269531 C 337.988281 217.339844 338.136719 217.414062 338.300781 217.472656 C 338.292969 217.476562 338.285156 217.472656 338.28125 217.480469 C 340.160156 218.453125 342.730469 217.59375 343.648438 215.6875 C 344.460938 214.054688 343.996094 212.011719 342.648438 210.855469 C 342.648438 210.855469 342.65625 210.859375 342.65625 210.859375 C 342.644531 210.851562 342.632812 210.84375 342.621094 210.832031 C 342.582031 210.804688 342.550781 210.765625 342.507812 210.730469 C 342.351562 210.589844 342.179688 210.453125 342.019531 210.304688 C 341.996094 210.289062 341.984375 210.277344 341.964844 210.269531 C 341.929688 210.230469 341.890625 210.195312 341.859375 210.15625 C 341.476562 209.773438 341.09375 209.394531 340.691406 209.046875 C 340.457031 208.804688 340.210938 208.574219 339.945312 208.359375 C 335.050781 205.347656 319.332031 193.246094 315.992188 189.660156 C 315.910156 189.566406 315.839844 189.460938 315.757812 189.367188 C 317.28125 187.292969 318.9375 185.320312 320.40625 183.203125 C 324.300781 177.234375 329.824219 171.40625 330.113281 163.933594 Z M 311.21875 181.832031 C 310.246094 176.097656 309.25 170.367188 308.140625 164.660156 C 310.546875 163.667969 313.527344 162.769531 316.761719 161.890625 C 319.832031 161.355469 321.964844 161.921875 322.160156 162.015625 C 322.179688 162.027344 322.191406 162.035156 322.210938 162.046875 C 322.292969 162.160156 322.386719 162.257812 322.460938 162.371094 C 322.507812 162.453125 322.539062 162.511719 322.570312 162.574219 C 322.664062 162.835938 322.742188 163.101562 322.804688 163.371094 C 322.820312 163.507812 322.824219 163.640625 322.828125 163.777344 C 322.8125 163.898438 322.796875 164.019531 322.777344 164.136719 C 322.707031 164.585938 322.597656 165.03125 322.488281 165.46875 C 322.453125 165.589844 322.414062 165.714844 322.378906 165.847656 C 322.164062 166.371094 321.675781 167.550781 321.417969 167.964844 C 318.863281 172.449219 317.253906 174.40625 313.203125 179.480469 C 312.621094 180.269531 311.921875 181.042969 311.21875 181.832031 Z M 342.097656 123.953125 C 341.265625 122.347656 340.410156 119.851562 339.203125 119.121094 C 337.226562 117.929688 332.945312 118.53125 329.964844 119.078125 C 321.699219 120.589844 313.746094 123.449219 305.601562 125.488281 C 291.300781 129.277344 276.898438 132.683594 262.65625 136.691406 C 247.921875 140.941406 233.410156 145.9375 218.753906 150.421875 C 207.488281 153.808594 195.925781 156.070312 184.664062 159.464844 C 168.988281 164.40625 153.265625 169.316406 137.847656 175.019531 C 132.050781 177.523438 125.59375 179.644531 121.355469 184.550781 C 120.734375 185.355469 120.191406 186.257812 120.050781 187.257812 C 120.027344 186.988281 119.847656 187.765625 119.753906 188.394531 C 118.6875 189.875 119.128906 191.945312 119.820312 193.953125 C 120.699219 197.007812 121.546875 200.074219 122.367188 203.144531 C 125.457031 214.652344 128.148438 226.273438 131.390625 237.742188 C 135.136719 250.804688 139.339844 263.726562 142.972656 276.824219 C 145.097656 284.261719 147.144531 291.730469 149.453125 299.113281 C 150.355469 301.710938 151.167969 304.40625 152.148438 307.015625 C 151.96875 307.136719 154.253906 313.515625 159.449219 312.503906 C 159.519531 312.488281 159.597656 312.46875 159.675781 312.453125 C 163.753906 311.351562 167.820312 310.214844 171.878906 309.058594 C 187.140625 304.613281 201.988281 298.890625 217.109375 294.011719 C 240.511719 286.136719 264.046875 278.714844 287.570312 271.226562 C 309.546875 264.125 331.460938 256.855469 353.347656 249.480469 C 355.9375 248.589844 358.535156 247.726562 361.054688 246.648438 C 362.878906 245.851562 368.820312 244.199219 368.066406 236.824219 C 367.128906 227.636719 367.164062 226.027344 366.171875 216.84375 C 365.042969 208.324219 363.472656 199.855469 361.363281 191.523438 C 357.074219 175.054688 352.355469 158.699219 347.90625 142.269531 C 346.246094 136.082031 344.625 129.863281 342.097656 123.953125 Z M 341.875 146.003906 C 343.84375 154.136719 346.066406 162.195312 348.125 170.300781 C 351.195312 182.328125 355.519531 197.476562 356.921875 206.53125 C 358.929688 217.335938 359.355469 228.328125 360.289062 239.253906 C 360.292969 239.28125 360.292969 239.320312 360.296875 239.347656 C 352.1875 243.007812 336.234375 247.535156 325.234375 251.5 C 298.273438 260.46875 271.148438 268.914062 244.070312 277.523438 C 229.191406 282.417969 214.269531 287.183594 199.449219 292.253906 C 186.269531 296.824219 173.082031 301.394531 159.566406 304.894531 C 159.238281 304.984375 158.910156 305.066406 158.582031 305.15625 C 154.007812 292.632812 151.410156 279.453125 147.664062 266.671875 C 144.402344 255.074219 140.859375 243.550781 137.726562 231.910156 C 134.652344 220.542969 132.015625 209.0625 128.917969 197.703125 C 128.277344 195.324219 127.632812 192.949219 126.859375 190.605469 C 126.75 190.320312 126.664062 190.019531 126.5625 189.722656 C 126.632812 189.632812 126.703125 189.539062 126.753906 189.460938 C 128.648438 187.289062 127.757812 188.308594 129.691406 186.820312 C 134.535156 183.714844 142.070312 181.363281 149.746094 178.644531 C 164.183594 173.976562 178.511719 168.945312 193.132812 164.882812 C 203.328125 162.121094 213.609375 159.675781 223.757812 156.742188 C 236.4375 152.976562 248.988281 148.789062 261.660156 144.992188 C 280.082031 139.617188 298.828125 135.429688 317.3125 130.292969 C 322.109375 128.925781 326.894531 127.496094 331.785156 126.507812 C 333.164062 126.210938 334.527344 125.816406 335.878906 125.414062 C 338.359375 132.128906 340.046875 139.117188 341.875 146.003906 Z M 341.875 146.003906 " fill-opacity="1" fill-rule="nonzero"/></g></g></g><g clip-path="url(#id10)"><g clip-path="url(#id11)"><g clip-path="url(#id12)"><path fill="#000000" d="M 178.375 124.425781 C 178.453125 125.808594 177.644531 127.3125 176.335938 127.84375 C 175.351562 128.429688 174.078125 128.347656 173.070312 127.820312 C 173.082031 127.828125 173.101562 127.847656 173.117188 127.851562 C 173.09375 127.835938 173.070312 127.820312 173.046875 127.808594 C 172.882812 127.722656 172.738281 127.628906 172.59375 127.523438 C 172.566406 127.507812 172.539062 127.492188 172.515625 127.476562 C 170.894531 126.453125 169.335938 125.347656 167.839844 124.148438 C 162.179688 119.476562 156.902344 114.359375 151.390625 109.511719 C 147.230469 105.890625 151.238281 98.933594 156.421875 100.886719 C 157.53125 101.128906 158.304688 102.003906 159.105469 102.753906 C 160.488281 104.089844 161.820312 105.480469 163.175781 106.835938 C 166.605469 110.398438 170.140625 113.851562 173.515625 117.46875 C 173.757812 117.800781 175.230469 119.234375 177.34375 122.042969 C 177.421875 122.144531 177.492188 122.242188 177.570312 122.34375 C 177.609375 122.398438 177.65625 122.457031 177.691406 122.511719 C 177.710938 122.535156 177.734375 122.5625 177.746094 122.589844 C 177.738281 122.574219 177.726562 122.558594 177.710938 122.546875 C 178.089844 123.097656 178.292969 123.746094 178.375 124.425781 Z M 197.222656 75.378906 C 194.082031 71.5625 187.804688 75.207031 189.417969 79.855469 C 193.328125 92.394531 197.242188 105.144531 202.882812 116.984375 C 204.453125 119.023438 207.976562 118.035156 208.421875 115.535156 C 208.636719 114.671875 208.300781 113.839844 208.128906 113.003906 C 207.652344 110.914062 207.195312 108.824219 206.648438 106.753906 C 204.777344 99.4375 202.671875 92.183594 200.527344 84.941406 C 199.902344 82.847656 199.292969 80.746094 198.675781 78.652344 C 198.300781 77.527344 198.144531 76.214844 197.222656 75.378906 Z M 245.386719 65.476562 C 242.59375 72.871094 239.511719 82.4375 237.859375 87.035156 C 235.917969 92.890625 233.578125 99.101562 233.28125 105.273438 C 233.519531 107.355469 236.234375 108.414062 237.898438 107.21875 C 238.398438 106.839844 238.804688 106.363281 239.03125 105.78125 C 239.171875 105.488281 239.730469 104.128906 239.929688 103.707031 C 243.835938 94.613281 247.121094 83.359375 251.972656 70.769531 C 252.542969 69.230469 253.535156 67.675781 252.871094 66.003906 C 251.878906 62.65625 246.851562 62.296875 245.386719 65.476562 Z M 242.464844 316.191406 C 241.695312 315.039062 240.144531 314.324219 238.78125 314.6875 C 237.640625 314.8125 236.675781 315.640625 236.183594 316.667969 C 236.191406 316.65625 236.195312 316.628906 236.203125 316.613281 C 236.195312 316.640625 236.183594 316.667969 236.175781 316.691406 C 236.09375 316.859375 236.035156 317.023438 235.984375 317.195312 C 235.972656 317.222656 235.957031 317.25 235.949219 317.277344 C 235.269531 319.070312 234.691406 320.890625 234.214844 322.75 C 232.492188 329.886719 231.355469 337.148438 229.867188 344.335938 C 228.722656 349.730469 236.101562 352.878906 239.070312 348.203125 C 239.8125 347.339844 239.90625 346.175781 240.09375 345.09375 C 240.394531 343.195312 240.625 341.289062 240.890625 339.390625 C 241.492188 334.480469 242.242188 329.59375 242.757812 324.675781 C 242.753906 324.261719 243.070312 322.234375 243.070312 318.71875 C 243.070312 318.589844 243.066406 318.46875 243.066406 318.339844 C 243.070312 318.273438 243.070312 318.199219 243.066406 318.132812 C 243.066406 318.105469 243.066406 318.066406 243.0625 318.039062 C 243.0625 318.054688 243.0625 318.074219 243.058594 318.09375 C 243.035156 317.425781 242.808594 316.78125 242.464844 316.191406 Z M 286.203125 340.550781 C 285.433594 338.507812 284.660156 336.460938 283.898438 334.414062 C 281.261719 327.339844 278.578125 320.277344 275.675781 313.304688 C 274.867188 311.320312 273.972656 309.375 273.101562 307.421875 C 272.730469 306.640625 272.496094 305.78125 271.808594 305.21875 C 269.953125 303.496094 266.542969 304.824219 266.511719 307.394531 C 269.125 320.242188 273.664062 332.785156 278.078125 345.15625 C 279.582031 349.84375 286.792969 348.980469 287.007812 344.039062 C 287.25 342.828125 286.585938 341.683594 286.203125 340.550781 Z M 337.121094 318.082031 C 336.636719 316.347656 334.910156 315.695312 333.535156 314.816406 C 322.09375 307.675781 312.699219 300.660156 304.109375 295.734375 C 303.695312 295.519531 302.433594 294.765625 302.144531 294.617188 C 301.621094 294.292969 301.003906 294.160156 300.375 294.152344 C 298.320312 294.199219 296.792969 296.675781 297.855469 298.484375 C 301.800781 303.238281 307.40625 306.792969 312.480469 310.304688 C 316.566406 312.976562 324.777344 318.773438 331.453125 323.003906 C 334.539062 324.664062 338.339844 321.355469 337.121094 318.082031 Z M 337.121094 318.082031 " fill-opacity="1" fill-rule="nonzero"/></g></g></g><path fill="#000000" d="M 651.117188 676.632812 L 651.066406 676.457031 L 651.066406 676.332031 C 651.050781 673.902344 650.269531 671.371094 648.742188 668.808594 C 640.679688 655.273438 613.328125 646.609375 575.578125 645.628906 C 575.554688 645.328125 575.527344 645.03125 575.503906 644.734375 C 575.046875 639.414062 574.445312 634.03125 572.859375 629.007812 C 572.382812 627.863281 571.335938 627.039062 569.894531 626.46875 C 569.609375 626.355469 569.300781 626.253906 568.984375 626.160156 C 567.429688 601.433594 565.042969 559.941406 564.785156 545.921875 L 564.773438 545.097656 L 565.59375 545.015625 C 571.925781 544.40625 577.054688 543.917969 580.597656 543.65625 L 582.640625 543.480469 C 599.558594 542.015625 617.054688 540.503906 629.324219 528.773438 C 631.699219 526.390625 633.300781 524.117188 634.195312 521.871094 C 634.929688 519.71875 635.167969 517.265625 634.890625 514.789062 C 634.835938 514.339844 634.75 513.210938 634.613281 511.507812 C 633.878906 502.191406 631.929688 477.453125 627.914062 459.292969 C 627.179688 455.976562 626.339844 452.527344 625.347656 448.75 L 625.285156 448.507812 L 625.355469 448.265625 C 625.496094 447.808594 625.628906 447.34375 625.765625 446.882812 C 625.914062 447.429688 626.066406 447.976562 626.210938 448.523438 C 629.15625 438.710938 631.597656 429.121094 633.660156 420.464844 C 638.390625 397.984375 644.441406 375.207031 643.003906 351.992188 C 642.554688 345.152344 640.683594 338.5 638.046875 332.242188 C 635.441406 325.71875 631.71875 319.742188 626.96875 314.695312 C 622.828125 310.503906 618.070312 307.085938 612.996094 304.222656 C 613.203125 304.375 613.367188 304.5625 613.46875 304.777344 C 613.460938 304.761719 613.460938 304.765625 613.449219 304.746094 C 613.828125 305.191406 614.179688 305.660156 614.515625 306.140625 C 613.875 305.753906 613.222656 305.375 612.558594 305 L 612.507812 304.972656 L 612.460938 304.9375 C 612.390625 304.882812 612.289062 304.828125 612.082031 304.734375 C 611.453125 304.382812 610.808594 304.042969 610.160156 303.703125 C 610.953125 303.582031 611.839844 303.660156 612.515625 303.953125 C 607.992188 301.445312 603.234375 299.367188 598.449219 297.589844 C 589.050781 294.5 579.332031 292.609375 569.726562 290.378906 C 558.132812 287.6875 531.808594 283.644531 529.113281 283.191406 C 512.382812 280.363281 493.421875 282.101562 479.941406 293.769531 C 472.902344 299.671875 468.527344 308.128906 464.902344 316.585938 C 461.003906 325.503906 457.847656 334.742188 454.910156 344.042969 C 453.90625 347.242188 452.902344 350.441406 451.898438 353.640625 C 452.1875 353.207031 452.625 352.804688 453.199219 352.464844 L 452.710938 354.03125 L 452.640625 354.136719 C 452.46875 354.390625 452.386719 354.648438 452.386719 354.90625 L 452.390625 355.046875 L 452.347656 355.183594 C 452.234375 355.539062 452.125 355.894531 452.015625 356.246094 C 451.679688 355.824219 451.503906 355.371094 451.496094 354.917969 C 450.191406 359.070312 448.890625 363.222656 447.605469 367.382812 C 447.835938 366.964844 448.222656 366.542969 448.835938 366.136719 C 448.875 366.113281 448.914062 366.097656 448.949219 366.074219 C 448.785156 366.597656 448.621094 367.121094 448.457031 367.644531 L 448.429688 367.730469 L 448.386719 367.8125 C 448.300781 367.964844 448.253906 368.109375 448.246094 368.238281 L 448.242188 368.351562 L 448.207031 368.453125 C 448.085938 368.847656 447.972656 369.222656 447.855469 369.609375 C 447.519531 369.167969 447.328125 368.6875 447.355469 368.191406 C 445.886719 372.953125 444.441406 377.722656 443.035156 382.507812 C 443.320312 382.140625 443.734375 381.789062 444.273438 381.46875 C 444.144531 381.898438 444.015625 382.335938 443.890625 382.757812 L 443.84375 382.917969 L 443.742188 383.054688 C 443.507812 383.351562 443.414062 383.636719 443.460938 383.898438 L 443.496094 384.101562 L 443.4375 384.304688 C 443.363281 384.570312 443.285156 384.839844 443.207031 385.109375 C 442.863281 384.792969 442.652344 384.433594 442.582031 384.054688 C 441.4375 387.976562 440.328125 391.910156 439.25 395.851562 C 439.492188 395.496094 439.890625 395.171875 440.4375 394.894531 C 440.328125 395.292969 440.21875 395.683594 440.109375 396.085938 L 440.070312 396.230469 L 439.984375 396.355469 C 439.875 396.511719 439.832031 396.667969 439.84375 396.847656 L 439.859375 397 L 439.816406 397.152344 C 439.726562 397.484375 439.640625 397.804688 439.550781 398.128906 C 439.195312 397.753906 438.988281 397.335938 438.957031 396.917969 C 438.023438 400.347656 437.109375 403.785156 436.242188 407.230469 C 436.109375 407.820312 435.980469 408.378906 435.855469 408.917969 C 436.109375 408.5 436.511719 408.109375 437.035156 407.769531 L 436.691406 409.257812 L 436.617188 409.382812 C 436.445312 409.660156 436.378906 409.9375 436.414062 410.207031 L 436.433594 410.367188 L 436.398438 410.527344 C 436.316406 410.882812 436.234375 411.230469 436.15625 411.570312 C 435.800781 411.175781 435.585938 410.753906 435.53125 410.324219 C 434.3125 415.597656 433.589844 418.75 432.609375 423.710938 C 432.753906 423.097656 433.1875 422.515625 433.859375 422.019531 C 433.734375 422.617188 433.613281 423.230469 433.484375 423.882812 L 433.464844 423.992188 C 433.363281 424.511719 433.257812 425.054688 433.148438 425.617188 C 432.660156 425.054688 432.480469 424.429688 432.589844 423.820312 C 432.371094 424.9375 432.136719 426.140625 431.882812 427.492188 C 430.910156 432.566406 430.015625 437.683594 430.054688 442.878906 C 430.074219 450.914062 430.242188 459.097656 432.445312 466.855469 C 434.484375 475.398438 438.632812 483.257812 444.457031 489.632812 C 444.820312 489.992188 445.207031 490.324219 445.578125 490.671875 C 445.65625 490.746094 445.738281 490.820312 445.816406 490.890625 C 445.296875 490.300781 445.058594 489.691406 445.15625 489.066406 C 445.339844 489.246094 445.53125 489.421875 445.722656 489.59375 C 445.878906 489.738281 446.347656 490.171875 446.347656 490.171875 L 446.417969 490.375 C 446.597656 490.878906 446.777344 491.375 446.957031 491.878906 C 446.859375 491.808594 446.746094 491.738281 446.65625 491.667969 C 446.761719 491.765625 446.875 491.851562 446.980469 491.945312 C 452.636719 507.808594 458.222656 522.046875 467.671875 535.007812 L 467.726562 535.078125 L 467.761719 535.164062 C 468.414062 536.59375 469.453125 537.941406 470.851562 539.175781 L 470.933594 539.261719 L 470.921875 539.253906 L 471.058594 539.355469 C 472.308594 540.421875 473.863281 541.417969 475.675781 542.3125 L 475.796875 542.371094 C 483.953125 546.347656 497.234375 548.363281 515.273438 548.363281 C 520.382812 548.363281 525.945312 548.199219 531.800781 547.875 L 532.675781 547.824219 L 532.738281 548.699219 C 532.765625 549.082031 532.808594 549.449219 532.863281 549.800781 L 532.875 549.875 L 532.875 549.949219 C 532.597656 578.488281 532.945312 601.867188 533.964844 623.519531 C 534.058594 625.515625 534.164062 627.582031 534.277344 629.675781 C 533.945312 629.847656 533.652344 630.039062 533.417969 630.257812 C 532.769531 630.855469 532.449219 631.59375 532.308594 632.320312 C 532.261719 632.558594 532.097656 632.765625 532.039062 633.027344 C 530.996094 637.640625 530.558594 642.417969 530.503906 647.195312 C 530.5 647.496094 530.507812 647.796875 530.507812 648.097656 C 488.914062 653.730469 459.925781 667.347656 454.847656 683.644531 C 454.445312 684.933594 454.246094 686.210938 454.257812 687.4375 L 454.253906 687.875 L 454.253906 687.878906 C 454.257812 689.347656 454.324219 694.402344 454.925781 699.347656 C 455.335938 702.421875 456.230469 705.441406 457.546875 708.246094 C 458.40625 709.691406 458.59375 709.917969 458.847656 710.230469 C 458.945312 710.351562 459.054688 710.480469 459.199219 710.671875 C 464.136719 715.355469 470.675781 717.636719 476.5 719.277344 C 479.859375 720.5625 493.269531 723.195312 501.359375 723.949219 C 502.960938 724.152344 504.417969 724.34375 505.804688 724.527344 C 511.746094 725.3125 516.4375 725.929688 525.234375 726.433594 C 527.957031 726.589844 531.023438 726.667969 534.34375 726.667969 C 534.347656 726.667969 534.34375 726.667969 534.34375 726.667969 C 562.914062 726.667969 607.386719 720.824219 622.402344 716.214844 C 641.359375 710.398438 650.878906 701.464844 651.511719 688.914062 C 651.613281 686.722656 651.425781 678.175781 651.117188 676.632812 Z M 510.585938 283.058594 C 509.488281 283.132812 508.402344 283.230469 507.332031 283.355469 C 507.570312 283.269531 507.8125 283.1875 508.066406 283.132812 C 508.757812 282.976562 509.703125 282.921875 510.585938 283.058594 Z M 467.429688 313.113281 C 467.082031 313.855469 466.746094 314.597656 466.421875 315.332031 C 466.246094 314.609375 466.578125 313.8125 467.429688 313.113281 Z M 461.945312 326.261719 C 461.675781 326.96875 461.410156 327.671875 461.152344 328.375 C 460.882812 327.652344 461.117188 326.878906 461.945312 326.261719 Z M 457.398438 339.230469 C 457.191406 339.867188 456.980469 340.507812 456.777344 341.132812 C 456.664062 340.480469 456.882812 339.816406 457.398438 339.230469 Z M 501.765625 530.335938 L 501.660156 530.328125 L 501.5625 530.300781 C 500.960938 530.113281 500.304688 529.996094 499.617188 529.953125 C 488.203125 529.210938 482.691406 518.335938 479.539062 510.21875 L 479.257812 509.496094 C 479.628906 509.628906 480 509.769531 480.371094 509.894531 C 488.023438 512.554688 495.808594 514.808594 503.628906 516.867188 C 517.199219 520.347656 530.804688 523.714844 544.464844 526.804688 C 562.203125 531.023438 576.476562 529.726562 590.714844 517.03125 C 593.457031 514.421875 596.039062 511.507812 598.484375 508.363281 C 598.398438 507.96875 598.3125 507.59375 598.230469 507.238281 L 598.949219 506.3125 L 599.355469 508.167969 C 599.761719 510.011719 600.285156 512.660156 600.480469 514.738281 C 600.835938 516.925781 600.53125 519.851562 600.394531 520.707031 L 600.386719 520.757812 L 600.371094 520.808594 C 600.300781 521.054688 600.21875 521.300781 600.144531 521.480469 C 599.980469 521.964844 599.5625 522.636719 599.136719 523.300781 L 599.089844 523.371094 L 599.03125 523.429688 C 598.1875 524.320312 597.210938 525.078125 596.285156 525.769531 L 596.203125 525.820312 C 595.753906 526.082031 595.230469 526.335938 594.875 526.5 C 586.429688 530.386719 571.363281 532.277344 548.824219 532.277344 C 531.871094 532.28125 513.847656 531.171875 501.765625 530.335938 Z M 501.765625 530.335938 " fill-opacity="1" fill-rule="nonzero"/><path fill="#14ae5c" d="M 453.367188 687.445312 C 453.359375 686.144531 453.5625 684.789062 454 683.378906 C 459.804688 664.757812 492.941406 652.269531 530.507812 647.199219 C 530.476562 650.273438 530.597656 653.347656 530.828125 656.382812 C 531.542969 661.324219 531.539062 662.382812 532.070312 664.109375 C 532.828125 665.523438 534.105469 666.492188 535.675781 667.160156 C 535.964844 672.355469 536.09375 675.824219 535.902344 676.320312 C 535.699219 676.847656 535.828125 677.523438 535.890625 678.082031 C 536.535156 683.65625 564.40625 686.003906 570.757812 679.101562 C 573.773438 676.839844 572.726562 673.566406 572.707031 669.898438 C 572.652344 668.222656 572.578125 666.542969 572.496094 664.867188 C 572.632812 664.773438 572.765625 664.667969 572.894531 664.554688 C 573.875 663.695312 574.554688 662.402344 574.859375 661.054688 C 576.222656 656.308594 575.945312 651.242188 575.640625 646.351562 C 575.59375 645.8125 575.546875 645.273438 575.503906 644.734375 C 609.902344 645.617188 640.457031 653.160156 649.507812 668.355469 C 651.164062 671.128906 651.941406 673.789062 651.957031 676.328125 C 652.210938 717.09375 453.664062 726.765625 453.367188 687.445312 Z M 608.253906 305.578125 C 612.234375 323.238281 605.867188 360.730469 598.328125 393.03125 C 602.617188 393.382812 605.964844 394.550781 606.558594 395.523438 C 607.699219 397.398438 608.742188 399.3125 609.746094 401.25 C 617.355469 370.867188 621.652344 342.59375 620.941406 329.3125 C 619.738281 321.34375 618.886719 311.167969 613.453125 304.746094 C 613.460938 304.765625 613.460938 304.765625 613.46875 304.777344 C 613.367188 304.5625 613.203125 304.378906 613 304.222656 C 612.859375 304.117188 612.691406 304.03125 612.515625 303.953125 C 610.847656 303.226562 607.851562 303.789062 608.253906 305.578125 Z M 535.175781 508.539062 C 509.679688 509.539062 482.046875 499.152344 456.671875 491.402344 C 453.273438 490.367188 446.292969 485.777344 445.226562 488.71875 C 444.953125 489.46875 445.203125 490.191406 445.820312 490.894531 C 446.046875 491.15625 446.332031 491.414062 446.65625 491.667969 C 450.75 494.859375 461.785156 497.394531 464.476562 498.675781 C 492.847656 508.503906 523.492188 517.773438 553.238281 510.949219 C 565.34375 508.457031 577.039062 491.636719 587.207031 468.957031 C 585.675781 462.007812 584.085938 455.070312 582.550781 448.121094 C 572.503906 471.902344 565.160156 509.792969 535.175781 508.539062 Z M 505.019531 298.683594 C 506.824219 294.332031 508.335938 289.445312 511.152344 287.429688 C 511.8125 286.59375 512.867188 285.945312 513.035156 284.847656 C 512.671875 282.945312 509.675781 282.769531 508.066406 283.132812 C 504.933594 283.839844 503.414062 286.921875 501.996094 289.386719 C 500.378906 292.0625 498.738281 294.738281 497.480469 297.597656 C 496.554688 300.722656 503.917969 300.90625 505.019531 298.683594 Z M 524.183594 302.785156 C 526.308594 297.933594 528.1875 292.949219 530.878906 288.351562 C 531.78125 287.117188 532.5625 285.859375 530.582031 285.140625 C 528.683594 284.390625 526.011719 284.710938 524.972656 286.582031 C 522.742188 289.585938 521.390625 293.042969 520.085938 296.476562 C 519.382812 298.277344 518.710938 300.085938 518.03125 301.894531 C 517.898438 302.117188 517.878906 302.339844 517.972656 302.5625 C 518.695312 304.511719 523.128906 304.445312 524.183594 302.785156 Z M 536.964844 306.339844 C 537.125 305.496094 537.292969 304.652344 537.515625 303.824219 C 538.910156 298.691406 541.878906 294.074219 545.195312 289.867188 C 546.792969 287.957031 550.757812 287.144531 552.5 289.246094 C 552.816406 289.726562 552.585938 290.246094 552.441406 290.742188 C 552.375 291.003906 552.214844 291.226562 552 291.40625 C 551.449219 292.0625 551.714844 291.707031 550.695312 293.089844 C 547.792969 297.417969 544.621094 301.761719 543.234375 306.785156 C 542.253906 308.152344 540.074219 308.191406 538.546875 307.78125 C 537.847656 307.539062 537 307.140625 536.964844 306.339844 Z M 552.472656 290.617188 C 552.46875 290.628906 552.464844 290.640625 552.464844 290.652344 C 552.523438 290.414062 552.578125 290.179688 552.472656 290.617188 Z M 564.730469 312.351562 C 566.523438 308.589844 568.617188 304.972656 571.191406 301.644531 C 571.453125 301.183594 572.597656 299.628906 572.910156 299.203125 C 573.652344 298.316406 574.351562 297.402344 575.019531 296.464844 C 575.214844 296.136719 575.242188 295.808594 575.101562 295.480469 C 574.867188 294.339844 573.378906 293.777344 572.296875 293.5625 C 569.6875 292.902344 566.847656 293.691406 565.160156 295.730469 C 561.113281 300.25 558.589844 308.023438 558.027344 312.109375 C 558.804688 314.210938 563.589844 314.144531 564.730469 312.351562 Z M 442.308594 468.035156 C 442.996094 471.179688 444.03125 474.253906 445.535156 477.136719 C 446.308594 479.503906 448.9375 480.167969 451.285156 479.816406 C 452.628906 479.636719 454.898438 478.757812 454.191406 477.136719 C 453.515625 475.707031 452.761719 474.308594 452.167969 472.847656 C 450.570312 468.671875 450.316406 466.804688 449.632812 462.019531 C 448.878906 456.121094 449.441406 448.355469 450.800781 444.496094 C 451.160156 443.363281 451.628906 442.265625 452.078125 441.164062 C 452.25 440.871094 452.273438 440.582031 452.152344 440.292969 C 451.265625 437.761719 445.375 437.84375 444.054688 440.003906 C 440.171875 448.832031 440.378906 458.785156 442.308594 468.035156 Z M 461.03125 462.394531 C 460.53125 467.878906 460.550781 473.410156 461.960938 478.785156 C 462.292969 480.121094 462.5 481.503906 463.019531 482.789062 C 463.027344 482.8125 463.035156 482.835938 463.042969 482.859375 C 463.050781 482.878906 463.054688 482.898438 463.0625 482.917969 C 463.058594 482.902344 463.054688 482.890625 463.050781 482.875 C 463.257812 483.3125 463.667969 483.660156 464.117188 483.878906 C 466.074219 484.875 470.53125 484.898438 471.097656 482.367188 C 470.554688 479.066406 469.570312 475.824219 469.304688 472.476562 C 468.878906 468.160156 469.679688 463.828125 470.253906 459.558594 C 471.210938 453.339844 471.753906 449.742188 473.355469 444.632812 C 474.5625 440.863281 465.453125 440.582031 464.15625 443.304688 C 462.34375 449.535156 461.550781 455.960938 461.03125 462.394531 Z M 484.910156 490.402344 C 485.273438 491.828125 486.542969 492.609375 488.054688 492.609375 C 489.394531 492.78125 492.21875 492.21875 491.636719 490.476562 C 491.859375 491.417969 491.65625 490.230469 491.640625 489.832031 C 491.296875 484.902344 489.796875 480.132812 489.453125 475.203125 C 488.945312 465.539062 490.789062 455.929688 492.152344 446.386719 C 491.761719 443.421875 484.148438 443.460938 483.761719 446.386719 C 482.015625 459.089844 479.515625 472.132812 482.96875 484.765625 C 483.425781 486.695312 484.144531 488.570312 484.910156 490.402344 Z M 507.128906 449.710938 C 503.796875 462.167969 501.5625 475.128906 502.867188 488.003906 C 503.167969 490.691406 503.625 494.40625 504.300781 494.964844 C 505.976562 497.160156 512.753906 497.105469 513.292969 494.015625 C 512.464844 488.753906 511.992188 483.429688 512.164062 478.105469 C 512.433594 470.28125 513.4375 462.46875 515.195312 454.820312 C 515.554688 453.332031 515.925781 451.847656 516.285156 450.359375 C 516.285156 449.984375 516.152344 449.671875 515.882812 449.417969 C 514.035156 447.3125 508.753906 447.359375 507.128906 449.710938 Z M 469.410156 317.304688 C 475.210938 317.941406 481.039062 318.234375 486.855469 318.691406 C 494.25 319.359375 505.726562 320.441406 506 316.097656 C 505.824219 315.328125 505.1875 314.882812 504.4375 314.621094 C 504.417969 314.613281 504.40625 314.605469 504.386719 314.597656 C 504.289062 314.566406 504.1875 314.542969 504.089844 314.507812 L 504.074219 314.503906 C 497.675781 312.347656 490.699219 312.578125 484.007812 311.988281 C 481.1875 311.8125 478.359375 311.796875 475.535156 311.648438 C 473.242188 311.476562 470.847656 311.316406 468.722656 312.320312 C 465.335938 313.863281 465.628906 316.667969 469.410156 317.304688 Z M 531.308594 323.734375 C 547.070312 325.527344 566.394531 327.414062 572.328125 329.835938 C 580.410156 333.351562 587.652344 338.4375 595.917969 341.597656 C 596.074219 341.664062 596.242188 341.730469 596.394531 341.789062 C 596.355469 341.773438 596.332031 341.765625 596.289062 341.75 C 596.71875 341.960938 597.167969 342.09375 597.640625 342.152344 C 599.53125 342.605469 603.980469 341.960938 603.144531 339.390625 C 603.066406 339.269531 602.960938 339.183594 602.867188 339.082031 C 602.800781 339.007812 602.742188 338.933594 602.671875 338.867188 C 602.652344 338.851562 602.636719 338.835938 602.617188 338.820312 C 602.53125 338.742188 602.449219 338.664062 602.355469 338.589844 C 598.675781 335.226562 594.179688 332.875 589.796875 330.460938 C 585.109375 327.929688 580.46875 325.136719 575.191406 323.871094 C 570.035156 322.847656 564.746094 322.679688 559.527344 322.027344 C 551.527344 321.082031 543.554688 319.925781 535.550781 319.019531 C 533.257812 318.742188 530.605469 318.4375 528.675781 319.894531 C 526.132812 321.691406 529.179688 323.679688 531.308594 323.734375 Z M 464.832031 330.484375 C 474.675781 331.304688 484.386719 333.480469 494.285156 333.605469 C 495.113281 333.601562 495.945312 333.570312 496.773438 333.527344 C 497.984375 333.546875 499.234375 333.339844 500.199219 332.652344 C 501.59375 331.90625 501.207031 330.308594 499.867188 329.71875 C 496.546875 328.121094 487.128906 326.878906 480.421875 326.296875 C 476.695312 325.917969 472.96875 325.542969 469.230469 325.300781 C 467.5625 325.242188 465.84375 324.871094 464.207031 325.335938 C 459.410156 326.335938 460.402344 329.945312 464.832031 330.484375 Z M 599.066406 354.199219 C 596.652344 352.515625 594.234375 350.832031 591.789062 349.191406 C 589.695312 347.738281 583.929688 344.136719 579.324219 341.253906 C 576.566406 339.503906 573.726562 337.828125 570.585938 336.773438 C 564.066406 335.425781 557.359375 334.949219 550.757812 334.011719 C 542.164062 333.085938 533.53125 331.863281 524.910156 331.398438 C 519.757812 331.574219 518.355469 335.867188 524.210938 336.777344 C 537.707031 337.878906 551.191406 339.070312 564.582031 341.027344 C 565.757812 341.21875 566.050781 341.113281 570.628906 343.980469 C 578.339844 349.082031 580.554688 350.449219 585.523438 354.058594 C 591.097656 357.667969 592.820312 361.632812 600.054688 358.996094 C 603.039062 357.269531 601.292969 355.539062 599.066406 354.199219 Z M 495.648438 343.320312 C 494.03125 342.585938 492.378906 341.941406 490.660156 341.457031 C 484.652344 340 478.496094 339.269531 472.355469 338.554688 C 469.011719 338.296875 465.71875 337.160156 462.363281 337.375 C 455.878906 337.609375 454.265625 342.953125 461.488281 344.0625 C 466.808594 345.105469 472.1875 345.796875 477.5625 346.507812 C 482.453125 347.125 487.371094 347.855469 492.320312 347.542969 C 492.773438 347.523438 493.226562 347.507812 493.679688 347.476562 L 493.683594 347.476562 C 493.699219 347.476562 493.714844 347.472656 493.730469 347.472656 C 493.902344 347.457031 494.074219 347.453125 494.25 347.429688 L 494.226562 347.429688 C 497.652344 347.070312 498.65625 344.40625 495.648438 343.320312 Z M 517.746094 350.46875 C 531.546875 351.621094 552.59375 354.449219 558.394531 355.78125 C 560.976562 356.320312 583.523438 369.308594 589.214844 371.820312 C 590 372.195312 590.839844 372.457031 591.667969 372.722656 C 591.742188 372.75 591.8125 372.773438 591.886719 372.792969 C 591.886719 372.796875 591.890625 372.796875 591.890625 372.796875 C 592.671875 373.046875 593.5 373.167969 594.324219 373.164062 C 596.167969 373.191406 599.644531 372.375 598.851562 370.050781 C 598.671875 369.753906 598.429688 369.511719 598.164062 369.308594 C 598.152344 369.300781 598.144531 369.292969 598.136719 369.289062 C 595.292969 366.964844 570.667969 351.726562 563.285156 350.703125 C 550.929688 348.992188 536.160156 347.132812 520.421875 345.394531 C 515.425781 344.445312 510.394531 348.886719 517.746094 350.46875 Z M 591.890625 372.796875 C 591.890625 372.796875 591.890625 372.796875 591.894531 372.796875 C 591.890625 372.796875 591.890625 372.796875 591.890625 372.796875 Z M 456.265625 358.179688 C 468.828125 360.089844 478.847656 362.304688 490.75 361.59375 C 491.171875 361.601562 491.636719 361.570312 492.105469 361.503906 C 492.109375 361.503906 492.117188 361.503906 492.117188 361.503906 C 494.574219 361.160156 497.230469 359.84375 495.324219 357.671875 C 495.023438 357.4375 494.691406 357.246094 494.351562 357.082031 C 494.367188 357.078125 494.320312 357.046875 494.175781 356.984375 C 491.285156 355.582031 488.082031 354.972656 484.9375 354.320312 C 479.394531 353.171875 461.261719 351.304688 457.140625 351.453125 C 454.507812 351.546875 452.671875 352.484375 451.902344 353.640625 C 451.628906 354.050781 451.496094 354.484375 451.5 354.917969 C 451.515625 356.292969 452.976562 357.671875 456.265625 358.179688 Z M 589.679688 381.398438 C 585.425781 377.980469 577.820312 374.03125 570.800781 369.800781 C 566.464844 367.347656 563.023438 366.242188 558.105469 364.933594 C 543.492188 362.984375 533.796875 362.453125 515.921875 359.925781 C 513.492188 359.714844 510.921875 358.898438 508.589844 359.9375 C 505.011719 361.769531 509.039062 364.191406 511.519531 364.113281 C 524.296875 365.816406 555.753906 371.09375 555.753906 371.09375 C 555.753906 371.09375 562.886719 373.648438 567.695312 376.425781 C 575.269531 381.050781 583.523438 384.070312 589.878906 386.835938 C 591.277344 387.292969 594.460938 387.117188 594.097656 385.171875 C 593.523438 384.246094 591.386719 382.921875 589.679688 381.398438 Z M 452.457031 371.859375 C 458.457031 372.875 463.617188 373.8125 469.582031 375.015625 C 474.601562 375.980469 479.691406 377.207031 484.835938 376.644531 C 486.800781 376.515625 488.75 375.910156 489.816406 374.328125 C 490.398438 372.910156 489.527344 371.890625 488.300781 371.226562 C 488.121094 371.125 487.941406 371.023438 487.761719 370.917969 C 484.453125 369.34375 480.75 368.78125 477.128906 368.171875 C 470.507812 367.019531 464.726562 366 458.0625 365.109375 C 455.019531 364.589844 451.46875 364.296875 448.839844 366.136719 C 448.226562 366.542969 447.839844 366.960938 447.609375 367.378906 C 447.460938 367.652344 447.375 367.925781 447.359375 368.191406 C 447.257812 370.058594 450.1875 371.703125 452.457031 371.859375 Z M 584.609375 392.898438 C 584.628906 392.910156 584.652344 392.929688 584.667969 392.941406 C 584.652344 392.929688 584.628906 392.914062 584.613281 392.902344 C 584.609375 392.898438 584.609375 392.898438 584.609375 392.898438 Z M 584.609375 392.902344 C 584.507812 392.828125 584.402344 392.757812 584.296875 392.6875 C 584.410156 392.761719 584.515625 392.832031 584.609375 392.898438 C 584.339844 392.652344 584.039062 392.433594 583.691406 392.273438 C 583.703125 392.28125 583.722656 392.296875 583.738281 392.308594 C 583.246094 391.980469 582.746094 391.660156 582.222656 391.382812 C 578.984375 389.722656 575.679688 388.199219 572.359375 386.699219 C 566.371094 384.125 560.773438 380.65625 554.535156 378.660156 C 538.785156 376.09375 522.78125 374.628906 506.839844 373.78125 C 501.339844 373.96875 499.84375 378.550781 506.089844 379.523438 C 520.191406 380.945312 537.84375 383.105469 551.835938 385.332031 C 554.65625 386.914062 557.476562 388.5 560.339844 390.007812 C 566.898438 393.492188 569.210938 395.019531 572.695312 396.371094 C 572.882812 396.445312 573.066406 396.519531 573.246094 396.59375 C 573.078125 396.527344 573.132812 396.550781 573.75 396.796875 C 573.761719 396.804688 573.773438 396.804688 573.785156 396.8125 C 573.976562 396.890625 574.164062 396.972656 574.359375 397.042969 C 574.226562 396.988281 574.070312 396.925781 573.917969 396.863281 C 574.472656 397.109375 575.074219 397.257812 575.652344 397.449219 C 575.867188 397.523438 575.859375 397.511719 575.753906 397.464844 C 577.210938 397.929688 579.113281 398.117188 580.863281 397.898438 C 582.246094 396.628906 583.816406 395.644531 585.488281 394.90625 C 585.511719 394.816406 585.546875 394.734375 585.566406 394.644531 C 585.476562 393.945312 585.117188 393.359375 584.609375 392.902344 Z M 445.597656 386.128906 C 451.398438 386.765625 457.226562 387.058594 463.042969 387.515625 C 470.4375 388.183594 481.054688 389.167969 481.328125 384.824219 C 481.148438 384.054688 480.515625 383.609375 479.765625 383.347656 C 479.746094 383.339844 479.734375 383.332031 479.714844 383.324219 C 479.617188 383.292969 479.515625 383.269531 479.417969 383.234375 C 479.410156 383.234375 479.40625 383.230469 479.398438 383.230469 C 473 381.074219 466.886719 381.398438 460.195312 380.808594 C 457.375 380.636719 454.546875 380.617188 451.726562 380.46875 C 449.429688 380.296875 447.035156 380.136719 444.910156 381.140625 C 444.050781 381.535156 443.425781 382.007812 443.039062 382.507812 C 442.640625 383.019531 442.496094 383.550781 442.585938 384.054688 C 442.753906 384.996094 443.761719 385.820312 445.597656 386.128906 Z M 550.519531 392.597656 C 545.363281 391.578125 540.070312 391.40625 534.855469 390.757812 C 526.855469 389.8125 518.882812 388.652344 510.875 387.746094 C 508.585938 387.472656 505.933594 387.164062 504 388.621094 C 501.460938 390.421875 504.503906 392.410156 506.632812 392.460938 C 522.394531 394.253906 541.722656 396.140625 547.652344 398.5625 C 555.738281 402.078125 562.980469 407.167969 571.246094 410.324219 C 571.402344 410.390625 571.570312 410.457031 571.722656 410.515625 C 571.683594 410.5 571.660156 410.496094 571.617188 410.476562 C 572.042969 410.6875 572.492188 410.824219 572.96875 410.882812 C 573.605469 411.03125 574.53125 411.058594 575.449219 410.929688 C 575.527344 409.125 575.765625 407.488281 576.144531 406.007812 C 572.789062 403.320312 568.914062 401.277344 565.125 399.1875 C 560.433594 396.65625 555.796875 393.863281 550.519531 392.597656 Z M 442.742188 399.488281 C 452.582031 400.304688 459.710938 402.210938 469.613281 402.332031 C 470.441406 402.328125 471.269531 402.296875 472.097656 402.253906 C 473.308594 402.273438 474.558594 402.066406 475.527344 401.382812 C 476.921875 400.636719 476.53125 399.035156 475.191406 398.449219 C 471.875 396.847656 465.039062 395.878906 458.332031 395.296875 C 454.605469 394.917969 450.878906 394.542969 447.140625 394.300781 C 445.46875 394.242188 443.75 393.871094 442.117188 394.335938 C 440.625 394.648438 439.695312 395.210938 439.253906 395.851562 C 439.019531 396.195312 438.933594 396.558594 438.960938 396.917969 C 439.050781 398.074219 440.417969 399.203125 442.742188 399.488281 Z M 499.535156 405.507812 C 513.03125 406.605469 526.515625 407.796875 539.910156 409.753906 C 541.082031 409.945312 541.375 409.839844 545.953125 412.707031 C 553.664062 417.808594 555.878906 419.175781 560.847656 422.789062 C 566.421875 426.394531 568.144531 430.359375 575.378906 427.726562 C 578.367188 426 576.617188 424.269531 574.394531 422.929688 C 571.980469 421.242188 569.5625 419.5625 567.113281 417.917969 C 565.023438 416.464844 559.257812 412.867188 554.648438 409.984375 C 551.894531 408.230469 549.054688 406.554688 545.914062 405.503906 C 539.390625 404.152344 532.6875 403.675781 526.085938 402.738281 C 517.488281 401.816406 508.859375 400.59375 500.238281 400.128906 C 495.082031 400.300781 493.679688 404.59375 499.535156 405.507812 Z M 440.257812 413.339844 C 445.574219 414.378906 450.957031 415.070312 456.332031 415.78125 C 461.222656 416.398438 462.695312 416.582031 467.644531 416.269531 C 468.097656 416.253906 468.550781 416.238281 469.003906 416.203125 L 469.007812 416.203125 C 469.023438 416.203125 469.035156 416.199219 469.054688 416.199219 C 469.226562 416.1875 469.398438 416.179688 469.574219 416.160156 L 469.550781 416.160156 C 472.976562 415.800781 473.980469 413.132812 470.976562 412.046875 C 469.359375 411.3125 467.703125 410.671875 465.984375 410.183594 C 459.988281 408.492188 444.539062 406.523438 441.128906 406.648438 C 438.433594 406.746094 436.585938 407.726562 435.855469 408.921875 C 435.582031 409.371094 435.46875 409.851562 435.53125 410.328125 C 435.703125 411.617188 437.171875 412.863281 440.257812 413.339844 Z M 493.074219 419.199219 C 506.875 420.347656 527.921875 423.175781 533.722656 424.507812 C 536.304688 425.050781 558.851562 438.035156 564.542969 440.546875 C 565.328125 440.921875 566.167969 441.183594 566.996094 441.453125 C 567.066406 441.476562 567.140625 441.5 567.210938 441.519531 C 567.214844 441.523438 567.214844 441.523438 567.21875 441.523438 C 568 441.773438 568.828125 441.894531 569.652344 441.890625 C 571.496094 441.917969 574.972656 441.105469 574.175781 438.777344 C 574 438.480469 573.757812 438.242188 573.488281 438.035156 L 573.464844 438.015625 C 570.621094 435.691406 545.996094 420.453125 538.613281 419.429688 C 526.257812 417.71875 511.488281 415.859375 495.75 414.121094 C 490.753906 413.171875 485.722656 417.617188 493.074219 419.199219 Z M 567.21875 441.523438 C 567.21875 441.523438 567.21875 441.523438 567.214844 441.523438 Z M 437.332031 427.453125 C 448.980469 429.394531 454.175781 431.035156 466.074219 430.320312 C 466.5 430.328125 466.960938 430.296875 467.433594 430.230469 C 467.433594 430.230469 467.441406 430.230469 467.445312 430.230469 C 469.898438 429.886719 472.554688 428.570312 470.648438 426.398438 C 470.347656 426.164062 470.019531 425.976562 469.675781 425.808594 C 469.695312 425.804688 469.648438 425.773438 469.5 425.710938 C 466.609375 424.3125 463.40625 423.703125 460.261719 423.050781 C 451.523438 421.238281 442.566406 420.570312 438.207031 420.726562 C 434.984375 420.84375 432.960938 422.21875 432.617188 423.710938 C 432.605469 423.746094 432.601562 423.785156 432.59375 423.820312 C 432.332031 425.316406 433.746094 426.902344 437.332031 427.453125 Z M 486.847656 432.839844 C 499.625 434.542969 531.082031 439.820312 531.082031 439.820312 C 531.082031 439.820312 538.789062 444.558594 543.59375 447.335938 C 551.167969 451.964844 561.71875 457.714844 568.074219 460.480469 C 569.476562 460.9375 572.65625 460.765625 572.296875 458.816406 C 571.71875 457.890625 569.582031 456.570312 567.875 455.046875 C 563.621094 451.625 553.71875 444.945312 546.699219 440.714844 C 542.367188 438.261719 538.351562 434.96875 533.429688 433.660156 C 518.820312 431.710938 509.121094 431.179688 491.25 428.65625 C 488.820312 428.445312 486.246094 427.625 483.917969 428.664062 C 480.34375 430.496094 484.367188 432.921875 486.847656 432.839844 Z M 486.847656 432.839844 " fill-opacity="1" fill-rule="nonzero"/><g clip-path="url(#id13)"><path fill="#e04285" d="M 652.410156 688.953125 C 651.617188 704.578125 637.59375 712.488281 622.667969 717.070312 C 605.765625 722.253906 552.765625 728.902344 525.1875 727.328125 C 514.316406 726.707031 509.757812 725.917969 501.253906 724.839844 C 493.121094 724.078125 479.566406 721.40625 476.183594 720.113281 C 469.835938 718.332031 463.425781 715.9375 458.53125 711.265625 C 457.949219 710.480469 458.007812 710.761719 456.78125 708.703125 C 455.410156 705.789062 454.472656 702.679688 454.042969 699.464844 C 453.316406 693.492188 453.363281 687.453125 453.363281 687.453125 L 453.367188 687.449219 C 453.664062 726.765625 652.210938 717.097656 651.957031 676.328125 C 651.960938 676.335938 651.964844 676.34375 651.96875 676.347656 C 652.320312 677.980469 652.503906 686.707031 652.410156 688.953125 Z M 569.898438 626.46875 C 568.15625 598.832031 565.921875 559.191406 565.679688 545.902344 C 571.695312 545.324219 577.015625 544.816406 580.675781 544.546875 C 598.226562 543.007812 616.941406 541.847656 629.957031 529.402344 C 632.058594 527.296875 633.949219 524.894531 635.039062 522.160156 C 635.855469 519.765625 636.058594 517.179688 635.777344 514.683594 C 635.453125 511.933594 633.566406 480.710938 628.785156 459.101562 C 628 455.558594 627.132812 452.035156 626.210938 448.523438 C 624.378906 441.546875 622.316406 434.625 620.15625 427.738281 C 617.324219 418.699219 614.132812 409.707031 609.746094 401.246094 C 608.742188 399.3125 607.699219 397.394531 606.558594 395.523438 C 605.964844 394.546875 602.617188 393.382812 598.328125 393.027344 C 594.382812 392.703125 589.632812 393.066406 585.484375 394.902344 C 583.816406 395.644531 582.246094 396.625 580.859375 397.894531 C 578.730469 399.847656 577.046875 402.492188 576.144531 406.007812 C 575.765625 407.488281 575.527344 409.125 575.449219 410.925781 C 575.25 415.511719 576.101562 421.179688 578.421875 428.175781 C 579.667969 434.847656 581.082031 441.488281 582.550781 448.121094 C 584.085938 455.066406 585.675781 462.007812 587.207031 468.957031 C 587.496094 470.28125 587.789062 471.605469 588.074219 472.929688 C 590.570312 483.605469 594.527344 493.894531 597.515625 504.445312 C 597.675781 504.945312 598.074219 506.488281 598.484375 508.363281 C 598.941406 510.441406 599.414062 512.929688 599.597656 514.882812 C 599.929688 516.90625 599.65625 519.667969 599.511719 520.566406 C 599.453125 520.777344 599.382812 520.992188 599.300781 521.195312 C 599.15625 521.625 598.65625 522.398438 598.386719 522.816406 C 597.597656 523.648438 596.679688 524.363281 595.753906 525.050781 C 595.347656 525.289062 594.867188 525.523438 594.503906 525.691406 C 577.277344 533.621094 533.332031 531.621094 501.828125 529.445312 C 501.175781 529.242188 500.457031 529.109375 499.675781 529.058594 C 490.039062 528.4375 484.425781 520.328125 480.375 509.894531 C 477.691406 508.960938 475.023438 507.980469 472.375 506.9375 C 462.996094 503.523438 454.175781 498.449219 446.660156 491.667969 C 446.332031 491.414062 446.050781 491.152344 445.820312 490.890625 C 445.742188 490.816406 445.660156 490.742188 445.582031 490.671875 C 451.21875 506.5625 456.886719 521.722656 466.957031 535.53125 C 467.59375 536.933594 468.632812 538.40625 470.265625 539.84375 C 470.28125 539.859375 470.292969 539.878906 470.308594 539.898438 C 470.363281 539.945312 470.425781 539.984375 470.484375 540.03125 C 471.730469 541.09375 473.304688 542.132812 475.285156 543.109375 C 475.328125 543.128906 475.371094 543.152344 475.410156 543.171875 C 484.183594 547.449219 500.828125 550.488281 531.855469 548.761719 C 531.882812 549.171875 531.929688 549.566406 531.988281 549.941406 C 531.75 574.484375 531.925781 599.050781 533.078125 623.5625 C 533.179688 625.730469 533.296875 627.972656 533.421875 630.257812 C 534.011719 629.710938 534.871094 629.285156 536.136719 629.113281 C 541.6875 627.929688 561.929688 623.316406 569.898438 626.46875 Z M 571.105469 665.617188 C 571.589844 665.414062 572.058594 665.175781 572.496094 664.867188 C 572.578125 666.542969 572.652344 668.222656 572.707031 669.898438 C 572.726562 673.5625 573.773438 676.839844 570.761719 679.101562 C 564.40625 686.003906 536.535156 683.652344 535.894531 678.078125 C 535.828125 677.519531 535.703125 676.84375 535.902344 676.320312 C 536.09375 675.824219 535.964844 672.351562 535.675781 667.15625 C 540.472656 669.191406 548.019531 668.351562 552.027344 668.332031 C 557.34375 667.992188 562.699219 667.769531 567.929688 666.546875 C 567.234375 666.703125 569.925781 666.144531 570.671875 665.804688 C 570.75 665.773438 570.828125 665.738281 570.90625 665.703125 C 570.890625 665.710938 570.863281 665.722656 570.855469 665.730469 C 570.914062 665.707031 570.96875 665.671875 571.027344 665.648438 C 571.0625 665.632812 571.101562 665.617188 571.140625 665.597656 C 571.128906 665.605469 571.117188 665.609375 571.105469 665.617188 Z M 571.140625 665.601562 C 571.335938 665.527344 571.570312 665.441406 571.710938 665.351562 C 571.519531 665.433594 571.328125 665.515625 571.140625 665.601562 Z M 571.140625 665.601562 " fill-opacity="1" fill-rule="nonzero"/></g></svg>