<svg xmlns="http://www.w3.org/2000/svg" xmlns:xlink="http://www.w3.org/1999/xlink" width="1080" zoomAndPan="magnify" viewBox="0 0 810 809.999993" height="1080" preserveAspectRatio="xMidYMid meet" version="1.0"><defs><clipPath id="id1"><path d="M 82 55 L 419 55 L 419 339 L 82 339 Z M 82 55 " clip-rule="nonzero"/></clipPath><clipPath id="id2"><path d="M 50.203125 78.269531 L 353.226562 -23.007812 L 464.011719 308.472656 L 160.988281 409.746094 Z M 50.203125 78.269531 " clip-rule="nonzero"/></clipPath><clipPath id="id3"><path d="M 50.203125 78.269531 L 353.226562 -23.007812 L 464.011719 308.472656 L 160.988281 409.746094 Z M 50.203125 78.269531 " clip-rule="nonzero"/></clipPath><clipPath id="id4"><path d="M 82 82 L 420 82 L 420 339 L 82 339 Z M 82 82 " clip-rule="nonzero"/></clipPath><clipPath id="id5"><path d="M 50.203125 78.269531 L 353.226562 -23.007812 L 464.011719 308.472656 L 160.988281 409.746094 Z M 50.203125 78.269531 " clip-rule="nonzero"/></clipPath><clipPath id="id6"><path d="M 50.203125 78.269531 L 353.226562 -23.007812 L 464.011719 308.472656 L 160.988281 409.746094 Z M 50.203125 78.269531 " clip-rule="nonzero"/></clipPath><clipPath id="id7"><path d="M 122 80 L 421 80 L 421 313 L 122 313 Z M 122 80 " clip-rule="nonzero"/></clipPath><clipPath id="id8"><path d="M 50.203125 78.269531 L 353.226562 -23.007812 L 464.011719 308.472656 L 160.988281 409.746094 Z M 50.203125 78.269531 " clip-rule="nonzero"/></clipPath><clipPath id="id9"><path d="M 50.203125 78.269531 L 353.226562 -23.007812 L 464.011719 308.472656 L 160.988281 409.746094 Z M 50.203125 78.269531 " clip-rule="nonzero"/></clipPath><clipPath id="id10"><path d="M 158 14 L 384 14 L 384 358 L 158 358 Z M 158 14 " clip-rule="nonzero"/></clipPath><clipPath id="id11"><path d="M 50.203125 78.269531 L 353.226562 -23.007812 L 464.011719 308.472656 L 160.988281 409.746094 Z M 50.203125 78.269531 " clip-rule="nonzero"/></clipPath><clipPath id="id12"><path d="M 50.203125 78.269531 L 353.226562 -23.007812 L 464.011719 308.472656 L 160.988281 409.746094 Z M 50.203125 78.269531 " clip-rule="nonzero"/></clipPath><clipPath id="id13"><path d="M 493.679688 275 L 759 275 L 759 808 L 493.679688 808 Z M 493.679688 275 " clip-rule="nonzero"/></clipPath><clipPath id="id14"><path d="M 496 276 L 759.929688 276 L 759.929688 791 L 496 791 Z M 496 276 " clip-rule="nonzero"/></clipPath><clipPath id="id15"><path d="M 512 408 L 759.929688 408 L 759.929688 809 L 512 809 Z M 512 408 " clip-rule="nonzero"/></clipPath></defs><g clip-path="url(#id1)"><g clip-path="url(#id2)"><g clip-path="url(#id3)"><path fill="#e04285" d="M 391.328125 161.25 C 386.203125 147.613281 385.40625 81.054688 385.40625 81.054688 C 385.40625 81.054688 357.132812 52.933594 339.414062 56.25 C 308.5 62.039062 99.164062 122.257812 84.941406 146.09375 C 82.78125 149.710938 82.445312 154.351562 82.476562 158.695312 C 84.105469 179.191406 89.9375 193.394531 96.828125 213.289062 C 101.664062 227.410156 106.050781 241.6875 111.484375 255.589844 C 117.9375 272.742188 123.796875 290.117188 130.09375 307.328125 C 133.226562 315.199219 133.847656 316.902344 137.945312 323.746094 C 139.996094 327.1875 142.289062 330.546875 145.28125 333.113281 C 149.816406 337.246094 155.730469 338.640625 161.335938 338.855469 C 169.605469 338.691406 177.300781 335.441406 185.007812 332.863281 C 286.574219 298.917969 341.890625 281.261719 395.253906 263.425781 C 412.5 257.664062 418.894531 227.960938 418.894531 227.960938 C 418.894531 227.960938 396.339844 173.25 391.328125 161.25 Z M 391.328125 161.25 " fill-opacity="1" fill-rule="nonzero"/></g></g></g><g clip-path="url(#id4)"><g clip-path="url(#id5)"><g clip-path="url(#id6)"><path fill="#000000" d="M 388.453125 86.558594 C 389.085938 88.753906 389.792969 90.929688 390.445312 93.125 C 393.285156 102.34375 395.589844 111.722656 398.09375 121.046875 C 402.347656 136.835938 406.4375 152.667969 410.136719 168.601562 C 413.582031 182.21875 416.167969 196.027344 417.769531 209.984375 C 418.246094 213.804688 418.808594 217.605469 419.257812 221.429688 C 419.804688 223.292969 417.875 227 415.996094 227.816406 C 409.347656 230.164062 402.722656 232.53125 396.050781 234.8125 C 382.308594 239.566406 368.234375 243.351562 354.394531 247.847656 C 334.066406 254.339844 313.808594 261.03125 293.457031 267.449219 C 263.671875 277.089844 234.054688 287.265625 204.285156 296.953125 C 196.152344 299.605469 188.054688 302.355469 179.890625 304.863281 C 177.597656 305.566406 175.28125 306.230469 172.9375 306.699219 C 172.683594 306.769531 172.433594 306.847656 172.175781 306.90625 C 170.585938 310.550781 169.066406 314.222656 167.640625 317.941406 C 165.214844 323.859375 163.359375 330.035156 160.578125 335.78125 C 160.65625 335.566406 160.710938 335.394531 160.757812 335.269531 C 160.648438 335.511719 160.507812 335.839844 160.335938 336.152344 C 160.332031 336.175781 160.316406 336.195312 160.308594 336.226562 C 160.132812 336.5625 159.921875 336.878906 159.730469 337.085938 C 159.714844 337.105469 159.695312 337.132812 159.683594 337.164062 C 157.8125 339.347656 154.09375 339.136719 152.539062 336.699219 C 152.164062 336.199219 151.957031 335.636719 151.890625 335.023438 C 151.730469 334.488281 151.730469 333.917969 151.859375 333.367188 C 151.875 333.1875 151.894531 332.992188 151.917969 332.796875 C 154.546875 322.339844 158.21875 312.058594 162.457031 302.101562 C 160.511719 298.007812 159.480469 293.417969 157.792969 289.199219 C 154.765625 280.507812 151.894531 271.757812 149.144531 262.960938 C 140.09375 235.578125 132.558594 207.671875 128.09375 179.171875 C 127.402344 174.765625 126.636719 169.25 126.246094 165.929688 C 126.179688 165.347656 126.164062 164.800781 126.1875 164.304688 C 118.402344 162.976562 110.453125 161.492188 103.335938 160.238281 C 98.453125 159.324219 93.566406 158.445312 88.683594 157.515625 C 86.75 157.003906 84.351562 156.851562 83.117188 155.082031 C 81.445312 152.816406 83.167969 149.421875 85.941406 149.304688 C 86.304688 149.304688 86.667969 149.359375 87.015625 149.449219 C 87 149.4375 87.027344 149.429688 87.125 149.460938 C 87.289062 149.472656 87.34375 149.492188 87.324219 149.496094 C 88.136719 149.589844 88.953125 149.695312 89.761719 149.789062 C 89.785156 149.796875 89.816406 149.792969 89.839844 149.800781 C 104.460938 151.980469 119.066406 154.390625 133.707031 156.558594 C 134.964844 155.914062 136.234375 155.300781 137.5625 154.855469 C 245.957031 118.628906 358.734375 86.578125 380.625 83.351562 C 382.390625 83.089844 383.59375 82.636719 384.648438 82.625 C 385.597656 82.605469 386.550781 82.972656 387.273438 83.859375 C 388 84.527344 388.136719 85.609375 388.453125 86.558594 Z M 388.453125 86.558594 " fill-opacity="1" fill-rule="nonzero"/></g></g></g><g clip-path="url(#id7)"><g clip-path="url(#id8)"><g clip-path="url(#id9)"><path fill="#ffbf01" d="M 209.566406 189.753906 C 206.148438 181.957031 200.113281 174.824219 190.773438 175.996094 C 183.429688 177.257812 177.808594 183.335938 173.902344 189.320312 C 171.78125 192.867188 170.386719 196.769531 169.355469 200.769531 C 167.261719 207.289062 166.277344 214.175781 166.507812 220.976562 C 166.742188 224.167969 167.246094 227.414062 168.042969 230.589844 C 168.539062 233.363281 169.207031 236.101562 170.0625 238.792969 C 170.652344 240.578125 171.394531 242.316406 172.226562 244.003906 C 172.320312 244.195312 172.414062 244.390625 172.515625 244.582031 C 172.582031 244.71875 172.652344 244.855469 172.71875 244.988281 C 172.65625 244.871094 172.601562 244.75 172.539062 244.632812 C 172.933594 245.347656 173.402344 246.019531 173.976562 246.621094 C 174.277344 246.976562 174.59375 247.332031 174.925781 247.671875 C 180.226562 252.996094 185.84375 253.816406 187.726562 254.214844 C 194.183594 255.582031 201.070312 253.722656 205.023438 247.671875 C 210.652344 240.339844 212.507812 231.019531 213.492188 222.03125 C 213.613281 220.816406 214.433594 211.546875 213.667969 205.777344 C 213.085938 200.273438 211.816406 194.808594 209.566406 189.753906 Z M 202.246094 209.492188 C 203.085938 220.160156 201.960938 228.949219 199.808594 235.113281 C 197.324219 240.796875 195.652344 242.570312 194.492188 243.378906 C 192.414062 244.917969 187 243.730469 184.375 240.546875 C 183.671875 239.59375 183.042969 238.625 182.4375 237.648438 C 182.191406 236.980469 181.953125 236.3125 181.753906 235.628906 C 179.597656 228.472656 179.914062 229.328125 179.175781 222.371094 C 178.886719 214.453125 179.007812 213.144531 180.914062 204.300781 C 182.367188 199.199219 181.398438 201.671875 183.441406 197.042969 C 184.832031 194.605469 183.738281 195.976562 186.292969 192.734375 C 189.542969 189.480469 187.894531 190.546875 192.007812 188.039062 C 192.039062 188.027344 192.074219 188.023438 192.105469 188.011719 C 192.386719 187.996094 192.660156 187.992188 192.9375 187.996094 C 193.261719 188.039062 193.574219 188.101562 193.890625 188.179688 C 193.960938 188.214844 194.050781 188.265625 194.128906 188.308594 C 194.3125 188.460938 194.546875 188.660156 194.820312 188.914062 C 198.773438 192.382812 201.980469 203.285156 202.246094 209.492188 Z M 252.457031 166.210938 C 251.4375 163.683594 248.320312 162.585938 245.808594 163.402344 C 239.542969 165.707031 242.96875 173.226562 243.519531 178.019531 C 243.429688 177.546875 243.339844 177.066406 243.25 176.59375 C 243.679688 179.042969 244.128906 181.492188 244.585938 183.9375 C 244.65625 184.34375 244.714844 184.644531 244.75 184.84375 C 246.460938 194.125 247.867188 201.648438 249.304688 209.15625 C 241.472656 197.519531 234.207031 185.507812 227.273438 173.308594 C 226.800781 172.46875 226.324219 171.625 225.882812 170.769531 C 225.859375 170.71875 225.839844 170.679688 225.816406 170.632812 C 224.050781 166.175781 219.238281 166.679688 217.199219 169.347656 C 216.113281 170.328125 215.417969 171.753906 215.515625 173.527344 C 215.652344 182.253906 217.019531 190.90625 217.976562 199.570312 C 218.964844 208.765625 221.074219 224.84375 222.164062 228.9375 C 222.792969 231.496094 223.472656 234.046875 224.300781 236.546875 C 224.296875 236.511719 224.285156 236.480469 224.28125 236.445312 C 224.515625 237.21875 224.953125 237.929688 225.570312 238.46875 C 227.625 240.34375 231.148438 239.632812 232.359375 237.128906 C 234.050781 231.257812 231.660156 217.128906 230.589844 207.515625 C 230.070312 203.207031 229.527344 198.898438 228.984375 194.59375 C 233.570312 201.972656 238.285156 209.269531 243.15625 216.453125 C 245.113281 219.359375 247.15625 222.199219 249.179688 225.050781 C 250.941406 227.417969 252.269531 230.390625 254.890625 231.914062 C 257.503906 233.273438 260.996094 231.488281 261.53125 228.609375 C 261.992188 226.003906 261.363281 223.382812 261.011719 220.800781 C 259.945312 212.640625 258.472656 204.542969 257.152344 196.425781 C 255.980469 189.394531 254.824219 182.355469 253.960938 175.277344 C 253.632812 172.964844 253.492188 170.625 253.046875 168.328125 C 253.046875 168.335938 253.046875 168.335938 253.054688 168.332031 C 253.132812 168.738281 253.207031 169.140625 253.285156 169.550781 C 253.222656 169.222656 253.164062 168.898438 253.097656 168.574219 C 253.078125 168.492188 253.066406 168.414062 253.054688 168.332031 C 253.042969 167.550781 252.84375 166.851562 252.457031 166.210938 Z M 322.570312 205.320312 C 322.753906 205.695312 322.9375 206.070312 323.121094 206.445312 C 320.460938 201.222656 313.042969 185.148438 307.5 173.195312 C 305.128906 168.082031 302.726562 162.984375 300.082031 158 C 298.210938 154.667969 296.410156 150.976562 293.007812 148.953125 C 289.902344 146.957031 286.007812 148.957031 285.316406 152.46875 C 284.746094 155.671875 285.234375 159.003906 285.210938 162.246094 C 285.355469 169.351562 285.285156 176.457031 285.070312 183.558594 C 285.027344 184.644531 284.992188 185.722656 284.953125 186.804688 C 284.398438 187.953125 284.40625 189.222656 284.828125 190.371094 C 284.613281 197.300781 284.507812 204.226562 284.394531 211.15625 C 284.292969 213.550781 284.113281 215.9375 283.9375 218.335938 C 283.859375 219.34375 283.6875 220.441406 284.28125 221.328125 C 286.054688 225.28125 292.242188 223.660156 291.96875 219.328125 C 292.613281 214.613281 292.746094 201.460938 293.039062 193.113281 C 293.054688 192.9375 293.058594 192.753906 293.070312 192.566406 C 296.273438 191.386719 299.507812 190.304688 302.734375 189.183594 C 303.296875 188.988281 303.878906 188.792969 304.441406 188.554688 C 305.007812 189.792969 305.566406 191.003906 306.097656 192.15625 C 308.347656 197.03125 310.535156 201.941406 312.902344 206.761719 C 313.917969 208.46875 314.382812 210.773438 316.15625 211.867188 C 320.308594 214.808594 325.496094 209.472656 322.570312 205.320312 Z M 300.429688 180.390625 C 298.199219 180.980469 296 181.6875 293.792969 182.347656 C 293.691406 182.386719 293.582031 182.417969 293.480469 182.457031 C 293.621094 176.769531 293.65625 171.089844 293.664062 165.402344 C 293.726562 165.519531 293.785156 165.636719 293.839844 165.75 C 295.421875 168.890625 297.996094 174.464844 300.683594 180.328125 C 300.597656 180.347656 300.511719 180.371094 300.429688 180.390625 Z M 328.203125 143.75 C 331.667969 163.507812 336.140625 183.660156 340.351562 204.304688 C 340.664062 205.960938 341.410156 207.648438 340.578125 209.273438 C 339.476562 211.65625 335.8125 212.210938 334.191406 210.089844 C 333.394531 209.382812 333.292969 208.273438 333.039062 207.292969 C 331.988281 202.988281 331.003906 198.667969 329.847656 194.386719 C 325.210938 177.019531 320.894531 159.5625 317.117188 141.988281 C 315.363281 136.882812 321.722656 132.683594 325.742188 136.25 C 327.898438 138.144531 327.589844 141.171875 328.203125 143.75 Z M 374.742188 134.527344 C 374.019531 122.261719 362.46875 122.972656 353.535156 126.105469 C 349.582031 127.441406 345.582031 128.761719 341.988281 130.917969 C 341.328125 131.195312 340.832031 131.558594 340.453125 131.976562 C 339.050781 133.085938 338.242188 134.941406 338.933594 137.242188 C 341.175781 147.8125 343.925781 166.355469 347.367188 180.910156 C 348.347656 185.242188 349.335938 189.570312 350.503906 193.851562 C 351.203125 195.839844 351.519531 198.148438 352.855469 199.8125 C 355.554688 203.097656 360.976562 199.96875 359.597656 195.957031 C 358.738281 191.160156 357.542969 186.421875 356.671875 181.617188 C 356.449219 180.445312 356.230469 179.273438 356.015625 178.101562 C 358.304688 180.109375 360.671875 182.027344 363.03125 183.9375 C 369.445312 189.109375 379.433594 197.042969 383.289062 197.984375 C 383.503906 198.105469 383.722656 198.195312 383.953125 198.265625 C 384.132812 198.347656 384.316406 198.433594 384.507812 198.507812 C 384.5 198.511719 384.492188 198.503906 384.488281 198.515625 C 386.734375 199.675781 389.808594 198.648438 390.90625 196.367188 C 391.882812 194.421875 391.328125 191.976562 389.714844 190.59375 C 389.714844 190.59375 389.722656 190.601562 389.722656 190.601562 C 389.710938 190.589844 389.695312 190.582031 389.683594 190.570312 C 389.636719 190.535156 389.597656 190.488281 389.546875 190.445312 C 389.359375 190.277344 389.152344 190.113281 388.960938 189.9375 C 388.933594 189.917969 388.921875 189.90625 388.894531 189.894531 C 388.851562 189.851562 388.808594 189.804688 388.769531 189.761719 C 388.3125 189.300781 387.855469 188.851562 387.375 188.4375 C 387.09375 188.144531 386.800781 187.871094 386.480469 187.613281 C 380.625 184.019531 361.828125 169.5625 357.832031 165.28125 C 357.734375 165.167969 357.648438 165.042969 357.554688 164.929688 C 359.378906 162.449219 361.359375 160.089844 363.117188 157.5625 C 367.78125 150.425781 374.390625 143.457031 374.742188 134.527344 Z M 352.125 155.929688 C 350.964844 149.074219 349.777344 142.230469 348.453125 135.410156 C 351.328125 134.222656 354.898438 133.144531 358.765625 132.09375 C 362.441406 131.453125 364.992188 132.128906 365.226562 132.242188 C 365.25 132.253906 365.261719 132.265625 365.289062 132.277344 C 365.382812 132.414062 365.496094 132.527344 365.585938 132.667969 C 365.640625 132.765625 365.675781 132.832031 365.71875 132.90625 C 365.828125 133.21875 365.921875 133.539062 366 133.859375 C 366.015625 134.023438 366.019531 134.179688 366.023438 134.347656 C 366.007812 134.492188 365.988281 134.636719 365.960938 134.773438 C 365.878906 135.3125 365.75 135.84375 365.621094 136.367188 C 365.574219 136.511719 365.527344 136.660156 365.488281 136.820312 C 365.230469 137.445312 364.644531 138.855469 364.335938 139.351562 C 361.277344 144.710938 359.347656 147.050781 354.503906 153.117188 C 353.804688 154.058594 352.96875 154.984375 352.125 155.929688 Z M 389.097656 86.742188 C 388.109375 84.824219 387.082031 81.839844 385.640625 80.96875 C 383.277344 79.546875 378.152344 80.269531 374.585938 80.921875 C 364.695312 82.738281 355.179688 86.15625 345.433594 88.597656 C 328.324219 93.132812 311.089844 97.210938 294.046875 102.011719 C 276.414062 107.09375 259.050781 113.074219 241.511719 118.441406 C 228.03125 122.492188 214.199219 125.203125 200.71875 129.261719 C 181.964844 135.175781 163.152344 141.054688 144.699219 147.875 C 137.761719 150.871094 130.039062 153.410156 124.964844 159.277344 C 124.222656 160.238281 123.570312 161.316406 123.402344 162.515625 C 123.371094 162.1875 123.160156 163.121094 123.042969 163.871094 C 121.769531 165.644531 122.296875 168.117188 123.121094 170.511719 C 124.175781 174.164062 125.1875 177.828125 126.164062 181.496094 C 129.859375 195.25 133.070312 209.132812 136.941406 222.839844 C 141.414062 238.449219 146.4375 253.886719 150.777344 269.535156 C 153.320312 278.421875 155.761719 287.34375 158.519531 296.167969 C 159.601562 299.273438 160.570312 302.492188 161.742188 305.609375 C 161.527344 305.753906 164.257812 313.378906 170.472656 312.167969 C 170.558594 312.144531 170.652344 312.121094 170.742188 312.105469 C 175.625 310.789062 180.488281 309.425781 185.347656 308.039062 C 203.609375 302.722656 221.375 295.875 239.472656 290.039062 C 267.472656 280.617188 295.640625 271.734375 323.785156 262.769531 C 350.082031 254.273438 376.304688 245.574219 402.492188 236.75 C 405.59375 235.683594 408.703125 234.652344 411.71875 233.359375 C 413.898438 232.40625 421.011719 230.429688 420.113281 221.617188 C 418.996094 210.636719 419.039062 208.714844 417.855469 197.742188 C 416.507812 187.558594 414.636719 177.441406 412.117188 167.480469 C 406.992188 147.804688 401.355469 128.257812 396.042969 108.628906 C 394.058594 101.234375 392.121094 93.804688 389.097656 86.742188 Z M 388.824219 113.09375 C 391.175781 122.8125 393.832031 132.441406 396.289062 142.128906 C 399.957031 156.5 405.121094 174.601562 406.792969 185.417969 C 409.1875 198.332031 409.695312 211.464844 410.808594 224.523438 C 410.8125 224.558594 410.8125 224.601562 410.816406 224.636719 C 401.109375 229.015625 382.023438 234.433594 368.859375 239.175781 C 336.59375 249.90625 304.136719 260.011719 271.738281 270.316406 C 253.929688 276.175781 236.074219 281.878906 218.339844 287.945312 C 202.570312 293.414062 186.792969 298.882812 170.617188 303.074219 C 170.222656 303.183594 169.832031 303.277344 169.441406 303.386719 C 163.972656 288.421875 160.875 272.675781 156.394531 257.402344 C 152.5 243.542969 148.269531 229.773438 144.527344 215.863281 C 140.851562 202.28125 137.707031 188.5625 134.007812 174.988281 C 133.238281 172.144531 132.472656 169.308594 131.542969 166.511719 C 131.414062 166.167969 131.3125 165.808594 131.191406 165.457031 C 131.273438 165.347656 131.359375 165.234375 131.421875 165.140625 C 133.691406 162.546875 132.625 163.761719 134.9375 161.984375 C 140.730469 158.273438 149.75 155.457031 158.933594 152.203125 C 176.210938 146.617188 193.355469 140.597656 210.851562 135.734375 C 223.050781 132.425781 235.351562 129.5 247.496094 125.988281 C 262.671875 121.484375 277.691406 116.472656 292.851562 111.929688 C 314.894531 105.496094 337.324219 100.480469 359.445312 94.332031 C 365.183594 92.699219 370.910156 90.988281 376.761719 89.804688 C 378.414062 89.449219 380.039062 88.976562 381.660156 88.496094 C 384.625 96.515625 386.640625 104.863281 388.824219 113.09375 Z M 388.824219 113.09375 " fill-opacity="1" fill-rule="nonzero"/></g></g></g><g clip-path="url(#id10)"><g clip-path="url(#id11)"><g clip-path="url(#id12)"><path fill="#000000" d="M 193.214844 87.394531 C 193.308594 89.046875 192.34375 90.847656 190.773438 91.480469 C 189.59375 92.179688 188.074219 92.082031 186.867188 91.453125 C 186.882812 91.460938 186.90625 91.484375 186.921875 91.492188 C 186.894531 91.472656 186.867188 91.453125 186.839844 91.441406 C 186.644531 91.339844 186.46875 91.222656 186.296875 91.097656 C 186.265625 91.078125 186.230469 91.0625 186.203125 91.042969 C 184.265625 89.820312 182.402344 88.5 180.609375 87.066406 C 173.839844 81.492188 167.53125 75.375 160.941406 69.585938 C 155.964844 65.257812 160.761719 56.945312 166.964844 59.277344 C 168.292969 59.566406 169.21875 60.609375 170.171875 61.507812 C 171.828125 63.101562 173.417969 64.761719 175.039062 66.378906 C 179.144531 70.636719 183.371094 74.761719 187.40625 79.082031 C 187.699219 79.480469 189.457031 81.191406 191.984375 84.546875 C 192.078125 84.667969 192.160156 84.785156 192.253906 84.90625 C 192.304688 84.972656 192.355469 85.042969 192.398438 85.105469 C 192.421875 85.136719 192.449219 85.167969 192.46875 85.199219 C 192.453125 85.183594 192.441406 85.164062 192.421875 85.148438 C 192.875 85.808594 193.117188 86.582031 193.214844 87.394531 Z M 215.792969 28.769531 C 212.039062 24.210938 204.523438 28.570312 206.453125 34.125 C 211.125 49.109375 215.800781 64.34375 222.539062 78.492188 C 224.417969 80.925781 228.636719 79.742188 229.167969 76.753906 C 229.429688 75.722656 229.023438 74.730469 228.820312 73.726562 C 228.25 71.234375 227.707031 68.734375 227.054688 66.261719 C 224.816406 57.515625 222.300781 48.851562 219.742188 40.195312 C 218.996094 37.695312 218.265625 35.1875 217.53125 32.679688 C 217.082031 31.339844 216.894531 29.769531 215.792969 28.769531 Z M 273.421875 16.914062 C 270.078125 25.753906 266.382812 37.183594 264.40625 42.675781 C 262.078125 49.679688 259.277344 57.101562 258.917969 64.476562 C 259.203125 66.964844 262.449219 68.230469 264.441406 66.800781 C 265.039062 66.347656 265.527344 65.773438 265.800781 65.082031 C 265.96875 64.734375 266.632812 63.105469 266.875 62.601562 C 271.550781 51.730469 275.488281 38.28125 281.300781 23.230469 C 281.984375 21.394531 283.167969 19.535156 282.378906 17.535156 C 281.195312 13.535156 275.175781 13.109375 273.421875 16.914062 Z M 269.792969 316.53125 C 268.875 315.15625 267.023438 314.296875 265.390625 314.734375 C 264.027344 314.882812 262.871094 315.875 262.28125 317.105469 C 262.289062 317.085938 262.292969 317.054688 262.304688 317.039062 C 262.292969 317.070312 262.28125 317.105469 262.269531 317.128906 C 262.175781 317.328125 262.101562 317.527344 262.039062 317.730469 C 262.027344 317.765625 262.011719 317.800781 262 317.832031 C 261.183594 319.976562 260.492188 322.148438 259.921875 324.371094 C 257.859375 332.898438 256.496094 341.578125 254.707031 350.167969 C 253.332031 356.617188 262.164062 360.378906 265.71875 354.785156 C 266.605469 353.753906 266.71875 352.363281 266.941406 351.074219 C 267.304688 348.804688 267.578125 346.523438 267.898438 344.253906 C 268.621094 338.386719 269.519531 332.546875 270.144531 326.667969 C 270.140625 326.175781 270.515625 323.75 270.519531 319.546875 C 270.519531 319.394531 270.515625 319.25 270.515625 319.097656 C 270.515625 319.015625 270.515625 318.929688 270.511719 318.851562 C 270.515625 318.8125 270.515625 318.769531 270.511719 318.734375 C 270.511719 318.757812 270.511719 318.78125 270.503906 318.804688 C 270.476562 318.003906 270.207031 317.234375 269.792969 316.53125 Z M 322.109375 345.617188 C 321.191406 343.175781 320.265625 340.734375 319.359375 338.285156 C 316.207031 329.832031 313 321.390625 309.53125 313.058594 C 308.5625 310.691406 307.496094 308.367188 306.453125 306.03125 C 306.011719 305.101562 305.734375 304.074219 304.910156 303.402344 C 302.691406 301.34375 298.609375 302.933594 298.570312 306.003906 C 301.691406 321.359375 307.113281 336.34375 312.390625 351.125 C 314.1875 356.722656 322.816406 355.6875 323.074219 349.789062 C 323.363281 348.335938 322.570312 346.972656 322.109375 345.617188 Z M 383.042969 318.738281 C 382.46875 316.667969 380.398438 315.890625 378.757812 314.835938 C 365.070312 306.3125 353.835938 297.933594 343.558594 292.050781 C 343.0625 291.792969 341.554688 290.894531 341.210938 290.71875 C 340.585938 290.332031 339.847656 290.167969 339.089844 290.160156 C 336.632812 290.21875 334.808594 293.179688 336.078125 295.339844 C 340.796875 301.015625 347.5 305.261719 353.566406 309.457031 C 358.453125 312.648438 368.277344 319.570312 376.261719 324.625 C 379.949219 326.609375 384.503906 322.648438 383.042969 318.738281 Z M 383.042969 318.738281 " fill-opacity="1" fill-rule="nonzero"/></g></g></g><g clip-path="url(#id13)"><path fill="#000000" d="M 758.085938 747.625 L 758.027344 747.414062 L 758.027344 747.265625 C 758.007812 744.359375 757.074219 741.332031 755.25 738.269531 C 745.609375 722.085938 712.917969 711.726562 667.792969 710.554688 C 667.761719 710.195312 667.734375 709.839844 667.703125 709.484375 C 667.15625 703.125 666.4375 696.683594 664.542969 690.683594 C 663.972656 689.3125 662.722656 688.328125 661 687.644531 C 660.65625 687.507812 660.289062 687.390625 659.910156 687.277344 C 658.050781 657.710938 655.199219 608.101562 654.894531 591.335938 L 654.875 590.351562 L 655.855469 590.257812 C 663.429688 589.527344 669.554688 588.945312 673.789062 588.632812 L 676.234375 588.417969 C 696.460938 586.667969 717.371094 584.859375 732.039062 570.835938 C 734.878906 567.984375 736.789062 565.269531 737.859375 562.582031 C 738.734375 560.007812 739.023438 557.074219 738.6875 554.113281 C 738.625 553.578125 738.519531 552.230469 738.359375 550.191406 C 737.480469 539.054688 735.152344 509.476562 730.351562 487.761719 C 729.472656 483.796875 728.46875 479.671875 727.285156 475.15625 L 727.207031 474.867188 L 727.292969 474.578125 C 727.457031 474.03125 727.621094 473.472656 727.785156 472.921875 C 727.960938 473.578125 728.144531 474.230469 728.316406 474.886719 C 731.835938 463.152344 734.753906 451.683594 737.21875 441.335938 C 742.875 414.457031 750.105469 387.222656 748.386719 359.46875 C 747.851562 351.289062 745.613281 343.335938 742.460938 335.851562 C 739.347656 328.054688 734.902344 320.910156 729.21875 314.871094 C 724.273438 309.859375 718.582031 305.773438 712.519531 302.351562 C 712.765625 302.535156 712.960938 302.753906 713.082031 303.015625 C 713.074219 302.996094 713.074219 303 713.0625 302.976562 C 713.515625 303.507812 713.933594 304.070312 714.335938 304.644531 C 713.570312 304.183594 712.792969 303.726562 711.996094 303.277344 L 711.9375 303.246094 L 711.878906 303.203125 C 711.792969 303.140625 711.671875 303.074219 711.425781 302.960938 C 710.671875 302.542969 709.902344 302.132812 709.128906 301.730469 C 710.078125 301.582031 711.136719 301.679688 711.941406 302.03125 C 706.539062 299.027344 700.851562 296.542969 695.128906 294.421875 C 683.898438 290.722656 672.28125 288.46875 660.796875 285.800781 C 646.9375 282.582031 615.472656 277.746094 612.25 277.203125 C 592.253906 273.820312 569.585938 275.898438 553.476562 289.851562 C 545.0625 296.910156 539.832031 307.019531 535.496094 317.132812 C 530.839844 327.796875 527.066406 338.839844 523.554688 349.964844 C 522.355469 353.789062 521.152344 357.613281 519.953125 361.4375 C 520.296875 360.917969 520.824219 360.4375 521.511719 360.03125 L 520.921875 361.902344 L 520.839844 362.03125 C 520.636719 362.332031 520.535156 362.644531 520.539062 362.949219 L 520.542969 363.121094 L 520.492188 363.28125 C 520.355469 363.707031 520.226562 364.128906 520.09375 364.554688 C 519.695312 364.046875 519.480469 363.507812 519.472656 362.960938 C 517.914062 367.929688 516.359375 372.894531 514.824219 377.867188 C 515.101562 377.367188 515.558594 376.867188 516.296875 376.378906 C 516.339844 376.347656 516.386719 376.332031 516.425781 376.300781 C 516.234375 376.929688 516.035156 377.554688 515.839844 378.179688 L 515.808594 378.285156 L 515.753906 378.382812 C 515.652344 378.566406 515.597656 378.738281 515.589844 378.894531 L 515.582031 379.023438 L 515.542969 379.148438 C 515.398438 379.621094 515.261719 380.066406 515.121094 380.53125 C 514.722656 380.003906 514.492188 379.429688 514.523438 378.835938 C 512.769531 384.53125 511.042969 390.234375 509.359375 395.949219 C 509.703125 395.511719 510.195312 395.09375 510.839844 394.710938 C 510.6875 395.222656 510.53125 395.746094 510.382812 396.25 L 510.324219 396.445312 L 510.203125 396.605469 C 509.925781 396.960938 509.8125 397.300781 509.867188 397.613281 L 509.914062 397.859375 L 509.84375 398.101562 C 509.75 398.417969 509.65625 398.742188 509.5625 399.0625 C 509.15625 398.6875 508.902344 398.257812 508.820312 397.800781 C 507.449219 402.492188 506.125 407.195312 504.832031 411.90625 C 505.125 411.484375 505.597656 411.09375 506.253906 410.761719 C 506.125 411.238281 505.992188 411.703125 505.863281 412.1875 L 505.816406 412.363281 L 505.710938 412.511719 C 505.582031 412.699219 505.53125 412.886719 505.546875 413.097656 L 505.5625 413.28125 L 505.511719 413.460938 C 505.402344 413.859375 505.300781 414.242188 505.195312 414.628906 C 504.769531 414.179688 504.523438 413.683594 504.484375 413.179688 C 503.371094 417.28125 502.277344 421.390625 501.242188 425.515625 C 501.078125 426.21875 500.925781 426.886719 500.777344 427.53125 C 501.082031 427.03125 501.5625 426.5625 502.1875 426.15625 L 501.777344 427.9375 L 501.6875 428.085938 C 501.484375 428.417969 501.402344 428.75 501.445312 429.070312 L 501.46875 429.261719 L 501.425781 429.453125 C 501.328125 429.878906 501.230469 430.296875 501.140625 430.699219 C 500.714844 430.230469 500.457031 429.726562 500.386719 429.210938 C 498.933594 435.515625 498.066406 439.285156 496.898438 445.214844 C 497.070312 444.484375 497.589844 443.785156 498.390625 443.195312 C 498.246094 443.90625 498.097656 444.644531 497.945312 445.421875 L 497.917969 445.550781 C 497.796875 446.175781 497.671875 446.824219 497.539062 447.496094 C 496.957031 446.824219 496.746094 446.078125 496.875 445.347656 C 496.609375 446.6875 496.332031 448.125 496.027344 449.738281 C 494.863281 455.808594 493.796875 461.921875 493.84375 468.132812 C 493.867188 477.742188 494.066406 487.527344 496.699219 496.804688 C 499.136719 507.019531 504.097656 516.414062 511.058594 524.039062 C 511.496094 524.464844 511.957031 524.863281 512.398438 525.28125 C 512.492188 525.367188 512.589844 525.457031 512.683594 525.542969 C 512.0625 524.835938 511.78125 524.105469 511.894531 523.359375 C 512.117188 523.574219 512.34375 523.785156 512.574219 523.992188 C 512.757812 524.160156 513.316406 524.679688 513.316406 524.679688 L 513.402344 524.921875 C 513.617188 525.527344 513.832031 526.121094 514.046875 526.722656 C 513.929688 526.636719 513.796875 526.554688 513.6875 526.472656 C 513.8125 526.585938 513.949219 526.691406 514.074219 526.804688 C 520.835938 545.769531 527.511719 562.792969 538.808594 578.289062 L 538.875 578.375 L 538.917969 578.476562 C 539.695312 580.183594 540.9375 581.800781 542.609375 583.273438 L 542.707031 583.378906 L 542.695312 583.363281 L 542.855469 583.488281 C 544.351562 584.765625 546.210938 585.953125 548.375 587.023438 L 548.523438 587.09375 C 558.269531 591.847656 574.144531 594.261719 595.707031 594.261719 C 601.816406 594.261719 608.460938 594.0625 615.460938 593.671875 L 616.511719 593.613281 L 616.585938 594.660156 C 616.617188 595.117188 616.667969 595.558594 616.734375 595.976562 L 616.75 596.066406 L 616.75 596.15625 C 616.417969 630.277344 616.832031 658.230469 618.050781 684.121094 C 618.164062 686.507812 618.289062 688.976562 618.425781 691.480469 C 618.027344 691.683594 617.675781 691.914062 617.394531 692.175781 C 616.625 692.886719 616.238281 693.773438 616.070312 694.640625 C 616.011719 694.925781 615.820312 695.175781 615.746094 695.488281 C 614.5 701.003906 613.976562 706.714844 613.914062 712.429688 C 613.910156 712.785156 613.917969 713.144531 613.917969 713.503906 C 564.199219 720.238281 529.550781 736.519531 523.480469 756.003906 C 523 757.546875 522.761719 759.074219 522.773438 760.542969 L 522.769531 761.066406 L 522.769531 761.070312 C 522.773438 762.824219 522.851562 768.871094 523.570312 774.78125 C 524.0625 778.460938 525.132812 782.070312 526.703125 785.421875 C 527.734375 787.152344 527.957031 787.421875 528.261719 787.792969 C 528.378906 787.9375 528.507812 788.09375 528.679688 788.320312 C 534.582031 793.925781 542.398438 796.652344 549.359375 798.613281 C 553.375 800.148438 569.402344 803.296875 579.078125 804.199219 C 580.988281 804.441406 582.730469 804.671875 584.390625 804.890625 C 591.492188 805.828125 597.097656 806.566406 607.617188 807.171875 C 610.871094 807.355469 614.535156 807.449219 618.503906 807.449219 C 618.507812 807.449219 618.503906 807.449219 618.503906 807.449219 C 652.652344 807.449219 705.8125 800.460938 723.765625 794.949219 C 746.421875 787.996094 757.800781 777.316406 758.558594 762.308594 C 758.679688 759.6875 758.457031 749.46875 758.085938 747.625 Z M 590.105469 277.046875 C 588.792969 277.132812 587.496094 277.253906 586.21875 277.402344 C 586.5 277.296875 586.789062 277.203125 587.09375 277.132812 C 587.917969 276.949219 589.050781 276.882812 590.105469 277.046875 Z M 538.515625 312.980469 C 538.105469 313.871094 537.703125 314.753906 537.316406 315.632812 C 537.105469 314.769531 537.5 313.816406 538.515625 312.980469 Z M 531.960938 328.703125 C 531.644531 329.546875 531.324219 330.390625 531.015625 331.226562 C 530.691406 330.363281 530.976562 329.441406 531.960938 328.703125 Z M 526.53125 344.207031 C 526.28125 344.96875 526.027344 345.738281 525.789062 346.484375 C 525.652344 345.703125 525.914062 344.910156 526.53125 344.207031 Z M 579.5625 572.707031 L 579.4375 572.695312 L 579.320312 572.660156 C 578.601562 572.4375 577.816406 572.296875 576.992188 572.242188 C 563.351562 571.359375 556.761719 558.355469 552.996094 548.652344 L 552.660156 547.789062 C 553.101562 547.945312 553.542969 548.109375 553.988281 548.265625 C 563.136719 551.445312 572.441406 554.136719 581.789062 556.601562 C 598.011719 560.761719 614.273438 564.785156 630.601562 568.484375 C 651.804688 573.527344 668.867188 571.972656 685.886719 556.796875 C 689.160156 553.675781 692.25 550.191406 695.171875 546.429688 C 695.070312 545.960938 694.96875 545.511719 694.867188 545.085938 L 695.726562 543.980469 L 696.214844 546.199219 C 696.699219 548.40625 697.328125 551.570312 697.558594 554.054688 C 697.984375 556.667969 697.617188 560.167969 697.453125 561.1875 L 697.445312 561.25 L 697.425781 561.3125 C 697.34375 561.605469 697.246094 561.902344 697.15625 562.117188 C 696.960938 562.695312 696.460938 563.496094 695.949219 564.289062 L 695.894531 564.375 L 695.828125 564.445312 C 694.820312 565.511719 693.652344 566.417969 692.542969 567.242188 L 692.445312 567.304688 C 691.910156 567.617188 691.285156 567.921875 690.859375 568.117188 C 680.761719 572.765625 662.757812 575.027344 635.8125 575.027344 C 615.546875 575.03125 594 573.703125 579.5625 572.707031 Z M 579.5625 572.707031 " fill-opacity="1" fill-rule="nonzero"/></g><g clip-path="url(#id14)"><path fill="#14ae5c" d="M 521.710938 760.554688 C 521.699219 758.996094 521.941406 757.378906 522.46875 755.691406 C 529.402344 733.425781 569.011719 718.496094 613.917969 712.429688 C 613.878906 716.109375 614.023438 719.785156 614.300781 723.410156 C 615.152344 729.320312 615.152344 730.585938 615.785156 732.652344 C 616.691406 734.339844 618.21875 735.5 620.097656 736.296875 C 620.441406 742.507812 620.59375 746.660156 620.367188 747.25 C 620.125 747.878906 620.277344 748.6875 620.355469 749.355469 C 621.125 756.019531 654.4375 758.828125 662.03125 750.578125 C 665.636719 747.875 664.382812 743.957031 664.359375 739.574219 C 664.292969 737.566406 664.207031 735.5625 664.105469 733.558594 C 664.269531 733.441406 664.433594 733.316406 664.585938 733.183594 C 665.753906 732.152344 666.570312 730.609375 666.933594 728.996094 C 668.5625 723.320312 668.234375 717.265625 667.863281 711.417969 C 667.8125 710.773438 667.757812 710.128906 667.703125 709.484375 C 708.820312 710.539062 745.34375 719.558594 756.164062 737.726562 C 758.140625 741.046875 759.074219 744.222656 759.09375 747.261719 C 759.394531 796.003906 522.066406 807.566406 521.710938 760.554688 Z M 706.851562 303.972656 C 711.609375 325.089844 703.996094 369.914062 694.984375 408.53125 C 700.113281 408.957031 704.113281 410.351562 704.824219 411.515625 C 706.1875 413.753906 707.433594 416.046875 708.632812 418.359375 C 717.730469 382.03125 722.867188 348.230469 722.019531 332.347656 C 720.578125 322.824219 719.5625 310.65625 713.066406 302.976562 C 713.078125 303 713.078125 303 713.085938 303.015625 C 712.964844 302.757812 712.769531 302.535156 712.523438 302.351562 C 712.355469 302.226562 712.15625 302.121094 711.949219 302.03125 C 709.949219 301.160156 706.371094 301.832031 706.851562 303.972656 Z M 619.5 546.644531 C 589.019531 547.839844 555.992188 535.421875 525.660156 526.152344 C 521.597656 524.914062 513.253906 519.429688 511.976562 522.941406 C 511.652344 523.839844 511.953125 524.707031 512.6875 525.542969 C 512.960938 525.859375 513.296875 526.167969 513.691406 526.472656 C 518.582031 530.285156 531.769531 533.316406 534.992188 534.851562 C 568.902344 546.601562 605.53125 557.683594 641.089844 549.527344 C 655.558594 546.546875 669.535156 526.429688 681.691406 499.316406 C 679.863281 491.007812 677.964844 482.710938 676.125 474.402344 C 664.117188 502.835938 655.335938 548.144531 619.5 546.644531 Z M 583.453125 295.730469 C 585.609375 290.527344 587.414062 284.683594 590.78125 282.273438 C 591.570312 281.269531 592.832031 280.5 593.03125 279.183594 C 592.601562 276.914062 589.015625 276.703125 587.09375 277.132812 C 583.351562 277.980469 581.53125 281.664062 579.839844 284.613281 C 577.902344 287.8125 575.941406 291.011719 574.441406 294.425781 C 573.332031 298.164062 582.132812 298.386719 583.453125 295.730469 Z M 606.359375 300.628906 C 608.898438 294.832031 611.144531 288.871094 614.363281 283.375 C 615.441406 281.898438 616.371094 280.394531 614.007812 279.535156 C 611.738281 278.636719 608.542969 279.019531 607.300781 281.257812 C 604.636719 284.851562 603.023438 288.984375 601.460938 293.089844 C 600.621094 295.242188 599.820312 297.40625 599.003906 299.566406 C 598.847656 299.832031 598.820312 300.097656 598.9375 300.363281 C 599.796875 302.695312 605.101562 302.617188 606.359375 300.628906 Z M 621.636719 304.882812 C 621.828125 303.871094 622.03125 302.867188 622.296875 301.875 C 623.960938 295.738281 627.507812 290.214844 631.476562 285.1875 C 633.382812 282.902344 638.121094 281.929688 640.207031 284.441406 C 640.582031 285.015625 640.308594 285.636719 640.136719 286.234375 C 640.058594 286.546875 639.867188 286.8125 639.609375 287.027344 C 638.949219 287.8125 639.265625 287.386719 638.046875 289.042969 C 634.582031 294.214844 630.789062 299.40625 629.128906 305.414062 C 627.957031 307.050781 625.355469 307.097656 623.527344 306.605469 C 622.691406 306.3125 621.679688 305.839844 621.636719 304.882812 Z M 640.171875 286.085938 C 640.171875 286.097656 640.164062 286.113281 640.164062 286.125 C 640.234375 285.84375 640.300781 285.5625 640.171875 286.085938 Z M 654.824219 312.070312 C 656.96875 307.574219 659.472656 303.25 662.546875 299.269531 C 662.859375 298.71875 664.230469 296.859375 664.601562 296.347656 C 665.488281 295.289062 666.328125 294.199219 667.121094 293.074219 C 667.359375 292.683594 667.390625 292.292969 667.222656 291.898438 C 666.945312 290.535156 665.164062 289.863281 663.871094 289.605469 C 660.75 288.816406 657.359375 289.761719 655.339844 292.199219 C 650.5 297.601562 647.484375 306.898438 646.8125 311.78125 C 647.742188 314.296875 653.464844 314.214844 654.824219 312.070312 Z M 508.492188 498.214844 C 509.3125 501.976562 510.550781 505.652344 512.347656 509.097656 C 513.269531 511.925781 516.414062 512.722656 519.222656 512.300781 C 520.828125 512.085938 523.539062 511.035156 522.695312 509.097656 C 521.890625 507.386719 520.984375 505.714844 520.273438 503.96875 C 518.367188 498.976562 518.066406 496.742188 517.242188 491.019531 C 516.34375 483.96875 517.019531 474.683594 518.644531 470.070312 C 519.070312 468.714844 519.632812 467.402344 520.167969 466.082031 C 520.375 465.738281 520.402344 465.390625 520.257812 465.042969 C 519.199219 462.019531 512.15625 462.113281 510.578125 464.699219 C 505.9375 475.253906 506.183594 487.152344 508.492188 498.214844 Z M 530.871094 491.46875 C 530.269531 498.027344 530.296875 504.640625 531.980469 511.066406 C 532.378906 512.664062 532.625 514.316406 533.246094 515.855469 C 533.257812 515.882812 533.265625 515.910156 533.277344 515.9375 C 533.285156 515.960938 533.289062 515.984375 533.300781 516.007812 C 533.296875 515.992188 533.289062 515.972656 533.285156 515.957031 C 533.53125 516.480469 534.023438 516.898438 534.5625 517.15625 C 536.898438 518.351562 542.226562 518.378906 542.902344 515.347656 C 542.253906 511.40625 541.078125 507.523438 540.761719 503.523438 C 540.25 498.363281 541.207031 493.183594 541.894531 488.078125 C 543.039062 480.640625 543.6875 476.34375 545.601562 470.230469 C 547.042969 465.722656 536.15625 465.386719 534.605469 468.644531 C 532.4375 476.09375 531.492188 483.777344 530.871094 491.46875 Z M 559.414062 524.957031 C 559.847656 526.664062 561.367188 527.597656 563.171875 527.597656 C 564.773438 527.800781 568.152344 527.132812 567.453125 525.046875 C 567.71875 526.171875 567.476562 524.75 567.457031 524.277344 C 567.046875 518.382812 565.253906 512.675781 564.84375 506.78125 C 564.234375 495.230469 566.441406 483.738281 568.070312 472.328125 C 567.605469 468.78125 558.503906 468.832031 558.039062 472.328125 C 555.953125 487.515625 552.964844 503.109375 557.09375 518.21875 C 557.640625 520.523438 558.5 522.765625 559.414062 524.957031 Z M 585.972656 476.304688 C 581.988281 491.199219 579.320312 506.699219 580.878906 522.085938 C 581.238281 525.304688 581.78125 529.742188 582.59375 530.410156 C 584.597656 533.035156 592.695312 532.96875 593.34375 529.277344 C 592.347656 522.984375 591.789062 516.621094 591.988281 510.253906 C 592.3125 500.898438 593.515625 491.558594 595.617188 482.410156 C 596.042969 480.632812 596.484375 478.859375 596.917969 477.082031 C 596.917969 476.632812 596.761719 476.257812 596.4375 475.957031 C 594.226562 473.4375 587.914062 473.496094 585.972656 476.304688 Z M 540.886719 317.992188 C 547.820312 318.753906 554.789062 319.105469 561.738281 319.652344 C 570.578125 320.449219 584.296875 321.742188 584.621094 316.546875 C 584.410156 315.628906 583.652344 315.097656 582.757812 314.785156 C 582.734375 314.773438 582.71875 314.765625 582.695312 314.757812 C 582.578125 314.71875 582.457031 314.691406 582.339844 314.648438 L 582.320312 314.644531 C 574.671875 312.066406 566.335938 312.339844 558.335938 311.632812 C 554.964844 311.425781 551.582031 311.40625 548.210938 311.226562 C 545.46875 311.023438 542.605469 310.832031 540.066406 312.035156 C 536.015625 313.875 536.367188 317.230469 540.886719 317.992188 Z M 614.875 325.679688 C 633.714844 327.824219 656.816406 330.078125 663.90625 332.976562 C 673.570312 337.179688 682.226562 343.261719 692.109375 347.039062 C 692.292969 347.117188 692.492188 347.195312 692.675781 347.265625 C 692.628906 347.25 692.601562 347.242188 692.550781 347.21875 C 693.058594 347.472656 693.597656 347.632812 694.167969 347.703125 C 696.425781 348.242188 701.742188 347.476562 700.742188 344.402344 C 700.652344 344.257812 700.523438 344.152344 700.410156 344.03125 C 700.335938 343.945312 700.261719 343.855469 700.179688 343.777344 C 700.15625 343.753906 700.136719 343.734375 700.113281 343.71875 C 700.011719 343.625 699.910156 343.53125 699.800781 343.441406 C 695.402344 339.421875 690.027344 336.609375 684.789062 333.722656 C 679.183594 330.695312 673.640625 327.355469 667.332031 325.84375 C 661.167969 324.621094 654.84375 324.417969 648.609375 323.640625 C 639.042969 322.511719 629.515625 321.125 619.945312 320.042969 C 617.207031 319.714844 614.035156 319.347656 611.726562 321.089844 C 608.691406 323.238281 612.328125 325.617188 614.875 325.679688 Z M 535.414062 333.753906 C 547.179688 334.730469 558.789062 337.335938 570.621094 337.484375 C 571.613281 337.476562 572.605469 337.441406 573.59375 337.386719 C 575.042969 337.414062 576.535156 337.164062 577.691406 336.34375 C 579.359375 335.453125 578.894531 333.539062 577.292969 332.835938 C 573.324219 330.921875 562.066406 329.441406 554.050781 328.742188 C 549.597656 328.289062 545.140625 327.839844 540.671875 327.554688 C 538.675781 327.484375 536.621094 327.039062 534.667969 327.59375 C 528.933594 328.789062 530.121094 333.109375 535.414062 333.753906 Z M 695.871094 362.105469 C 692.984375 360.089844 690.09375 358.082031 687.167969 356.117188 C 684.667969 354.378906 677.777344 350.074219 672.269531 346.628906 C 668.972656 344.535156 665.578125 342.53125 661.824219 341.273438 C 654.03125 339.65625 646.015625 339.089844 638.125 337.96875 C 627.851562 336.863281 617.535156 335.402344 607.230469 334.84375 C 601.070312 335.054688 599.390625 340.1875 606.390625 341.277344 C 622.523438 342.59375 638.644531 344.015625 654.648438 346.359375 C 656.050781 346.585938 656.40625 346.457031 661.878906 349.886719 C 671.09375 355.984375 673.738281 357.621094 679.679688 361.9375 C 686.34375 366.253906 688.402344 370.996094 697.050781 367.84375 C 700.617188 365.777344 698.527344 363.707031 695.871094 362.105469 Z M 572.25 349.097656 C 570.320312 348.21875 568.339844 347.449219 566.285156 346.871094 C 559.109375 345.128906 551.746094 344.253906 544.40625 343.398438 C 540.414062 343.09375 536.472656 341.734375 532.460938 341.988281 C 524.710938 342.269531 522.785156 348.65625 531.417969 349.988281 C 537.773438 351.230469 544.207031 352.058594 550.632812 352.910156 C 556.476562 353.648438 562.355469 354.519531 568.269531 354.148438 C 568.8125 354.125 569.355469 354.101562 569.894531 354.066406 L 569.902344 354.066406 C 569.921875 354.066406 569.9375 354.0625 569.957031 354.0625 C 570.164062 354.042969 570.371094 354.039062 570.578125 354.011719 L 570.550781 354.011719 C 574.644531 353.582031 575.84375 350.394531 572.25 349.097656 Z M 598.664062 357.648438 C 615.160156 359.023438 640.320312 362.40625 647.253906 363.996094 C 650.339844 364.644531 677.289062 380.171875 684.09375 383.175781 C 685.03125 383.621094 686.035156 383.933594 687.027344 384.253906 C 687.113281 384.285156 687.199219 384.3125 687.285156 384.339844 C 687.285156 384.339844 687.289062 384.339844 687.292969 384.34375 C 688.226562 384.640625 689.214844 384.785156 690.199219 384.78125 C 692.402344 384.8125 696.558594 383.839844 695.609375 381.058594 C 695.398438 380.703125 695.109375 380.417969 694.789062 380.167969 C 694.777344 380.160156 694.765625 380.152344 694.757812 380.148438 C 691.355469 377.367188 661.925781 359.148438 653.097656 357.925781 C 638.328125 355.878906 620.675781 353.65625 601.863281 351.574219 C 595.890625 350.441406 589.875 355.757812 598.664062 357.648438 Z M 687.289062 384.339844 C 687.292969 384.339844 687.292969 384.339844 687.292969 384.339844 C 687.292969 384.339844 687.292969 384.339844 687.289062 384.339844 Z M 525.175781 366.863281 C 540.191406 369.148438 552.167969 371.796875 566.394531 370.949219 C 566.898438 370.957031 567.453125 370.917969 568.015625 370.839844 C 568.019531 370.839844 568.027344 370.835938 568.03125 370.835938 C 570.964844 370.429688 574.140625 368.855469 571.863281 366.257812 C 571.5 365.976562 571.105469 365.75 570.699219 365.550781 C 570.71875 365.546875 570.660156 365.511719 570.488281 365.433594 C 567.03125 363.757812 563.203125 363.03125 559.445312 362.253906 C 552.820312 360.878906 531.144531 358.644531 526.222656 358.820312 C 523.070312 358.933594 520.875 360.054688 519.957031 361.4375 C 519.632812 361.925781 519.472656 362.445312 519.476562 362.964844 C 519.496094 364.609375 521.242188 366.257812 525.175781 366.863281 Z M 684.648438 394.628906 C 679.566406 390.539062 670.46875 385.816406 662.082031 380.761719 C 656.898438 377.828125 652.785156 376.503906 646.90625 374.9375 C 629.441406 372.605469 617.847656 371.972656 596.484375 368.953125 C 593.582031 368.703125 590.503906 367.722656 587.71875 368.964844 C 583.445312 371.15625 588.257812 374.054688 591.222656 373.957031 C 606.492188 375.996094 644.097656 382.308594 644.097656 382.308594 C 644.097656 382.308594 652.625 385.359375 658.367188 388.679688 C 667.421875 394.210938 677.289062 397.820312 684.882812 401.125 C 686.558594 401.675781 690.363281 401.464844 689.929688 399.136719 C 689.242188 398.03125 686.691406 396.449219 684.648438 394.628906 Z M 520.621094 383.222656 C 527.796875 384.433594 533.960938 385.558594 541.09375 386.996094 C 547.089844 388.152344 553.175781 389.613281 559.324219 388.941406 C 561.675781 388.789062 564.003906 388.0625 565.28125 386.171875 C 565.972656 384.480469 564.933594 383.257812 563.46875 382.464844 C 563.253906 382.34375 563.039062 382.21875 562.820312 382.097656 C 558.867188 380.210938 554.441406 379.539062 550.109375 378.8125 C 542.199219 377.4375 535.289062 376.214844 527.320312 375.148438 C 523.683594 374.527344 519.4375 374.179688 516.300781 376.378906 C 515.5625 376.863281 515.105469 377.367188 514.828125 377.867188 C 514.648438 378.191406 514.546875 378.515625 514.53125 378.835938 C 514.40625 381.066406 517.910156 383.035156 520.621094 383.222656 Z M 678.585938 408.375 C 678.609375 408.390625 678.636719 408.410156 678.660156 408.425781 C 678.636719 408.410156 678.613281 408.394531 678.589844 408.378906 C 678.589844 408.378906 678.585938 408.378906 678.585938 408.375 Z M 678.589844 408.378906 C 678.464844 408.292969 678.339844 408.210938 678.210938 408.125 C 678.347656 408.210938 678.476562 408.296875 678.585938 408.375 C 678.265625 408.085938 677.90625 407.820312 677.488281 407.628906 C 677.503906 407.640625 677.53125 407.65625 677.546875 407.671875 C 676.960938 407.277344 676.363281 406.894531 675.734375 406.566406 C 671.867188 404.578125 667.910156 402.757812 663.941406 400.964844 C 656.789062 397.886719 650.09375 393.738281 642.640625 391.351562 C 623.8125 388.285156 604.679688 386.535156 585.625 385.519531 C 579.054688 385.742188 577.261719 391.222656 584.734375 392.382812 C 601.585938 394.085938 622.6875 396.667969 639.414062 399.332031 C 642.78125 401.222656 646.15625 403.117188 649.578125 404.921875 C 657.417969 409.089844 660.179688 410.914062 664.347656 412.53125 C 664.570312 412.617188 664.789062 412.707031 665.003906 412.796875 C 664.804688 412.714844 664.867188 412.746094 665.609375 413.039062 C 665.621094 413.046875 665.636719 413.046875 665.648438 413.054688 C 665.875 413.148438 666.101562 413.246094 666.335938 413.332031 C 666.179688 413.265625 665.992188 413.191406 665.804688 413.117188 C 666.472656 413.410156 667.1875 413.589844 667.878906 413.820312 C 668.140625 413.90625 668.128906 413.890625 668.003906 413.835938 C 669.742188 414.394531 672.019531 414.617188 674.109375 414.351562 C 675.765625 412.835938 677.640625 411.660156 679.636719 410.777344 C 679.667969 410.671875 679.710938 410.574219 679.734375 410.464844 C 679.625 409.625 679.195312 408.929688 678.589844 408.378906 Z M 512.421875 400.28125 C 519.355469 401.042969 526.324219 401.394531 533.273438 401.941406 C 542.113281 402.738281 554.808594 403.914062 555.128906 398.722656 C 554.917969 397.800781 554.160156 397.269531 553.265625 396.957031 C 553.242188 396.949219 553.226562 396.941406 553.203125 396.929688 C 553.085938 396.890625 552.964844 396.863281 552.847656 396.824219 C 552.839844 396.820312 552.832031 396.820312 552.824219 396.816406 C 545.179688 394.238281 537.871094 394.625 529.875 393.921875 C 526.5 393.714844 523.121094 393.695312 519.746094 393.515625 C 517.003906 393.308594 514.140625 393.117188 511.601562 394.320312 C 510.570312 394.789062 509.828125 395.355469 509.363281 395.953125 C 508.890625 396.5625 508.714844 397.203125 508.820312 397.800781 C 509.023438 398.925781 510.226562 399.910156 512.421875 400.28125 Z M 637.835938 408.019531 C 631.675781 406.796875 625.347656 406.59375 619.117188 405.816406 C 609.550781 404.683594 600.019531 403.300781 590.453125 402.214844 C 587.714844 401.886719 584.542969 401.523438 582.234375 403.265625 C 579.195312 405.414062 582.835938 407.789062 585.378906 407.855469 C 604.222656 410 627.320312 412.253906 634.414062 415.152344 C 644.078125 419.355469 652.734375 425.4375 662.613281 429.210938 C 662.800781 429.292969 663 429.371094 663.183594 429.441406 C 663.136719 429.421875 663.109375 429.414062 663.054688 429.394531 C 663.566406 429.644531 664.105469 429.808594 664.671875 429.878906 C 665.433594 430.058594 666.542969 430.085938 667.636719 429.933594 C 667.730469 427.777344 668.015625 425.820312 668.46875 424.050781 C 664.457031 420.839844 659.828125 418.394531 655.296875 415.894531 C 649.691406 412.871094 644.148438 409.53125 637.835938 408.019531 Z M 509.007812 416.253906 C 520.773438 417.230469 529.292969 419.511719 541.128906 419.65625 C 542.117188 419.652344 543.109375 419.617188 544.101562 419.5625 C 545.546875 419.585938 547.039062 419.339844 548.195312 418.519531 C 549.863281 417.625 549.398438 415.714844 547.796875 415.011719 C 543.832031 413.097656 535.660156 411.941406 527.640625 411.242188 C 523.1875 410.789062 518.734375 410.34375 514.265625 410.054688 C 512.269531 409.984375 510.214844 409.539062 508.261719 410.097656 C 506.480469 410.464844 505.367188 411.140625 504.839844 411.910156 C 504.558594 412.316406 504.453125 412.753906 504.488281 413.183594 C 504.597656 414.5625 506.230469 415.914062 509.007812 416.253906 Z M 576.898438 423.453125 C 593.027344 424.765625 609.148438 426.191406 625.15625 428.53125 C 626.554688 428.757812 626.910156 428.632812 632.382812 432.058594 C 641.597656 438.160156 644.246094 439.796875 650.183594 444.113281 C 656.851562 448.425781 658.90625 453.167969 667.554688 450.015625 C 671.125 447.953125 669.035156 445.882812 666.375 444.28125 C 663.492188 442.265625 660.601562 440.257812 657.675781 438.292969 C 655.175781 436.554688 648.28125 432.253906 642.777344 428.804688 C 639.480469 426.710938 636.085938 424.707031 632.332031 423.445312 C 624.539062 421.832031 616.523438 421.265625 608.632812 420.140625 C 598.359375 419.039062 588.039062 417.578125 577.738281 417.019531 C 571.574219 417.230469 569.898438 422.363281 576.898438 423.453125 Z M 506.039062 432.816406 C 512.394531 434.058594 518.828125 434.886719 525.253906 435.738281 C 531.097656 436.476562 532.859375 436.691406 538.777344 436.324219 C 539.320312 436.300781 539.859375 436.28125 540.398438 436.242188 L 540.40625 436.242188 C 540.425781 436.242188 540.441406 436.238281 540.460938 436.238281 C 540.667969 436.21875 540.875 436.210938 541.082031 436.1875 L 541.054688 436.1875 C 545.148438 435.757812 546.351562 432.570312 542.757812 431.273438 C 540.824219 430.394531 538.847656 429.625 536.792969 429.046875 C 529.621094 427.019531 511.160156 424.667969 507.082031 424.816406 C 503.859375 424.933594 501.648438 426.109375 500.78125 427.535156 C 500.453125 428.074219 500.316406 428.648438 500.390625 429.214844 C 500.597656 430.757812 502.351562 432.246094 506.039062 432.816406 Z M 569.171875 439.820312 C 585.667969 441.195312 610.828125 444.578125 617.761719 446.171875 C 620.847656 446.816406 647.800781 462.34375 654.601562 465.347656 C 655.539062 465.796875 656.542969 466.109375 657.535156 466.429688 C 657.621094 466.460938 657.707031 466.484375 657.792969 466.511719 C 657.796875 466.515625 657.796875 466.515625 657.800781 466.515625 C 658.734375 466.816406 659.722656 466.957031 660.707031 466.953125 C 662.910156 466.988281 667.066406 466.015625 666.117188 463.234375 C 665.90625 462.878906 665.617188 462.589844 665.296875 462.34375 L 665.265625 462.320312 C 661.867188 459.542969 632.429688 441.324219 623.609375 440.101562 C 608.835938 438.050781 591.183594 435.828125 572.371094 433.75 C 566.398438 432.617188 560.382812 437.929688 569.171875 439.820312 Z M 657.800781 466.515625 C 657.796875 466.515625 657.796875 466.515625 657.796875 466.515625 Z M 502.539062 449.691406 C 516.46875 452.011719 522.675781 453.972656 536.902344 453.121094 C 537.40625 453.132812 537.960938 453.09375 538.523438 453.015625 C 538.527344 453.011719 538.535156 453.011719 538.539062 453.011719 C 541.472656 452.601562 544.644531 451.027344 542.367188 448.433594 C 542.007812 448.152344 541.613281 447.925781 541.207031 447.726562 C 541.226562 447.71875 541.167969 447.6875 540.996094 447.609375 C 537.539062 445.933594 533.710938 445.207031 529.953125 444.425781 C 519.503906 442.257812 508.796875 441.460938 503.589844 441.648438 C 499.738281 441.789062 497.316406 443.429688 496.90625 445.21875 C 496.894531 445.261719 496.886719 445.304688 496.878906 445.351562 C 496.566406 447.136719 498.257812 449.03125 502.539062 449.691406 Z M 561.730469 456.132812 C 577.003906 458.167969 614.605469 464.480469 614.605469 464.480469 C 614.605469 464.480469 623.820312 470.144531 629.5625 473.464844 C 638.617188 479 651.226562 485.875 658.820312 489.179688 C 660.496094 489.730469 664.300781 489.519531 663.867188 487.191406 C 663.179688 486.082031 660.628906 484.503906 658.585938 482.683594 C 653.5 478.59375 641.664062 470.605469 633.273438 465.550781 C 628.09375 462.617188 623.296875 458.679688 617.414062 457.113281 C 599.945312 454.78125 588.351562 454.148438 566.992188 451.128906 C 564.085938 450.875 561.011719 449.898438 558.226562 451.140625 C 553.953125 453.328125 558.765625 456.226562 561.730469 456.132812 Z M 561.730469 456.132812 " fill-opacity="1" fill-rule="nonzero"/></g><g clip-path="url(#id15)"><path fill="#e04285" d="M 759.628906 762.355469 C 758.6875 781.035156 741.921875 790.496094 724.082031 795.972656 C 703.878906 802.171875 640.523438 810.121094 607.558594 808.238281 C 594.566406 807.496094 589.117188 806.550781 578.949219 805.261719 C 569.226562 804.351562 553.027344 801.160156 548.984375 799.613281 C 541.398438 797.480469 533.730469 794.621094 527.882812 789.035156 C 527.183594 788.09375 527.253906 788.429688 525.792969 785.96875 C 524.152344 782.484375 523.03125 778.769531 522.519531 774.925781 C 521.652344 767.78125 521.707031 760.558594 521.707031 760.558594 L 521.710938 760.554688 C 522.066406 807.566406 759.394531 796.003906 759.09375 747.261719 C 759.09375 747.265625 759.101562 747.277344 759.101562 747.285156 C 759.527344 749.234375 759.746094 759.671875 759.628906 762.355469 Z M 661 687.644531 C 658.921875 654.601562 656.25 607.203125 655.960938 591.316406 C 663.148438 590.625 669.511719 590.015625 673.882812 589.691406 C 694.863281 587.855469 717.238281 586.46875 732.792969 571.589844 C 735.304688 569.070312 737.566406 566.199219 738.867188 562.925781 C 739.84375 560.0625 740.085938 556.976562 739.75 553.988281 C 739.363281 550.703125 737.105469 513.371094 731.394531 487.535156 C 730.457031 483.296875 729.417969 479.082031 728.316406 474.886719 C 726.125 466.542969 723.660156 458.269531 721.078125 450.03125 C 717.691406 439.226562 713.875 428.476562 708.632812 418.359375 C 707.433594 416.042969 706.1875 413.753906 704.824219 411.511719 C 704.113281 410.347656 700.113281 408.953125 694.984375 408.53125 C 690.269531 408.140625 684.59375 408.578125 679.636719 410.773438 C 677.640625 411.660156 675.761719 412.832031 674.105469 414.351562 C 671.558594 416.6875 669.550781 419.847656 668.46875 424.050781 C 668.015625 425.820312 667.730469 427.777344 667.636719 429.933594 C 667.398438 435.414062 668.414062 442.191406 671.191406 450.558594 C 672.683594 458.53125 674.375 466.472656 676.125 474.402344 C 677.964844 482.710938 679.863281 491.007812 681.691406 499.316406 C 682.039062 500.898438 682.390625 502.484375 682.730469 504.066406 C 685.710938 516.832031 690.445312 529.132812 694.015625 541.75 C 694.207031 542.347656 694.683594 544.1875 695.175781 546.429688 C 695.71875 548.914062 696.285156 551.890625 696.503906 554.230469 C 696.898438 556.648438 696.574219 559.949219 696.402344 561.023438 C 696.332031 561.277344 696.25 561.53125 696.148438 561.777344 C 695.976562 562.285156 695.378906 563.214844 695.054688 563.714844 C 694.113281 564.707031 693.019531 565.566406 691.910156 566.386719 C 691.425781 566.671875 690.847656 566.949219 690.414062 567.148438 C 669.824219 576.632812 617.296875 574.242188 579.636719 571.640625 C 578.855469 571.398438 578 571.238281 577.0625 571.179688 C 565.542969 570.433594 558.832031 560.738281 553.992188 548.261719 C 550.785156 547.148438 547.59375 545.976562 544.429688 544.726562 C 533.21875 540.644531 522.675781 534.578125 513.691406 526.46875 C 513.300781 526.164062 512.964844 525.855469 512.6875 525.539062 C 512.59375 525.453125 512.5 525.367188 512.40625 525.277344 C 519.144531 544.28125 525.917969 562.40625 537.953125 578.914062 C 538.714844 580.59375 539.960938 582.351562 541.910156 584.070312 C 541.925781 584.09375 541.941406 584.113281 541.960938 584.136719 C 542.027344 584.191406 542.101562 584.242188 542.171875 584.296875 C 543.65625 585.566406 545.542969 586.808594 547.910156 587.976562 C 547.960938 588 548.007812 588.027344 548.0625 588.050781 C 558.546875 593.164062 578.4375 596.796875 615.527344 594.734375 C 615.5625 595.222656 615.617188 595.695312 615.6875 596.144531 C 615.402344 625.492188 615.613281 654.863281 616.992188 684.167969 C 617.113281 686.761719 617.253906 689.445312 617.398438 692.175781 C 618.105469 691.519531 619.132812 691.011719 620.648438 690.804688 C 627.28125 689.390625 651.480469 683.875 661 687.644531 Z M 662.445312 734.449219 C 663.023438 734.210938 663.585938 733.925781 664.109375 733.554688 C 664.207031 735.558594 664.296875 737.566406 664.363281 739.570312 C 664.382812 743.953125 665.636719 747.871094 662.035156 750.574219 C 654.441406 758.828125 621.125 756.019531 620.355469 749.355469 C 620.277344 748.683594 620.125 747.878906 620.367188 747.25 C 620.59375 746.65625 620.441406 742.507812 620.097656 736.296875 C 625.828125 738.726562 634.847656 737.722656 639.640625 737.699219 C 645.996094 737.292969 652.398438 737.023438 658.652344 735.5625 C 657.820312 735.753906 661.035156 735.082031 661.929688 734.679688 C 662.023438 734.640625 662.113281 734.597656 662.207031 734.558594 C 662.191406 734.566406 662.160156 734.578125 662.148438 734.585938 C 662.21875 734.5625 662.28125 734.519531 662.351562 734.492188 C 662.394531 734.472656 662.441406 734.453125 662.488281 734.433594 C 662.472656 734.441406 662.460938 734.445312 662.445312 734.449219 Z M 662.488281 734.433594 C 662.722656 734.347656 663.003906 734.242188 663.167969 734.136719 C 662.941406 734.234375 662.714844 734.332031 662.488281 734.433594 Z M 662.488281 734.433594 " fill-opacity="1" fill-rule="nonzero"/></g></svg>