<svg xmlns="http://www.w3.org/2000/svg" xmlns:xlink="http://www.w3.org/1999/xlink" width="1080" zoomAndPan="magnify" viewBox="0 0 810 809.999993" height="1080" preserveAspectRatio="xMidYMid meet" version="1.0"><path fill="#ffbf01" d="M 48.675781 651.238281 C 25.722656 616.675781 29.085938 571.242188 47.128906 546.417969 C 228.007812 547.480469 409.746094 545.355469 590.621094 546.417969 C 594.257812 546.453125 598.066406 546.519531 601.222656 548.304688 C 605.375 550.667969 607.398438 555.46875 608.941406 559.996094 C 614.15625 575.21875 618.617188 633.269531 601.257812 643.523438 C 598.339844 645.238281 594.773438 645.441406 591.34375 645.546875 C 441.890625 651.066406 292.304688 652.371094 142.785156 650.964844 Z M 48.675781 651.238281 " fill-opacity="1" fill-rule="nonzero"/><path stroke-linecap="round" transform="matrix(3.430915, 0, 0, 3.428867, -324.094317, -321.291849)" fill="none" stroke-linejoin="round" d="M 121.340557 281.650183 C 118.570478 272.010064 118.520382 261.599829 121.200516 251.93009 " stroke="#365fa0" stroke-width="0.835" stroke-opacity="1" stroke-miterlimit="10"/><path stroke-linecap="round" transform="matrix(3.430915, 0, 0, 3.428867, -324.094317, -321.291849)" fill="none" stroke-linejoin="round" d="M 238.61976 281.740182 C 240.73973 271.759435 240.829675 263.899924 238.939691 253.87019 " stroke="#365fa0" stroke-width="0.835" stroke-opacity="1" stroke-miterlimit="10"/><path stroke-linecap="round" transform="matrix(3.430915, 0, 0, 3.428867, -324.094317, -321.291849)" fill="none" stroke-linejoin="round" d="M 231.090565 281.099937 C 232.849616 273.360045 232.820014 263.690306 230.990373 255.959528 " stroke="#365fa0" stroke-width="0.835" stroke-opacity="1" stroke-miterlimit="10"/><path stroke-linecap="round" transform="matrix(3.430915, 0, 0, 3.428867, -324.094317, -321.291849)" fill="none" stroke-linejoin="round" d="M 131.769626 271.740068 C 134.370061 270.499452 136.479785 268.290495 137.610359 265.63952 C 136.439936 267.480507 137.230086 270.589451 139.400152 270.789954 C 140.870013 270.930079 142.120135 269.709969 142.82034 268.420367 C 143.520545 267.129626 143.909927 265.649773 144.850365 264.510548 C 144.33005 266.009768 144.279954 267.669618 144.700077 269.20985 C 144.800269 269.569845 144.94031 269.950346 145.249994 270.14971 C 145.640515 270.409453 146.149444 270.310341 146.590061 270.189583 C 149.920304 269.249723 152.830424 266.920008 154.480175 263.880557 C 154.080546 265.469775 154.089654 267.169498 154.509777 268.749603 C 154.639571 269.259976 154.879804 269.829588 155.389872 270.000472 C 155.809995 270.139457 156.25972 269.95946 156.650241 269.749842 C 158.879511 268.579859 160.710291 266.650012 161.760029 264.36017 C 161.569892 265.549521 161.390002 266.790137 161.739535 267.939614 C 162.090207 269.090231 163.160439 270.12009 164.360465 270.019838 C 164.960478 269.969713 165.500148 269.64959 166.010216 269.310102 C 167.929802 268.029613 169.620541 266.409636 170.979963 264.559535 C 171.189456 265.590533 170.800073 266.650012 170.73973 267.700377 C 170.680526 268.749603 171.199702 270.030091 172.249441 270.130343 C 172.859701 270.189583 173.430111 269.810221 173.909439 269.439973 C 175.579684 268.159485 177.099641 266.689885 178.439708 265.069907 C 178.14027 265.900402 177.849942 266.769631 177.979736 267.650251 C 178.10953 268.51948 178.819982 269.37048 179.700077 269.360227 C 180.310336 269.349974 180.83976 268.950107 181.309979 268.560492 C 182.560101 267.52038 183.739633 266.400522 184.839467 265.220285 C 183.770374 266.149892 184.019715 268.060372 185.15029 268.910234 C 186.289973 269.749842 187.970465 269.590351 189.110148 268.759856 C 190.260078 267.9305 190.920434 266.570266 191.200516 265.180412 " stroke="#365fa0" stroke-width="0.835" stroke-opacity="1" stroke-miterlimit="10"/><path fill="#14ae5c" d="M 91.628906 545.972656 C 81.75 531.777344 82.539062 501.363281 90.359375 487.199219 C 241.527344 487.816406 391.699219 478.800781 542.863281 479.417969 C 545.917969 479.417969 549.109375 479.453125 551.75 480.480469 C 555.214844 481.816406 556.894531 484.492188 558.199219 487.027344 C 562.558594 495.566406 565.644531 539.800781 551.132812 545.558594 C 548.695312 546.519531 545.710938 546.621094 542.863281 546.691406 C 417.976562 549.777344 295.289062 546.621094 170.335938 545.835938 Z M 91.628906 545.972656 " fill-opacity="1" fill-rule="nonzero"/><path stroke-linecap="round" transform="matrix(3.430915, 0, 0, 3.428867, -324.094317, -321.291849)" fill="none" stroke-linejoin="round" d="M 142.070039 248.880386 C 145.799911 249.209622 150.390523 249.500124 153.539737 247.480279 C 155.329529 246.329662 156.899582 244.359943 155.550407 242.359464 C 153.869915 239.860005 150.200386 239.870258 147.530499 239.719881 C 142.469668 239.439631 136.280539 239.380392 131.959763 242.419843 C 126.369509 246.329662 139.590289 248.660516 142.070039 248.880386 Z M 142.070039 248.880386 " stroke="#365fa0" stroke-width="0.835" stroke-opacity="1" stroke-miterlimit="10"/><path stroke-linecap="round" transform="matrix(3.430915, 0, 0, 3.428867, -324.094317, -321.291849)" fill="none" stroke-linejoin="round" d="M 161.090565 249.169749 C 160.760387 246.090425 160.419962 242.999708 160.089784 239.920384 " stroke="#365fa0" stroke-width="0.835" stroke-opacity="1" stroke-miterlimit="10"/><path stroke-linecap="round" transform="matrix(3.430915, 0, 0, 3.428867, -324.094317, -321.291849)" fill="none" stroke-linejoin="round" d="M 164.490259 249.759867 C 164.030287 246.109792 163.779807 242.440349 163.760452 238.759514 " stroke="#365fa0" stroke-width="0.835" stroke-opacity="1" stroke-miterlimit="10"/><path stroke-linecap="round" transform="matrix(3.430915, 0, 0, 3.428867, -324.094317, -321.291849)" fill="none" stroke-linejoin="round" d="M 240.060019 248.979498 C 240.120362 245.960553 240.009923 242.930216 239.710486 239.920384 " stroke="#365fa0" stroke-width="0.835" stroke-opacity="1" stroke-miterlimit="10"/><path stroke-linecap="round" transform="matrix(3.430915, 0, 0, 3.428867, -324.094317, -321.291849)" fill="none" stroke-linejoin="round" d="M 243.940179 248.790387 C 243.739795 245.050313 243.440358 241.310238 243.020235 237.580417 " stroke="#365fa0" stroke-width="0.835" stroke-opacity="1" stroke-miterlimit="10"/><path fill="#e04285" d="M 31.382812 486.753906 C 9.734375 443.929688 12.890625 387.730469 29.941406 356.972656 C 200.390625 358.308594 371.625 355.636719 542.074219 356.972656 C 545.503906 357.007812 549.109375 357.074219 552.09375 359.339844 C 556.003906 362.289062 557.925781 368.183594 559.367188 373.808594 C 564.273438 392.667969 568.492188 464.535156 552.128906 477.222656 C 549.347656 479.382812 546.019531 479.589844 542.796875 479.726562 C 401.992188 486.582031 261.015625 488.160156 120.140625 486.410156 Z M 31.382812 486.753906 " fill-opacity="1" fill-rule="nonzero"/><path stroke-linecap="round" transform="matrix(3.430915, 0, 0, 3.428867, -324.094317, -321.291849)" fill="none" stroke-linejoin="round" d="M 115.620509 226.410319 C 121.890474 226.360193 128.150192 226.329434 134.420157 226.329434 C 133.970432 219.830157 133.519569 213.329742 133.069844 206.820212 C 133.050488 206.569583 133.029994 206.299586 132.86946 206.100222 C 132.659967 205.830226 132.279694 205.7801 131.940407 205.740227 C 126.030222 205.189982 120.090435 205.06011 114.170003 205.369979 C 114.730167 210.300543 115.639864 215.209462 115.639864 220.169646 Z M 115.620509 226.410319 " stroke="#365fa0" stroke-width="0.835" stroke-opacity="1" stroke-miterlimit="10"/><path stroke-linecap="round" transform="matrix(3.430915, 0, 0, 3.428867, -324.094317, -321.291849)" fill="none" stroke-linejoin="round" d="M 142.13949 216.039957 C 142.339874 217.630315 143.989625 218.880044 145.569925 218.649921 C 147.150225 218.419797 148.379853 216.749694 148.120265 215.169589 C 148.960511 216.649442 150.190139 218.070055 151.860384 218.369671 C 153.52949 218.670427 155.500311 217.249814 155.170133 215.589963 C 156.209624 216.870452 157.729581 217.980057 159.370224 217.800059 C 161.009728 217.620062 162.370289 215.57971 161.400249 214.239982 C 162.410138 215.719835 163.549821 217.310193 165.270162 217.789806 C 166.990503 218.279673 169.250514 216.849946 168.809897 215.119464 C 169.800431 216.730327 171.339743 218.000563 173.120427 218.639668 C 173.750042 217.249814 174.120069 215.740341 174.210014 214.210362 C 175.959958 215.629836 177.049545 218.610048 179.269707 218.220433 C 180.390035 218.019929 181.169938 216.879566 181.27013 215.740341 C 181.370321 214.599977 180.929705 213.490372 180.390035 212.47988 " stroke="#365fa0" stroke-width="0.835" stroke-opacity="1" stroke-miterlimit="10"/><path stroke-linecap="round" transform="matrix(3.430915, 0, 0, 3.428867, -324.094317, -321.291849)" fill="none" stroke-linejoin="round" d="M 214.070461 225.860074 C 214.499693 219.87003 214.589638 213.850367 214.330049 207.850071 " stroke="#365fa0" stroke-width="0.835" stroke-opacity="1" stroke-miterlimit="10"/><path stroke-linecap="round" transform="matrix(3.430915, 0, 0, 3.428867, -324.094317, -321.291849)" fill="none" stroke-linejoin="round" d="M 220.990535 225.209576 C 220.629617 219.210419 220.25959 213.210123 219.89981 207.22008 " stroke="#365fa0" stroke-width="0.835" stroke-opacity="1" stroke-miterlimit="10"/><path stroke-linecap="round" transform="matrix(3.430915, 0, 0, 3.428867, -324.094317, -321.291849)" fill="none" stroke-linejoin="round" d="M 226.069583 225.330334 C 226.159528 219.330038 226.249473 212.800002 226.349665 206.799706 C 233.30048 206.799706 240.959469 208.139434 248.290558 207.839818 C 249.3995 210.330163 249.90046 213.490372 249.879966 216.069577 C 249.859472 219.139787 249.3995 221.699625 248.150517 224.790342 C 242.539769 224.700343 236.909666 224.790342 231.320551 225.339448 L 226.069583 225.339448 Z M 226.069583 225.330334 " stroke="#365fa0" stroke-width="0.835" stroke-opacity="1" stroke-miterlimit="10"/><path fill="#000000" d="M 117.222656 356.835938 C 97.257812 324.707031 100.136719 277.765625 116.847656 255.304688 C 279.300781 259.625 442.542969 260.964844 604.996094 265.285156 C 608.257812 265.386719 611.6875 265.488281 614.5 267.203125 C 618.171875 269.46875 619.921875 273.890625 621.226562 278.074219 C 625.617188 292.132812 628.535156 345.484375 612.75 354.570312 C 610.074219 356.113281 606.882812 356.183594 603.832031 356.253906 C 469.511719 358.582031 342.222656 360.777344 207.972656 356.765625 Z M 117.222656 356.835938 " fill-opacity="1" fill-rule="nonzero"/><path stroke-linecap="round" transform="matrix(3.430915, 0, 0, 3.428867, -324.094317, -321.291849)" fill-opacity="1" fill="#000000" fill-rule="nonzero" stroke-linejoin="round" d="M 270.450052 197.600467 C 246.189943 198.019702 222.719985 198.429822 199.059889 198.400203 C 184.54003 198.379697 169.949581 198.199699 155.069941 197.749705 " stroke="#365fa0" stroke-width="0.835" stroke-opacity="1" stroke-miterlimit="10"/><path stroke-linecap="round" transform="matrix(3.430915, 0, 0, 3.428867, -324.094317, -321.291849)" fill="none" stroke-linejoin="round" d="M 128.520219 168.159484 C 156.069583 168.889727 183.689537 169.329468 211.309491 169.820474 C 220.100193 169.969712 228.879511 170.130343 237.659967 170.310341 C 248.709542 170.530211 259.760256 170.779701 270.799585 171.070203 C 271.75027 171.099823 272.749912 171.129443 273.569664 171.629563 C 274.639896 172.290313 275.149964 173.579915 275.530238 174.800025 " stroke="#365fa0" stroke-width="0.835" stroke-opacity="1" stroke-miterlimit="10"/><path stroke-linecap="round" transform="matrix(3.430915, 0, 0, 3.428867, -324.094317, -321.291849)" fill="none" stroke-linejoin="round" d="M 171.379593 190.94056 C 171.120004 185.890377 170.869525 180.829941 170.609936 175.779758 " stroke="#365fa0" stroke-width="0.835" stroke-opacity="1" stroke-miterlimit="10"/><path stroke-linecap="round" transform="matrix(3.430915, 0, 0, 3.428867, -324.094317, -321.291849)" fill="none" stroke-linejoin="round" d="M 175.01952 191.979533 C 174.649493 185.999742 174.509452 179.980079 174.600535 173.96953 " stroke="#365fa0" stroke-width="0.835" stroke-opacity="1" stroke-miterlimit="10"/><path stroke-linecap="round" transform="matrix(3.430915, 0, 0, 3.428867, -324.094317, -321.291849)" fill="none" stroke-linejoin="round" d="M 256.26037 192.370287 C 256.430013 187.420355 256.400411 182.470424 256.18978 177.529607 " stroke="#365fa0" stroke-width="0.835" stroke-opacity="1" stroke-miterlimit="10"/><path stroke-linecap="round" transform="matrix(3.430915, 0, 0, 3.428867, -324.094317, -321.291849)" fill="none" stroke-linejoin="round" d="M 260.429721 192.140163 C 260.339776 186.009995 260.14053 179.890081 259.819461 173.780419 " stroke="#365fa0" stroke-width="0.835" stroke-opacity="1" stroke-miterlimit="10"/><path stroke-linecap="round" transform="matrix(3.430915, 0, 0, 3.428867, -324.094317, -321.291849)" fill-opacity="1" fill="#14ae5c" fill-rule="nonzero" stroke-linejoin="round" d="M 181.029897 192.969519 C 180.979801 187.039854 181.460267 180.440326 181.410171 174.509523 C 190.939789 174.820531 208.099933 175.109894 218.070168 175.319511 C 218.659935 181.369933 218.040566 186.880363 217.689895 193.730521 C 208.82974 193.550523 198.900493 193.35002 186.580302 193.090277 Z M 181.029897 192.969519 " stroke="#365fa0" stroke-width="0.835" stroke-opacity="1" stroke-miterlimit="10"/><path stroke-linecap="round" transform="matrix(3.430915, 0, 0, 3.428867, -324.094317, -321.291849)" fill="none" stroke-linejoin="round" d="M 163.100096 191.460046 C 160.85944 189.980193 158.249896 189.00046 155.54016 188.619959 C 157.110213 188.900208 158.749717 188.81021 160.269674 188.370469 C 160.729646 188.230344 161.249961 188.000221 161.329659 187.550227 C 161.400249 187.179979 161.139522 186.830237 160.869687 186.560241 C 159.399826 185.030262 157.240007 184.109769 155.040339 184.059643 C 156.830131 184.249893 158.659772 184.080149 160.380113 183.580029 C 161.249961 183.320286 162.220001 182.790547 162.209754 181.939546 C 162.190399 181.150063 161.329659 180.649943 160.549756 180.329821 C 159.159593 179.760209 157.710226 179.329582 156.230118 179.029966 C 158.180445 179.549452 160.489413 179.999446 162.040111 178.78959 C 162.930453 178.090106 162.299699 176.79025 161.709933 176.09988 C 160.919783 175.170273 159.589963 174.680406 158.369443 174.479903 " stroke="#365fa0" stroke-width="0.835" stroke-opacity="1" stroke-miterlimit="10"/><path fill="#e04285" d="M 605.132812 181.792969 C 603.074219 185.289062 603.453125 201.851562 605.957031 214.503906 C 611.960938 244.8125 616.148438 282.601562 621.570312 313.152344 C 641.914062 427.8125 656.289062 525.125 679.929688 639.269531 C 680.820312 643.558594 681.988281 648.21875 685.554688 650.757812 C 688.710938 652.988281 692.898438 652.847656 696.773438 652.710938 C 727.070312 651.753906 789.167969 641.738281 793.800781 629.429688 C 800.59375 620.960938 754.207031 420.542969 750.089844 399.96875 C 741.753906 358.445312 735.988281 323.09375 728.269531 281.433594 C 723.570312 255.921875 715.988281 217.28125 709.777344 191.734375 C 701.40625 157.136719 690.1875 156.589844 622.390625 173.390625 C 613.300781 175.652344 606.714844 179.117188 605.132812 181.792969 Z M 605.132812 181.792969 " fill-opacity="1" fill-rule="nonzero"/><path stroke-linecap="round" transform="matrix(3.430915, 0, 0, 3.428867, -324.094317, -321.291849)" fill="none" stroke-linejoin="round" d="M 273.929444 167.439494 C 282.799845 164.180173 292.05052 161.919951 301.429851 160.720347 " stroke="#365fa0" stroke-width="0.624" stroke-opacity="1" stroke-miterlimit="10"/><path stroke-linecap="round" transform="matrix(3.430915, 0, 0, 3.428867, -324.094317, -321.291849)" fill="none" stroke-linejoin="round" d="M 277.49992 187.80997 C 287.12973 185.629494 296.750432 183.439905 306.380242 181.259429 " stroke="#365fa0" stroke-width="0.624" stroke-opacity="1" stroke-miterlimit="10"/><path fill="#ffbf01" d="M 650.59375 355.601562 C 656.53125 389.921875 664.867188 434.566406 671.558594 467.519531 C 671.730469 468.445312 672.039062 469.4375 672.828125 469.988281 C 673.648438 470.570312 674.78125 470.503906 675.777344 470.363281 C 697.5625 467.65625 718.492188 461.449219 740.277344 458.742188 C 730.191406 417.867188 728.132812 384.847656 718.046875 343.941406 C 681.0625 350.320312 650.59375 355.601562 650.59375 355.601562 Z M 650.59375 355.601562 " fill-opacity="1" fill-rule="nonzero"/><path stroke-linecap="round" transform="matrix(3.430915, 0, 0, 3.428867, -324.094317, -321.291849)" fill="none" stroke-linejoin="round" d="M 289.839466 262.00995 C 299.679907 260.149596 309.520349 258.299495 319.359651 256.440281 " stroke="#365fa0" stroke-width="0.624" stroke-opacity="1" stroke-miterlimit="10"/><path stroke-linecap="round" transform="matrix(3.430915, 0, 0, 3.428867, -324.094317, -321.291849)" fill="none" stroke-linejoin="round" d="M 290.740055 239.039763 C 291.559807 238.219522 292.090369 237.12017 292.209916 235.969553 C 292.260012 236.519799 292.310108 237.089411 292.609545 237.549658 C 292.910121 238.009904 293.549983 238.300407 294.030449 238.039524 C 294.300284 237.890286 294.469927 237.599783 294.620215 237.329787 C 295.009597 236.59043 295.339775 235.829428 295.60961 235.039946 C 295.799747 235.70981 296.03998 236.450306 296.6195 236.829668 C 297.300349 237.279661 298.260142 237.089411 298.870402 236.550558 C 299.479524 236.009426 299.799455 235.20969 299.970236 234.420207 C 299.759606 235.309942 300.549756 236.230435 301.459453 236.360307 C 302.370288 236.490179 303.269739 236.000312 303.879999 235.309942 C 304.480012 234.619572 304.839792 233.750343 305.180216 232.900482 C 305.090271 233.620472 305.310011 234.399701 305.830325 234.899821 C 306.359749 235.399941 307.199995 235.590191 307.850104 235.259816 C 308.270227 235.050199 308.569664 234.659445 308.859993 234.290336 C 309.560198 233.380095 310.279758 232.429982 310.469895 231.299871 " stroke="#365fa0" stroke-width="0.624" stroke-opacity="1" stroke-miterlimit="10"/></svg>