<svg xmlns="http://www.w3.org/2000/svg" xmlns:xlink="http://www.w3.org/1999/xlink" width="1080" zoomAndPan="magnify" viewBox="0 0 810 809.999993" height="1080" preserveAspectRatio="xMidYMid meet" version="1.0"><defs><clipPath id="id1"><path d="M 37 352 L 782 352 L 782 575 L 37 575 Z M 37 352 " clip-rule="nonzero"/></clipPath><clipPath id="id2"><path d="M 203.332031 71.484375 L 809.824219 451.097656 L 606.09375 776.59375 L -0.402344 396.984375 Z M 203.332031 71.484375 " clip-rule="nonzero"/></clipPath><clipPath id="id3"><path d="M 809.992188 451.203125 L 203.5 71.589844 L -0.234375 397.089844 L 606.261719 776.699219 Z M 809.992188 451.203125 " clip-rule="nonzero"/></clipPath><clipPath id="id4"><path d="M 61 195 L 771 195 L 771 540 L 61 540 Z M 61 195 " clip-rule="nonzero"/></clipPath><clipPath id="id5"><path d="M 203.332031 71.484375 L 809.824219 451.097656 L 606.09375 776.59375 L -0.402344 396.984375 Z M 203.332031 71.484375 " clip-rule="nonzero"/></clipPath><clipPath id="id6"><path d="M 809.992188 451.203125 L 203.5 71.589844 L -0.234375 397.089844 L 606.261719 776.699219 Z M 809.992188 451.203125 " clip-rule="nonzero"/></clipPath><clipPath id="id7"><path d="M 190 187 L 606 187 L 606 494 L 190 494 Z M 190 187 " clip-rule="nonzero"/></clipPath><clipPath id="id8"><path d="M 203.332031 71.484375 L 809.824219 451.097656 L 606.09375 776.59375 L -0.402344 396.984375 Z M 203.332031 71.484375 " clip-rule="nonzero"/></clipPath><clipPath id="id9"><path d="M 809.992188 451.203125 L 203.5 71.589844 L -0.234375 397.089844 L 606.261719 776.699219 Z M 809.992188 451.203125 " clip-rule="nonzero"/></clipPath><clipPath id="id10"><path d="M 60 186 L 606 186 L 606 540 L 60 540 Z M 60 186 " clip-rule="nonzero"/></clipPath><clipPath id="id11"><path d="M 203.332031 71.484375 L 809.824219 451.097656 L 606.09375 776.59375 L -0.402344 396.984375 Z M 203.332031 71.484375 " clip-rule="nonzero"/></clipPath><clipPath id="id12"><path d="M 809.992188 451.203125 L 203.5 71.589844 L -0.234375 397.089844 L 606.261719 776.699219 Z M 809.992188 451.203125 " clip-rule="nonzero"/></clipPath><clipPath id="id13"><path d="M 381 257 L 595 257 L 595 440 L 381 440 Z M 381 257 " clip-rule="nonzero"/></clipPath><clipPath id="id14"><path d="M 203.332031 71.484375 L 809.824219 451.097656 L 606.09375 776.59375 L -0.402344 396.984375 Z M 203.332031 71.484375 " clip-rule="nonzero"/></clipPath><clipPath id="id15"><path d="M 809.992188 451.203125 L 203.5 71.589844 L -0.234375 397.089844 L 606.261719 776.699219 Z M 809.992188 451.203125 " clip-rule="nonzero"/></clipPath></defs><g clip-path="url(#id1)"><g clip-path="url(#id2)"><g clip-path="url(#id3)"><path fill="#000000" d="M 37.910156 380.089844 C 35.09375 390.953125 43.804688 410.015625 62.820312 429.644531 C 64.722656 427.09375 66.652344 424.5 68.597656 421.980469 C 69.667969 420.566406 70.792969 419.0625 72.414062 418.421875 C 74.039062 417.785156 76.285156 418.210938 77.632812 419.972656 C 79.355469 422.214844 78.71875 425.1875 78.050781 427.527344 C 76.800781 431.773438 75.480469 436.035156 74.230469 440.28125 C 80.613281 445.746094 87.839844 451.128906 95.867188 456.214844 C 97.273438 452.988281 98.652344 449.804688 100.105469 446.605469 C 100.878906 444.882812 101.679688 443.113281 103.089844 442.035156 C 104.5 440.957031 106.726562 440.820312 108.3125 442.300781 C 110.324219 444.175781 110.328125 447.300781 110.054688 449.890625 C 109.625 454.585938 109.152344 459.257812 108.699219 464 C 117.457031 468.992188 126.039062 473.382812 134.886719 477.449219 C 135.953125 473.398438 137.019531 469.34375 138.132812 465.316406 C 138.640625 463.429688 139.175781 461.496094 140.40625 460.121094 C 141.632812 458.742188 143.78125 458.25 145.515625 459.394531 C 147.703125 460.886719 148.097656 464.078125 148.242188 466.679688 C 148.492188 472.355469 148.722656 477.953125 148.96875 483.625 C 177.898438 495.542969 211.609375 505.976562 265.582031 518.789062 C 351.324219 539.167969 312.882812 559.675781 517.070312 573.144531 C 581.964844 577.410156 632.53125 569.332031 671.0625 558.078125 C 670.925781 555.167969 670.757812 552.304688 670.617188 549.398438 C 670.519531 547.496094 670.449219 545.554688 671.199219 543.570312 C 671.96875 541.660156 673.875 539.789062 675.898438 539.585938 C 678.488281 539.367188 679.824219 541.734375 680.746094 543.78125 C 682.179688 547.070312 683.570312 550.332031 685.03125 553.574219 C 693.636719 550.6875 701.632812 547.597656 708.910156 544.488281 C 708.425781 542.226562 707.917969 540.007812 707.433594 537.742188 C 707.023438 535.953125 706.667969 534.074219 707.160156 532.113281 C 707.652344 530.15625 709.277344 528.046875 711.355469 527.566406 C 713.957031 526.929688 715.703125 528.941406 716.949219 530.761719 C 718.707031 533.335938 720.453125 535.835938 722.210938 538.410156 C 765.652344 517.351562 781.4375 496.824219 781.4375 496.824219 C 781.4375 496.824219 781.441406 487.324219 779.503906 470.847656 C 778.410156 461.148438 774.105469 454.714844 770.746094 451.078125 C 770.800781 451.972656 770.851562 452.863281 770.878906 453.800781 C 771.214844 499.066406 688.289062 522.632812 584.027344 536.828125 C 496.246094 548.769531 432.582031 522.773438 372.515625 505.410156 C 370.089844 504.6875 367.675781 504.039062 365.292969 503.34375 C 364.089844 503.015625 362.839844 502.664062 361.632812 502.339844 C 358.339844 501.441406 355.085938 500.570312 351.820312 499.816406 C 351.296875 499.671875 350.75 499.570312 350.226562 499.429688 C 346.554688 498.539062 342.855469 497.695312 339.175781 496.925781 C 339.128906 496.898438 339.058594 496.914062 338.96875 496.859375 C 334.097656 495.832031 329.050781 494.699219 323.855469 493.40625 C 323.828125 493.453125 323.828125 493.453125 323.757812 493.46875 C 282.484375 483.757812 231.304688 467.171875 190.964844 450.691406 C 191.5625 450.511719 192.121094 450.308594 192.675781 450.105469 C 163.207031 438.46875 139.078125 427.59375 128.027344 420.984375 C 112.226562 411.582031 92.605469 396.054688 78.667969 381.8125 C 67.835938 370.742188 60.453125 360.417969 60.988281 354.378906 C 60.988281 354.378906 61.027344 354.21875 61.121094 353.96875 C 61.148438 353.925781 61.128906 353.855469 61.1875 353.765625 C 61.261719 353.445312 61.394531 353.039062 61.539062 352.515625 C 50.589844 357.1875 40.84375 368.746094 37.910156 380.089844 Z M 37.910156 380.089844 " fill-opacity="1" fill-rule="nonzero"/></g></g></g><g clip-path="url(#id4)"><g clip-path="url(#id5)"><g clip-path="url(#id6)"><path fill="#e04285" d="M 576.761719 370.125 C 571.566406 366.875 566.359375 363.550781 561.003906 360.261719 C 566.3125 363.523438 571.550781 366.800781 576.761719 370.125 Z M 424.613281 217.632812 C 418.207031 209.761719 408.984375 201.597656 399.132812 195.613281 C 409.011719 201.554688 418.234375 209.71875 424.613281 217.632812 Z M 83.734375 283.09375 C 73.035156 313.304688 63.96875 344.230469 61.621094 352.382812 C 63.941406 344.273438 73.007812 313.347656 83.734375 283.09375 Z M 86.058594 276.640625 C 85.496094 278.128906 85.003906 279.597656 84.441406 281.085938 C 85.003906 279.597656 85.523438 278.082031 86.058594 276.640625 Z M 83.734375 283.09375 C 83.960938 282.4375 84.214844 281.738281 84.441406 281.085938 C 84.214844 281.738281 83.988281 282.394531 83.734375 283.09375 Z M 88.429688 270.214844 C 87.640625 272.355469 86.878906 274.453125 86.085938 276.597656 C 86.847656 274.5 87.640625 272.355469 88.429688 270.214844 Z M 112.574219 220.773438 C 118.917969 213.769531 125.953125 209.285156 132.714844 206.40625 C 143.523438 201.765625 156.992188 213.324219 156.921875 227.136719 C 156.847656 247.808594 163.910156 275.769531 199.917969 286.84375 C 261.21875 305.65625 348.078125 256.722656 348.773438 256.300781 C 348.773438 256.300781 348.40625 256.5 348.136719 256.636719 C 351.835938 262.078125 356.289062 268.175781 361.445312 274.714844 C 364.570312 279.308594 367.160156 283.195312 367.5625 284.121094 C 378.550781 309.820312 357.484375 337.21875 342.792969 355.304688 C 326.515625 375.339844 307.605469 391.949219 286.992188 405.898438 C 283.722656 408.085938 280.441406 410.199219 277.113281 412.285156 C 261.121094 405.832031 245.242188 399.203125 229.519531 392.121094 C 204.019531 380.699219 178.898438 368.285156 154.449219 354.207031 C 129.988281 337.304688 97.261719 309.828125 88.410156 270.144531 C 96.640625 248.382812 105.339844 228.8125 112.574219 220.773438 Z M 338.941406 496.902344 C 338.988281 496.929688 339.058594 496.914062 339.144531 496.96875 C 339.058594 496.914062 339.015625 496.886719 338.941406 496.902344 C 334.070312 495.878906 329.023438 494.742188 323.828125 493.453125 C 329.050781 494.699219 334.070312 495.878906 338.941406 496.902344 Z M 561.324219 539.046875 C 485.050781 544.152344 427.265625 521.285156 372.488281 505.453125 C 427.246094 521.214844 485.089844 543.992188 561.324219 539.046875 Z M 561.324219 539.046875 C 561.511719 539.039062 561.695312 539.035156 561.882812 539.03125 C 561.722656 538.992188 561.539062 538.996094 561.324219 539.046875 Z M 404.839844 429.882812 C 407.804688 428.183594 410.875 426.609375 413.925781 424.960938 C 426.332031 427.457031 439.050781 430.328125 452.445312 433.6875 C 462.171875 436.15625 472.203125 438.820312 482.519531 441.71875 C 508.824219 449.109375 537.261719 457.898438 568.65625 467.921875 C 582.914062 473.722656 601.425781 477.519531 620.960938 477.917969 C 644.363281 478.402344 669.3125 473.972656 690.28125 463.371094 C 696.902344 460.035156 702.730469 456.203125 708.058594 451.996094 C 718.695312 443.515625 726.765625 433.363281 731.96875 421.722656 C 730.027344 421.300781 728.835938 421.046875 727.144531 420.722656 C 749.03125 421.179688 769.171875 426.675781 770.746094 451.078125 C 770.800781 451.972656 770.851562 452.863281 770.878906 453.800781 C 771.214844 499.066406 688.289062 522.632812 584.027344 536.828125 C 576.464844 537.855469 569.117188 538.53125 561.882812 539.03125 C 502.90625 501.136719 438.855469 474.777344 374.152344 449.847656 C 377.667969 447.265625 381.199219 444.757812 384.816406 442.300781 C 391.253906 437.992188 397.90625 433.820312 404.839844 429.882812 Z M 688.253906 457.996094 C 651.5 476.492188 601.753906 474.355469 571.691406 462.097656 C 571.601562 462.042969 571.53125 462.058594 571.441406 462.003906 C 553.71875 456.367188 536.953125 451.144531 520.921875 446.320312 C 497.113281 439.144531 475 432.785156 454.175781 427.59375 C 443.582031 424.949219 433.3125 422.566406 423.277344 420.394531 C 438.992188 413.003906 455.496094 407.085938 472.417969 403.640625 C 478.792969 402.359375 484.9375 402.035156 490.9375 402.234375 C 490.519531 402.707031 490.125 403.136719 489.707031 403.609375 C 485.824219 407.863281 486.117188 414.238281 490.328125 417.792969 C 494.535156 421.34375 501.058594 420.707031 504.925781 416.386719 C 508.503906 412.433594 511.773438 408.777344 514.902344 405.34375 C 521.019531 406.535156 527.148438 407.796875 533.3125 408.710938 C 536.199219 409.292969 539.050781 409.726562 541.824219 409.992188 C 538.179688 414.148438 534.257812 418.558594 529.804688 423.617188 C 525.90625 427.984375 526.1875 434.289062 530.433594 437.683594 C 534.679688 441.078125 541.199219 440.253906 545.09375 435.886719 C 554.710938 424.925781 561.945312 416.699219 569.128906 408.445312 C 585.964844 404.453125 597.480469 395.84375 603.253906 390.628906 C 605.308594 389.402344 606.347656 388.523438 605.820312 388.191406 C 601.746094 385.699219 597.5625 383.082031 593.308594 380.484375 C 593.308594 380.484375 593.308594 380.484375 593.339844 380.4375 C 630.128906 403.28125 662.5625 421.925781 683.832031 422.488281 C 694.675781 422.777344 710.683594 420.597656 726.019531 420.753906 C 720.296875 433.421875 710.730469 444.105469 697.667969 452.546875 C 694.609375 454.492188 691.566406 456.328125 688.253906 457.996094 Z M 128.042969 421.054688 C 139.050781 427.640625 163.179688 438.511719 192.691406 450.179688 C 163.179688 438.511719 139.050781 427.640625 128.042969 421.054688 C 116.214844 414.019531 102.199219 403.527344 90.058594 392.683594 C 102.199219 403.527344 116.214844 414.019531 128.042969 421.054688 Z M 90.03125 392.726562 C 85.964844 389.140625 82.144531 385.460938 78.65625 381.929688 C 82.1875 385.488281 85.992188 389.097656 90.03125 392.726562 Z M 90.03125 392.726562 " fill-opacity="1" fill-rule="nonzero"/></g></g></g><g clip-path="url(#id7)"><g clip-path="url(#id8)"><g clip-path="url(#id9)"><path fill="#14ae5c" d="M 350.273438 212.117188 C 350.566406 210.277344 350.921875 208.539062 351.308594 206.941406 C 350.847656 208.554688 350.523438 210.25 350.273438 212.117188 C 350.238281 212.464844 350.195312 212.925781 350.167969 213.460938 C 350.152344 212.898438 350.195312 212.4375 350.273438 212.117188 Z M 366.679688 187.566406 C 364.664062 188.144531 362.804688 189.0625 361.050781 190.296875 C 362.804688 189.0625 364.664062 188.144531 366.679688 187.566406 Z M 561.03125 360.21875 C 559.800781 359.449219 558.496094 358.691406 557.21875 357.894531 C 558.453125 358.664062 559.757812 359.417969 561.03125 360.21875 Z M 192.648438 450.152344 C 222.125 440.828125 250.859375 428.589844 277.113281 412.285156 C 280.441406 410.199219 283.722656 408.085938 286.992188 405.898438 C 307.605469 391.949219 326.542969 375.296875 342.792969 355.304688 C 357.484375 337.21875 378.550781 309.820312 367.5625 284.121094 C 367.160156 283.195312 364.570312 279.308594 361.445312 274.714844 C 370.367188 286 381.464844 298.707031 394.699219 312.203125 C 391.453125 315.628906 388.054688 319.203125 384.390625 323.101562 C 380.597656 327.101562 380.839844 333.570312 384.957031 337.558594 C 389.078125 341.546875 395.53125 341.414062 399.347656 337.367188 C 402.984375 333.515625 406.289062 330 409.433594 326.636719 C 415.015625 331.910156 420.890625 337.300781 427.109375 342.730469 C 423.996094 346.234375 420.730469 349.890625 417.152344 353.84375 C 413.4375 358.019531 413.820312 364.449219 418.035156 368.191406 C 422.246094 371.933594 428.75 371.527344 432.492188 367.308594 C 436.152344 363.222656 439.503906 359.433594 442.644531 355.882812 C 448.589844 360.769531 454.839844 365.664062 461.320312 370.578125 C 459.125 373.003906 456.832031 375.492188 454.386719 378.128906 C 450.554688 382.292969 450.78125 388.6875 454.949219 392.398438 C 459.117188 396.113281 465.648438 395.664062 469.460938 391.429688 C 472.355469 388.273438 474.996094 385.328125 477.550781 382.515625 C 478.683594 383.347656 479.773438 384.152344 480.933594 384.941406 C 486.507812 388.855469 491.949219 392.199219 497.203125 395.0625 C 495.164062 397.339844 493.027344 399.679688 490.734375 402.167969 C 484.734375 401.96875 478.589844 402.292969 472.210938 403.574219 C 455.292969 407.019531 438.785156 412.9375 423.074219 420.328125 C 419.945312 421.804688 416.789062 423.324219 413.695312 424.941406 C 410.625 426.515625 407.574219 428.160156 404.609375 429.863281 C 397.675781 433.796875 390.976562 437.941406 384.585938 442.28125 C 380.96875 444.734375 377.4375 447.246094 373.921875 449.828125 C 355.851562 463.039062 339.28125 477.863281 323.597656 493.429688 C 323.570312 493.472656 323.570312 493.472656 323.5 493.488281 C 282.226562 483.78125 231.046875 467.195312 190.703125 450.710938 C 191.535156 450.558594 192.09375 450.355469 192.648438 450.152344 Z M 348.179688 256.664062 C 348.449219 256.527344 348.816406 256.328125 348.816406 256.328125 C 348.816406 256.328125 348.449219 256.527344 348.179688 256.664062 Z M 605.707031 388.179688 C 601.628906 385.691406 597.449219 383.074219 593.195312 380.472656 C 597.449219 383.074219 601.628906 385.691406 605.707031 388.179688 Z M 533.242188 408.726562 C 527.035156 407.785156 520.945312 406.550781 514.832031 405.359375 C 515.277344 404.839844 515.769531 404.351562 516.1875 403.878906 C 522.15625 406.082031 527.835938 407.675781 533.242188 408.726562 Z M 354.039062 199.148438 C 353.632812 199.996094 353.269531 200.871094 352.902344 201.746094 C 352.753906 202.082031 352.648438 202.445312 352.472656 202.828125 C 352.019531 204.136719 351.613281 205.476562 351.261719 206.914062 C 351.589844 205.707031 351.886719 204.546875 352.246094 203.480469 C 352.3125 203.277344 352.40625 203.03125 352.472656 202.828125 C 352.578125 202.464844 352.726562 202.128906 352.875 201.792969 C 353.222656 200.84375 353.617188 199.925781 354.023438 199.078125 C 354.144531 198.785156 354.339844 198.476562 354.460938 198.183594 C 355.007812 197.117188 355.597656 196.078125 356.289062 195.164062 C 356.289062 195.164062 356.261719 195.207031 356.261719 195.207031 C 355.640625 196.105469 355.078125 197.101562 354.488281 198.140625 C 354.339844 198.476562 354.191406 198.8125 354.039062 199.148438 Z M 603.136719 390.617188 C 604.164062 389.667969 605.0625 388.820312 605.707031 388.179688 C 606.234375 388.511719 605.191406 389.390625 603.136719 390.617188 Z M 603.136719 390.617188 " fill-opacity="1" fill-rule="nonzero"/></g></g></g><g clip-path="url(#id10)"><g clip-path="url(#id11)"><g clip-path="url(#id12)"><path fill="#ffbf01" d="M 605.75 388.207031 C 601.671875 385.71875 597.492188 383.101562 593.265625 380.457031 C 593.238281 380.5 593.210938 380.542969 593.183594 380.585938 C 584.785156 390.289062 578.269531 397.859375 571.949219 405.121094 C 571 406.246094 570.007812 407.339844 569.058594 408.464844 C 585.890625 404.46875 597.40625 395.859375 603.183594 390.644531 C 604.207031 389.695312 605.0625 388.820312 605.75 388.207031 Z M 481.140625 385.003906 C 479.976562 384.21875 478.890625 383.414062 477.757812 382.582031 C 493.390625 365.332031 503.996094 353.578125 520.128906 335.535156 C 520.566406 335.8125 521.007812 336.085938 521.449219 336.363281 C 524.75 338.429688 528.0625 340.378906 531.390625 342.398438 C 534.320312 344.175781 537.28125 345.90625 540.171875 347.652344 C 523.5625 366.253906 513.140625 377.816406 497.40625 395.125 C 492.109375 392.238281 486.710938 388.921875 481.140625 385.003906 Z M 541.726562 410.050781 C 538.976562 409.742188 536.171875 409.335938 533.214844 408.773438 C 527.808594 407.71875 522.128906 406.125 516.144531 403.851562 C 530.488281 387.878906 540.8125 376.375 557.148438 357.910156 C 558.425781 358.710938 559.683594 359.4375 560.960938 360.234375 C 566.242188 363.539062 571.523438 366.847656 576.71875 370.097656 C 562.636719 386.234375 553.644531 396.488281 541.933594 409.816406 C 541.878906 409.902344 541.78125 409.964844 541.726562 410.050781 Z M 442.777344 355.96875 C 457.691406 339.183594 468.328125 327.082031 483.640625 309.570312 C 489.503906 314.589844 495.65625 319.238281 501.976562 323.625 C 502.390625 323.941406 502.875 324.246094 503.316406 324.523438 C 487.695312 341.84375 477.203125 353.421875 461.480469 370.617188 C 454.972656 365.746094 448.75 360.808594 442.777344 355.96875 Z M 462.585938 284.683594 C 464.816406 288.164062 467.148438 291.585938 469.703125 294.839844 C 453.539062 313.230469 442.675781 325.496094 427.199219 342.785156 C 420.976562 337.359375 415.105469 331.964844 409.523438 326.691406 C 426.628906 308.464844 438.234375 295.988281 457.148438 275.457031 C 458.882812 278.5625 460.683594 281.652344 462.585938 284.683594 Z M 348.179688 256.664062 C 348.449219 256.527344 348.816406 256.328125 348.816406 256.328125 C 349.015625 256.207031 349.253906 255.925781 349.402344 255.589844 C 349.429688 255.546875 349.441406 255.429688 349.46875 255.386719 C 349.644531 255.007812 349.761719 254.527344 349.933594 253.960938 C 349.945312 253.84375 350 253.757812 350.011719 253.640625 C 350.148438 252.929688 350.242188 252.191406 350.375 251.292969 C 350.464844 250.371094 350.539062 249.371094 350.621094 248.261719 C 350.632812 248.144531 350.617188 248.074219 350.625 247.957031 C 350.683594 246.890625 350.722656 245.75 350.71875 244.582031 C 350.71875 244.582031 350.746094 244.539062 350.703125 244.511719 C 350.730469 242.015625 350.710938 239.304688 350.675781 236.523438 C 350.6875 236.410156 350.671875 236.335938 350.683594 236.222656 C 350.648438 233.441406 350.523438 230.605469 350.433594 227.910156 C 350.390625 226.414062 350.320312 224.960938 350.265625 223.578125 C 350.261719 223.390625 350.257812 223.203125 350.25 223.015625 C 350.246094 222.828125 350.222656 222.570312 350.21875 222.382812 C 350.160156 220.8125 350.117188 219.316406 350.125 218.03125 C 350.113281 216.1875 350.097656 214.644531 350.140625 213.503906 C 350.167969 212.96875 350.210938 212.507812 350.246094 212.160156 C 350.539062 210.320312 350.894531 208.582031 351.308594 206.941406 C 352.523438 202.0625 354.230469 198.164062 356.335938 195.191406 C 356.984375 194.25 357.695312 193.40625 358.46875 192.664062 C 358.703125 192.382812 359.003906 192.199219 359.210938 191.964844 C 359.703125 191.472656 360.238281 191.011719 360.789062 190.621094 C 360.886719 190.558594 360.96875 190.425781 361.070312 190.367188 C 361.292969 190.203125 361.535156 190.109375 361.761719 189.941406 C 362.285156 189.597656 362.78125 189.292969 363.347656 188.972656 C 363.71875 188.777344 364.058594 188.621094 364.402344 188.46875 C 364.914062 188.238281 365.496094 187.988281 366.027344 187.828125 C 366.242188 187.78125 366.4375 187.660156 366.652344 187.609375 C 366.796875 187.578125 366.914062 187.585938 367.011719 187.527344 C 368.328125 187.1875 369.660156 186.917969 371.070312 186.816406 C 371.328125 186.796875 371.558594 186.816406 371.816406 186.796875 C 373.273438 186.726562 374.785156 186.753906 376.332031 186.921875 C 378.617188 187.1875 380.949219 187.667969 383.332031 188.363281 C 385.714844 189.058594 388.121094 190.011719 390.515625 191.082031 C 391.699219 191.636719 392.925781 192.222656 394.125 192.847656 C 394.210938 192.902344 394.300781 192.960938 394.34375 192.988281 C 396.023438 193.730469 397.546875 194.625 399.160156 195.570312 C 399.203125 195.597656 399.289062 195.652344 399.335938 195.679688 C 401.402344 196.976562 403.460938 198.386719 405.492188 199.839844 C 406.078125 200.269531 406.667969 200.699219 407.300781 201.15625 C 409.171875 202.574219 411.011719 204.03125 412.757812 205.554688 C 412.90625 205.707031 413.125 205.84375 413.273438 206 C 415.167969 207.675781 416.941406 209.339844 418.621094 211.0625 C 419.066406 211.523438 419.511719 211.988281 419.957031 212.449219 C 421.589844 214.148438 423.152344 215.859375 424.570312 217.605469 C 424.613281 217.632812 424.613281 217.632812 424.628906 217.707031 C 425.511719 218.746094 426.203125 219.792969 426.964844 220.824219 C 427.175781 221.078125 427.382812 221.332031 427.523438 221.601562 C 428.769531 223.421875 429.972656 225.21875 431.164062 227.128906 C 434.667969 232.691406 437.886719 238.507812 440.917969 244.332031 C 442.949219 248.238281 444.945312 252.1875 446.902344 256.109375 C 447.117188 256.546875 447.316406 256.917969 447.527344 257.359375 C 446.527344 257.589844 445.601562 257.992188 444.847656 258.804688 C 424.335938 280.910156 412.472656 293.597656 394.707031 312.390625 C 381.425781 298.867188 370.328125 286.160156 361.449219 274.902344 C 356.375 268.230469 351.878906 262.105469 348.179688 256.664062 Z M 561.957031 539.011719 C 485.351562 544.15625 427.40625 521.253906 372.515625 505.410156 C 370.089844 504.6875 367.675781 504.039062 365.292969 503.34375 C 364.089844 503.015625 362.839844 502.664062 361.632812 502.339844 C 358.339844 501.441406 355.085938 500.570312 351.820312 499.816406 C 351.296875 499.671875 350.75 499.570312 350.226562 499.429688 C 346.554688 498.539062 342.855469 497.695312 339.175781 496.925781 C 339.128906 496.898438 339.058594 496.914062 338.96875 496.859375 C 334.097656 495.832031 329.050781 494.699219 323.855469 493.40625 C 339.585938 477.871094 356.152344 463.042969 374.179688 449.804688 C 438.882812 474.730469 502.9375 501.089844 561.957031 539.011719 Z M 88.457031 270.171875 C 97.304688 309.855469 130.03125 337.332031 154.492188 354.234375 C 178.898438 368.285156 204.019531 380.699219 229.5625 392.148438 C 245.3125 399.1875 261.167969 405.859375 277.15625 412.3125 C 250.859375 428.589844 222.125 440.828125 192.691406 450.179688 C 163.222656 438.539062 139.09375 427.667969 128.042969 421.054688 C 112.242188 411.65625 92.621094 396.125 78.683594 381.886719 C 67.851562 370.8125 60.46875 360.492188 61.003906 354.449219 C 61.003906 354.449219 61.070312 354.246094 61.136719 354.042969 C 61.164062 353.996094 61.175781 353.882812 61.203125 353.839844 C 61.28125 353.519531 61.414062 353.109375 61.554688 352.589844 C 61.554688 352.589844 61.582031 352.542969 61.582031 352.542969 C 61.609375 352.5 61.59375 352.429688 61.621094 352.382812 C 64.296875 343.023438 75.726562 304.015625 88.429688 270.214844 C 88.429688 270.214844 88.457031 270.171875 88.457031 270.171875 Z M 88.457031 270.171875 " fill-opacity="1" fill-rule="nonzero"/></g></g></g><g clip-path="url(#id13)"><g clip-path="url(#id14)"><g clip-path="url(#id15)"><path fill="#000000" d="M 385.003906 337.585938 C 389.121094 341.574219 395.574219 341.441406 399.394531 337.394531 C 403.03125 333.542969 406.332031 330.027344 409.476562 326.664062 C 426.585938 308.4375 438.191406 295.960938 457.105469 275.429688 C 458.042969 274.421875 458.980469 273.414062 459.972656 272.320312 C 462 270.15625 461.804688 266.84375 459.660156 264.890625 C 456.761719 262.277344 455.328125 260.949219 452.429688 258.339844 C 451.054688 257.109375 449.242188 256.773438 447.566406 257.199219 C 446.566406 257.429688 445.640625 257.832031 444.886719 258.644531 C 424.371094 280.75 412.511719 293.4375 394.746094 312.230469 C 391.5 315.65625 388.097656 319.230469 384.433594 323.128906 C 380.613281 327.175781 380.898438 333.667969 385.003906 337.585938 Z M 461.480469 370.617188 C 477.203125 353.421875 487.738281 341.871094 503.316406 324.523438 C 505.773438 321.769531 508.359375 318.910156 511.125 315.863281 C 513.136719 313.625 516.527344 313.296875 518.683594 315.136719 C 521.621094 317.589844 523.066406 318.800781 526.003906 321.25 C 528.1875 323.046875 528.339844 326.328125 526.300781 328.609375 C 524.105469 331.035156 522.066406 333.316406 520.101562 335.578125 C 503.96875 353.621094 493.40625 365.402344 477.726562 382.625 C 475.171875 385.4375 472.488281 388.355469 469.636719 391.539062 C 465.78125 395.746094 459.25 396.195312 455.125 392.511719 C 450.957031 388.796875 450.703125 382.449219 454.5625 378.242188 C 456.949219 375.503906 459.242188 373.015625 461.480469 370.617188 Z M 490.9375 402.234375 C 493.15625 399.761719 495.324219 397.378906 497.40625 395.125 C 513.140625 377.816406 523.5625 366.253906 540.171875 347.652344 C 541.554688 346.125 542.964844 344.558594 544.429688 342.898438 C 546.46875 340.621094 549.84375 340.21875 552.054688 341.972656 C 555.003906 344.308594 556.449219 345.519531 559.398438 347.855469 C 561.609375 349.605469 561.71875 352.863281 559.722656 355.167969 C 558.882812 356.117188 558.074219 357.019531 557.238281 357.964844 C 540.902344 376.429688 530.550781 387.976562 516.230469 403.90625 C 515.8125 404.378906 515.292969 404.914062 514.875 405.386719 C 511.789062 408.847656 508.503906 412.433594 504.898438 416.429688 C 501.03125 420.753906 494.460938 421.363281 490.300781 417.835938 C 486.089844 414.28125 485.839844 407.933594 489.679688 403.65625 C 490.125 403.136719 490.519531 402.707031 490.9375 402.234375 Z M 541.726562 410.050781 C 541.78125 409.964844 541.878906 409.902344 541.933594 409.816406 C 553.691406 396.515625 562.679688 386.261719 576.71875 370.097656 C 577.109375 369.667969 577.429688 369.253906 577.820312 368.824219 C 579.816406 366.519531 583.246094 366.03125 585.441406 367.710938 C 588.371094 369.972656 589.875 371.097656 592.804688 373.363281 C 594.957031 375.015625 595.101562 378.109375 593.222656 380.429688 C 593.222656 380.429688 593.222656 380.429688 593.195312 380.472656 C 593.167969 380.515625 593.140625 380.558594 593.113281 380.605469 C 584.710938 390.304688 578.199219 397.875 571.875 405.136719 C 570.925781 406.261719 569.9375 407.355469 568.988281 408.480469 C 561.773438 416.777344 554.542969 425.003906 544.953125 435.921875 C 541.097656 440.3125 534.507812 441.15625 530.289062 437.71875 C 526.042969 434.324219 525.835938 428 529.660156 423.652344 C 534.15625 418.621094 538.082031 414.210938 541.726562 410.050781 Z M 427.199219 342.785156 C 442.675781 325.496094 453.566406 313.183594 469.703125 294.839844 C 471.925781 292.367188 474.183594 289.734375 476.644531 286.984375 C 478.582031 284.765625 481.972656 284.433594 484.175781 286.300781 C 487.15625 288.78125 488.648438 290.019531 491.582031 292.472656 C 493.8125 294.296875 494.007812 297.605469 492.066406 299.824219 C 489.050781 303.269531 486.246094 306.480469 483.59375 309.542969 C 468.285156 327.054688 457.644531 339.15625 442.730469 355.9375 C 439.5625 359.535156 436.238281 363.277344 432.578125 367.363281 C 428.835938 371.582031 422.335938 371.988281 418.121094 368.246094 C 413.910156 364.503906 413.453125 358.089844 417.238281 353.898438 C 420.816406 349.945312 424.085938 346.292969 427.199219 342.785156 Z M 427.199219 342.785156 " fill-opacity="1" fill-rule="nonzero"/></g></g></g></svg>