<svg xmlns="http://www.w3.org/2000/svg" xmlns:xlink="http://www.w3.org/1999/xlink" width="1080" zoomAndPan="magnify" viewBox="0 0 810 809.999993" height="1080" preserveAspectRatio="xMidYMid meet" version="1.0"><defs><clipPath id="48fd5a5f34"><path d="M 0 385.15625 L 810 385.15625 L 810 647 L 0 647 Z M 0 385.15625 " clip-rule="nonzero"/></clipPath><clipPath id="ea197d5887"><path d="M 125.207031 95.144531 L 683 95.144531 L 683 714.675781 L 125.207031 714.675781 Z M 125.207031 95.144531 " clip-rule="nonzero"/></clipPath></defs><path fill="#e04285" d="M 650.46875 637.875 C 651.707031 644.320312 657.90625 631.925781 665.960938 611.476562 C 665.34375 616.183594 663.730469 616.917969 663.113281 623.25 C 662.738281 627.203125 661.625 637.738281 666.832031 640.601562 C 670.550781 642.695312 675.757812 639.980469 677.738281 638.851562 C 681.457031 641.332031 691.871094 647.652344 706.253906 647.167969 C 716.046875 646.796875 723.484375 643.449219 727.449219 641.21875 C 728.9375 642.570312 737.242188 649.757812 749.269531 648.769531 C 764.390625 647.652344 772.078125 634.640625 772.574219 633.535156 C 779.019531 636.375 786.582031 635.507812 792.160156 631.167969 C 800.589844 624.722656 799.847656 614.4375 799.847656 613.816406 C 798.359375 611.585938 793.773438 605.515625 785.34375 602.664062 C 773.070312 598.574219 762.53125 604.769531 760.921875 605.761719 C 757.945312 604.410156 751.996094 602.179688 744.308594 602.550781 C 736.746094 602.910156 731.046875 605.515625 728.195312 607 C 725.714844 605.898438 721.003906 604.039062 714.929688 604.273438 C 710.714844 604.410156 707.242188 605.515625 705.011719 606.382812 C 707.988281 603.65625 712.203125 599.082031 714.804688 592.5 C 720.261719 578.246094 712.328125 569.707031 716.167969 555.566406 C 719.640625 542.691406 727.820312 544.660156 733.648438 531.289062 C 741.335938 513.566406 737.367188 485.679688 720.757812 477.488281 C 718.027344 476.136719 715.175781 475.378906 712.449219 475.144531 L 724.722656 434 C 725.589844 429.152344 727.203125 416.894531 720.261719 405.121094 C 718.773438 402.640625 711.953125 391.105469 704.144531 391.859375 C 697.699219 392.480469 693.484375 401.15625 689.269531 412.558594 C 677.492188 444.023438 675.011719 469.941406 675.011719 469.941406 C 671.046875 511.320312 662.492188 508.472656 654.929688 556.324219 C 651.953125 575.285156 643.773438 603.65625 650.464844 637.875 Z M 159.683594 639.734375 C 158.441406 646.175781 152.242188 633.785156 144.1875 613.335938 C 144.804688 618.042969 146.417969 618.773438 147.039062 625.109375 C 147.410156 629.0625 148.523438 639.597656 143.316406 642.460938 C 139.597656 644.554688 134.394531 641.839844 132.410156 640.710938 C 128.691406 643.191406 118.273438 649.511719 103.890625 649.027344 C 94.097656 648.65625 86.660156 645.308594 82.695312 643.078125 C 81.207031 644.429688 72.898438 651.617188 60.875 650.625 C 45.75 649.511719 38.066406 636.5 37.566406 635.394531 C 31.121094 638.234375 23.5625 637.367188 17.984375 633.027344 C 9.554688 626.582031 10.296875 616.296875 10.296875 615.675781 C 11.785156 613.445312 16.371094 607.371094 24.804688 604.523438 C 37.074219 600.433594 47.609375 606.628906 49.222656 607.621094 C 52.195312 606.269531 58.148438 604.039062 65.832031 604.410156 C 73.398438 604.769531 79.097656 607.375 81.949219 608.859375 C 84.425781 607.757812 89.140625 605.898438 95.210938 606.132812 C 99.429688 606.269531 102.902344 607.371094 105.128906 608.242188 C 102.15625 605.515625 97.945312 600.941406 95.335938 594.359375 C 89.886719 580.105469 97.816406 571.566406 93.972656 557.425781 C 90.503906 544.550781 82.320312 546.519531 76.496094 533.148438 C 68.8125 515.425781 72.777344 487.539062 89.386719 479.347656 C 92.113281 477.996094 94.964844 477.238281 97.691406 477.003906 L 85.421875 435.855469 C 84.554688 431.011719 82.941406 418.753906 89.886719 406.980469 C 91.371094 404.5 98.191406 392.960938 106 393.71875 C 112.445312 394.339844 116.660156 403.015625 120.878906 414.417969 C 132.65625 445.882812 135.136719 471.800781 135.136719 471.800781 C 139.101562 513.179688 147.65625 510.332031 155.21875 558.183594 C 158.316406 577.144531 166.5 605.648438 159.679688 639.734375 " fill-opacity="1" fill-rule="nonzero"/><g clip-path="url(#48fd5a5f34)"><path fill="#000000" d="M 800.839844 626.582031 C 799.101562 627.824219 797.242188 628.828125 795.261719 629.445312 L 780.507812 612.578125 C 789.804688 611.226562 799.101562 609.988281 808.277344 608.859375 C 809.765625 614.808594 806.664062 622.246094 800.839844 626.582031 Z M 781.253906 628.441406 C 781.128906 628.316406 780.878906 628.316406 780.757812 628.441406 C 780.632812 628.578125 780.382812 628.691406 780.382812 628.828125 C 779.390625 631.167969 778.027344 633.277344 776.417969 635.136719 C 775.175781 636.632812 773.691406 637.875 772.203125 638.851562 L 749.765625 617.289062 C 759.433594 615.675781 769.101562 614.324219 778.898438 612.828125 L 793.773438 629.816406 C 789.683594 630.683594 785.21875 630.300781 781.253906 628.441406 Z M 753.980469 643.449219 C 744.929688 642.941406 738.359375 638.492188 735.261719 635.878906 C 735.136719 635.753906 735.011719 635.753906 734.765625 635.753906 C 734.640625 635.753906 734.515625 635.753906 734.390625 635.878906 C 733.152344 636.632812 731.542969 637.613281 729.433594 638.492188 L 716.292969 623.113281 C 722.617188 622.011719 729.0625 620.769531 735.382812 619.765625 C 739.476562 619.023438 743.691406 618.402344 747.78125 617.671875 L 770.714844 639.734375 C 764.144531 643.5625 756.582031 643.5625 753.980469 643.449219 Z M 711.707031 641.082031 C 706.625 640.464844 701.914062 638.851562 697.328125 636.015625 C 695.714844 635.394531 690.632812 633.164062 688.773438 628.316406 C 697.449219 626.582031 706.128906 624.859375 714.804688 623.25 L 728.070312 638.851562 C 723.855469 640.601562 718.152344 641.953125 711.707031 641.082031 Z M 676.746094 637.875 L 691.746094 586.179688 L 725.46875 571.429688 C 725.839844 575.90625 725.589844 580.601562 723.359375 586.179688 C 721.128906 592.015625 717.285156 597.335938 712.203125 602.042969 C 705.382812 603.171875 697.574219 605.898438 692.121094 612.578125 C 690.136719 614.945312 685.054688 621.140625 687.160156 628.070312 C 687.78125 630.175781 688.898438 631.789062 690.261719 633.164062 C 686.046875 637.5 680.714844 638.851562 676.746094 637.875 Z M 675.507812 637.367188 C 675.011719 637.117188 674.390625 636.882812 674.019531 636.5 C 671.046875 634.265625 670.550781 630.066406 670.425781 628.691406 C 669.804688 623.621094 671.542969 619.644531 673.027344 616.542969 C 673.277344 615.925781 673.523438 615.304688 673.773438 614.808594 C 676.25 608.996094 675.261719 604.769531 674.019531 599.566406 C 673.152344 595.847656 672.160156 591.757812 672.035156 585.820312 C 671.914062 582.351562 672.160156 579.871094 672.65625 577.394531 L 688.402344 593.121094 Z M 670.054688 619.765625 L 663.730469 633.535156 C 662.492188 635.023438 660.382812 636.746094 659.144531 636.746094 C 663.855469 596.355469 671.046875 555.816406 680.46875 516.15625 C 689.886719 476.867188 701.789062 437.714844 715.796875 399.78125 C 715.921875 399.40625 715.796875 399.035156 715.425781 398.925781 C 715.054688 398.789062 714.683594 398.925781 714.558594 399.296875 C 700.550781 437.207031 688.648438 476.496094 679.226562 515.90625 C 669.804688 555.085938 662.738281 595.226562 658.027344 635.394531 C 657.90625 634.773438 657.78125 633.785156 657.90625 632.296875 C 660.136719 575.027344 661.375 546.273438 667.449219 523.59375 C 668.691406 518.894531 669.558594 515.90625 670.671875 512.324219 C 672.039062 507.605469 673.648438 502.410156 676.5 491.738281 C 678.359375 484.8125 679.972656 479.347656 681.210938 475.007812 C 683.8125 465.960938 685.425781 460.507812 686.417969 453.566406 C 687.285156 446.875 697.449219 395.207031 710.09375 387.882812 C 711.582031 387.015625 713.070312 386.902344 714.558594 387.523438 C 728.9375 393.347656 732.53125 413.796875 728.8125 425.804688 C 725.46875 436.726562 719.390625 463.605469 718.402344 467.707031 C 706.5 468.191406 694.226562 476.496094 689.269531 486.050781 C 687.039062 490.253906 686.914062 493.226562 686.542969 499.3125 C 686.292969 504.269531 685.921875 511.199219 684.1875 522.351562 C 683.070312 529.292969 682.078125 534.125 680.839844 540.324219 C 677.617188 555.9375 675.011719 564.242188 673.402344 569.820312 C 671.417969 576.152344 670.425781 579.25 670.671875 586.066406 C 670.921875 592.015625 671.914062 596.464844 672.78125 600.074219 C 674.019531 605.277344 674.886719 609.109375 672.53125 614.4375 C 672.285156 614.945312 672.035156 615.566406 671.789062 616.183594 C 671.167969 617.050781 670.550781 618.402344 670.054688 619.765625 Z M 726.707031 470.050781 C 742.574219 475.378906 748.898438 499.796875 743.8125 517.285156 C 741.707031 524.472656 738.359375 527.683594 734.765625 531.152344 C 733.027344 532.886719 731.292969 534.5 729.683594 536.730469 L 705.261719 538.972656 L 720.632812 486.050781 C 720.757812 485.679688 720.507812 485.296875 720.136719 485.171875 C 719.765625 485.058594 719.390625 485.296875 719.269531 485.679688 L 713.566406 505.261719 L 692.367188 483.3125 C 699.683594 473.523438 714.804688 466.085938 726.707031 470.050781 Z M 681.335938 544.414062 C 681.582031 543.175781 681.832031 541.824219 682.203125 540.445312 C 683.441406 534.25 684.433594 529.429688 685.550781 522.476562 C 687.285156 511.199219 687.65625 504.269531 687.90625 499.3125 C 688.277344 493.488281 688.402344 490.5 690.382812 486.671875 C 690.757812 485.914062 691.253906 485.171875 691.746094 484.441406 L 713.316406 506.75 L 703.898438 539.59375 L 697.824219 560.773438 Z M 697.203125 562.273438 L 688.773438 591.644531 L 672.90625 575.769531 C 673.277344 574.046875 673.898438 572.300781 674.640625 570.066406 C 676.128906 565.234375 678.359375 558.292969 680.960938 546.023438 Z M 725.09375 546.890625 C 723.234375 554.214844 723.980469 560.042969 724.722656 565.617188 C 724.972656 567.09375 725.09375 568.46875 725.21875 569.820312 L 692.121094 584.320312 L 704.886719 540.324219 L 728.691406 538.105469 C 727.328125 540.449219 726.085938 543.308594 725.09375 546.890625 Z M 695.34375 625.589844 C 692.988281 626.101562 690.757812 626.460938 688.402344 626.96875 C 687.039062 621.007812 691.5 615.429688 693.234375 613.335938 C 697.699219 607.992188 703.898438 605.277344 709.722656 603.902344 Z M 723.484375 602.414062 C 728.316406 602.414062 733.277344 602.910156 737.988281 604.152344 C 738.234375 604.152344 738.484375 604.152344 738.609375 604.039062 C 739.847656 602.800781 741.953125 601.175781 744.804688 599.8125 L 732.039062 618.664062 C 726.335938 619.644531 720.507812 620.632812 714.683594 621.761719 L 714.558594 621.761719 C 708.609375 622.863281 702.78125 623.980469 696.953125 625.109375 L 711.335938 603.417969 C 716.542969 602.550781 721.003906 602.550781 723.484375 602.414062 Z M 747.285156 599.082031 C 748.898438 598.574219 750.507812 598.214844 752.492188 597.953125 C 758.9375 597.457031 763.898438 599.8125 766.375 601.3125 C 766.625 601.425781 766.871094 601.425781 766.996094 601.3125 C 769.847656 599.9375 772.824219 598.832031 775.796875 598.214844 L 766.128906 613.199219 C 755.839844 614.808594 745.550781 616.433594 735.261719 618.15625 C 734.886719 618.292969 734.515625 618.292969 734.144531 618.402344 Z M 777.65625 597.953125 C 780.261719 597.457031 782.738281 597.335938 785.34375 597.457031 C 800.714844 598.214844 806.046875 603.28125 807.78125 607.621094 C 798.234375 608.859375 788.691406 610.097656 779.144531 611.476562 L 778.773438 611.476562 C 775.175781 611.957031 771.582031 612.464844 767.863281 613.085938 Z M 809.269531 607.507812 C 806.789062 600.433594 798.730469 596.601562 785.34375 595.984375 C 782.617188 595.847656 779.886719 596.09375 777.160156 596.601562 L 776.914062 596.601562 C 773.441406 597.222656 769.847656 598.324219 766.625 599.9375 C 764.019531 598.324219 758.8125 595.984375 752.242188 596.601562 C 750.136719 596.714844 748.277344 597.222656 746.664062 597.707031 L 746.542969 597.707031 C 742.574219 599.082031 739.722656 601.175781 737.988281 602.664062 C 733.277344 601.425781 728.316406 600.941406 723.484375 600.941406 C 721.5 600.941406 718.277344 600.941406 714.558594 601.425781 C 719.144531 596.976562 722.492188 591.882812 724.597656 586.441406 C 726.953125 580.242188 727.078125 575.027344 726.707031 570.191406 C 726.582031 568.582031 726.335938 566.96875 726.085938 565.371094 C 725.34375 559.90625 724.597656 554.214844 726.335938 547.140625 C 727.328125 543.0625 728.8125 540.074219 730.550781 537.734375 C 732.160156 535.488281 733.898438 533.878906 735.632812 532.019531 C 739.226562 528.550781 742.824219 525.089844 745.054688 517.519531 C 749.640625 501.65625 744.929688 474.761719 726.953125 468.699219 C 724.597656 467.820312 721.996094 467.460938 719.515625 467.460938 C 720.632812 462.367188 726.457031 436.589844 729.804688 425.941406 C 733.523438 413.660156 730.425781 392.34375 714.683594 385.910156 C 712.824219 385.15625 710.839844 385.292969 708.980469 386.394531 C 695.589844 394.078125 685.550781 446.019531 684.558594 453.207031 C 683.691406 460.023438 682.078125 465.464844 679.476562 474.390625 C 678.234375 478.726562 676.625 484.304688 674.765625 491.121094 C 671.914062 501.65625 670.300781 506.984375 668.9375 511.707031 C 667.945312 515.289062 666.953125 518.386719 665.714844 522.972656 C 659.515625 545.652344 658.402344 574.53125 656.167969 631.925781 C 656.046875 634.15625 656.167969 636.746094 657.78125 637.613281 L 657.90625 637.613281 C 658.277344 637.738281 658.523438 637.875 658.898438 637.875 C 661.253906 637.875 664.101562 634.773438 664.722656 634.15625 L 664.847656 634.019531 L 668.691406 625.589844 C 668.691406 626.582031 668.691406 627.585938 668.8125 628.691406 C 669.0625 630.175781 669.558594 634.886719 673.027344 637.503906 C 673.773438 637.984375 674.515625 638.355469 675.507812 638.742188 C 675.507812 638.742188 675.632812 638.851562 675.757812 638.851562 L 675.878906 638.851562 C 676.996094 639.226562 678.113281 639.359375 679.476562 639.359375 C 683.316406 639.359375 687.78125 637.613281 691.375 633.894531 C 693.605469 635.753906 695.960938 636.746094 696.832031 637.117188 C 701.417969 639.980469 706.375 641.839844 711.707031 642.324219 C 722.242188 643.5625 730.550781 639.597656 734.886719 636.992188 C 738.234375 639.734375 744.929688 644.070312 753.980469 644.554688 L 755.589844 644.554688 C 759.308594 644.554688 766.253906 643.933594 772.449219 640.09375 C 772.574219 640.09375 772.699219 639.980469 772.699219 639.980469 C 774.433594 638.851562 776.046875 637.503906 777.53125 635.878906 C 779.144531 634.15625 780.382812 632.035156 781.375 629.816406 C 785.839844 631.675781 790.796875 631.925781 795.261719 630.683594 C 797.492188 630.066406 799.722656 628.9375 801.707031 627.585938 C 808.277344 622.742188 811.625 614.066406 809.269531 607.507812 Z M 152.367188 637.253906 C 147.65625 597.222656 140.589844 557.054688 131.167969 517.765625 C 121.746094 478.355469 109.839844 439.203125 95.832031 401.15625 C 95.710938 400.78125 95.339844 400.648438 94.964844 400.78125 C 94.59375 400.894531 94.472656 401.265625 94.59375 401.636719 C 108.601562 439.574219 120.503906 478.726562 129.929688 518.015625 C 139.351562 557.5625 146.542969 598.214844 151.253906 638.605469 C 150.011719 638.605469 147.90625 636.882812 146.664062 635.394531 L 140.34375 621.625 C 139.847656 620.152344 139.226562 618.910156 138.730469 617.785156 C 138.484375 617.164062 138.234375 616.667969 137.988281 616.046875 C 135.632812 610.609375 136.625 606.890625 137.738281 601.671875 C 138.609375 598.078125 139.597656 593.738281 139.847656 587.679688 C 140.09375 580.863281 139.101562 577.765625 137.121094 571.429688 C 135.382812 565.992188 132.78125 557.675781 129.683594 541.933594 C 128.441406 535.738281 127.449219 530.917969 126.335938 523.964844 C 124.597656 512.808594 124.226562 505.882812 123.980469 500.925781 C 123.605469 494.839844 123.476562 491.875 121.246094 487.648438 C 116.164062 477.996094 104.015625 469.804688 92.113281 469.320312 C 91.246094 465.230469 85.175781 438.335938 81.703125 427.429688 C 77.984375 415.40625 81.703125 395.070312 95.957031 389.121094 C 97.445312 388.5 98.933594 388.625 100.421875 389.492188 C 113.066406 396.816406 123.230469 448.5 124.101562 455.179688 C 125.09375 462.132812 126.582031 467.574219 129.308594 476.621094 C 130.550781 480.957031 132.160156 486.410156 134.019531 493.351562 C 136.871094 504.023438 138.484375 509.226562 139.847656 513.9375 C 140.839844 517.519531 141.832031 520.492188 143.070312 525.203125 C 149.144531 547.757812 150.382812 576.523438 152.617188 633.894531 C 152.617188 635.507812 152.492188 636.5 152.367188 637.253906 Z M 139.847656 630.683594 C 139.722656 632.035156 139.101562 636.261719 136.253906 638.492188 C 135.757812 638.851562 135.261719 639.113281 134.765625 639.359375 L 121.992188 595.117188 L 137.738281 579.363281 C 138.234375 581.84375 138.484375 584.320312 138.359375 587.789062 C 138.113281 593.617188 137.242188 597.84375 136.375 601.558594 C 135.136719 606.890625 134.144531 610.96875 136.625 616.804688 C 136.871094 617.289062 137.121094 617.90625 137.367188 618.527344 C 138.730469 621.625 140.589844 625.589844 139.847656 630.683594 Z M 120.007812 635.023438 C 121.371094 633.648438 122.484375 632.035156 123.105469 629.929688 C 125.09375 623 120.007812 616.804688 118.148438 614.4375 C 112.695312 607.867188 104.882812 605.140625 98.0625 603.902344 C 92.859375 599.191406 89.140625 593.875 86.90625 588.039062 C 84.800781 582.460938 84.425781 577.765625 84.800781 573.289062 L 118.519531 588.039062 L 133.523438 639.734375 C 129.433594 640.710938 124.101562 639.472656 120.007812 635.023438 Z M 112.695312 637.984375 C 108.355469 640.710938 103.523438 642.460938 98.4375 643.078125 C 91.992188 643.808594 86.289062 642.570312 81.949219 640.835938 L 95.210938 625.21875 C 103.890625 626.832031 112.695312 628.441406 121.246094 630.300781 C 119.511719 635.023438 114.425781 637.367188 112.695312 637.984375 Z M 75.75 637.738281 C 75.503906 637.613281 75.128906 637.613281 74.882812 637.738281 C 71.785156 640.351562 65.210938 644.800781 56.164062 645.308594 C 53.5625 645.421875 45.878906 645.421875 39.179688 641.457031 L 62.113281 619.394531 C 66.332031 620.015625 70.417969 620.769531 74.511719 621.5 C 80.835938 622.628906 87.28125 623.734375 93.605469 624.859375 L 80.707031 640.351562 C 78.730469 639.472656 76.988281 638.492188 75.75 637.738281 Z M 33.847656 637.117188 C 32.242188 635.257812 30.875 633.164062 29.882812 630.796875 C 29.761719 630.683594 29.636719 630.4375 29.511719 630.4375 L 29.261719 630.4375 C 29.140625 630.4375 29.015625 630.4375 29.015625 630.550781 C 25.050781 632.40625 20.585938 632.78125 16.492188 631.925781 L 31.371094 614.945312 C 41.039062 616.296875 50.835938 617.785156 60.503906 619.394531 L 38.066406 640.972656 C 36.582031 639.734375 35.089844 638.492188 33.847656 637.117188 Z M 15.007812 631.304688 C 13.027344 630.683594 11.167969 629.679688 9.429688 628.441406 C 3.476562 624.105469 0.503906 616.667969 1.992188 610.71875 C 11.289062 611.847656 20.464844 613.085938 29.761719 614.4375 Z M 24.804688 599.316406 C 27.28125 599.191406 29.882812 599.453125 32.488281 599.8125 L 42.160156 614.945312 C 38.558594 614.4375 34.96875 613.816406 31.25 613.335938 L 30.875 613.335938 C 21.332031 611.957031 11.785156 610.71875 2.238281 609.480469 C 4.097656 605.140625 9.429688 600.074219 24.804688 599.316406 Z M 43.273438 603.28125 C 43.519531 603.417969 43.765625 603.417969 43.890625 603.28125 C 46.246094 601.796875 51.203125 599.453125 57.773438 599.9375 C 59.632812 600.074219 61.375 600.433594 62.980469 601.050781 L 76.125 620.386719 C 75.75 620.261719 75.378906 620.261719 75.011719 620.152344 C 64.839844 618.402344 54.429688 616.804688 44.136719 615.191406 L 34.46875 600.183594 C 37.445312 600.941406 40.417969 601.933594 43.273438 603.28125 Z M 100.542969 605.761719 C 106.371094 607.136719 112.566406 609.851562 117.03125 615.191406 C 118.765625 617.289062 123.230469 622.863281 121.867188 628.828125 C 119.511719 628.316406 117.277344 627.957031 114.925781 627.449219 Z M 71.410156 606.007812 C 71.539062 606.132812 71.785156 606.269531 72.03125 606.132812 C 76.742188 604.894531 81.703125 604.273438 86.535156 604.410156 C 89.140625 604.410156 93.605469 604.523438 98.5625 605.390625 L 112.941406 627.078125 C 107.113281 625.964844 101.164062 624.859375 95.339844 623.734375 L 95.210938 623.734375 C 89.386719 622.628906 83.6875 621.625 77.984375 620.632812 L 65.210938 601.796875 C 68.066406 603.171875 70.171875 604.894531 71.410156 606.007812 Z M 81.453125 540.074219 L 105.253906 542.304688 L 117.898438 586.304688 L 84.800781 571.816406 C 84.925781 570.441406 85.175781 568.953125 85.296875 567.589844 C 86.039062 562.011719 86.785156 556.1875 84.925781 548.886719 C 84.179688 545.167969 82.941406 542.441406 81.453125 540.074219 Z M 129.308594 548.019531 C 132.039062 560.152344 134.144531 567.230469 135.632812 572.050781 C 136.375 574.292969 136.871094 576.152344 137.367188 577.765625 L 121.496094 593.617188 L 112.941406 564.132812 Z M 112.566406 562.632812 L 96.949219 508.609375 L 118.519531 486.300781 C 119.019531 487.03125 119.386719 487.773438 119.882812 488.53125 C 121.867188 492.359375 122.117188 495.347656 122.363281 501.171875 C 122.609375 506.242188 122.984375 513.058594 124.722656 524.335938 C 125.839844 531.289062 126.832031 536.246094 128.070312 542.304688 C 128.316406 543.683594 128.691406 545.03125 128.9375 546.273438 Z M 75.378906 533.011719 C 71.785156 529.539062 68.4375 526.332031 66.332031 519.144531 C 61.246094 501.792969 67.570312 477.375 83.4375 471.910156 C 85.914062 471.042969 88.519531 470.671875 91.125 470.808594 L 91.492188 470.808594 C 101.535156 471.042969 111.949219 477.238281 117.652344 485.058594 L 96.453125 506.984375 L 90.753906 487.402344 C 90.625 487.03125 90.253906 486.78125 89.886719 486.917969 C 89.511719 487.03125 89.265625 487.402344 89.386719 487.773438 L 104.761719 540.695312 L 80.335938 538.464844 C 78.847656 536.492188 77.117188 534.746094 75.378906 533.011719 Z M 144.308594 525.089844 C 143.070312 520.382812 142.078125 517.285156 141.085938 513.800781 C 139.722656 509.089844 138.113281 503.886719 135.261719 493.226562 C 133.402344 486.300781 131.789062 480.832031 130.550781 476.496094 C 127.945312 467.574219 126.335938 462.132812 125.46875 455.316406 C 124.476562 448.25 114.425781 396.308594 101.042969 388.5 C 99.183594 387.386719 97.199219 387.261719 95.339844 388.003906 C 79.59375 394.449219 76.496094 415.765625 80.214844 428.050781 C 83.4375 438.695312 89.386719 464.472656 90.503906 469.566406 C 88.027344 469.566406 85.421875 469.941406 83.066406 470.808594 C 65.09375 476.867188 60.378906 503.761719 64.964844 519.625 C 67.199219 527.199219 70.792969 530.667969 74.390625 534.125 C 76.25 535.875 77.984375 537.597656 79.46875 539.828125 C 81.207031 542.183594 82.566406 545.167969 83.6875 549.257812 C 85.421875 556.324219 84.675781 562.011719 83.933594 567.476562 C 83.6875 569.089844 83.5625 570.6875 83.316406 572.300781 C 82.816406 577.144531 82.941406 582.351562 85.421875 588.546875 C 87.527344 593.988281 90.875 599.082031 95.464844 603.53125 C 91.746094 603.035156 88.644531 603.035156 86.535156 603.035156 C 81.703125 603.035156 76.742188 603.53125 72.03125 604.769531 C 70.296875 603.28125 67.445312 601.175781 63.480469 599.8125 L 63.351562 599.8125 C 61.621094 599.191406 59.882812 598.832031 57.773438 598.699219 C 51.203125 598.214844 45.996094 600.433594 43.398438 602.042969 C 40.046875 600.433594 36.582031 599.316406 32.980469 598.699219 L 32.859375 598.699219 C 30.128906 598.214844 27.402344 597.953125 24.675781 598.078125 C 11.289062 598.699219 3.230469 602.550781 0.75 609.617188 C -1.601562 616.183594 1.742188 624.859375 8.4375 629.816406 C 10.421875 631.304688 12.527344 632.296875 14.886719 632.917969 C 19.34375 634.15625 24.304688 633.894531 28.769531 632.035156 C 29.761719 634.265625 31.121094 636.261719 32.609375 638.121094 C 34.101562 639.84375 35.707031 641.082031 37.445312 642.210938 C 37.566406 642.324219 37.566406 642.324219 37.695312 642.324219 C 43.890625 646.175781 50.835938 646.796875 54.554688 646.796875 L 56.164062 646.796875 C 65.210938 646.289062 71.910156 641.953125 75.257812 639.226562 C 76.617188 640.09375 78.355469 640.972656 80.460938 641.839844 C 85.046875 643.699219 91.246094 645.308594 98.4375 644.429688 C 103.644531 643.808594 108.726562 642.074219 113.066406 639.222656 C 114.058594 638.851562 116.414062 637.875 118.644531 635.878906 C 122.238281 639.734375 126.582031 641.457031 130.425781 641.457031 C 131.789062 641.457031 133.027344 641.21875 134.144531 640.835938 C 135.136719 640.464844 136.003906 640.09375 136.746094 639.472656 C 140.09375 636.992188 140.714844 632.296875 140.960938 630.683594 C 141.085938 629.558594 141.085938 628.578125 141.085938 627.585938 L 144.929688 636.015625 L 145.054688 636.125 C 145.671875 636.882812 148.523438 639.84375 150.878906 639.84375 C 151.253906 639.84375 151.625 639.734375 151.871094 639.597656 L 151.996094 639.597656 C 153.609375 638.742188 153.730469 636.125 153.609375 633.894531 C 151.625 576.636719 150.507812 547.882812 144.308594 525.089844 " fill-opacity="1" fill-rule="nonzero"/></g><path fill="#ffffff" d="M 193.402344 298.398438 L 133.027344 298.398438 L 133.027344 641.953125 L 163.027344 641.953125 L 131.046875 671.449219 L 138.730469 680.496094 L 172.945312 655.335938 C 175.425781 650.886719 177.90625 646.414062 180.261719 641.953125 L 181.625 641.953125 L 180.261719 695.617188 L 193.277344 695.617188 L 205.671875 641.953125 L 596.789062 641.953125 L 611.664062 706.039062 L 624.683594 706.039062 L 623.195312 649.648438 C 626.167969 654.964844 629.144531 660.429688 631.996094 665.757812 L 666.210938 690.90625 L 673.898438 681.871094 L 639.1875 649.757812 C 639.308594 647.167969 639.433594 644.691406 639.558594 642.074219 L 668.195312 642.074219 L 668.195312 298.398438 L 193.402344 298.398438 " fill-opacity="1" fill-rule="nonzero"/><path fill="#e04285" d="M 264.804688 657.703125 L 264.804688 625.839844 L 461.789062 625.839844 L 461.789062 679.257812 L 461.914062 679.257812 L 428.070312 679.257812 L 428.070312 711.109375 L 264.433594 711.109375 M 264.558594 711.109375 L 230.960938 711.109375 L 230.960938 657.703125 L 264.804688 657.703125 " fill-opacity="1" fill-rule="nonzero"/><path fill="#e04285" d="M 174.433594 519.625 L 329.019531 519.625 L 329.019531 531.152344 L 174.433594 531.152344 Z M 305.21875 395.578125 L 240.011719 395.578125 L 240.011719 386.902344 L 305.21875 386.902344 Z M 334.101562 381.808594 L 240.011719 381.808594 L 240.011719 373.132812 L 334.101562 373.132812 Z M 259.101562 594.609375 C 259.101562 599.8125 254.765625 604.152344 249.558594 604.152344 L 204.308594 604.152344 C 204.308594 602.414062 204.1875 600.691406 203.8125 598.945312 C 203.195312 596.714844 202.574219 594.609375 201.953125 592.5 C 201.457031 590.160156 201.210938 587.792969 201.210938 585.3125 L 201.210938 585.066406 L 249.683594 585.066406 C 254.765625 585.066406 259.101562 589.402344 259.101562 594.609375 Z M 334.847656 604.273438 L 277.824219 604.273438 C 273.113281 604.273438 269.390625 600.433594 269.390625 595.847656 L 269.390625 593.617188 C 269.390625 588.917969 273.234375 585.199219 277.824219 585.199219 L 334.847656 585.199219 C 339.558594 585.199219 343.277344 589.03125 343.277344 593.617188 L 343.277344 595.847656 C 343.402344 600.433594 339.558594 604.273438 334.847656 604.273438 Z M 174.433594 479.347656 L 344.269531 479.347656 L 344.269531 507.121094 L 174.433594 507.121094 Z M 512.988281 539.207031 L 444.929688 489.882812 L 384.929688 568.953125 L 362.242188 418.371094 L 646.253906 376.109375 L 668.070312 493.488281 L 588.980469 436.960938 Z M 655.796875 365.945312 L 354.308594 410.078125 L 379.972656 585.449219 L 681.457031 541.316406 L 655.796875 365.945312 " fill-opacity="1" fill-rule="nonzero"/><path fill="#e04285" d="M 644.390625 329.753906 L 622.945312 329.753906 C 621.832031 329.753906 620.960938 328.898438 620.960938 327.773438 C 620.960938 326.65625 621.832031 325.800781 622.945312 325.800781 L 644.390625 325.800781 C 645.507812 325.800781 646.375 326.65625 646.375 327.773438 C 646.375 328.898438 645.507812 329.753906 644.390625 329.753906 Z M 644.390625 336.707031 L 622.945312 336.707031 C 621.832031 336.707031 620.960938 335.828125 620.960938 334.710938 C 620.960938 333.609375 621.832031 332.730469 622.945312 332.730469 L 644.390625 332.730469 C 645.507812 332.730469 646.375 333.609375 646.375 334.710938 C 646.375 335.828125 645.507812 336.707031 644.390625 336.707031 Z M 644.390625 343.523438 L 622.945312 343.523438 C 621.832031 343.523438 620.960938 342.644531 620.960938 341.527344 C 620.960938 340.425781 621.832031 339.546875 622.945312 339.546875 L 644.390625 339.546875 C 645.507812 339.546875 646.375 340.425781 646.375 341.527344 C 646.375 342.644531 645.507812 343.523438 644.390625 343.523438 Z M 608.441406 336.820312 C 608.441406 340.910156 605.09375 344.257812 601.003906 344.257812 L 204.683594 344.257812 C 200.589844 344.257812 197.242188 340.910156 197.242188 336.820312 L 197.242188 329.890625 C 197.242188 325.800781 200.589844 322.457031 204.683594 322.457031 L 601.128906 322.457031 C 605.21875 322.457031 608.566406 325.800781 608.566406 329.890625 Z M 133.027344 316.988281 L 133.027344 351.207031 L 668.195312 351.207031 L 668.195312 316.988281 L 133.027344 316.988281 " fill-opacity="1" fill-rule="nonzero"/><path fill="#e04285" d="M 213.113281 547.027344 L 255.507812 553.335938 L 255.507812 548.132812 L 224.765625 537.113281 L 199.476562 513.316406 L 166.128906 508.101562 C 163.152344 508.101562 153.980469 507.605469 145.425781 500.789062 C 134.390625 491.875 133.277344 479.097656 133.152344 477.003906 L 129.0625 477.003906 C 128.441406 481.578125 127.824219 491.121094 132.039062 501.902344 C 135.382812 510.578125 140.46875 516.28125 143.691406 519.378906 Z M 592.078125 557.425781 L 549.683594 563.761719 L 549.683594 558.554688 L 580.425781 547.511719 L 605.714844 523.714844 L 639.0625 518.523438 C 642.039062 518.523438 651.210938 518.015625 659.765625 511.199219 C 670.796875 502.273438 671.914062 489.507812 672.039062 487.402344 L 676.375 487.402344 C 676.996094 491.988281 677.617188 501.542969 673.402344 512.324219 C 670.054688 521 664.972656 526.691406 661.746094 529.789062 L 592.078125 557.425781 " fill-opacity="1" fill-rule="nonzero"/><path fill="#ffffff" d="M 254.640625 552.976562 C 256.746094 553.460938 259.847656 554.082031 263.566406 554.328125 C 268.523438 554.699219 274.226562 554.464844 274.351562 553.84375 C 274.351562 553.460938 272.121094 552.71875 261.210938 551.367188 C 263.566406 549.742188 264.683594 548.503906 264.433594 547.882812 C 264.0625 546.890625 260.839844 546.890625 254.640625 547.882812 Z M 132.410156 476.621094 C 133.898438 469.320312 134.390625 465.464844 133.523438 465.230469 C 133.152344 465.09375 132.53125 465.714844 131.664062 467.199219 C 131.664062 461.265625 131.292969 459.886719 130.796875 459.765625 C 130.054688 459.652344 128.9375 463.371094 128.441406 465.851562 C 127.449219 470.300781 127.699219 474.015625 128.070312 476.621094 Z M 188.195312 487.539062 C 188.195312 491.121094 193.152344 493.488281 197.988281 496.078125 C 200.09375 490.128906 196.625 479.59375 196.625 479.59375 C 192.53125 481.34375 188.195312 484.191406 188.195312 487.539062 Z M 550.550781 558.183594 C 544.476562 557.179688 541.128906 557.179688 540.757812 558.183594 C 540.507812 558.914062 541.625 560.042969 543.980469 561.652344 C 533.195312 563.003906 530.839844 563.761719 530.839844 564.132812 C 530.839844 564.75 536.664062 565 541.625 564.613281 C 545.34375 564.378906 548.441406 563.761719 550.550781 563.25 Z M 677.121094 487.03125 C 677.492188 484.441406 677.617188 480.722656 676.746094 476.25 C 676.25 473.769531 675.136719 470.050781 674.390625 470.1875 C 674.019531 470.1875 673.523438 471.539062 673.523438 477.625 C 672.65625 476.136719 672.035156 475.515625 671.664062 475.628906 C 670.921875 475.875 671.292969 479.71875 672.78125 487.03125 Z M 315.261719 225.164062 C 318.113281 220.9375 319.351562 218.589844 318.855469 218.21875 C 318.605469 217.972656 317.863281 218.34375 316.746094 219.214844 C 317.738281 214.5 317.738281 212.023438 317.121094 211.773438 C 316.128906 211.402344 313.773438 214.871094 310.054688 222.066406 Z M 335.960938 202.726562 C 344.019531 200.121094 347.863281 198.015625 347.738281 196.65625 C 347.617188 195.785156 346.003906 195.289062 342.78125 194.917969 C 349.351562 191.445312 350.589844 190.207031 350.46875 189.714844 C 350.09375 188.96875 344.765625 189.839844 340.300781 192.316406 C 336.953125 194.175781 334.597656 196.53125 333.234375 198.261719 Z M 328.523438 286.515625 L 352.574219 297.78125 C 355.550781 296.058594 358.402344 294.308594 361.375 292.449219 C 358.152344 289.242188 353.316406 284.65625 346.996094 279.5625 C 337.078125 271.753906 332.121094 267.785156 325.796875 266.421875 C 312.65625 263.695312 300.261719 273.242188 295.550781 277.332031 L 253.027344 301.25 L 290.839844 339.1875 L 329.886719 367.804688 L 335.960938 360.503906 L 311.789062 328.765625 L 290.09375 294.0625 L 294.804688 301.632812 C 305.839844 296.675781 317.492188 291.472656 328.523438 286.515625 Z M 608.566406 489.882812 C 608.566406 489.882812 605.09375 500.550781 607.203125 506.363281 C 612.035156 503.761719 616.996094 501.40625 616.996094 497.824219 C 616.996094 494.589844 612.65625 491.742188 608.566406 489.882812 Z M 251.417969 190.328125 C 249.804688 192.804688 247.945312 194.417969 246.582031 195.53125 C 244.226562 195.15625 241.996094 196.398438 241.253906 198.382812 C 240.382812 200.734375 241.625 203.710938 244.351562 204.703125 C 244.351562 205.324219 244.597656 207.679688 242.863281 209.785156 C 241.625 211.269531 240.136719 211.890625 239.515625 212.140625 C 240.136719 214.367188 240.878906 216.601562 241.5 218.832031 C 242.738281 219.210938 245.46875 219.941406 248.9375 219.210938 C 251.664062 218.585938 253.648438 217.34375 254.640625 216.480469 L 254.640625 208.789062 C 255.878906 208.050781 257.617188 206.683594 258.980469 204.453125 C 262.203125 199.25 260.714844 193.175781 259.597656 188.714844 C 258.980469 185.988281 257.617188 181.898438 254.515625 177.3125 C 254.765625 179.296875 254.886719 184.875 251.417969 190.328125 Z M 623.195312 642.074219 L 624.308594 642.074219 L 623.316406 649.757812 Z M 623.195312 642.074219 " fill-opacity="1" fill-rule="nonzero"/><g clip-path="url(#ea197d5887)"><path fill="#000000" d="M 328.277344 371.410156 L 235.671875 371.410156 L 235.671875 378.710938 L 328.277344 378.710938 Z M 329.640625 380.085938 L 234.1875 380.085938 L 234.1875 369.910156 L 329.640625 369.910156 Z M 680.714844 540.695312 L 676.003906 508.84375 C 675.632812 510.082031 675.261719 511.320312 674.765625 512.5625 C 672.160156 519.144531 668.070312 525.339844 662.988281 530.296875 C 663.730469 530.917969 664.351562 531.648438 664.972656 532.527344 C 666.953125 535.253906 668.195312 538.835938 668.441406 542.554688 Z M 667.449219 549.121094 C 662.863281 561.515625 643.402344 562.519531 642.78125 572.300781 C 642.160156 580.601562 655.175781 583.824219 654.1875 591.757812 C 653.691406 595.476562 650.34375 599.082031 646.003906 601.671875 C 646.003906 601.796875 646.128906 601.796875 646.128906 601.933594 C 646.25 603.902344 646.25 605.898438 645.878906 607.757812 C 645.261719 611.957031 643.773438 616.046875 641.292969 619.765625 L 640.300781 641.332031 L 667.449219 641.332031 Z M 638.8125 650.265625 C 638.691406 650.132812 638.566406 649.894531 638.566406 649.757812 L 640.054688 619.644531 C 640.054688 619.53125 640.054688 619.394531 640.175781 619.285156 C 642.53125 615.675781 644.144531 611.847656 644.640625 607.757812 C 644.886719 606.007812 644.886719 604.273438 644.886719 602.550781 C 640.175781 605.03125 634.476562 606.132812 630.011719 604.894531 C 630.632812 606.753906 631.128906 609.367188 630.507812 612.578125 C 629.886719 615.675781 628.402344 617.90625 627.160156 619.285156 L 623.8125 641.082031 L 624.0625 649.648438 L 632.738281 665.5 L 666.335938 690.175781 L 673.152344 682.121094 Z M 612.410156 705.417969 L 624.0625 705.417969 L 622.449219 640.835938 L 625.796875 618.773438 C 625.796875 618.664062 625.921875 618.527344 625.921875 618.402344 C 627.039062 617.164062 628.402344 615.058594 629.019531 612.207031 C 629.640625 609.109375 629.019531 606.519531 628.402344 604.894531 C 628.277344 604.769531 628.402344 604.523438 628.402344 604.410156 C 628.152344 604.273438 627.90625 604.152344 627.65625 604.039062 C 621.335938 600.691406 624.1875 593.367188 617.242188 583.824219 C 614.640625 580.242188 611.664062 577.765625 608.691406 575.90625 L 596.914062 638.976562 Z M 551.292969 562.890625 L 592.945312 556.695312 C 593.195312 556.695312 593.441406 556.695312 593.566406 556.941406 C 601.003906 549.742188 616.746094 542.800781 615.757812 533.628906 C 615.261719 529.292969 611.292969 526.578125 607.328125 523.964844 C 607.328125 523.964844 607.328125 524.101562 607.203125 524.101562 L 581.914062 547.882812 C 581.789062 548.019531 581.789062 548.019531 581.664062 548.019531 L 551.417969 558.914062 L 551.417969 562.890625 Z M 549.804688 563.140625 L 549.804688 559.039062 C 542.367188 557.796875 541.5 558.664062 541.375 558.664062 C 541.375 558.664062 541.5 559.421875 544.351562 561.394531 C 544.597656 561.515625 544.722656 561.902344 544.597656 562.136719 C 544.476562 562.382812 544.351562 562.632812 543.980469 562.632812 C 538.152344 563.375 534.929688 563.996094 533.195312 564.242188 C 535.175781 564.378906 538.277344 564.378906 541.5 564.242188 C 544.351562 564.242188 547.203125 563.761719 549.804688 563.140625 Z M 609.0625 490.871094 C 608.316406 493.226562 606.457031 500.664062 607.699219 505.375 L 608.070312 505.261719 C 612.410156 503.03125 616.5 500.789062 616.5 497.9375 C 616.375 495.707031 613.773438 493.226562 609.0625 490.871094 Z M 380.589844 584.582031 L 530.714844 562.632812 C 531.085938 562.632812 531.457031 562.890625 531.457031 563.25 L 531.457031 563.511719 C 532.824219 563.003906 535.796875 562.519531 542.242188 561.652344 C 540.507812 560.277344 539.886719 559.285156 540.261719 558.292969 C 540.632812 557.179688 542.242188 556.433594 550.550781 557.796875 L 580.921875 546.78125 L 605.960938 523.234375 C 601.996094 520.753906 598.523438 518.273438 598.773438 514.804688 C 599.019531 511.457031 602.738281 508.980469 606.832031 506.859375 C 606.707031 506.75 606.582031 506.75 606.582031 506.5 C 604.476562 500.414062 607.699219 490.128906 607.945312 489.507812 C 607.699219 489.398438 607.449219 489.261719 607.203125 489.148438 C 607.824219 486.300781 608.566406 483.3125 609.1875 480.472656 C 626.417969 478.617188 633.730469 482.445312 637.078125 486.78125 C 643.773438 495.59375 635.714844 508.359375 639.558594 517.65625 L 639.804688 517.65625 C 644.144531 517.65625 652.449219 516.664062 660.011719 510.46875 C 670.175781 502.273438 671.789062 490.75 672.039062 487.15625 C 670.054688 477.734375 670.300781 475.765625 671.046875 475.144531 L 661.253906 408.332031 L 629.269531 370.28125 L 373.898438 407.601562 L 361.996094 452.453125 C 361.871094 452.835938 361.625 452.949219 361.375 452.949219 L 361.253906 452.949219 Z M 361.003906 451.214844 L 372.410156 408.082031 L 355.054688 410.5625 Z M 374.390625 406.472656 L 628.402344 369.292969 L 627.039062 367.691406 L 530.960938 299.15625 L 499.351562 299.15625 L 375.136719 403.632812 Z M 500.960938 297.78125 L 528.855469 297.78125 L 517.328125 289.613281 C 515.589844 289.476562 514.101562 288.855469 512.617188 288 Z M 655.300781 366.8125 L 631.128906 370.417969 L 661.128906 406.113281 Z M 533.316406 299.15625 L 627.90625 366.5625 L 628.027344 366.699219 L 630.011719 369.042969 L 655.796875 365.324219 C 655.921875 365.324219 656.167969 365.324219 656.292969 365.460938 C 656.417969 365.574219 656.542969 365.695312 656.542969 365.945312 L 662.738281 408.082031 L 666.335938 412.421875 C 666.582031 412.667969 666.582031 413.175781 666.210938 413.414062 C 665.960938 413.660156 665.46875 413.660156 665.21875 413.289062 L 663.113281 410.699219 L 667.574219 441.0625 L 667.574219 299.15625 Z M 671.914062 476.867188 C 671.914062 477.734375 672.035156 480.214844 673.277344 486.535156 L 676.375 486.535156 C 676.746094 483.199219 676.625 479.855469 675.878906 476.621094 C 675.382812 474.527344 674.765625 472.667969 674.390625 471.664062 C 674.269531 472.417969 674.019531 474.140625 674.144531 477.859375 C 674.144531 478.242188 673.898438 478.480469 673.648438 478.480469 C 673.402344 478.617188 673.027344 478.480469 672.90625 478.105469 C 672.53125 477.625 672.160156 477.117188 671.914062 476.867188 Z M 661.996094 529.292969 C 666.953125 524.472656 670.921875 518.523438 673.402344 512.078125 C 674.269531 509.710938 675.011719 507.480469 675.507812 505.261719 L 675.507812 505.125 C 677.121094 498.445312 676.996094 492.359375 676.5 488.023438 L 673.523438 488.023438 C 673.152344 492.25 671.167969 503.652344 661.003906 511.707031 C 653.316406 517.902344 644.886719 519.007812 640.300781 519.144531 C 640.671875 519.875 641.167969 520.617188 641.789062 521.238281 C 647.367188 527.433594 655.671875 524.832031 661.996094 529.292969 C 661.871094 529.292969 661.996094 529.292969 661.996094 529.292969 Z M 455.589844 633.277344 L 259.972656 633.277344 L 259.972656 652.859375 L 423.730469 652.859375 C 424.101562 652.859375 424.476562 653.230469 424.476562 653.613281 L 424.476562 685.328125 L 455.589844 685.328125 Z M 423.113281 654.34375 L 227.492188 654.34375 L 227.492188 706.398438 L 423.113281 706.398438 Z M 208.277344 628.578125 L 196.5 565.484375 C 193.523438 567.339844 190.550781 569.820312 187.945312 573.425781 C 181.003906 582.96875 183.855469 590.160156 177.53125 593.617188 C 177.285156 593.738281 177.039062 593.875 176.789062 593.988281 C 176.789062 594.125 176.914062 594.359375 176.789062 594.496094 C 176.167969 596.09375 175.550781 598.699219 176.167969 601.796875 C 176.789062 604.769531 178.152344 606.753906 179.269531 607.992188 C 179.390625 608.128906 179.390625 608.242188 179.390625 608.375 L 182.738281 630.4375 L 182.492188 639.472656 L 182.492188 639.597656 L 181.128906 694.996094 L 192.78125 694.996094 Z M 181.128906 639.113281 L 181.375 630.4375 L 178.027344 608.75 C 176.789062 607.371094 175.300781 605.140625 174.683594 602.042969 C 174.0625 598.945312 174.558594 596.21875 175.175781 594.359375 C 170.714844 595.597656 165.011719 594.496094 160.300781 592.015625 C 160.175781 593.738281 160.300781 595.476562 160.550781 597.222656 C 161.167969 601.3125 162.65625 605.140625 165.011719 608.75 C 165.136719 608.859375 165.136719 608.996094 165.136719 609.109375 L 166.625 639.226562 C 166.625 639.472656 166.5 639.597656 166.375 639.734375 L 131.914062 671.449219 L 138.730469 679.503906 L 172.328125 654.851562 Z M 162.78125 641.332031 L 165.261719 638.976562 L 163.898438 609.367188 C 161.417969 605.648438 159.929688 601.671875 159.308594 597.335938 C 159.0625 595.476562 158.9375 593.503906 159.0625 591.507812 C 159.0625 591.398438 159.0625 591.261719 159.1875 591.261719 C 154.847656 588.660156 151.5 585.0625 151.003906 581.347656 C 150.011719 573.425781 163.027344 570.191406 162.410156 561.902344 C 161.664062 551.738281 140.714844 550.980469 137.242188 536.976562 C 136.003906 531.773438 137.367188 525.960938 140.21875 521.992188 C 140.839844 521.113281 141.582031 520.382812 142.203125 519.761719 C 138.980469 516.527344 136.128906 512.808594 133.773438 508.84375 L 133.773438 641.21875 L 162.78125 641.21875 Z M 131.789062 501.65625 C 134.269531 508.101562 138.234375 514.050781 143.195312 518.894531 L 143.195312 519.007812 C 149.515625 514.558594 157.824219 517.035156 163.277344 510.949219 C 163.898438 510.332031 164.390625 509.597656 164.765625 508.84375 C 160.175781 508.71875 151.746094 507.605469 144.0625 501.40625 C 134.019531 493.351562 132.039062 481.960938 131.542969 477.734375 L 128.566406 477.734375 C 128.070312 483.4375 128.070312 492.113281 131.789062 501.65625 Z M 128.691406 476.25 L 131.789062 476.25 C 133.152344 469.804688 133.277344 467.460938 133.152344 466.582031 C 132.90625 466.839844 132.65625 467.199219 132.285156 467.945312 C 132.160156 468.191406 131.789062 468.328125 131.542969 468.328125 C 131.292969 468.191406 131.046875 467.945312 131.046875 467.710938 C 131.046875 464.101562 130.921875 462.367188 130.796875 461.511719 C 130.300781 462.503906 129.683594 464.363281 129.308594 466.46875 C 128.566406 469.566406 128.316406 472.902344 128.691406 476.25 Z M 132.410156 464.980469 L 132.410156 465.34375 L 132.53125 465.230469 C 132.410156 465.230469 132.410156 465.09375 132.410156 464.980469 Z M 196.128906 480.472656 C 191.292969 482.816406 188.8125 485.296875 188.8125 487.539062 C 188.8125 490.390625 192.90625 492.609375 197.242188 494.839844 L 197.617188 494.976562 C 198.730469 490.253906 196.871094 482.816406 196.128906 480.472656 Z M 198.113281 513.675781 C 194.144531 516.28125 190.175781 519.007812 189.683594 523.34375 C 188.691406 532.390625 204.433594 539.34375 211.871094 546.644531 C 211.996094 546.519531 212.242188 546.410156 212.492188 546.410156 L 254.144531 552.605469 L 254.144531 548.75 L 223.898438 537.84375 C 223.773438 537.84375 223.773438 537.734375 223.648438 537.734375 L 198.359375 513.9375 C 198.113281 513.800781 198.113281 513.675781 198.113281 513.675781 Z M 255.382812 548.75 L 255.382812 552.839844 C 258.113281 553.460938 260.839844 553.84375 263.691406 554.082031 C 266.914062 554.328125 270.011719 554.328125 271.996094 554.082031 C 270.261719 553.707031 267.160156 553.226562 261.210938 552.46875 C 260.960938 552.46875 260.714844 552.222656 260.589844 551.984375 C 260.46875 551.738281 260.589844 551.367188 260.839844 551.230469 C 263.691406 549.257812 263.8125 548.503906 263.8125 548.503906 C 263.691406 548.269531 262.820312 547.511719 255.382812 548.75 Z M 202.945312 592.636719 L 206.292969 610.347656 L 242.242188 610.347656 C 247.078125 610.347656 251.167969 606.382812 251.167969 601.425781 C 251.167969 596.464844 247.203125 592.5 242.242188 592.5 L 202.945312 592.5 Z M 353.070312 297.78125 Z M 303.730469 297.78125 L 352.203125 297.78125 L 328.523438 286.625 Z M 518.9375 110.882812 C 518.9375 102.953125 512.492188 96.507812 504.558594 96.507812 C 501.707031 96.511719 498.855469 97.375 496.5 98.988281 C 492.53125 101.714844 490.175781 106.050781 490.175781 110.882812 C 490.175781 118.816406 496.625 125.261719 504.558594 125.261719 C 512.492188 125.261719 518.9375 118.816406 518.9375 110.882812 Z M 682.203125 541.203125 C 682.203125 541.5625 681.953125 541.933594 681.582031 541.933594 L 668.9375 543.792969 L 668.9375 641.953125 C 668.9375 642.324219 668.566406 642.695312 668.195312 642.695312 L 640.300781 642.695312 L 639.929688 649.386719 L 674.640625 681.363281 C 674.886719 681.609375 674.886719 682.117188 674.640625 682.355469 L 674.515625 682.492188 L 679.101562 687.933594 C 669.804688 702.804688 664.351562 709.867188 662.617188 709.136719 C 661.253906 708.515625 662.367188 702.679688 666.085938 691.648438 C 665.960938 691.648438 665.960938 691.648438 665.839844 691.527344 L 631.625 666.378906 C 631.5 666.378906 631.5 666.242188 631.375 666.117188 L 623.9375 652.484375 L 625.300781 706.039062 C 625.300781 706.285156 625.175781 706.398438 625.054688 706.523438 C 624.929688 706.660156 624.683594 706.769531 624.558594 706.769531 L 624.433594 706.769531 L 623.070312 713.476562 C 602.617188 715.074219 592.203125 715.074219 591.953125 713.476562 C 591.707031 712.097656 598.027344 709.757812 610.921875 706.285156 L 596.417969 642.695312 L 457.078125 642.695312 L 457.078125 685.949219 C 457.078125 686.320312 456.707031 686.691406 456.335938 686.691406 L 424.476562 686.691406 L 424.476562 707.019531 C 424.476562 707.390625 424.101562 707.761719 423.730469 707.761719 L 226.746094 707.761719 C 226.375 707.761719 226.003906 707.390625 226.003906 707.019531 L 226.003906 653.613281 C 226.003906 653.230469 226.375 652.859375 226.746094 652.859375 L 258.605469 652.859375 L 258.605469 642.695312 L 206.417969 642.695312 L 194.144531 695.863281 C 206.914062 699.332031 213.234375 701.699219 213.113281 703.050781 C 212.863281 704.664062 202.449219 704.664062 181.996094 703.050781 L 180.632812 696.371094 L 180.507812 696.371094 C 180.261719 696.371094 180.136719 696.234375 180.011719 696.125 C 179.886719 695.988281 179.765625 695.753906 179.765625 695.617188 L 181.128906 642.074219 L 173.691406 655.707031 C 173.691406 655.84375 173.566406 655.84375 173.441406 655.957031 L 139.226562 681.113281 C 139.226562 681.113281 139.101562 681.113281 138.980469 681.25 C 142.699219 692.269531 143.8125 698.09375 142.449219 698.714844 C 140.839844 699.582031 135.261719 692.515625 125.960938 677.535156 L 130.550781 672.066406 L 130.425781 671.957031 C 130.175781 671.695312 130.175781 671.199219 130.425781 670.964844 L 161.046875 642.695312 L 132.90625 642.695312 C 132.53125 642.695312 132.160156 642.324219 132.160156 641.953125 L 132.160156 508.609375 C 132.160156 508.222656 132.53125 507.851562 132.90625 507.851562 L 133.027344 507.851562 C 132.039062 505.992188 131.046875 504.023438 130.300781 502.027344 C 126.335938 491.988281 126.457031 482.816406 127.203125 476.867188 C 126.707031 473.148438 126.832031 469.566406 127.699219 465.960938 C 129.1875 459.144531 130.425781 459.269531 130.796875 459.40625 C 131.542969 459.515625 132.039062 460.023438 132.160156 464.722656 L 132.160156 298.398438 C 132.160156 298.027344 132.53125 297.667969 132.90625 297.667969 L 248.441406 297.667969 C 248.8125 297.667969 249.1875 298.027344 249.1875 298.398438 C 249.1875 298.769531 248.8125 299.15625 248.441406 299.15625 L 133.648438 299.15625 L 133.648438 464.847656 C 134.640625 465.230469 135.136719 466.332031 132.90625 477.003906 C 133.152344 480.472656 134.765625 492.113281 144.929688 500.304688 C 152.492188 506.363281 160.796875 507.367188 165.136719 507.480469 L 165.382812 507.480469 C 169.226562 498.183594 161.292969 485.433594 167.863281 476.621094 C 171.210938 472.28125 178.523438 468.328125 195.757812 470.300781 C 196.375 473.148438 197.121094 476.136719 197.738281 478.976562 C 197.492188 479.097656 197.242188 479.234375 196.996094 479.347656 C 197.242188 479.964844 200.46875 490.253906 198.359375 496.324219 C 198.359375 496.449219 198.234375 496.585938 198.113281 496.699219 C 202.078125 498.804688 205.796875 501.285156 206.167969 504.640625 C 206.417969 508.101562 202.945312 510.46875 198.980469 513.058594 L 224.019531 536.605469 L 254.390625 547.648438 C 262.824219 546.273438 264.308594 547.027344 264.683594 548.132812 C 265.054688 549 264.433594 549.992188 262.699219 551.476562 C 274.847656 553.089844 274.722656 553.707031 274.722656 554.464844 C 274.722656 555.195312 273.980469 555.566406 270.507812 555.703125 L 267.90625 555.703125 C 266.292969 555.703125 264.683594 555.703125 263.195312 555.566406 C 260.21875 555.320312 257.121094 554.949219 254.144531 554.214844 L 212.617188 548.019531 C 214.476562 550.125 215.46875 552.222656 215.09375 554.328125 C 214.226562 559.792969 205.796875 560.042969 197.367188 564.863281 C 197.367188 565 197.492188 565 197.492188 565.109375 L 202.449219 591.398438 L 241.996094 591.398438 C 247.699219 591.398438 252.285156 595.984375 252.285156 601.671875 C 252.285156 607.371094 247.699219 611.957031 241.996094 611.957031 L 206.292969 611.957031 L 209.390625 628.578125 L 209.390625 628.828125 L 206.417969 641.457031 L 258.234375 641.457031 L 258.234375 632.78125 C 258.234375 632.410156 258.605469 632.035156 258.980469 632.035156 L 456.335938 632.035156 C 456.707031 632.035156 457.078125 632.40625 457.078125 632.78125 L 457.078125 641.457031 L 596.167969 641.457031 L 595.671875 639.226562 L 595.671875 638.976562 L 607.574219 575.535156 C 607.574219 575.398438 607.574219 575.398438 607.699219 575.285156 C 599.269531 570.441406 590.839844 570.191406 589.972656 564.75 C 589.597656 562.519531 590.589844 560.414062 592.449219 558.417969 L 550.921875 564.613281 C 547.945312 565.371094 544.972656 565.730469 541.871094 565.992188 C 540.632812 566.101562 538.773438 566.101562 537.039062 566.101562 C 534.1875 566.101562 531.335938 565.992188 530.714844 565.371094 C 530.589844 565.234375 530.46875 565 530.46875 564.75 C 530.46875 564.613281 530.46875 564.378906 530.589844 564.242188 L 380.34375 586.179688 L 380.21875 586.179688 C 380.09375 586.179688 379.972656 586.179688 379.847656 586.066406 C 379.722656 585.933594 379.597656 585.820312 379.597656 585.558594 L 354.683594 417.128906 L 177.78125 417.128906 C 177.410156 417.128906 177.039062 416.757812 177.039062 416.386719 C 177.039062 416.027344 177.410156 415.65625 177.78125 415.65625 L 354.433594 415.65625 L 353.566406 410.078125 C 353.566406 409.695312 353.8125 409.324219 354.1875 409.324219 L 372.90625 406.597656 L 373.898438 403.015625 C 373.898438 402.878906 374.019531 402.753906 374.144531 402.640625 L 497.242188 299.15625 L 383.195312 299.15625 C 383.070312 299.15625 382.945312 299.15625 382.945312 299.019531 C 381.335938 300.394531 372.160156 300.878906 355.550781 300.507812 L 354.1875 298.90625 C 354.0625 299.019531 353.9375 299.019531 353.8125 299.019531 L 300.757812 299.019531 L 296.046875 301.125 L 312.53125 327.660156 L 336.707031 359.375 L 336.707031 359.5 C 346.253906 354.308594 351.582031 352.3125 352.449219 353.550781 C 353.566406 355.039062 348.113281 361.605469 336.085938 372.898438 L 330.507812 367.554688 C 330.382812 367.691406 330.136719 367.804688 330.011719 367.804688 C 329.886719 367.804688 329.765625 367.804688 329.640625 367.691406 L 290.589844 338.925781 L 252.65625 301.015625 C 252.410156 300.765625 252.410156 300.257812 252.65625 300.011719 C 252.90625 299.773438 253.402344 299.773438 253.648438 300.011719 L 291.457031 337.949219 L 329.886719 366.191406 L 335.21875 359.882812 L 311.292969 328.515625 L 289.597656 293.691406 C 289.351562 293.332031 289.476562 292.957031 289.847656 292.710938 C 290.21875 292.449219 290.589844 292.574219 290.839844 292.957031 L 295.300781 300.011719 C 295.300781 300.011719 295.425781 299.886719 295.550781 299.886719 L 300.382812 297.78125 L 328.523438 285.136719 C 328.773438 285.015625 328.898438 285.015625 329.144531 285.136719 L 352.945312 296.292969 L 360.632812 291.71875 C 356.292969 287.382812 351.707031 283.277344 346.996094 279.5625 C 337.203125 271.753906 332.242188 267.921875 326.167969 266.546875 C 314.019531 263.945312 302.367188 272.261719 296.542969 277.332031 C 296.292969 277.578125 295.796875 277.578125 295.550781 277.21875 C 295.300781 276.957031 295.300781 276.460938 295.671875 276.226562 C 301.746094 270.886719 313.898438 262.457031 326.542969 265.074219 C 332.988281 266.421875 337.945312 270.402344 347.988281 278.320312 C 353.070312 282.289062 357.90625 286.625 362.367188 291.210938 C 362.492188 291.335938 362.617188 291.582031 362.617188 291.832031 C 374.515625 294.308594 381.335938 296.292969 383.195312 297.78125 C 383.316406 297.667969 383.441406 297.53125 383.691406 297.53125 L 499.476562 297.53125 L 512.242188 286.761719 C 511.625 286.253906 511.003906 285.632812 510.507812 285.015625 C 508.402344 282.289062 507.78125 278.570312 508.898438 275.359375 C 509.765625 272.878906 511.5 271.132812 513.113281 269.78125 C 513.855469 269.027344 514.597656 268.40625 515.21875 267.664062 C 516.832031 265.554688 517.824219 262.828125 518.070312 259.867188 L 518.070312 259.730469 C 512.617188 258.738281 508.523438 254.03125 508.523438 248.339844 C 508.523438 242.144531 513.484375 237.050781 519.558594 236.804688 L 519.558594 117.335938 C 517.078125 122.789062 511.625 126.628906 505.175781 126.628906 C 496.5 126.628906 489.433594 119.5625 489.433594 110.886719 C 489.433594 107.789062 490.300781 104.941406 491.914062 102.464844 L 350.34375 191.078125 C 349.476562 191.820312 347.863281 192.8125 344.886719 194.421875 C 347.121094 194.917969 348.113281 195.539062 348.359375 196.53125 C 348.605469 197.894531 347.242188 199.628906 336.335938 203.347656 L 319.722656 218.464844 C 319.722656 219.328125 318.855469 221.074219 315.878906 225.523438 C 315.757812 225.785156 315.507812 225.785156 315.261719 225.785156 C 315.136719 225.785156 315.011719 225.785156 314.886719 225.648438 C 314.515625 225.414062 314.515625 225.027344 314.765625 224.65625 C 316.871094 221.558594 317.738281 219.949219 318.113281 219.082031 C 317.863281 219.214844 317.617188 219.453125 317.242188 219.699219 C 316.996094 219.835938 316.746094 219.949219 316.5 219.699219 C 316.253906 219.589844 316.128906 219.214844 316.128906 218.964844 C 316.996094 214.375 316.996094 212.886719 316.871094 212.394531 C 316.375 212.765625 314.765625 214.5 310.671875 222.179688 C 310.550781 222.550781 310.054688 222.6875 309.683594 222.425781 C 309.308594 222.316406 309.1875 221.808594 309.433594 221.449219 C 315.011719 210.90625 316.375 210.410156 317.367188 210.78125 C 318.234375 211.15625 318.730469 212.394531 317.738281 217.351562 C 318.113281 217.226562 318.359375 217.105469 318.730469 217.105469 L 335.46875 201.859375 C 335.46875 201.859375 335.589844 201.859375 335.589844 201.734375 C 335.589844 201.734375 335.714844 201.734375 335.714844 201.613281 C 346.871094 197.894531 346.996094 196.402344 346.996094 196.28125 C 346.996094 196.28125 346.746094 195.539062 342.65625 195.042969 C 342.410156 195.042969 342.160156 194.796875 342.035156 194.421875 C 342.035156 194.175781 342.160156 193.804688 342.410156 193.679688 C 343.027344 193.304688 343.648438 193.058594 344.269531 192.683594 L 349.226562 189.585938 C 347.617188 189.714844 344.019531 190.578125 340.550781 192.4375 C 337.945312 193.925781 335.714844 195.785156 333.730469 198.261719 C 333.484375 198.515625 332.988281 198.636719 332.738281 198.390625 C 332.492188 198.140625 332.367188 197.644531 332.617188 197.394531 C 334.722656 194.796875 337.078125 192.8125 339.929688 191.324219 C 344.019531 189.09375 348.980469 187.980469 350.46875 188.472656 C 350.589844 188.597656 350.714844 188.597656 350.839844 188.722656 L 493.027344 99.734375 C 493.152344 99.613281 493.402344 99.613281 493.648438 99.613281 C 494.269531 98.992188 495.011719 98.371094 495.757812 97.875 C 498.359375 96.140625 501.457031 95.148438 504.558594 95.148438 C 511.625 95.148438 517.699219 99.859375 519.558594 106.304688 C 519.929688 106.304688 520.300781 106.675781 520.300781 107.046875 L 520.300781 237.046875 C 526.25 237.554688 531.085938 242.511719 531.085938 248.570312 C 531.085938 254.285156 526.996094 258.980469 521.542969 259.972656 L 521.542969 260.34375 C 521.292969 264.199219 519.929688 267.917969 517.820312 270.507812 C 517.078125 271.5 516.085938 272.367188 515.21875 273.125 C 513.855469 274.363281 512.617188 275.464844 512.121094 277.078125 C 511.5 278.9375 511.871094 281.179688 513.113281 282.789062 C 514.722656 284.898438 517.328125 285.890625 519.929688 285.269531 C 522.65625 284.648438 524.640625 282.53125 525.261719 279.804688 C 525.507812 278.699219 526.625 277.945312 527.738281 278.191406 C 528.855469 278.453125 529.597656 279.554688 529.351562 280.671875 C 528.359375 285.007812 525.136719 288.367188 520.796875 289.234375 C 520.425781 289.347656 520.054688 289.347656 519.679688 289.46875 L 531.210938 297.664062 L 668.070312 297.664062 C 668.441406 297.664062 668.8125 298.023438 668.8125 298.394531 L 668.8125 445.148438 C 668.8125 445.507812 668.566406 445.878906 668.070312 445.878906 L 672.410156 475.625 C 672.53125 475.757812 672.53125 475.757812 672.65625 475.871094 C 672.78125 470.554688 673.277344 470.046875 674.144531 469.933594 C 675.261719 469.796875 676.25 472.042969 677.242188 476.492188 C 677.988281 480.097656 678.113281 483.679688 677.738281 487.398438 C 678.359375 491.984375 678.484375 498.304688 676.871094 505.503906 Z M 211.746094 331.75 C 211.746094 329.753906 210.136719 328.03125 208.027344 328.03125 C 206.046875 328.03125 204.308594 329.632812 204.308594 331.75 C 204.308594 333.722656 205.921875 335.46875 208.027344 335.46875 C 210.136719 335.46875 211.746094 333.859375 211.746094 331.75 Z M 213.113281 331.75 C 213.113281 332.730469 212.863281 333.609375 212.367188 334.339844 L 216.582031 337.8125 C 216.832031 338.058594 216.953125 338.566406 216.707031 338.816406 C 216.582031 338.925781 216.335938 339.050781 216.210938 339.050781 C 216.085938 339.050781 215.839844 339.050781 215.714844 338.925781 L 211.5 335.46875 C 210.632812 336.335938 209.390625 336.820312 208.027344 336.820312 C 205.175781 336.820312 202.945312 334.589844 202.945312 331.75 C 202.945312 328.898438 205.175781 326.65625 208.027344 326.65625 C 210.878906 326.65625 213.113281 329.011719 213.113281 331.75 Z M 235.550781 392.34375 L 299.269531 392.34375 L 299.269531 385.042969 L 235.550781 385.042969 Z M 234.1875 383.667969 L 300.757812 383.667969 L 300.757812 393.832031 L 234.1875 393.832031 Z M 258.980469 188.714844 C 258.234375 185.617188 256.996094 182.519531 255.382812 179.667969 C 255.261719 182.644531 254.515625 186.734375 252.039062 190.574219 C 250.671875 192.679688 249.0625 194.417969 246.953125 195.90625 C 246.832031 196.03125 246.582031 196.03125 246.457031 196.03125 C 244.476562 195.65625 242.492188 196.769531 241.871094 198.507812 C 241.5 199.496094 241.5 200.613281 241.996094 201.609375 C 242.492188 202.722656 243.484375 203.589844 244.597656 203.960938 C 244.847656 204.085938 245.09375 204.332031 245.09375 204.582031 C 245.21875 205.570312 245.21875 207.925781 243.484375 210.15625 C 242.492188 211.398438 241.375 212.140625 240.382812 212.511719 L 242.121094 218.214844 C 243.730469 218.707031 246.085938 219.074219 248.8125 218.460938 C 250.671875 218.085938 252.410156 217.222656 254.019531 216.105469 L 254.019531 208.671875 C 254.019531 208.425781 254.144531 208.171875 254.390625 208.050781 C 256.128906 206.933594 257.492188 205.570312 258.484375 203.960938 C 261.457031 199.003906 259.972656 193.054688 258.980469 188.714844 Z M 224.144531 197.890625 C 223.027344 187.972656 230.46875 181.40625 231.210938 180.785156 C 232.078125 173.84375 237.410156 168.640625 243.855469 168.019531 C 249.1875 167.523438 254.390625 170.371094 257.121094 175.328125 C 257.617188 177.933594 257.988281 180.414062 258.484375 183.015625 C 259.226562 184.875 259.847656 186.609375 260.34375 188.59375 C 261.457031 193.179688 262.945312 199.375 259.597656 204.953125 C 258.484375 206.6875 257.121094 208.171875 255.382812 209.289062 L 255.382812 216.601562 C 255.382812 216.847656 255.261719 216.972656 255.136719 217.097656 C 253.402344 218.460938 251.292969 219.445312 249.1875 219.941406 C 248.070312 220.203125 246.953125 220.3125 245.960938 220.3125 C 244.101562 220.3125 242.492188 219.941406 241.375 219.582031 C 241.128906 219.445312 241.003906 219.324219 240.878906 219.074219 L 239.640625 214.867188 C 231.210938 212.636719 225.136719 205.820312 224.144531 197.890625 Z M 326.542969 592.628906 L 271.625 592.628906 C 266.789062 592.628906 262.699219 596.59375 262.699219 601.550781 C 262.699219 606.507812 266.664062 610.460938 271.625 610.460938 L 326.542969 610.460938 C 331.375 610.460938 335.46875 606.507812 335.46875 601.550781 C 335.46875 596.59375 331.5 592.628906 326.542969 592.628906 Z M 271.625 591.25 L 326.542969 591.25 C 332.242188 591.25 336.832031 595.835938 336.832031 601.550781 C 336.832031 607.238281 332.242188 611.835938 326.542969 611.835938 L 271.625 611.835938 C 265.921875 611.835938 261.335938 607.238281 261.335938 601.550781 C 261.335938 595.835938 265.921875 591.25 271.625 591.25 Z M 400.671875 685.9375 L 282.78125 685.9375 L 282.78125 688.417969 L 400.796875 688.417969 L 400.796875 685.9375 Z M 387.285156 678.761719 L 282.78125 678.761719 L 282.78125 682.222656 L 387.285156 682.222656 Z M 400.671875 672.304688 L 282.78125 672.304688 L 282.78125 675.292969 L 400.671875 675.292969 Z M 254.515625 681.242188 L 242.367188 694.984375 C 243.359375 695.496094 244.351562 695.742188 245.46875 695.742188 L 262.945312 695.742188 C 264.433594 695.742188 265.671875 695.234375 266.789062 694.503906 Z M 241.003906 666.480469 C 239.640625 667.71875 238.648438 669.578125 238.648438 671.574219 L 238.648438 689.039062 C 238.648438 691.269531 239.765625 693.261719 241.5 694.503906 L 253.898438 680.484375 Z M 267.53125 693.882812 C 268.898438 692.644531 269.640625 690.894531 269.640625 688.925781 L 269.640625 671.4375 C 269.640625 669.46875 268.773438 667.609375 267.410156 666.371094 L 255.136719 680.25 Z M 241.746094 665.859375 C 242.863281 665.242188 244.101562 664.757812 245.34375 664.757812 L 262.824219 664.757812 C 264.1875 664.757812 265.425781 665.128906 266.542969 665.859375 L 254.390625 679.628906 L 241.746094 665.859375 " fill-opacity="1" fill-rule="nonzero"/></g><path fill="#e04285" d="M 248.9375 219.214844 C 245.589844 219.949219 242.863281 219.328125 241.5 218.839844 C 237.90625 224.285156 233.9375 232.09375 232.203125 242.007812 C 226.746094 272.371094 246.707031 296.292969 250.175781 300.507812 C 254.640625 300.878906 264.433594 301.125 274.972656 295.921875 C 288.234375 289.476562 294.558594 278.816406 296.664062 274.988281 L 275.46875 249.332031 C 278.441406 250.3125 286.375 252.542969 295.300781 249.332031 C 311.167969 243.621094 315.136719 226.269531 315.382812 225.164062 L 310.054688 222.179688 C 308.566406 224.171875 303.730469 230.480469 294.929688 232.714844 C 289.722656 234.089844 285.382812 233.46875 282.78125 232.960938 C 289.101562 228.511719 296.046875 223.925781 303.730469 219.328125 C 315.136719 212.640625 325.921875 207.191406 335.960938 202.726562 L 333.234375 198.390625 L 254.640625 216.484375 C 253.523438 217.226562 251.664062 218.589844 248.9375 219.214844 Z M 282.285156 452.949219 L 269.019531 467.945312 C 270.011719 468.441406 271.128906 468.8125 272.367188 468.8125 L 291.335938 468.8125 C 292.945312 468.8125 294.308594 468.328125 295.550781 467.460938 Z M 267.53125 436.960938 C 265.921875 438.335938 264.929688 440.308594 264.929688 442.539062 L 264.929688 461.511719 C 264.929688 463.992188 266.167969 466.085938 268.027344 467.460938 L 281.417969 452.21875 Z M 296.417969 466.839844 C 297.90625 465.464844 298.773438 463.605469 298.773438 461.511719 L 298.773438 442.539062 C 298.773438 440.308594 297.78125 438.449219 296.292969 437.097656 L 283.027344 452.21875 Z M 282.285156 451.347656 L 295.550781 436.339844 C 294.433594 435.597656 292.945312 435.101562 291.457031 435.101562 L 272.492188 435.101562 C 271.003906 435.101562 269.640625 435.597656 268.523438 436.339844 Z M 236.914062 453.207031 L 223.773438 468.191406 C 224.765625 468.699219 225.878906 469.058594 227.121094 469.058594 L 246.085938 469.058594 C 247.699219 469.058594 249.0625 468.5625 250.300781 467.710938 Z M 222.285156 437.207031 C 220.671875 438.582031 219.683594 440.554688 219.683594 442.785156 L 219.683594 461.746094 C 219.683594 464.226562 220.921875 466.332031 222.78125 467.710938 L 236.167969 452.453125 Z M 251.167969 467.089844 C 252.65625 465.714844 253.523438 463.855469 253.523438 461.746094 L 253.523438 442.785156 C 253.523438 440.554688 252.53125 438.695312 251.046875 437.34375 L 237.78125 452.453125 Z M 236.914062 451.597656 L 250.175781 436.589844 C 249.0625 435.855469 247.574219 435.347656 246.085938 435.347656 L 227.121094 435.347656 C 225.632812 435.347656 224.269531 435.855469 223.152344 436.589844 Z M 191.542969 452.949219 L 178.277344 467.945312 C 179.269531 468.441406 180.382812 468.8125 181.625 468.8125 L 200.589844 468.8125 C 202.203125 468.8125 203.566406 468.328125 204.804688 467.460938 Z M 176.914062 436.960938 C 175.300781 438.335938 174.308594 440.308594 174.308594 442.539062 L 174.308594 461.511719 C 174.308594 463.992188 175.550781 466.085938 177.410156 467.460938 L 190.796875 452.21875 Z M 205.796875 466.953125 C 207.285156 465.601562 208.152344 463.742188 208.152344 461.625 L 208.152344 442.675781 C 208.152344 440.441406 207.160156 438.585938 205.671875 437.207031 L 192.285156 452.21875 Z M 191.542969 451.460938 L 204.804688 436.476562 C 203.691406 435.722656 202.203125 435.238281 200.714844 435.238281 L 181.746094 435.238281 C 180.261719 435.238281 178.898438 435.722656 177.78125 436.476562 Z M 198.730469 361.980469 C 187.078125 361.980469 177.78125 371.410156 177.78125 382.925781 C 177.78125 394.449219 187.203125 403.882812 198.730469 403.882812 C 210.261719 403.882812 219.683594 394.449219 219.683594 382.925781 C 219.683594 371.410156 210.382812 361.980469 198.730469 361.980469 Z M 522.53125 440.816406 C 522.53125 454.3125 511.625 465.230469 498.113281 465.230469 C 484.597656 465.230469 473.691406 454.3125 473.691406 440.816406 C 473.691406 427.292969 484.597656 416.386719 498.113281 416.386719 C 511.625 416.386719 522.53125 427.292969 522.53125 440.816406 " fill-opacity="1" fill-rule="nonzero"/></svg>