<svg xmlns="http://www.w3.org/2000/svg" xmlns:xlink="http://www.w3.org/1999/xlink" width="1080" zoomAndPan="magnify" viewBox="0 0 810 809.999993" height="1080" preserveAspectRatio="xMidYMid meet" version="1.0"><defs><clipPath id="id1"><path d="M 81 359.441406 L 729 359.441406 L 729 569 L 81 569 Z M 81 359.441406 " clip-rule="nonzero"/></clipPath><clipPath id="id2"><path d="M 181.164062 127.285156 L 627 127.285156 L 627 623.222656 L 181.164062 623.222656 Z M 181.164062 127.285156 " clip-rule="nonzero"/></clipPath></defs><path fill="#14ae5c" d="M 601.375 561.742188 C 602.367188 566.902344 607.324219 556.980469 613.769531 540.609375 C 613.273438 544.378906 611.984375 544.964844 611.488281 550.035156 C 611.191406 553.199219 610.300781 561.632812 614.464844 563.925781 C 617.441406 565.601562 621.605469 563.429688 623.191406 562.527344 C 626.167969 564.511719 634.496094 569.570312 646 569.183594 C 653.835938 568.886719 659.785156 566.207031 662.960938 564.421875 C 664.148438 565.503906 670.796875 571.257812 680.414062 570.460938 C 692.515625 569.570312 698.664062 559.152344 699.058594 558.269531 C 704.214844 560.542969 710.265625 559.847656 714.730469 556.375 C 721.472656 551.214844 720.878906 542.980469 720.878906 542.484375 C 719.6875 540.699219 716.019531 535.839844 709.273438 533.554688 C 699.457031 530.28125 691.027344 535.242188 689.738281 536.035156 C 687.355469 534.953125 682.597656 533.167969 676.449219 533.46875 C 670.398438 533.753906 665.835938 535.839844 663.554688 537.027344 C 661.570312 536.144531 657.804688 534.65625 652.945312 534.847656 C 649.570312 534.953125 646.792969 535.839844 645.007812 536.53125 C 647.390625 534.351562 650.761719 530.6875 652.84375 525.421875 C 657.207031 514.011719 650.859375 507.175781 653.933594 495.855469 C 656.710938 485.546875 663.257812 487.125 667.917969 476.421875 C 674.066406 462.234375 670.894531 439.910156 657.605469 433.351562 C 655.421875 432.273438 653.140625 431.667969 650.960938 431.476562 L 660.777344 398.539062 C 661.472656 394.660156 662.761719 384.847656 657.207031 375.421875 C 656.019531 373.441406 650.5625 364.203125 644.316406 364.808594 C 639.160156 365.304688 635.785156 372.25 632.414062 381.375 C 622.992188 406.566406 621.007812 427.3125 621.007812 427.3125 C 617.835938 460.4375 610.992188 458.15625 604.945312 496.460938 C 602.5625 511.640625 596.019531 534.351562 601.375 561.742188 Z M 208.746094 563.230469 C 207.753906 568.390625 202.796875 558.46875 196.347656 542.097656 C 196.84375 545.867188 198.132812 546.453125 198.628906 551.523438 C 198.925781 554.6875 199.820312 563.121094 195.65625 565.414062 C 192.679688 567.089844 188.515625 564.917969 186.925781 564.015625 C 183.953125 566 175.617188 571.058594 164.113281 570.671875 C 156.277344 570.375 150.328125 567.695312 147.15625 565.910156 C 145.964844 566.992188 139.320312 572.746094 129.699219 571.949219 C 117.601562 571.058594 111.453125 560.640625 111.054688 559.757812 C 105.898438 562.03125 99.851562 561.335938 95.386719 557.863281 C 88.644531 552.703125 89.234375 544.46875 89.234375 543.972656 C 90.429688 542.1875 94.097656 537.324219 100.84375 535.042969 C 110.660156 531.769531 119.089844 536.730469 120.378906 537.523438 C 122.757812 536.441406 127.519531 534.65625 133.664062 534.953125 C 139.71875 535.242188 144.277344 537.328125 146.558594 538.515625 C 148.542969 537.632812 152.3125 536.144531 157.171875 536.335938 C 160.542969 536.441406 163.320312 537.324219 165.105469 538.019531 C 162.726562 535.839844 159.355469 532.175781 157.269531 526.910156 C 152.910156 515.5 159.253906 508.664062 156.179688 497.34375 C 153.40625 487.035156 146.855469 488.613281 142.195312 477.910156 C 136.050781 463.722656 139.222656 441.398438 152.507812 434.839844 C 154.691406 433.761719 156.972656 433.15625 159.152344 432.964844 L 149.335938 400.027344 C 148.644531 396.148438 147.351562 386.335938 152.910156 376.910156 C 154.097656 374.925781 159.550781 365.691406 165.800781 366.296875 C 170.957031 366.792969 174.328125 373.738281 177.703125 382.863281 C 187.125 408.054688 189.109375 428.800781 189.109375 428.800781 C 192.28125 461.925781 199.125 459.644531 205.175781 497.949219 C 207.652344 513.128906 214.199219 535.945312 208.746094 563.230469 " fill-opacity="1" fill-rule="nonzero"/><g clip-path="url(#id1)"><path fill="#000000" d="M 721.671875 552.703125 C 720.28125 553.695312 718.796875 554.5 717.207031 554.996094 L 705.40625 541.492188 C 712.84375 540.410156 720.28125 539.417969 727.621094 538.515625 C 728.8125 543.277344 726.332031 549.230469 721.671875 552.703125 Z M 706 554.191406 C 705.902344 554.09375 705.703125 554.09375 705.605469 554.191406 C 705.503906 554.300781 705.308594 554.390625 705.308594 554.5 C 704.515625 556.375 703.421875 558.0625 702.132812 559.550781 C 701.140625 560.75 699.953125 561.742188 698.761719 562.527344 L 680.8125 545.261719 C 688.546875 543.972656 696.28125 542.890625 704.117188 541.691406 L 716.019531 555.292969 C 712.746094 555.988281 709.175781 555.679688 706 554.191406 Z M 684.183594 566.207031 C 676.945312 565.800781 671.6875 562.238281 669.207031 560.144531 C 669.109375 560.046875 669.011719 560.046875 668.8125 560.046875 C 668.710938 560.046875 668.613281 560.046875 668.515625 560.144531 C 667.523438 560.75 666.234375 561.535156 664.546875 562.238281 L 654.035156 549.925781 C 659.09375 549.042969 664.25 548.050781 669.308594 547.246094 C 672.582031 546.652344 675.953125 546.15625 679.226562 545.570312 L 697.570312 563.230469 C 692.316406 566.296875 686.265625 566.296875 684.183594 566.207031 Z M 650.367188 564.3125 C 646.300781 563.816406 642.53125 562.527344 638.859375 560.253906 C 637.570312 559.757812 633.503906 557.972656 632.019531 554.09375 C 638.960938 552.703125 645.902344 551.324219 652.84375 550.035156 L 663.457031 562.527344 C 660.085938 563.925781 655.523438 565.007812 650.367188 564.3125 Z M 622.398438 561.742188 L 634.398438 520.359375 L 661.375 508.554688 C 661.671875 512.136719 661.472656 515.898438 659.6875 520.359375 C 657.902344 525.035156 654.828125 529.289062 650.761719 533.058594 C 645.308594 533.960938 639.058594 536.144531 634.695312 541.492188 C 633.109375 543.386719 629.042969 548.347656 630.730469 553.894531 C 631.226562 555.582031 632.117188 556.871094 633.207031 557.972656 C 629.835938 561.445312 625.570312 562.527344 622.398438 561.742188 Z M 621.40625 561.335938 C 621.011719 561.136719 620.515625 560.949219 620.214844 560.640625 C 617.835938 558.855469 617.441406 555.492188 617.339844 554.390625 C 616.84375 550.332031 618.234375 547.148438 619.421875 544.667969 C 619.621094 544.171875 619.820312 543.675781 620.019531 543.277344 C 622 538.625 621.207031 535.242188 620.214844 531.074219 C 619.523438 528.097656 618.730469 524.824219 618.628906 520.074219 C 618.53125 517.296875 618.730469 515.3125 619.125 513.328125 L 631.71875 525.917969 Z M 617.042969 547.246094 L 611.984375 558.269531 C 610.992188 559.460938 609.308594 560.839844 608.316406 560.839844 C 612.085938 528.507812 617.835938 496.054688 625.375 464.308594 C 632.910156 432.855469 642.429688 401.515625 653.636719 371.148438 C 653.738281 370.851562 653.636719 370.550781 653.339844 370.464844 C 653.042969 370.355469 652.746094 370.464844 652.644531 370.761719 C 641.441406 401.109375 631.917969 432.558594 624.382812 464.109375 C 616.84375 495.46875 611.191406 527.601562 607.421875 559.757812 C 607.324219 559.261719 607.226562 558.46875 607.324219 557.277344 C 609.109375 511.433594 610.101562 488.414062 614.960938 470.257812 C 615.953125 466.5 616.644531 464.109375 617.539062 461.242188 C 618.628906 457.460938 619.917969 453.304688 622.199219 444.761719 C 623.6875 439.214844 624.976562 434.839844 625.96875 431.367188 C 628.050781 424.125 629.339844 419.761719 630.132812 414.207031 C 630.828125 408.847656 638.960938 367.488281 649.074219 361.625 C 650.265625 360.929688 651.457031 360.839844 652.644531 361.335938 C 664.148438 366 667.027344 382.367188 664.050781 391.980469 C 661.375 400.722656 656.515625 422.242188 655.71875 425.523438 C 646.199219 425.914062 636.382812 432.558594 632.414062 440.207031 C 630.628906 443.570312 630.53125 445.953125 630.234375 450.824219 C 630.035156 454.792969 629.738281 460.339844 628.347656 469.265625 C 627.457031 474.824219 626.664062 478.691406 625.671875 483.652344 C 623.09375 496.152344 621.011719 502.800781 619.71875 507.265625 C 618.132812 512.335938 617.339844 514.816406 617.539062 520.273438 C 617.738281 525.035156 618.53125 528.59375 619.226562 531.484375 C 620.214844 535.648438 620.910156 538.714844 619.027344 542.980469 C 618.828125 543.386719 618.628906 543.882812 618.429688 544.378906 C 617.933594 545.074219 617.441406 546.15625 617.042969 547.246094 Z M 662.367188 427.398438 C 675.058594 431.667969 680.117188 451.210938 676.050781 465.210938 C 674.363281 470.964844 671.6875 473.535156 668.8125 476.3125 C 667.421875 477.699219 666.035156 478.988281 664.746094 480.777344 L 645.207031 482.570312 L 657.503906 440.207031 C 657.605469 439.910156 657.40625 439.601562 657.109375 439.503906 C 656.8125 439.414062 656.515625 439.601562 656.414062 439.910156 L 651.851562 455.585938 L 634.894531 438.015625 C 640.746094 430.179688 652.84375 424.226562 662.367188 427.398438 Z M 626.066406 486.925781 C 626.265625 485.933594 626.464844 484.851562 626.761719 483.753906 C 627.753906 478.792969 628.546875 474.933594 629.441406 469.367188 C 630.828125 460.339844 631.125 454.792969 631.324219 450.824219 C 631.621094 446.160156 631.722656 443.769531 633.308594 440.703125 C 633.605469 440.097656 634 439.503906 634.398438 438.917969 L 651.65625 456.777344 L 644.117188 483.066406 L 639.257812 500.023438 Z M 638.761719 501.222656 L 632.019531 524.734375 L 619.324219 512.027344 C 619.621094 510.648438 620.117188 509.25 620.710938 507.464844 C 621.902344 503.59375 623.6875 498.039062 625.769531 488.214844 Z M 661.074219 488.910156 C 659.589844 494.773438 660.183594 499.4375 660.777344 503.902344 C 660.976562 505.082031 661.074219 506.183594 661.175781 507.265625 L 634.695312 518.871094 L 644.910156 483.652344 L 663.953125 481.878906 C 662.859375 483.753906 661.871094 486.042969 661.074219 488.910156 Z M 637.273438 551.910156 C 635.390625 552.316406 633.605469 552.605469 631.71875 553.011719 C 630.628906 548.238281 634.199219 543.773438 635.589844 542.097656 C 639.160156 537.820312 644.117188 535.648438 648.777344 534.546875 Z M 659.785156 533.359375 C 663.65625 533.359375 667.621094 533.753906 671.390625 534.746094 C 671.589844 534.746094 671.785156 534.746094 671.886719 534.65625 C 672.878906 533.664062 674.5625 532.367188 676.84375 531.273438 L 666.628906 546.363281 C 662.066406 547.148438 657.40625 547.941406 652.746094 548.84375 L 652.644531 548.84375 C 647.886719 549.726562 643.226562 550.621094 638.5625 551.523438 L 650.066406 534.160156 C 654.234375 533.464844 657.804688 533.464844 659.785156 533.359375 Z M 678.828125 530.6875 C 680.117188 530.28125 681.40625 529.996094 682.992188 529.785156 C 688.152344 529.390625 692.117188 531.273438 694.101562 532.476562 C 694.300781 532.5625 694.496094 532.5625 694.597656 532.476562 C 696.878906 531.375 699.257812 530.492188 701.636719 529.996094 L 693.902344 541.988281 C 685.671875 543.277344 677.441406 544.578125 669.207031 545.957031 C 668.910156 546.066406 668.613281 546.066406 668.316406 546.15625 Z M 703.125 529.785156 C 705.207031 529.390625 707.191406 529.289062 709.273438 529.390625 C 721.570312 529.996094 725.835938 534.050781 727.226562 537.523438 C 719.589844 538.515625 711.953125 539.507812 704.316406 540.609375 L 704.019531 540.609375 C 701.140625 540.996094 698.265625 541.402344 695.289062 541.898438 Z M 728.414062 537.433594 C 726.429688 531.769531 719.984375 528.703125 709.273438 528.207031 C 707.09375 528.097656 704.910156 528.296875 702.730469 528.703125 L 702.53125 528.703125 C 699.753906 529.199219 696.878906 530.082031 694.300781 531.375 C 692.214844 530.082031 688.050781 528.207031 682.796875 528.703125 C 681.109375 528.792969 679.621094 529.199219 678.332031 529.585938 L 678.234375 529.585938 C 675.058594 530.6875 672.777344 532.367188 671.390625 533.554688 C 667.621094 532.5625 663.65625 532.175781 659.785156 532.175781 C 658.199219 532.175781 655.621094 532.175781 652.644531 532.5625 C 656.316406 529.003906 658.992188 524.925781 660.679688 520.570312 C 662.5625 515.609375 662.664062 511.433594 662.367188 507.5625 C 662.265625 506.273438 662.066406 504.984375 661.871094 503.703125 C 661.273438 499.328125 660.679688 494.773438 662.066406 489.109375 C 662.859375 485.84375 664.050781 483.453125 665.441406 481.578125 C 666.730469 479.785156 668.117188 478.492188 669.503906 477.003906 C 672.382812 474.226562 675.257812 471.460938 677.042969 465.398438 C 680.710938 452.699219 676.945312 431.171875 662.5625 426.320312 C 660.679688 425.613281 658.597656 425.328125 656.613281 425.328125 C 657.503906 421.25 662.167969 400.613281 664.84375 392.089844 C 667.820312 382.257812 665.339844 365.195312 652.746094 360.046875 C 651.257812 359.441406 649.671875 359.550781 648.183594 360.433594 C 637.472656 366.582031 629.441406 408.164062 628.644531 413.917969 C 627.953125 419.375 626.664062 423.730469 624.582031 430.871094 C 623.589844 434.34375 622.300781 438.808594 620.8125 444.265625 C 618.53125 452.699219 617.242188 456.964844 616.152344 460.746094 C 615.355469 463.613281 614.5625 466.09375 613.570312 469.761719 C 608.613281 487.917969 607.722656 511.035156 605.9375 556.980469 C 605.835938 558.765625 605.9375 560.839844 607.226562 561.535156 L 607.324219 561.535156 C 607.621094 561.632812 607.820312 561.742188 608.117188 561.742188 C 610 561.742188 612.28125 559.261719 612.777344 558.765625 L 612.878906 558.65625 L 615.953125 551.910156 C 615.953125 552.703125 615.953125 553.507812 616.050781 554.390625 C 616.25 555.582031 616.644531 559.351562 619.421875 561.445312 C 620.019531 561.832031 620.613281 562.128906 621.40625 562.4375 C 621.40625 562.4375 621.503906 562.527344 621.605469 562.527344 L 621.703125 562.527344 C 622.597656 562.824219 623.488281 562.933594 624.582031 562.933594 C 627.65625 562.933594 631.226562 561.535156 634.101562 558.558594 C 635.886719 560.046875 637.769531 560.839844 638.464844 561.136719 C 642.132812 563.429688 646.101562 564.917969 650.367188 565.304688 C 658.796875 566.296875 665.441406 563.121094 668.910156 561.039062 C 671.589844 563.230469 676.945312 566.703125 684.183594 567.089844 L 685.472656 567.089844 C 688.449219 567.089844 694 566.59375 698.960938 563.519531 C 699.058594 563.519531 699.160156 563.429688 699.160156 563.429688 C 700.546875 562.527344 701.835938 561.445312 703.027344 560.144531 C 704.316406 558.765625 705.308594 557.070312 706.101562 555.292969 C 709.671875 556.78125 713.636719 556.980469 717.207031 555.988281 C 718.992188 555.492188 720.777344 554.589844 722.367188 553.507812 C 727.621094 549.628906 730.300781 542.683594 728.414062 537.433594 Z M 202.894531 561.246094 C 199.125 529.199219 193.472656 497.046875 185.9375 465.597656 C 178.394531 434.046875 168.871094 402.707031 157.667969 372.25 C 157.570312 371.953125 157.269531 371.84375 156.972656 371.953125 C 156.675781 372.039062 156.578125 372.339844 156.675781 372.636719 C 167.882812 403.003906 177.402344 434.34375 184.945312 465.796875 C 192.480469 497.453125 198.234375 529.996094 202 562.328125 C 201.011719 562.328125 199.324219 560.949219 198.332031 559.757812 L 193.273438 548.734375 C 192.878906 547.554688 192.382812 546.5625 191.984375 545.660156 C 191.785156 545.164062 191.589844 544.765625 191.390625 544.269531 C 189.503906 539.914062 190.300781 536.9375 191.191406 532.761719 C 191.886719 529.886719 192.679688 526.414062 192.878906 521.5625 C 193.074219 516.105469 192.28125 513.625 190.695312 508.554688 C 189.308594 504.199219 187.226562 497.542969 184.746094 484.941406 C 183.753906 479.980469 182.960938 476.121094 182.066406 470.558594 C 180.679688 461.628906 180.382812 456.082031 180.183594 452.113281 C 179.882812 447.242188 179.78125 444.871094 177.996094 441.488281 C 173.933594 433.757812 164.210938 427.203125 154.691406 426.816406 C 153.996094 423.542969 149.140625 402.011719 146.363281 393.28125 C 143.386719 383.65625 146.363281 367.378906 157.765625 362.617188 C 158.957031 362.121094 160.144531 362.21875 161.339844 362.914062 C 171.453125 368.777344 179.585938 410.148438 180.28125 415.496094 C 181.074219 421.0625 182.265625 425.417969 184.449219 432.660156 C 185.441406 436.132812 186.730469 440.496094 188.214844 446.050781 C 190.496094 454.59375 191.785156 458.761719 192.878906 462.53125 C 193.671875 465.398438 194.464844 467.777344 195.457031 471.550781 C 200.316406 489.605469 201.308594 512.632812 203.09375 558.558594 C 203.09375 559.847656 202.992188 560.640625 202.894531 561.246094 Z M 192.878906 555.988281 C 192.777344 557.070312 192.28125 560.453125 190 562.238281 C 189.605469 562.527344 189.207031 562.734375 188.8125 562.933594 L 178.59375 527.515625 L 191.191406 514.90625 C 191.589844 516.886719 191.785156 518.871094 191.6875 521.652344 C 191.488281 526.3125 190.796875 529.695312 190.101562 532.671875 C 189.109375 536.9375 188.316406 540.203125 190.300781 544.875 C 190.496094 545.261719 190.695312 545.757812 190.894531 546.253906 C 191.984375 548.734375 193.472656 551.910156 192.878906 555.988281 Z M 177.003906 559.460938 C 178.097656 558.359375 178.988281 557.070312 179.484375 555.382812 C 181.074219 549.835938 177.003906 544.875 175.515625 542.980469 C 171.15625 537.722656 164.90625 535.539062 159.453125 534.546875 C 155.285156 530.777344 152.3125 526.523438 150.527344 521.847656 C 148.839844 517.382812 148.542969 513.625 148.839844 510.042969 L 175.816406 521.847656 L 187.820312 563.230469 C 184.546875 564.015625 180.28125 563.023438 177.003906 559.460938 Z M 171.15625 561.832031 C 167.683594 564.015625 163.816406 565.414062 159.75 565.910156 C 154.59375 566.492188 150.03125 565.503906 146.558594 564.113281 L 157.171875 551.613281 C 164.113281 552.902344 171.15625 554.191406 177.996094 555.679688 C 176.609375 559.460938 172.542969 561.335938 171.15625 561.832031 Z M 141.601562 561.632812 C 141.402344 561.535156 141.105469 561.535156 140.90625 561.632812 C 138.425781 563.726562 133.171875 567.289062 125.929688 567.695312 C 123.851562 567.785156 117.703125 567.785156 112.34375 564.609375 L 130.691406 546.949219 C 134.066406 547.445312 137.335938 548.050781 140.609375 548.636719 C 145.667969 549.539062 150.824219 550.421875 155.882812 551.324219 L 145.566406 563.726562 C 143.984375 563.023438 142.589844 562.238281 141.601562 561.632812 Z M 108.078125 561.136719 C 106.792969 559.648438 105.699219 557.972656 104.90625 556.078125 C 104.808594 555.988281 104.707031 555.789062 104.609375 555.789062 L 104.410156 555.789062 C 104.3125 555.789062 104.210938 555.789062 104.210938 555.878906 C 101.039062 557.367188 97.46875 557.664062 94.195312 556.980469 L 106.097656 543.386719 C 113.832031 544.46875 121.667969 545.660156 129.402344 546.949219 L 111.453125 564.222656 C 110.265625 563.230469 109.070312 562.238281 108.078125 561.136719 Z M 93.003906 556.484375 C 91.421875 555.988281 89.933594 555.183594 88.542969 554.191406 C 83.78125 550.71875 81.402344 544.765625 82.59375 540.003906 C 90.03125 540.90625 97.371094 541.898438 104.808594 542.980469 Z M 100.84375 530.878906 C 102.824219 530.777344 104.90625 530.988281 106.992188 531.273438 L 114.726562 543.386719 C 111.847656 542.980469 108.972656 542.484375 106 542.097656 L 105.699219 542.097656 C 98.066406 540.996094 90.429688 540.003906 82.789062 539.011719 C 84.277344 535.539062 88.542969 531.484375 100.84375 530.878906 Z M 115.617188 534.050781 C 115.816406 534.160156 116.011719 534.160156 116.113281 534.050781 C 117.996094 532.863281 121.964844 530.988281 127.21875 531.375 C 128.707031 531.484375 130.097656 531.769531 131.386719 532.265625 L 141.898438 547.742188 C 141.601562 547.644531 141.300781 547.644531 141.007812 547.554688 C 132.871094 546.15625 124.542969 544.875 116.3125 543.585938 L 108.574219 531.570312 C 110.957031 532.175781 113.335938 532.972656 115.617188 534.050781 Z M 161.433594 536.035156 C 166.097656 537.136719 171.054688 539.308594 174.625 543.585938 C 176.011719 545.261719 179.585938 549.726562 178.492188 554.5 C 176.609375 554.09375 174.824219 553.804688 172.941406 553.398438 Z M 138.128906 536.234375 C 138.230469 536.335938 138.425781 536.441406 138.625 536.335938 C 142.394531 535.34375 146.363281 534.847656 150.226562 534.953125 C 152.3125 534.953125 155.882812 535.042969 159.851562 535.738281 L 171.351562 553.101562 C 166.691406 552.207031 161.929688 551.324219 157.269531 550.421875 L 157.171875 550.421875 C 152.507812 549.539062 147.949219 548.734375 143.386719 547.941406 L 133.171875 532.863281 C 135.453125 533.960938 137.136719 535.34375 138.128906 536.234375 Z M 146.164062 483.453125 L 165.203125 485.242188 L 175.320312 520.460938 L 148.839844 508.863281 C 148.941406 507.761719 149.140625 506.570312 149.238281 505.480469 C 149.832031 501.015625 150.429688 496.351562 148.941406 490.507812 C 148.34375 487.53125 147.351562 485.347656 146.164062 483.453125 Z M 184.449219 489.8125 C 186.628906 499.527344 188.316406 505.191406 189.503906 509.050781 C 190.101562 510.847656 190.496094 512.335938 190.894531 513.625 L 178.199219 526.3125 L 171.351562 502.710938 Z M 171.054688 501.511719 L 158.5625 458.265625 L 175.816406 440.40625 C 176.214844 440.992188 176.507812 441.585938 176.90625 442.191406 C 178.492188 445.257812 178.695312 447.648438 178.890625 452.3125 C 179.089844 456.371094 179.386719 461.828125 180.777344 470.855469 C 181.671875 476.421875 182.464844 480.390625 183.457031 485.242188 C 183.65625 486.339844 183.953125 487.421875 184.152344 488.414062 Z M 141.300781 477.800781 C 138.425781 475.023438 135.75 472.453125 134.066406 466.699219 C 129.996094 452.808594 135.058594 433.261719 147.75 428.886719 C 149.730469 428.195312 151.816406 427.894531 153.902344 428.003906 L 154.195312 428.003906 C 162.230469 428.195312 170.558594 433.15625 175.121094 439.414062 L 158.160156 456.964844 L 153.601562 441.289062 C 153.5 440.992188 153.203125 440.792969 152.910156 440.902344 C 152.609375 440.992188 152.414062 441.289062 152.507812 441.585938 L 164.808594 483.949219 L 145.269531 482.164062 C 144.078125 480.585938 142.691406 479.1875 141.300781 477.800781 Z M 196.449219 471.460938 C 195.457031 467.691406 194.664062 465.210938 193.871094 462.421875 C 192.777344 458.652344 191.488281 454.484375 189.207031 445.953125 C 187.71875 440.40625 186.429688 436.03125 185.441406 432.558594 C 183.355469 425.417969 182.066406 421.0625 181.375 415.605469 C 180.582031 409.949219 172.542969 368.371094 161.835938 362.121094 C 160.347656 361.226562 158.757812 361.128906 157.269531 361.722656 C 144.675781 366.882812 142.195312 383.945312 145.171875 393.777344 C 147.75 402.300781 152.507812 422.9375 153.40625 427.011719 C 151.421875 427.011719 149.335938 427.3125 147.453125 428.003906 C 133.074219 432.855469 129.304688 454.386719 132.972656 467.085938 C 134.757812 473.144531 137.632812 475.925781 140.511719 478.691406 C 142 480.089844 143.386719 481.46875 144.574219 483.257812 C 145.964844 485.140625 147.054688 487.53125 147.949219 490.804688 C 149.335938 496.460938 148.742188 501.015625 148.148438 505.390625 C 147.949219 506.679688 147.847656 507.960938 147.652344 509.25 C 147.253906 513.128906 147.351562 517.296875 149.335938 522.257812 C 151.023438 526.613281 153.699219 530.6875 157.371094 534.25 C 154.394531 533.855469 151.917969 533.855469 150.226562 533.855469 C 146.363281 533.855469 142.394531 534.25 138.625 535.242188 C 137.238281 534.050781 134.957031 532.367188 131.785156 531.273438 L 131.683594 531.273438 C 130.296875 530.777344 128.90625 530.492188 127.21875 530.382812 C 121.964844 529.996094 117.796875 531.769531 115.71875 533.058594 C 113.039062 531.769531 110.265625 530.878906 107.386719 530.382812 L 107.289062 530.382812 C 105.105469 529.996094 102.921875 529.785156 100.742188 529.886719 C 90.03125 530.382812 83.585938 533.464844 81.601562 539.121094 C 79.71875 544.378906 82.394531 551.324219 87.75 555.292969 C 89.335938 556.484375 91.023438 557.277344 92.910156 557.773438 C 96.476562 558.765625 100.441406 558.558594 104.015625 557.070312 C 104.808594 558.855469 105.898438 560.453125 107.085938 561.941406 C 108.28125 563.320312 109.566406 564.3125 110.957031 565.214844 C 111.054688 565.304688 111.054688 565.304688 111.15625 565.304688 C 116.113281 568.390625 121.667969 568.886719 124.644531 568.886719 L 125.929688 568.886719 C 133.171875 568.476562 138.527344 565.007812 141.207031 562.824219 C 142.292969 563.519531 143.683594 564.222656 145.371094 564.917969 C 149.039062 566.40625 153.996094 567.695312 159.75 566.988281 C 163.914062 566.492188 167.980469 565.105469 171.453125 562.824219 C 172.246094 562.527344 174.128906 561.742188 175.917969 560.144531 C 178.789062 563.230469 182.265625 564.609375 185.339844 564.609375 C 186.429688 564.609375 187.421875 564.421875 188.316406 564.113281 C 189.109375 563.816406 189.804688 563.519531 190.398438 563.023438 C 193.074219 561.039062 193.570312 557.277344 193.769531 555.988281 C 193.871094 555.085938 193.871094 554.300781 193.871094 553.507812 L 196.945312 560.253906 L 197.042969 560.34375 C 197.539062 560.949219 199.820312 563.320312 201.703125 563.320312 C 202 563.320312 202.300781 563.230469 202.496094 563.121094 L 202.597656 563.121094 C 203.886719 562.4375 203.984375 560.34375 203.886719 558.558594 C 202.300781 512.722656 201.40625 489.703125 196.449219 471.460938 " fill-opacity="1" fill-rule="nonzero"/></g><path fill="#ffffff" d="M 235.71875 289.992188 L 187.421875 289.992188 L 187.421875 565.007812 L 211.421875 565.007812 L 185.835938 588.617188 L 191.984375 595.859375 L 219.355469 575.722656 C 221.339844 572.160156 223.324219 568.578125 225.207031 565.007812 L 226.300781 565.007812 L 225.207031 607.964844 L 235.621094 607.964844 L 245.539062 565.007812 L 558.429688 565.007812 L 570.332031 616.308594 L 580.746094 616.308594 L 579.554688 571.167969 C 581.933594 575.421875 584.316406 579.796875 586.597656 584.066406 L 613.96875 604.195312 L 620.117188 596.960938 L 592.347656 571.257812 C 592.449219 569.183594 592.546875 567.199219 592.644531 565.105469 L 615.554688 565.105469 L 615.554688 289.992188 L 235.71875 289.992188 " fill-opacity="1" fill-rule="nonzero"/><path fill="#14ae5c" d="M 292.84375 577.617188 L 292.84375 552.109375 L 450.429688 552.109375 L 450.429688 594.867188 L 450.53125 594.867188 L 423.457031 594.867188 L 423.457031 620.367188 L 292.546875 620.367188 M 292.644531 620.367188 L 265.769531 620.367188 L 265.769531 577.617188 L 292.84375 577.617188 " fill-opacity="1" fill-rule="nonzero"/><path fill="#14ae5c" d="M 220.546875 467.085938 L 344.214844 467.085938 L 344.214844 476.3125 L 220.546875 476.3125 Z M 325.175781 367.785156 L 273.011719 367.785156 L 273.011719 360.839844 L 325.175781 360.839844 Z M 348.28125 356.761719 L 273.011719 356.761719 L 273.011719 349.816406 L 348.28125 349.816406 Z M 288.28125 527.105469 C 288.28125 531.273438 284.8125 534.746094 280.644531 534.746094 L 244.449219 534.746094 C 244.449219 533.359375 244.347656 531.980469 244.050781 530.578125 C 243.554688 528.792969 243.058594 527.105469 242.5625 525.421875 C 242.167969 523.546875 241.96875 521.652344 241.96875 519.667969 L 241.96875 519.46875 L 280.746094 519.46875 C 284.8125 519.46875 288.28125 522.941406 288.28125 527.105469 Z M 348.878906 534.847656 L 303.257812 534.847656 C 299.488281 534.847656 296.515625 531.769531 296.515625 528.097656 L 296.515625 526.3125 C 296.515625 522.554688 299.589844 519.578125 303.257812 519.578125 L 348.878906 519.578125 C 352.644531 519.578125 355.621094 522.644531 355.621094 526.3125 L 355.621094 528.097656 C 355.71875 531.769531 352.644531 534.847656 348.878906 534.847656 Z M 220.546875 434.839844 L 356.414062 434.839844 L 356.414062 457.074219 L 220.546875 457.074219 Z M 491.390625 482.761719 L 436.945312 443.273438 L 388.945312 506.570312 L 370.796875 386.03125 L 598 352.199219 L 615.457031 446.160156 L 552.183594 400.910156 Z M 605.636719 344.0625 L 364.449219 379.390625 L 384.976562 519.777344 L 626.167969 484.445312 L 605.636719 344.0625 " fill-opacity="1" fill-rule="nonzero"/><path fill="#14ae5c" d="M 596.515625 315.09375 L 579.355469 315.09375 C 578.464844 315.09375 577.769531 314.410156 577.769531 313.507812 C 577.769531 312.613281 578.464844 311.929688 579.355469 311.929688 L 596.515625 311.929688 C 597.40625 311.929688 598.101562 312.613281 598.101562 313.507812 C 598.101562 314.410156 597.40625 315.09375 596.515625 315.09375 Z M 596.515625 320.660156 L 579.355469 320.660156 C 578.464844 320.660156 577.769531 319.953125 577.769531 319.0625 C 577.769531 318.179688 578.464844 317.472656 579.355469 317.472656 L 596.515625 317.472656 C 597.40625 317.472656 598.101562 318.179688 598.101562 319.0625 C 598.101562 319.953125 597.40625 320.660156 596.515625 320.660156 Z M 596.515625 326.117188 L 579.355469 326.117188 C 578.464844 326.117188 577.769531 325.410156 577.769531 324.519531 C 577.769531 323.636719 578.464844 322.929688 579.355469 322.929688 L 596.515625 322.929688 C 597.40625 322.929688 598.101562 323.636719 598.101562 324.519531 C 598.101562 325.410156 597.40625 326.117188 596.515625 326.117188 Z M 567.753906 320.75 C 567.753906 324.023438 565.074219 326.703125 561.804688 326.703125 L 244.746094 326.703125 C 241.472656 326.703125 238.796875 324.023438 238.796875 320.75 L 238.796875 315.203125 C 238.796875 311.929688 241.472656 309.25 244.746094 309.25 L 561.902344 309.25 C 565.175781 309.25 567.851562 311.929688 567.851562 315.203125 Z M 187.421875 304.875 L 187.421875 332.265625 L 615.554688 332.265625 L 615.554688 304.875 L 187.421875 304.875 " fill-opacity="1" fill-rule="nonzero"/><path fill="#14ae5c" d="M 251.488281 489.019531 L 285.40625 494.070312 L 285.40625 489.902344 L 260.8125 481.082031 L 240.582031 462.035156 L 213.902344 457.859375 C 211.523438 457.859375 204.183594 457.460938 197.339844 452.003906 C 188.515625 444.871094 187.621094 434.644531 187.523438 432.964844 L 184.25 432.964844 C 183.753906 436.625 183.257812 444.265625 186.628906 452.898438 C 189.308594 459.84375 193.375 464.40625 195.953125 466.886719 Z M 554.664062 497.34375 L 520.746094 502.414062 L 520.746094 498.246094 L 545.339844 489.40625 L 565.570312 470.359375 L 592.25 466.203125 C 594.628906 466.203125 601.96875 465.796875 608.8125 460.339844 C 617.636719 453.195312 618.53125 442.976562 618.628906 441.289062 L 622.101562 441.289062 C 622.597656 444.960938 623.09375 452.609375 619.71875 461.242188 C 617.042969 468.1875 612.976562 472.738281 610.398438 475.21875 L 554.664062 497.34375 " fill-opacity="1" fill-rule="nonzero"/><path fill="#ffffff" d="M 284.710938 493.78125 C 286.398438 494.167969 288.878906 494.664062 291.851562 494.863281 C 295.820312 495.160156 300.382812 494.972656 300.480469 494.476562 C 300.480469 494.167969 298.695312 493.574219 289.96875 492.492188 C 291.851562 491.191406 292.746094 490.199219 292.546875 489.703125 C 292.25 488.910156 289.671875 488.910156 284.710938 489.703125 Z M 186.925781 432.660156 C 188.117188 426.816406 188.515625 423.730469 187.820312 423.542969 C 187.523438 423.433594 187.027344 423.929688 186.332031 425.117188 C 186.332031 420.367188 186.035156 419.265625 185.636719 419.164062 C 185.042969 419.078125 184.152344 422.054688 183.753906 424.035156 C 182.960938 427.597656 183.160156 430.574219 183.457031 432.660156 Z M 231.554688 441.398438 C 231.554688 444.265625 235.523438 446.160156 239.390625 448.234375 C 241.074219 443.472656 238.300781 435.039062 238.300781 435.039062 C 235.027344 436.4375 231.554688 438.71875 231.554688 441.398438 Z M 521.441406 497.949219 C 516.582031 497.144531 513.902344 497.144531 513.605469 497.949219 C 513.40625 498.535156 514.300781 499.4375 516.183594 500.726562 C 507.554688 501.808594 505.671875 502.414062 505.671875 502.710938 C 505.671875 503.207031 510.332031 503.40625 514.300781 503.097656 C 517.273438 502.910156 519.753906 502.414062 521.441406 502.007812 Z M 622.695312 440.992188 C 622.992188 438.917969 623.09375 435.941406 622.398438 432.359375 C 622 430.375 621.109375 427.398438 620.515625 427.507812 C 620.214844 427.507812 619.820312 428.589844 619.820312 433.460938 C 619.125 432.273438 618.628906 431.777344 618.332031 431.863281 C 617.738281 432.0625 618.035156 435.140625 619.226562 440.992188 Z M 333.207031 231.371094 C 335.488281 227.984375 336.480469 226.105469 336.085938 225.808594 C 335.886719 225.609375 335.289062 225.910156 334.398438 226.605469 C 335.191406 222.832031 335.191406 220.847656 334.695312 220.648438 C 333.902344 220.351562 332.019531 223.128906 329.042969 228.890625 Z M 349.769531 213.40625 C 356.214844 211.320312 359.289062 209.636719 359.191406 208.546875 C 359.09375 207.847656 357.804688 207.453125 355.226562 207.15625 C 360.480469 204.378906 361.472656 203.386719 361.375 202.988281 C 361.074219 202.394531 356.8125 203.089844 353.242188 205.074219 C 350.5625 206.5625 348.679688 208.445312 347.589844 209.832031 Z M 343.820312 280.480469 L 363.058594 289.496094 C 365.441406 288.117188 367.71875 286.71875 370.101562 285.230469 C 367.523438 282.660156 363.65625 278.992188 358.597656 274.914062 C 350.664062 268.664062 346.695312 265.488281 341.636719 264.398438 C 331.125 262.214844 321.207031 269.851562 317.441406 273.128906 L 283.421875 292.273438 L 313.671875 322.644531 L 344.910156 345.550781 L 349.769531 339.707031 L 330.429688 314.300781 L 313.074219 286.519531 L 316.84375 292.582031 C 325.671875 288.613281 334.992188 284.445312 343.820312 280.480469 Z M 567.851562 443.273438 C 567.851562 443.273438 565.074219 451.816406 566.761719 456.46875 C 570.628906 454.386719 574.597656 452.5 574.597656 449.632812 C 574.597656 447.042969 571.125 444.761719 567.851562 443.273438 Z M 282.132812 203.480469 C 280.84375 205.464844 279.355469 206.753906 278.265625 207.648438 C 276.382812 207.347656 274.597656 208.339844 274 209.929688 C 273.308594 211.8125 274.300781 214.195312 276.480469 214.992188 C 276.480469 215.488281 276.679688 217.371094 275.289062 219.054688 C 274.300781 220.246094 273.109375 220.742188 272.613281 220.941406 C 273.109375 222.726562 273.703125 224.511719 274.199219 226.300781 C 275.191406 226.601562 277.375 227.1875 280.148438 226.601562 C 282.332031 226.101562 283.917969 225.109375 284.710938 224.414062 L 284.710938 218.261719 C 285.703125 217.667969 287.09375 216.574219 288.183594 214.789062 C 290.761719 210.625 289.570312 205.761719 288.679688 202.191406 C 288.183594 200.007812 287.09375 196.734375 284.613281 193.0625 C 284.8125 194.652344 284.910156 199.117188 282.132812 203.480469 Z M 579.554688 565.105469 L 580.449219 565.105469 L 579.65625 571.257812 Z M 579.554688 565.105469 " fill-opacity="1" fill-rule="nonzero"/><g clip-path="url(#id2)"><path fill="#000000" d="M 343.621094 348.4375 L 269.539062 348.4375 L 269.539062 354.28125 L 343.621094 354.28125 Z M 344.710938 355.382812 L 268.347656 355.382812 L 268.347656 347.238281 L 344.710938 347.238281 Z M 625.570312 483.949219 L 621.804688 458.453125 C 621.503906 459.445312 621.207031 460.4375 620.8125 461.429688 C 618.730469 466.699219 615.457031 471.660156 611.390625 475.625 C 611.984375 476.121094 612.480469 476.707031 612.976562 477.414062 C 614.5625 479.59375 615.554688 482.460938 615.753906 485.4375 Z M 614.960938 490.695312 C 611.289062 500.617188 595.71875 501.421875 595.226562 509.25 C 594.730469 515.898438 605.140625 518.476562 604.347656 524.824219 C 603.953125 527.800781 601.273438 530.6875 597.804688 532.761719 C 597.804688 532.863281 597.902344 532.863281 597.902344 532.972656 C 598 534.546875 598 536.144531 597.703125 537.632812 C 597.207031 540.996094 596.019531 544.269531 594.035156 547.246094 L 593.242188 564.511719 L 614.960938 564.511719 Z M 592.050781 571.664062 C 591.953125 571.554688 591.851562 571.367188 591.851562 571.257812 L 593.042969 547.148438 C 593.042969 547.058594 593.042969 546.949219 593.140625 546.859375 C 595.027344 543.972656 596.316406 540.90625 596.710938 537.632812 C 596.910156 536.234375 596.910156 534.847656 596.910156 533.46875 C 593.140625 535.449219 588.582031 536.335938 585.011719 535.34375 C 585.503906 536.832031 585.902344 538.921875 585.40625 541.492188 C 584.910156 543.972656 583.71875 545.757812 582.730469 546.859375 L 580.050781 564.3125 L 580.25 571.167969 L 587.191406 583.855469 L 614.066406 603.609375 L 619.523438 597.160156 Z M 570.925781 615.8125 L 580.25 615.8125 L 578.960938 564.113281 L 581.636719 546.453125 C 581.636719 546.363281 581.738281 546.253906 581.738281 546.15625 C 582.628906 545.164062 583.71875 543.476562 584.214844 541.195312 C 584.710938 538.714844 584.214844 536.640625 583.71875 535.34375 C 583.621094 535.242188 583.71875 535.042969 583.71875 534.953125 C 583.523438 534.847656 583.324219 534.746094 583.125 534.65625 C 578.066406 531.980469 580.347656 526.117188 574.796875 518.476562 C 572.710938 515.609375 570.332031 513.625 567.953125 512.136719 L 558.53125 562.625 Z M 522.035156 501.71875 L 555.355469 496.757812 C 555.554688 496.757812 555.753906 496.757812 555.851562 496.957031 C 561.804688 491.191406 574.398438 485.636719 573.605469 478.296875 C 573.207031 474.824219 570.035156 472.652344 566.859375 470.558594 C 566.859375 470.558594 566.859375 470.667969 566.761719 470.667969 L 546.53125 489.703125 C 546.429688 489.8125 546.429688 489.8125 546.332031 489.8125 L 522.132812 498.535156 L 522.132812 501.71875 Z M 520.84375 501.917969 L 520.84375 498.632812 C 514.894531 497.640625 514.199219 498.335938 514.101562 498.335938 C 514.101562 498.335938 514.199219 498.941406 516.480469 500.519531 C 516.679688 500.617188 516.777344 500.925781 516.679688 501.113281 C 516.582031 501.3125 516.480469 501.511719 516.183594 501.511719 C 511.523438 502.105469 508.945312 502.601562 507.554688 502.800781 C 509.140625 502.910156 511.621094 502.910156 514.199219 502.800781 C 516.480469 502.800781 518.761719 502.414062 520.84375 501.917969 Z M 568.25 444.066406 C 567.65625 445.953125 566.167969 451.90625 567.160156 455.675781 L 567.457031 455.585938 C 570.925781 453.800781 574.199219 452.003906 574.199219 449.722656 C 574.101562 447.9375 572.019531 445.953125 568.25 444.066406 Z M 385.472656 519.082031 L 505.570312 501.511719 C 505.871094 501.511719 506.167969 501.71875 506.167969 502.007812 L 506.167969 502.214844 C 507.257812 501.808594 509.636719 501.421875 514.796875 500.726562 C 513.40625 499.625 512.910156 498.832031 513.207031 498.039062 C 513.503906 497.144531 514.796875 496.550781 521.441406 497.640625 L 545.738281 488.820312 L 565.769531 469.972656 C 562.597656 467.988281 559.820312 466.003906 560.019531 463.226562 C 560.214844 460.546875 563.191406 458.5625 566.464844 456.867188 C 566.367188 456.777344 566.265625 456.777344 566.265625 456.578125 C 564.582031 451.707031 567.160156 443.472656 567.355469 442.976562 C 567.160156 442.886719 566.960938 442.777344 566.761719 442.6875 C 567.257812 440.40625 567.851562 438.015625 568.347656 435.742188 C 582.132812 434.253906 587.984375 437.320312 590.664062 440.792969 C 596.019531 447.847656 589.570312 458.066406 592.644531 465.507812 L 592.84375 465.507812 C 596.316406 465.507812 602.960938 464.714844 609.011719 459.753906 C 617.140625 453.195312 618.429688 443.96875 618.628906 441.089844 C 617.042969 433.550781 617.242188 431.972656 617.835938 431.476562 L 610 377.992188 L 584.414062 347.535156 L 380.117188 377.40625 L 370.597656 413.3125 C 370.496094 413.621094 370.300781 413.710938 370.101562 413.710938 L 370 413.710938 Z M 369.804688 412.320312 L 378.925781 377.792969 L 365.042969 379.777344 Z M 380.515625 376.503906 L 583.71875 346.742188 L 582.628906 345.460938 L 505.769531 290.597656 L 480.480469 290.597656 L 381.109375 374.234375 Z M 481.769531 289.496094 L 504.085938 289.496094 L 494.859375 282.960938 C 493.472656 282.851562 492.28125 282.355469 491.09375 281.667969 Z M 605.242188 344.757812 L 585.902344 347.644531 L 609.902344 376.21875 Z M 507.65625 290.597656 L 583.324219 344.558594 L 583.421875 344.667969 L 585.011719 346.542969 L 605.636719 343.566406 C 605.738281 343.566406 605.933594 343.566406 606.035156 343.675781 C 606.132812 343.765625 606.234375 343.863281 606.234375 344.0625 L 611.191406 377.792969 L 614.066406 381.265625 C 614.265625 381.464844 614.265625 381.871094 613.96875 382.0625 C 613.769531 382.257812 613.375 382.257812 613.175781 381.960938 L 611.488281 379.886719 L 615.058594 404.195312 L 615.058594 290.597656 Z M 618.53125 432.855469 C 618.53125 433.550781 618.628906 435.535156 619.621094 440.59375 L 622.101562 440.59375 C 622.398438 437.925781 622.300781 435.246094 621.703125 432.660156 C 621.308594 430.980469 620.8125 429.492188 620.515625 428.691406 C 620.414062 429.296875 620.214844 430.675781 620.316406 433.652344 C 620.316406 433.957031 620.117188 434.148438 619.917969 434.148438 C 619.71875 434.253906 619.421875 434.148438 619.324219 433.847656 C 619.027344 433.460938 618.730469 433.054688 618.53125 432.855469 Z M 610.597656 474.824219 C 614.5625 470.964844 617.738281 466.203125 619.71875 461.042969 C 620.414062 459.148438 621.011719 457.363281 621.40625 455.585938 L 621.40625 455.476562 C 622.695312 450.128906 622.597656 445.257812 622.199219 441.785156 L 619.820312 441.785156 C 619.523438 445.167969 617.933594 454.296875 609.804688 460.746094 C 603.65625 465.707031 596.910156 466.589844 593.242188 466.699219 C 593.539062 467.28125 593.933594 467.878906 594.429688 468.375 C 598.894531 473.335938 605.539062 471.25 610.597656 474.824219 C 610.496094 474.824219 610.597656 474.824219 610.597656 474.824219 Z M 445.472656 558.0625 L 288.976562 558.0625 L 288.976562 573.738281 L 419.984375 573.738281 C 420.28125 573.738281 420.582031 574.035156 420.582031 574.339844 L 420.582031 599.730469 L 445.472656 599.730469 Z M 419.488281 574.925781 L 262.992188 574.925781 L 262.992188 616.597656 L 419.488281 616.597656 Z M 247.621094 554.300781 L 238.199219 503.792969 C 235.820312 505.28125 233.441406 507.265625 231.355469 510.152344 C 225.804688 517.792969 228.085938 523.546875 223.027344 526.3125 C 222.828125 526.414062 222.628906 526.523438 222.429688 526.613281 C 222.429688 526.71875 222.53125 526.910156 222.429688 527.019531 C 221.933594 528.296875 221.441406 530.382812 221.933594 532.863281 C 222.429688 535.242188 223.523438 536.832031 224.414062 537.820312 C 224.515625 537.929688 224.515625 538.019531 224.515625 538.128906 L 227.191406 555.789062 L 226.992188 563.023438 L 226.992188 563.121094 L 225.902344 607.46875 L 235.226562 607.46875 Z M 225.902344 562.734375 L 226.101562 555.789062 L 223.421875 538.425781 C 222.429688 537.324219 221.242188 535.539062 220.746094 533.058594 C 220.25 530.578125 220.644531 528.398438 221.140625 526.910156 C 217.570312 527.902344 213.011719 527.019531 209.242188 525.035156 C 209.140625 526.414062 209.242188 527.800781 209.441406 529.199219 C 209.933594 532.476562 211.125 535.539062 213.011719 538.425781 C 213.109375 538.515625 213.109375 538.625 213.109375 538.714844 L 214.300781 562.824219 C 214.300781 563.023438 214.199219 563.121094 214.101562 563.230469 L 186.53125 588.617188 L 191.984375 595.066406 L 218.859375 575.332031 Z M 211.226562 564.511719 L 213.207031 562.625 L 212.117188 538.921875 C 210.132812 535.945312 208.945312 532.761719 208.449219 529.289062 C 208.25 527.800781 208.152344 526.222656 208.25 524.628906 C 208.25 524.539062 208.25 524.429688 208.347656 524.429688 C 204.878906 522.34375 202.199219 519.46875 201.804688 516.492188 C 201.011719 510.152344 211.421875 507.5625 210.925781 500.925781 C 210.332031 492.789062 193.570312 492.183594 190.796875 480.972656 C 189.804688 476.808594 190.894531 472.15625 193.175781 468.980469 C 193.671875 468.273438 194.265625 467.691406 194.761719 467.195312 C 192.183594 464.605469 189.902344 461.628906 188.019531 458.453125 L 188.019531 564.421875 L 211.226562 564.421875 Z M 186.429688 452.699219 C 188.414062 457.859375 191.589844 462.621094 195.554688 466.5 L 195.554688 466.589844 C 200.613281 463.027344 207.257812 465.011719 211.621094 460.140625 C 212.117188 459.644531 212.515625 459.058594 212.8125 458.453125 C 209.140625 458.355469 202.398438 457.460938 196.25 452.5 C 188.214844 446.050781 186.628906 436.933594 186.234375 433.550781 L 183.851562 433.550781 C 183.457031 438.113281 183.457031 445.058594 186.429688 452.699219 Z M 183.953125 432.359375 L 186.429688 432.359375 C 187.523438 427.203125 187.621094 425.328125 187.523438 424.621094 C 187.324219 424.832031 187.125 425.117188 186.828125 425.714844 C 186.730469 425.914062 186.429688 426.019531 186.234375 426.019531 C 186.035156 425.914062 185.835938 425.714844 185.835938 425.523438 C 185.835938 422.636719 185.738281 421.25 185.636719 420.566406 C 185.242188 421.359375 184.746094 422.847656 184.449219 424.53125 C 183.851562 427.011719 183.65625 429.683594 183.953125 432.359375 Z M 186.925781 423.34375 L 186.925781 423.628906 L 187.027344 423.542969 C 186.925781 423.542969 186.925781 423.433594 186.925781 423.34375 Z M 237.902344 435.742188 C 234.035156 437.617188 232.050781 439.601562 232.050781 441.398438 C 232.050781 443.679688 235.324219 445.457031 238.796875 447.242188 L 239.09375 447.351562 C 239.984375 443.570312 238.496094 437.617188 237.902344 435.742188 Z M 239.488281 462.324219 C 236.316406 464.40625 233.140625 466.589844 232.746094 470.0625 C 231.953125 477.304688 244.546875 482.871094 250.496094 488.710938 C 250.597656 488.613281 250.796875 488.523438 250.992188 488.523438 L 284.316406 493.484375 L 284.316406 490.398438 L 260.117188 481.667969 C 260.019531 481.667969 260.019531 481.578125 259.917969 481.578125 L 239.6875 462.53125 C 239.488281 462.421875 239.488281 462.324219 239.488281 462.324219 Z M 285.308594 490.398438 L 285.308594 493.671875 C 287.488281 494.167969 289.671875 494.476562 291.953125 494.664062 C 294.53125 494.863281 297.011719 494.863281 298.597656 494.664062 C 297.207031 494.367188 294.730469 493.980469 289.96875 493.375 C 289.769531 493.375 289.570312 493.175781 289.472656 492.988281 C 289.375 492.789062 289.472656 492.492188 289.671875 492.382812 C 291.953125 490.804688 292.050781 490.199219 292.050781 490.199219 C 291.953125 490.011719 291.257812 489.40625 285.308594 490.398438 Z M 243.355469 525.53125 L 246.035156 539.707031 L 274.796875 539.707031 C 278.664062 539.707031 281.933594 536.53125 281.933594 532.5625 C 281.933594 528.59375 278.761719 525.421875 274.796875 525.421875 L 243.355469 525.421875 Z M 363.457031 289.496094 Z M 323.984375 289.496094 L 362.761719 289.496094 L 343.820312 280.566406 Z M 496.148438 139.886719 C 496.148438 133.539062 490.992188 128.378906 484.644531 128.378906 C 482.367188 128.378906 480.085938 129.074219 478.199219 130.363281 C 475.027344 132.546875 473.140625 136.019531 473.140625 139.886719 C 473.140625 146.238281 478.300781 151.398438 484.644531 151.398438 C 490.992188 151.398438 496.148438 146.238281 496.148438 139.886719 Z M 626.761719 484.355469 C 626.761719 484.644531 626.5625 484.941406 626.265625 484.941406 L 616.148438 486.429688 L 616.148438 565.007812 C 616.148438 565.304688 615.851562 565.601562 615.554688 565.601562 L 593.242188 565.601562 L 592.945312 570.957031 L 620.710938 596.554688 C 620.910156 596.753906 620.910156 597.160156 620.710938 597.347656 L 620.613281 597.457031 L 624.28125 601.8125 C 616.84375 613.71875 612.480469 619.375 611.09375 618.789062 C 610 618.292969 610.894531 613.621094 613.871094 604.789062 C 613.769531 604.789062 613.769531 604.789062 613.671875 604.691406 L 586.300781 584.558594 C 586.199219 584.558594 586.199219 584.453125 586.101562 584.351562 L 580.152344 573.4375 L 581.242188 616.308594 C 581.242188 616.507812 581.140625 616.59375 581.042969 616.695312 C 580.945312 616.804688 580.746094 616.894531 580.644531 616.894531 L 580.546875 616.894531 L 579.457031 622.261719 C 563.09375 623.539062 554.761719 623.539062 554.5625 622.261719 C 554.367188 621.160156 559.421875 619.285156 569.738281 616.507812 L 558.132812 565.601562 L 446.664062 565.601562 L 446.664062 600.226562 C 446.664062 600.523438 446.367188 600.820312 446.066406 600.820312 L 420.582031 600.820312 L 420.582031 617.089844 C 420.582031 617.390625 420.28125 617.6875 419.984375 617.6875 L 262.398438 617.6875 C 262.101562 617.6875 261.804688 617.390625 261.804688 617.089844 L 261.804688 574.339844 C 261.804688 574.035156 262.101562 573.738281 262.398438 573.738281 L 287.886719 573.738281 L 287.886719 565.601562 L 246.132812 565.601562 L 236.316406 608.164062 C 246.53125 610.941406 251.589844 612.835938 251.488281 613.917969 C 251.289062 615.207031 242.960938 615.207031 226.597656 613.917969 L 225.503906 608.570312 L 225.40625 608.570312 C 225.207031 608.570312 225.109375 608.460938 225.011719 608.371094 C 224.910156 608.261719 224.8125 608.074219 224.8125 607.964844 L 225.902344 565.105469 L 219.953125 576.019531 C 219.953125 576.128906 219.851562 576.128906 219.753906 576.214844 L 192.382812 596.355469 C 192.382812 596.355469 192.28125 596.355469 192.183594 596.464844 C 195.160156 605.285156 196.050781 609.949219 194.960938 610.445312 C 193.671875 611.140625 189.207031 605.484375 181.769531 593.488281 L 185.441406 589.113281 L 185.339844 589.023438 C 185.140625 588.816406 185.140625 588.417969 185.339844 588.230469 L 209.835938 565.601562 L 187.324219 565.601562 C 187.027344 565.601562 186.730469 565.304688 186.730469 565.007812 L 186.730469 458.265625 C 186.730469 457.957031 187.027344 457.660156 187.324219 457.660156 L 187.421875 457.660156 C 186.628906 456.171875 185.835938 454.59375 185.242188 452.996094 C 182.066406 444.960938 182.167969 437.617188 182.761719 432.855469 C 182.367188 429.878906 182.464844 427.011719 183.160156 424.125 C 184.347656 418.667969 185.339844 418.769531 185.636719 418.878906 C 186.234375 418.96875 186.628906 419.375 186.730469 423.132812 L 186.730469 289.992188 C 186.730469 289.695312 187.027344 289.40625 187.324219 289.40625 L 279.753906 289.40625 C 280.050781 289.40625 280.347656 289.695312 280.347656 289.992188 C 280.347656 290.289062 280.050781 290.597656 279.753906 290.597656 L 187.917969 290.597656 L 187.917969 423.234375 C 188.710938 423.539062 189.109375 424.425781 187.324219 432.964844 C 187.523438 435.742188 188.8125 445.058594 196.945312 451.617188 C 202.992188 456.46875 209.636719 457.273438 213.109375 457.363281 L 213.308594 457.363281 C 216.382812 449.921875 210.035156 439.710938 215.289062 432.660156 C 217.96875 429.1875 223.820312 426.019531 237.605469 427.597656 C 238.101562 429.878906 238.695312 432.273438 239.191406 434.542969 C 238.992188 434.644531 238.796875 434.75 238.597656 434.839844 C 238.796875 435.335938 241.375 443.570312 239.6875 448.433594 C 239.6875 448.53125 239.589844 448.640625 239.488281 448.730469 C 242.664062 450.417969 245.636719 452.402344 245.933594 455.089844 C 246.132812 457.859375 243.355469 459.753906 240.183594 461.828125 L 260.214844 480.675781 L 284.515625 489.515625 C 291.257812 488.414062 292.449219 489.019531 292.746094 489.902344 C 293.042969 490.597656 292.546875 491.390625 291.160156 492.582031 C 300.878906 493.871094 300.777344 494.367188 300.777344 494.972656 C 300.777344 495.558594 300.183594 495.855469 297.40625 495.964844 L 295.324219 495.964844 C 294.035156 495.964844 292.746094 495.964844 291.554688 495.855469 C 289.175781 495.65625 286.695312 495.359375 284.316406 494.773438 L 251.09375 489.8125 C 252.582031 491.5 253.375 493.175781 253.074219 494.863281 C 252.382812 499.238281 245.636719 499.4375 238.894531 503.296875 C 238.894531 503.40625 238.992188 503.40625 238.992188 503.496094 L 242.960938 524.539062 L 274.597656 524.539062 C 279.160156 524.539062 282.828125 528.207031 282.828125 532.761719 C 282.828125 537.324219 279.160156 540.996094 274.597656 540.996094 L 246.035156 540.996094 L 248.515625 554.300781 L 248.515625 554.5 L 246.132812 564.609375 L 287.589844 564.609375 L 287.589844 557.664062 C 287.589844 557.367188 287.886719 557.070312 288.183594 557.070312 L 446.066406 557.070312 C 446.363281 557.070312 446.664062 557.367188 446.664062 557.664062 L 446.664062 564.609375 L 557.933594 564.609375 L 557.539062 562.824219 L 557.539062 562.625 L 567.058594 511.839844 C 567.058594 511.730469 567.058594 511.730469 567.160156 511.640625 C 560.414062 507.761719 553.671875 507.5625 552.976562 503.207031 C 552.679688 501.421875 553.472656 499.734375 554.960938 498.136719 L 521.738281 503.097656 C 519.355469 503.703125 516.976562 503.992188 514.496094 504.199219 C 513.503906 504.289062 512.019531 504.289062 510.628906 504.289062 C 508.347656 504.289062 506.066406 504.199219 505.570312 503.703125 C 505.472656 503.59375 505.375 503.40625 505.375 503.207031 C 505.375 503.097656 505.375 502.910156 505.472656 502.800781 L 385.273438 520.359375 L 385.175781 520.359375 C 385.074219 520.359375 384.976562 520.359375 384.878906 520.273438 C 384.777344 520.164062 384.679688 520.074219 384.679688 519.863281 L 364.746094 385.039062 L 223.226562 385.039062 C 222.925781 385.039062 222.628906 384.738281 222.628906 384.441406 C 222.628906 384.152344 222.925781 383.855469 223.226562 383.855469 L 364.546875 383.855469 L 363.851562 379.390625 C 363.851562 379.085938 364.050781 378.785156 364.347656 378.785156 L 379.324219 376.605469 L 380.117188 373.738281 C 380.117188 373.628906 380.214844 373.527344 380.316406 373.441406 L 478.796875 290.597656 L 387.554688 290.597656 C 387.457031 290.597656 387.355469 290.597656 387.355469 290.488281 C 386.066406 291.589844 378.730469 291.976562 365.441406 291.679688 L 364.347656 290.398438 C 364.25 290.488281 364.148438 290.488281 364.050781 290.488281 L 321.605469 290.488281 L 317.835938 292.175781 L 331.027344 313.417969 L 350.367188 338.804688 L 350.367188 338.902344 C 358 334.746094 362.265625 333.148438 362.960938 334.140625 C 363.851562 335.332031 359.488281 340.589844 349.871094 349.628906 L 345.40625 345.351562 C 345.308594 345.460938 345.109375 345.550781 345.011719 345.550781 C 344.910156 345.550781 344.8125 345.550781 344.710938 345.460938 L 313.472656 322.433594 L 283.125 292.085938 C 282.925781 291.886719 282.925781 291.480469 283.125 291.28125 C 283.324219 291.09375 283.71875 291.09375 283.917969 291.28125 L 314.167969 321.652344 L 344.910156 344.261719 L 349.175781 339.210938 L 330.035156 314.101562 L 312.679688 286.222656 C 312.480469 285.933594 312.582031 285.636719 312.878906 285.4375 C 313.175781 285.230469 313.472656 285.332031 313.671875 285.636719 L 317.242188 291.28125 C 317.242188 291.28125 317.339844 291.183594 317.441406 291.183594 L 321.308594 289.496094 L 343.820312 279.378906 C 344.019531 279.277344 344.117188 279.277344 344.316406 279.378906 L 363.355469 288.304688 L 369.503906 284.644531 C 366.035156 281.171875 362.367188 277.890625 358.597656 274.914062 C 350.761719 268.664062 346.796875 265.597656 341.933594 264.496094 C 332.214844 262.414062 322.894531 269.070312 318.234375 273.128906 C 318.035156 273.324219 317.636719 273.324219 317.441406 273.039062 C 317.242188 272.828125 317.242188 272.433594 317.539062 272.246094 C 322.398438 267.96875 332.117188 261.222656 342.234375 263.316406 C 347.390625 264.398438 351.355469 267.582031 359.390625 273.921875 C 363.457031 277.09375 367.324219 280.566406 370.894531 284.238281 C 370.992188 284.339844 371.09375 284.535156 371.09375 284.734375 C 380.613281 286.71875 386.066406 288.304688 387.554688 289.496094 C 387.65625 289.40625 387.753906 289.296875 387.953125 289.296875 L 480.582031 289.296875 L 490.796875 280.675781 C 490.300781 280.269531 489.804688 279.773438 489.40625 279.277344 C 487.71875 277.09375 487.226562 274.121094 488.117188 271.550781 C 488.8125 269.566406 490.199219 268.167969 491.488281 267.085938 C 492.085938 266.480469 492.679688 265.984375 493.175781 265.390625 C 494.464844 263.703125 495.257812 261.519531 495.457031 259.148438 L 495.457031 259.039062 C 491.09375 258.246094 487.820312 254.476562 487.820312 249.921875 C 487.820312 244.960938 491.785156 240.882812 496.644531 240.683594 L 496.644531 145.050781 C 494.664062 149.417969 490.300781 152.492188 485.140625 152.492188 C 478.199219 152.492188 472.546875 146.835938 472.546875 139.890625 C 472.546875 137.410156 473.242188 135.128906 474.53125 133.148438 L 361.273438 204.082031 C 360.582031 204.675781 359.289062 205.46875 356.910156 206.761719 C 358.695312 207.15625 359.488281 207.652344 359.6875 208.445312 C 359.886719 209.539062 358.796875 210.925781 350.066406 213.902344 L 336.777344 226.007812 C 336.777344 226.695312 336.085938 228.09375 333.703125 231.65625 C 333.605469 231.867188 333.40625 231.867188 333.207031 231.867188 C 333.109375 231.867188 333.011719 231.867188 332.910156 231.757812 C 332.613281 231.566406 332.613281 231.261719 332.8125 230.960938 C 334.496094 228.484375 335.191406 227.191406 335.488281 226.5 C 335.289062 226.605469 335.09375 226.796875 334.796875 226.996094 C 334.597656 227.101562 334.398438 227.191406 334.199219 226.996094 C 334 226.90625 333.902344 226.605469 333.902344 226.40625 C 334.597656 222.730469 334.597656 221.542969 334.496094 221.144531 C 334.101562 221.445312 332.8125 222.832031 329.539062 228.976562 C 329.441406 229.277344 329.042969 229.386719 328.746094 229.175781 C 328.449219 229.085938 328.347656 228.679688 328.546875 228.394531 C 333.011719 219.957031 334.101562 219.558594 334.894531 219.855469 C 335.589844 220.152344 335.984375 221.144531 335.191406 225.113281 C 335.488281 225.015625 335.6875 224.917969 335.984375 224.917969 L 349.375 212.710938 C 349.375 212.710938 349.472656 212.710938 349.472656 212.613281 C 349.472656 212.613281 349.570312 212.613281 349.570312 212.515625 C 358.496094 209.539062 358.597656 208.34375 358.597656 208.25 C 358.597656 208.25 358.398438 207.652344 355.125 207.257812 C 354.925781 207.257812 354.730469 207.058594 354.628906 206.761719 C 354.628906 206.5625 354.730469 206.265625 354.925781 206.164062 C 355.421875 205.867188 355.917969 205.667969 356.414062 205.371094 L 360.382812 202.890625 C 359.09375 202.988281 356.214844 203.683594 353.441406 205.171875 C 351.355469 206.363281 349.570312 207.847656 347.984375 209.832031 C 347.785156 210.035156 347.390625 210.132812 347.191406 209.933594 C 346.992188 209.738281 346.894531 209.335938 347.09375 209.140625 C 348.777344 207.058594 350.664062 205.46875 352.945312 204.28125 C 356.214844 202.492188 360.183594 201.601562 361.375 201.996094 C 361.472656 202.097656 361.570312 202.097656 361.671875 202.195312 L 475.421875 130.960938 C 475.523438 130.863281 475.71875 130.863281 475.917969 130.863281 C 476.414062 130.367188 477.011719 129.871094 477.605469 129.472656 C 479.6875 128.085938 482.167969 127.292969 484.644531 127.292969 C 490.300781 127.292969 495.160156 131.0625 496.644531 136.21875 C 496.945312 136.21875 497.242188 136.519531 497.242188 136.816406 L 497.242188 240.878906 C 502 241.285156 505.871094 245.253906 505.871094 250.105469 C 505.871094 254.679688 502.597656 258.441406 498.234375 259.234375 L 498.234375 259.53125 C 498.035156 262.617188 496.945312 265.59375 495.257812 267.667969 C 494.664062 268.460938 493.871094 269.15625 493.175781 269.757812 C 492.085938 270.75 491.09375 271.632812 490.695312 272.925781 C 490.199219 274.414062 490.496094 276.207031 491.488281 277.5 C 492.777344 279.183594 494.859375 279.976562 496.945312 279.480469 C 499.125 278.984375 500.710938 277.289062 501.207031 275.105469 C 501.40625 274.222656 502.300781 273.617188 503.191406 273.816406 C 504.085938 274.027344 504.679688 274.910156 504.480469 275.800781 C 503.6875 279.273438 501.109375 281.960938 497.636719 282.65625 C 497.339844 282.746094 497.042969 282.746094 496.746094 282.84375 L 505.96875 289.402344 L 615.457031 289.402344 C 615.753906 289.402344 616.050781 289.691406 616.050781 289.988281 L 616.050781 407.464844 C 616.050781 407.753906 615.851562 408.050781 615.457031 408.050781 L 618.925781 431.859375 C 619.027344 431.96875 619.027344 431.96875 619.125 432.058594 C 619.226562 427.804688 619.621094 427.394531 620.316406 427.308594 C 621.207031 427.199219 622 428.992188 622.796875 432.554688 C 623.390625 435.441406 623.488281 438.308594 623.191406 441.285156 C 623.6875 444.957031 623.785156 450.015625 622.496094 455.78125 Z M 250.398438 316.691406 C 250.398438 315.09375 249.109375 313.714844 247.421875 313.714844 C 245.835938 313.714844 244.449219 314.996094 244.449219 316.691406 C 244.449219 318.269531 245.738281 319.667969 247.421875 319.667969 C 249.109375 319.667969 250.398438 318.378906 250.398438 316.691406 Z M 251.488281 316.691406 C 251.488281 317.472656 251.289062 318.179688 250.894531 318.765625 L 254.265625 321.542969 C 254.464844 321.742188 254.5625 322.148438 254.367188 322.347656 C 254.265625 322.433594 254.066406 322.535156 253.96875 322.535156 C 253.871094 322.535156 253.671875 322.535156 253.570312 322.433594 L 250.199219 319.667969 C 249.503906 320.363281 248.515625 320.75 247.421875 320.75 C 245.140625 320.75 243.355469 318.960938 243.355469 316.691406 C 243.355469 314.410156 245.140625 312.613281 247.421875 312.613281 C 249.703125 312.613281 251.488281 314.5 251.488281 316.691406 Z M 269.441406 365.195312 L 320.414062 365.195312 L 320.414062 359.351562 L 269.441406 359.351562 Z M 268.347656 358.25 L 321.605469 358.25 L 321.605469 366.386719 L 268.347656 366.386719 Z M 288.183594 202.191406 C 287.589844 199.710938 286.597656 197.230469 285.308594 194.949219 C 285.207031 197.332031 284.613281 200.605469 282.628906 203.679688 C 281.539062 205.363281 280.25 206.757812 278.5625 207.945312 C 278.464844 208.046875 278.265625 208.046875 278.167969 208.046875 C 276.582031 207.75 274.992188 208.640625 274.496094 210.03125 C 274.199219 210.820312 274.199219 211.714844 274.597656 212.511719 C 274.992188 213.402344 275.785156 214.097656 276.679688 214.394531 C 276.878906 214.496094 277.074219 214.691406 277.074219 214.890625 C 277.175781 215.683594 277.175781 217.570312 275.785156 219.355469 C 274.992188 220.347656 274.101562 220.945312 273.308594 221.238281 L 274.695312 225.804688 C 275.984375 226.199219 277.871094 226.492188 280.050781 226.003906 C 281.539062 225.703125 282.925781 225.011719 284.214844 224.117188 L 284.214844 218.164062 C 284.214844 217.96875 284.316406 217.765625 284.515625 217.667969 C 285.902344 216.773438 286.992188 215.683594 287.785156 214.394531 C 290.167969 210.425781 288.976562 205.664062 288.183594 202.191406 Z M 260.316406 209.535156 C 259.421875 201.597656 265.375 196.339844 265.96875 195.84375 C 266.664062 190.285156 270.925781 186.121094 276.085938 185.625 C 280.347656 185.226562 284.515625 187.507812 286.695312 191.476562 C 287.09375 193.5625 287.390625 195.546875 287.785156 197.628906 C 288.382812 199.117188 288.878906 200.503906 289.273438 202.09375 C 290.167969 205.765625 291.355469 210.722656 288.679688 215.1875 C 287.785156 216.578125 286.695312 217.765625 285.308594 218.660156 L 285.308594 224.515625 C 285.308594 224.710938 285.207031 224.8125 285.109375 224.914062 C 283.71875 226.003906 282.035156 226.792969 280.347656 227.1875 C 279.457031 227.398438 278.5625 227.484375 277.769531 227.484375 C 276.28125 227.484375 274.992188 227.1875 274.101562 226.902344 C 273.902344 226.792969 273.804688 226.691406 273.703125 226.492188 L 272.710938 223.125 C 265.96875 221.339844 261.109375 215.882812 260.316406 209.535156 Z M 342.234375 525.523438 L 298.300781 525.523438 C 294.429688 525.523438 291.160156 528.695312 291.160156 532.664062 C 291.160156 536.632812 294.332031 539.796875 298.300781 539.796875 L 342.234375 539.796875 C 346.101562 539.796875 349.375 536.632812 349.375 532.664062 C 349.375 528.695312 346.199219 525.523438 342.234375 525.523438 Z M 298.300781 524.421875 L 342.234375 524.421875 C 346.796875 524.421875 350.464844 528.089844 350.464844 532.664062 C 350.464844 537.21875 346.796875 540.898438 342.234375 540.898438 L 298.300781 540.898438 C 293.738281 540.898438 290.066406 537.21875 290.066406 532.664062 C 290.066406 528.089844 293.738281 524.421875 298.300781 524.421875 Z M 401.539062 600.21875 L 307.226562 600.21875 L 307.226562 602.203125 L 401.636719 602.203125 L 401.636719 600.21875 Z M 390.828125 594.472656 L 307.226562 594.472656 L 307.226562 597.242188 L 390.828125 597.242188 Z M 401.539062 589.304688 L 307.226562 589.304688 L 307.226562 591.695312 L 401.539062 591.695312 Z M 284.613281 596.457031 L 274.894531 607.460938 C 275.6875 607.867188 276.480469 608.066406 277.375 608.066406 L 291.355469 608.066406 C 292.546875 608.066406 293.539062 607.660156 294.429688 607.074219 Z M 273.804688 584.640625 C 272.710938 585.632812 271.917969 587.121094 271.917969 588.71875 L 271.917969 602.699219 C 271.917969 604.484375 272.8125 606.082031 274.199219 607.074219 L 284.117188 595.851562 Z M 295.027344 606.578125 C 296.117188 605.585938 296.710938 604.1875 296.710938 602.609375 L 296.710938 588.609375 C 296.710938 587.03125 296.019531 585.542969 294.925781 584.550781 L 285.109375 595.664062 Z M 274.398438 584.144531 C 275.289062 583.648438 276.28125 583.261719 277.273438 583.261719 L 291.257812 583.261719 C 292.347656 583.261719 293.339844 583.558594 294.234375 584.144531 L 284.515625 595.167969 L 274.398438 584.144531 " fill-opacity="1" fill-rule="nonzero"/></g><path fill="#14ae5c" d="M 280.152344 226.605469 C 277.472656 227.191406 275.289062 226.695312 274.199219 226.304688 C 271.324219 230.664062 268.148438 236.914062 266.761719 244.851562 C 262.398438 269.160156 278.367188 288.304688 281.140625 291.679688 C 284.710938 291.976562 292.546875 292.175781 300.976562 288.007812 C 311.589844 282.851562 316.644531 274.316406 318.332031 271.253906 L 301.375 250.714844 C 303.753906 251.5 310.101562 253.285156 317.242188 250.714844 C 329.933594 246.140625 333.109375 232.253906 333.308594 231.371094 L 329.042969 228.976562 C 327.851562 230.574219 323.984375 235.625 316.945312 237.410156 C 312.777344 238.511719 309.308594 238.015625 307.226562 237.609375 C 312.28125 234.046875 317.835938 230.378906 323.984375 226.695312 C 333.109375 221.34375 341.738281 216.980469 349.769531 213.40625 L 347.589844 209.933594 L 284.710938 224.421875 C 283.820312 225.015625 282.332031 226.105469 280.148438 226.605469 Z M 306.828125 413.710938 L 296.214844 425.714844 C 297.011719 426.109375 297.902344 426.410156 298.894531 426.410156 L 314.066406 426.410156 C 315.355469 426.410156 316.449219 426.019531 317.441406 425.328125 Z M 295.027344 400.910156 C 293.738281 402.011719 292.945312 403.589844 292.945312 405.375 L 292.945312 420.566406 C 292.945312 422.550781 293.933594 424.226562 295.421875 425.328125 L 306.132812 413.125 Z M 318.132812 424.832031 C 319.324219 423.730469 320.019531 422.242188 320.019531 420.566406 L 320.019531 405.375 C 320.019531 403.589844 319.226562 402.101562 318.035156 401.019531 L 307.421875 413.125 Z M 306.828125 412.429688 L 317.441406 400.414062 C 316.546875 399.820312 315.355469 399.421875 314.167969 399.421875 L 298.992188 399.421875 C 297.804688 399.421875 296.710938 399.820312 295.820312 400.414062 Z M 270.53125 413.917969 L 260.019531 425.914062 C 260.8125 426.320312 261.703125 426.605469 262.695312 426.605469 L 277.871094 426.605469 C 279.160156 426.605469 280.25 426.210938 281.242188 425.523438 Z M 258.828125 401.109375 C 257.539062 402.210938 256.746094 403.789062 256.746094 405.574219 L 256.746094 420.753906 C 256.746094 422.738281 257.738281 424.425781 259.226562 425.523438 L 269.933594 413.3125 Z M 281.933594 425.027344 C 283.125 423.929688 283.820312 422.441406 283.820312 420.753906 L 283.820312 405.574219 C 283.820312 403.789062 283.027344 402.300781 281.835938 401.21875 L 271.226562 413.3125 Z M 270.53125 412.628906 L 281.140625 400.613281 C 280.25 400.027344 279.058594 399.621094 277.871094 399.621094 L 262.695312 399.621094 C 261.503906 399.621094 260.414062 400.027344 259.523438 400.613281 Z M 234.234375 413.710938 L 223.621094 425.714844 C 224.414062 426.109375 225.308594 426.410156 226.300781 426.410156 L 241.472656 426.410156 C 242.761719 426.410156 243.851562 426.019531 244.84375 425.328125 Z M 222.53125 400.910156 C 221.242188 402.011719 220.449219 403.589844 220.449219 405.375 L 220.449219 420.566406 C 220.449219 422.550781 221.441406 424.226562 222.925781 425.328125 L 233.636719 413.125 Z M 245.636719 424.921875 C 246.828125 423.839844 247.523438 422.351562 247.523438 420.652344 L 247.523438 405.484375 C 247.523438 403.699219 246.730469 402.210938 245.539062 401.109375 L 234.828125 413.125 Z M 234.234375 412.519531 L 244.84375 400.523438 C 243.953125 399.917969 242.761719 399.53125 241.570312 399.53125 L 226.398438 399.53125 C 225.207031 399.53125 224.117188 399.917969 223.226562 400.523438 Z M 239.984375 340.886719 C 230.664062 340.886719 223.226562 348.4375 223.226562 357.65625 C 223.226562 366.882812 230.761719 374.433594 239.984375 374.433594 C 249.207031 374.433594 256.746094 366.882812 256.746094 357.65625 C 256.746094 348.4375 249.308594 340.886719 239.984375 340.886719 Z M 499.027344 403.996094 C 499.027344 414.800781 490.300781 423.542969 479.488281 423.542969 C 468.679688 423.542969 459.953125 414.800781 459.953125 403.996094 C 459.953125 393.171875 468.679688 384.441406 479.488281 384.441406 C 490.300781 384.441406 499.027344 393.171875 499.027344 403.996094 " fill-opacity="1" fill-rule="nonzero"/></svg>