<svg xmlns="http://www.w3.org/2000/svg" xmlns:xlink="http://www.w3.org/1999/xlink" width="6912" zoomAndPan="magnify" viewBox="0 0 5184 2592.000001" height="3456" preserveAspectRatio="xMidYMid meet" version="1.0"><defs><clipPath id="id1"><path d="M 900.59375 1214 L 4283.289062 1214 L 4283.289062 2306 L 900.59375 2306 Z M 900.59375 1214 " clip-rule="nonzero"/></clipPath><clipPath id="id2"><path d="M 1426 1.453125 L 3750 1.453125 L 3750 2589.445312 L 1426 2589.445312 Z M 1426 1.453125 " clip-rule="nonzero"/></clipPath></defs><path fill="#14ae5c" d="M 3617.054688 2268.613281 C 3622.230469 2295.535156 3648.117188 2243.761719 3681.765625 2158.335938 C 3679.179688 2178.011719 3672.449219 2181.066406 3669.859375 2207.519531 C 3668.304688 2224.035156 3663.648438 2268.042969 3685.390625 2280 C 3700.921875 2288.75 3722.664062 2277.414062 3730.949219 2272.703125 C 3746.480469 2283.054688 3789.96875 2309.460938 3850.019531 2307.441406 C 3890.921875 2305.886719 3921.984375 2291.910156 3938.546875 2282.589844 C 3944.761719 2288.234375 3979.449219 2318.261719 4029.664062 2314.121094 C 4092.824219 2309.460938 4124.921875 2255.097656 4126.992188 2250.492188 C 4153.914062 2262.347656 4185.496094 2258.722656 4208.792969 2240.601562 C 4243.996094 2213.679688 4240.890625 2170.710938 4240.890625 2168.121094 C 4234.675781 2158.804688 4215.523438 2133.433594 4180.316406 2121.527344 C 4129.0625 2104.441406 4085.058594 2130.328125 4078.328125 2134.46875 C 4065.902344 2128.828125 4041.054688 2119.507812 4008.957031 2121.0625 C 3977.375 2122.5625 3953.5625 2133.433594 3941.65625 2139.648438 C 3931.300781 2135.039062 3911.628906 2127.273438 3886.261719 2128.257812 C 3868.65625 2128.828125 3854.160156 2133.433594 3844.84375 2137.058594 C 3857.269531 2125.667969 3874.871094 2106.566406 3885.742188 2079.074219 C 3908.523438 2019.535156 3875.386719 1983.863281 3891.4375 1924.792969 C 3905.933594 1871 3940.101562 1879.234375 3964.433594 1823.371094 C 3996.53125 1749.335938 3979.964844 1632.847656 3910.59375 1598.625 C 3899.203125 1592.984375 3887.296875 1589.824219 3875.90625 1588.84375 L 3927.160156 1416.957031 C 3930.78125 1396.714844 3937.511719 1345.511719 3908.519531 1296.328125 C 3902.308594 1285.972656 3873.835938 1237.773438 3841.21875 1240.933594 C 3814.296875 1243.519531 3796.695312 1279.761719 3779.09375 1327.390625 C 3729.914062 1458.84375 3719.558594 1567.097656 3719.558594 1567.097656 C 3702.992188 1739.964844 3667.269531 1728.058594 3635.691406 1927.949219 C 3623.265625 2007.160156 3589.097656 2125.667969 3617.050781 2268.613281 Z M 1567.453125 2276.378906 C 1562.277344 2303.300781 1536.390625 2251.527344 1502.738281 2166.101562 C 1505.328125 2185.777344 1512.058594 2188.832031 1514.648438 2215.285156 C 1516.199219 2231.800781 1520.859375 2275.808594 1499.117188 2287.769531 C 1483.585938 2296.515625 1461.839844 2285.179688 1453.558594 2280.46875 C 1438.027344 2290.820312 1394.519531 2317.226562 1334.460938 2315.207031 C 1293.566406 2313.652344 1262.503906 2299.675781 1245.941406 2290.355469 C 1239.734375 2296 1205.03125 2326.027344 1154.816406 2321.886719 C 1091.660156 2317.226562 1059.566406 2262.867188 1057.484375 2258.257812 C 1030.566406 2270.113281 999 2266.488281 975.703125 2248.367188 C 940.496094 2221.449219 943.589844 2178.476562 943.589844 2175.886719 C 949.816406 2166.570312 968.96875 2141.199219 1004.175781 2129.292969 C 1055.417969 2112.207031 1099.425781 2138.09375 1106.160156 2142.234375 C 1118.574219 2136.59375 1143.429688 2127.273438 1175.523438 2128.828125 C 1207.113281 2130.328125 1230.917969 2141.199219 1242.824219 2147.414062 C 1253.175781 2142.804688 1272.855469 2135.039062 1298.21875 2136.023438 C 1315.832031 2136.59375 1330.332031 2141.199219 1339.632812 2144.824219 C 1327.214844 2133.433594 1309.625 2114.332031 1298.742188 2086.839844 C 1275.972656 2027.300781 1309.09375 1991.628906 1293.039062 1932.558594 C 1278.5625 1878.765625 1244.382812 1887 1220.054688 1831.136719 C 1187.960938 1757.101562 1204.523438 1640.613281 1273.886719 1606.394531 C 1285.277344 1600.75 1297.183594 1597.589844 1308.570312 1596.609375 L 1257.324219 1424.722656 C 1253.707031 1404.480469 1246.96875 1353.277344 1275.972656 1304.09375 C 1282.179688 1293.738281 1310.652344 1245.539062 1343.273438 1248.699219 C 1370.191406 1251.285156 1387.78125 1287.527344 1405.398438 1335.15625 C 1454.589844 1466.609375 1464.945312 1574.863281 1464.945312 1574.863281 C 1481.511719 1747.730469 1517.234375 1735.824219 1548.8125 1935.714844 C 1561.757812 2014.925781 1595.925781 2134.003906 1567.453125 2276.378906 " fill-opacity="1" fill-rule="nonzero"/><g clip-path="url(#id1)"><path fill="#000000" d="M 4245.03125 2221.449219 C 4237.78125 2226.625 4230.015625 2230.816406 4221.734375 2233.40625 L 4160.128906 2162.945312 C 4198.957031 2157.300781 4237.78125 2152.125 4276.09375 2147.414062 C 4282.304688 2172.261719 4269.363281 2203.328125 4245.03125 2221.449219 Z M 4163.234375 2229.214844 C 4162.714844 2228.695312 4161.679688 2228.695312 4161.164062 2229.214844 C 4160.644531 2229.78125 4159.609375 2230.25 4159.609375 2230.816406 C 4155.46875 2240.601562 4149.773438 2249.402344 4143.042969 2257.171875 C 4137.867188 2263.433594 4131.652344 2268.613281 4125.441406 2272.703125 L 4031.734375 2182.617188 C 4072.117188 2175.886719 4112.5 2170.246094 4153.398438 2163.980469 L 4215.523438 2234.960938 C 4198.4375 2238.582031 4179.800781 2236.980469 4163.234375 2229.214844 Z M 4049.339844 2291.910156 C 4011.546875 2289.785156 3984.105469 2271.199219 3971.164062 2260.277344 C 3970.648438 2259.757812 3970.128906 2259.757812 3969.09375 2259.757812 C 3968.574219 2259.757812 3968.058594 2259.757812 3967.539062 2260.277344 C 3962.363281 2263.433594 3955.632812 2267.523438 3946.832031 2271.199219 L 3891.957031 2206.949219 C 3918.359375 2202.34375 3945.277344 2197.164062 3971.683594 2192.972656 C 3988.765625 2189.867188 4006.367188 2187.277344 4023.453125 2184.222656 L 4119.230469 2276.378906 C 4091.789062 2292.375 4060.210938 2292.375 4049.339844 2291.910156 Z M 3872.800781 2282.019531 C 3851.574219 2279.433594 3831.902344 2272.703125 3812.746094 2260.847656 C 3806.015625 2258.257812 3784.789062 2248.9375 3777.023438 2228.695312 C 3813.265625 2221.449219 3849.503906 2214.25 3885.742188 2207.519531 L 3941.136719 2272.703125 C 3923.535156 2280 3899.722656 2285.644531 3872.800781 2282.019531 Z M 3726.808594 2268.613281 L 3789.449219 2052.667969 L 3930.265625 1991.0625 C 3931.820312 2009.75 3930.785156 2029.371094 3921.464844 2052.667969 C 3912.144531 2077.054688 3896.097656 2099.265625 3874.871094 2118.9375 C 3846.398438 2123.648438 3813.78125 2135.039062 3791.003906 2162.945312 C 3782.71875 2172.832031 3761.492188 2198.71875 3770.292969 2227.660156 C 3772.882812 2236.460938 3777.542969 2243.191406 3783.238281 2248.9375 C 3765.632812 2267.058594 3743.375 2272.703125 3726.808594 2268.613281 Z M 3721.628906 2266.488281 C 3719.558594 2265.453125 3716.96875 2264.46875 3715.417969 2262.863281 C 3702.992188 2253.546875 3700.921875 2235.996094 3700.402344 2230.25 C 3697.816406 2209.074219 3705.0625 2192.453125 3711.277344 2179.511719 C 3712.3125 2176.921875 3713.347656 2174.335938 3714.382812 2172.261719 C 3724.734375 2147.984375 3720.59375 2130.328125 3715.417969 2108.582031 C 3711.792969 2093.050781 3707.652344 2075.96875 3707.132812 2051.167969 C 3706.617188 2036.671875 3707.652344 2026.316406 3709.722656 2015.964844 L 3775.472656 2081.664062 Z M 3698.851562 2192.972656 L 3672.449219 2250.492188 C 3667.269531 2256.703125 3658.46875 2263.898438 3653.292969 2263.898438 C 3672.964844 2095.175781 3702.992188 1925.828125 3742.339844 1760.15625 C 3781.683594 1596.039062 3831.382812 1432.488281 3889.882812 1274.015625 C 3890.402344 1272.460938 3889.882812 1270.90625 3888.332031 1270.441406 C 3886.777344 1269.871094 3885.226562 1270.441406 3884.707031 1271.996094 C 3826.207031 1430.367188 3776.507812 1594.484375 3737.160156 1759.121094 C 3697.816406 1922.773438 3668.304688 2090.464844 3648.632812 2258.257812 C 3648.117188 2255.667969 3647.597656 2251.527344 3648.117188 2245.3125 C 3657.433594 2006.074219 3662.613281 1885.960938 3687.980469 1791.21875 C 3693.15625 1771.597656 3696.78125 1759.121094 3701.441406 1744.160156 C 3707.132812 1724.433594 3713.863281 1702.742188 3725.773438 1658.164062 C 3733.539062 1629.222656 3740.265625 1606.390625 3745.445312 1588.273438 C 3756.316406 1550.476562 3763.046875 1527.699219 3767.1875 1498.707031 C 3770.8125 1470.75 3813.265625 1254.910156 3866.070312 1224.3125 C 3872.28125 1220.6875 3878.496094 1220.222656 3884.707031 1222.8125 C 3944.761719 1247.144531 3959.773438 1332.570312 3944.242188 1382.738281 C 3930.265625 1428.347656 3904.898438 1540.640625 3900.757812 1557.777344 C 3851.054688 1559.796875 3799.804688 1594.484375 3779.09375 1634.402344 C 3769.777344 1651.953125 3769.257812 1664.378906 3767.707031 1689.796875 C 3766.671875 1710.507812 3765.117188 1739.445312 3757.867188 1786.042969 C 3753.210938 1815.035156 3749.066406 1835.226562 3743.890625 1861.113281 C 3730.429688 1926.34375 3719.558594 1961.03125 3712.828125 1984.328125 C 3704.546875 2010.785156 3700.402344 2023.730469 3701.4375 2052.203125 C 3702.472656 2077.054688 3706.617188 2095.640625 3710.238281 2110.707031 C 3715.417969 2132.449219 3719.042969 2148.449219 3709.203125 2170.710938 C 3708.167969 2172.832031 3707.132812 2175.421875 3706.097656 2178.011719 C 3703.511719 2181.632812 3700.921875 2187.277344 3698.851562 2192.972656 Z M 3935.441406 1567.5625 C 4001.710938 1589.824219 4028.113281 1691.816406 4006.886719 1764.867188 C 3998.085938 1794.894531 3984.105469 1808.304688 3969.09375 1822.800781 C 3961.84375 1830.046875 3954.597656 1836.777344 3947.867188 1846.097656 L 3845.878906 1855.46875 L 3910.074219 1634.402344 C 3910.59375 1632.847656 3909.558594 1631.242188 3908.003906 1630.726562 C 3906.453125 1630.257812 3904.898438 1631.242188 3904.378906 1632.847656 L 3880.566406 1714.648438 L 3792.039062 1622.960938 C 3822.582031 1582.058594 3885.742188 1550.996094 3935.441406 1567.5625 Z M 3745.960938 1878.195312 C 3746.996094 1873.019531 3748.03125 1867.375 3749.585938 1861.628906 C 3754.761719 1835.742188 3758.90625 1815.605469 3763.5625 1786.558594 C 3770.8125 1739.445312 3772.367188 1710.507812 3773.402344 1689.796875 C 3774.953125 1665.464844 3775.472656 1652.988281 3783.753906 1636.988281 C 3785.308594 1633.832031 3787.378906 1630.726562 3789.449219 1627.671875 L 3879.53125 1720.859375 L 3840.183594 1858.058594 L 3814.816406 1946.535156 Z M 3812.230469 1952.800781 L 3777.023438 2075.5 L 3710.757812 2009.179688 C 3712.3125 2001.984375 3714.898438 1994.683594 3718.007812 1985.367188 C 3724.21875 1965.175781 3733.539062 1936.183594 3744.410156 1884.925781 Z M 3928.710938 1888.550781 C 3920.945312 1919.148438 3924.054688 1943.480469 3927.160156 1966.777344 C 3928.195312 1972.941406 3928.710938 1978.6875 3929.230469 1984.328125 L 3791.003906 2044.902344 L 3844.328125 1861.113281 L 3943.726562 1851.84375 C 3938.03125 1861.628906 3932.855469 1873.589844 3928.710938 1888.550781 Z M 3804.464844 2217.304688 C 3794.625 2219.429688 3785.308594 2220.929688 3775.472656 2223.050781 C 3769.777344 2198.148438 3788.414062 2174.851562 3795.664062 2166.101562 C 3814.300781 2143.789062 3840.183594 2132.449219 3864.515625 2126.703125 Z M 3921.984375 2120.492188 C 3942.171875 2120.492188 3962.882812 2122.5625 3982.554688 2127.738281 C 3983.589844 2127.738281 3984.625 2127.738281 3985.144531 2127.273438 C 3990.320312 2122.097656 3999.121094 2115.3125 4011.027344 2109.617188 L 3957.703125 2188.363281 C 3933.890625 2192.453125 3909.558594 2196.597656 3885.226562 2201.308594 L 3884.707031 2201.308594 C 3859.859375 2205.914062 3835.527344 2210.574219 3811.195312 2215.285156 L 3871.246094 2124.683594 C 3892.992188 2121.058594 3911.628906 2121.058594 3921.984375 2120.492188 Z M 4021.382812 2106.5625 C 4028.113281 2104.441406 4034.84375 2102.941406 4043.125 2101.851562 C 4070.046875 2099.78125 4090.753906 2109.617188 4101.109375 2115.882812 C 4102.144531 2116.347656 4103.179688 2116.347656 4103.699219 2115.882812 C 4115.605469 2110.136719 4128.03125 2105.527344 4140.453125 2102.941406 L 4100.074219 2165.53125 C 4057.105469 2172.261719 4014.132812 2179.046875 3971.164062 2186.242188 C 3969.613281 2186.8125 3968.058594 2186.8125 3966.503906 2187.277344 Z M 4148.21875 2101.851562 C 4159.09375 2099.78125 4169.445312 2099.265625 4180.316406 2099.78125 C 4244.515625 2102.941406 4266.773438 2124.113281 4274.023438 2142.234375 C 4234.160156 2147.414062 4194.296875 2152.589844 4154.433594 2158.335938 L 4152.878906 2158.335938 C 4137.867188 2160.355469 4122.851562 2162.476562 4107.320312 2165.066406 Z M 4280.234375 2141.769531 C 4269.882812 2112.207031 4236.230469 2096.210938 4180.316406 2093.621094 C 4168.929688 2093.050781 4157.539062 2094.085938 4146.148438 2096.210938 L 4145.113281 2096.210938 C 4130.617188 2098.796875 4115.605469 2103.40625 4102.144531 2110.136719 C 4091.273438 2103.40625 4069.527344 2093.621094 4042.089844 2096.210938 C 4033.289062 2096.675781 4025.523438 2098.796875 4018.792969 2100.816406 L 4018.277344 2100.816406 C 4001.710938 2106.5625 3989.800781 2115.3125 3982.554688 2121.527344 C 3962.882812 2116.347656 3942.171875 2114.332031 3921.984375 2114.332031 C 3913.699219 2114.332031 3900.238281 2114.332031 3884.707031 2116.347656 C 3903.863281 2097.761719 3917.839844 2076.484375 3926.640625 2053.757812 C 3936.476562 2027.871094 3936.996094 2006.074219 3935.441406 1985.882812 C 3934.925781 1979.152344 3933.890625 1972.421875 3932.855469 1965.742188 C 3929.75 1942.914062 3926.640625 1919.148438 3933.890625 1889.585938 C 3938.03125 1872.554688 3944.242188 1860.078125 3951.492188 1850.292969 C 3958.222656 1840.921875 3965.46875 1834.191406 3972.71875 1826.425781 C 3987.730469 1811.929688 4002.746094 1797.484375 4012.0625 1765.851562 C 4031.21875 1699.582031 4011.546875 1587.238281 3936.476562 1561.921875 C 3926.640625 1558.246094 3915.769531 1556.742188 3905.417969 1556.742188 C 3910.074219 1535.464844 3934.40625 1427.777344 3948.386719 1383.304688 C 3963.917969 1332 3950.972656 1242.953125 3885.226562 1216.082031 C 3877.460938 1212.921875 3869.175781 1213.492188 3861.410156 1218.101562 C 3805.5 1250.199219 3763.5625 1467.175781 3759.421875 1497.203125 C 3755.796875 1525.679688 3749.070312 1548.40625 3738.195312 1585.683594 C 3733.019531 1603.804688 3726.289062 1627.101562 3718.523438 1655.578125 C 3706.617188 1699.582031 3699.886719 1721.84375 3694.191406 1741.570312 C 3690.050781 1756.53125 3685.910156 1769.476562 3680.730469 1788.632812 C 3654.847656 1883.375 3650.1875 2004.003906 3640.867188 2243.761719 C 3640.351562 2253.078125 3640.867188 2263.902344 3647.597656 2267.523438 L 3648.117188 2267.523438 C 3649.667969 2268.042969 3650.703125 2268.613281 3652.257812 2268.613281 C 3662.09375 2268.613281 3674 2255.667969 3676.589844 2253.078125 L 3677.105469 2252.511719 L 3693.15625 2217.304688 C 3693.15625 2221.449219 3693.15625 2225.640625 3693.671875 2230.25 C 3694.710938 2236.460938 3696.78125 2256.136719 3711.277344 2267.058594 C 3714.382812 2269.078125 3717.488281 2270.632812 3721.628906 2272.234375 C 3721.628906 2272.234375 3722.148438 2272.703125 3722.664062 2272.703125 L 3723.183594 2272.703125 C 3727.84375 2274.253906 3732.5 2274.824219 3738.195312 2274.824219 C 3754.246094 2274.824219 3772.882812 2267.523438 3787.894531 2251.992188 C 3797.214844 2259.757812 3807.050781 2263.902344 3810.675781 2265.453125 C 3829.832031 2277.414062 3850.539062 2285.179688 3872.800781 2287.199219 C 3916.804688 2292.375 3951.492188 2275.808594 3969.613281 2264.9375 C 3983.589844 2276.378906 4011.546875 2294.496094 4049.339844 2296.515625 L 4056.070312 2296.515625 C 4071.601562 2296.515625 4100.589844 2293.929688 4126.476562 2277.878906 C 4126.992188 2277.878906 4127.511719 2277.414062 4127.511719 2277.414062 C 4134.761719 2272.703125 4141.488281 2267.058594 4147.703125 2260.277344 C 4154.433594 2253.082031 4159.609375 2244.226562 4163.75 2234.960938 C 4182.390625 2242.726562 4203.097656 2243.761719 4221.734375 2238.585938 C 4231.054688 2235.996094 4240.371094 2231.285156 4248.65625 2225.640625 C 4276.09375 2205.398438 4290.070312 2169.15625 4280.234375 2141.769531 Z M 1536.910156 2266.023438 C 1517.234375 2098.796875 1487.726562 1931.003906 1448.378906 1766.886719 C 1409.019531 1602.25 1359.308594 1438.703125 1300.808594 1279.761719 C 1300.300781 1278.207031 1298.742188 1277.636719 1297.183594 1278.207031 C 1295.632812 1278.675781 1295.125 1280.226562 1295.632812 1281.78125 C 1354.132812 1440.253906 1403.84375 1603.804688 1443.203125 1767.921875 C 1482.550781 1933.128906 1512.574219 2102.941406 1532.25 2271.667969 C 1527.070312 2271.667969 1518.269531 2264.46875 1513.09375 2258.257812 L 1486.691406 2200.738281 C 1484.621094 2194.578125 1482.03125 2189.398438 1479.960938 2184.6875 C 1478.925781 2182.101562 1477.890625 2180.03125 1476.855469 2177.441406 C 1467.019531 2154.710938 1471.160156 2139.179688 1475.820312 2117.386719 C 1479.441406 2102.371094 1483.585938 2084.25 1484.621094 2058.933594 C 1485.65625 2030.460938 1481.515625 2017.515625 1473.230469 1991.058594 C 1465.984375 1968.332031 1455.109375 1933.59375 1442.167969 1867.84375 C 1436.992188 1841.957031 1432.847656 1821.816406 1428.191406 1792.773438 C 1420.941406 1746.179688 1419.390625 1717.238281 1418.351562 1696.527344 C 1416.785156 1671.109375 1416.257812 1658.734375 1406.9375 1641.082031 C 1385.722656 1600.75 1334.980469 1566.527344 1285.277344 1564.507812 C 1281.652344 1547.425781 1256.296875 1435.078125 1241.792969 1389.519531 C 1226.261719 1339.300781 1241.792969 1254.339844 1301.332031 1229.492188 C 1307.539062 1226.902344 1313.75 1227.417969 1319.980469 1231.042969 C 1372.78125 1261.640625 1415.226562 1477.53125 1418.871094 1505.4375 C 1423.011719 1534.480469 1429.226562 1557.210938 1440.613281 1595.003906 C 1445.792969 1613.125 1452.523438 1635.902344 1460.289062 1664.894531 C 1472.195312 1709.472656 1478.925781 1731.214844 1484.621094 1750.890625 C 1488.761719 1765.851562 1492.902344 1778.277344 1498.082031 1797.949219 C 1523.449219 1892.175781 1528.625 2012.339844 1537.945312 2251.992188 C 1537.945312 2258.722656 1537.425781 2262.863281 1536.910156 2266.023438 Z M 1484.621094 2238.582031 C 1484.101562 2244.226562 1481.511719 2261.882812 1469.605469 2271.199219 C 1467.535156 2272.703125 1465.464844 2273.789062 1463.394531 2274.824219 L 1410.050781 2089.996094 L 1475.820312 2024.195312 C 1477.890625 2034.550781 1478.925781 2044.902344 1478.40625 2059.398438 C 1477.371094 2083.734375 1473.746094 2101.386719 1470.125 2116.917969 C 1464.945312 2139.179688 1460.804688 2156.214844 1471.160156 2180.597656 C 1472.195312 2182.617188 1473.230469 2185.207031 1474.265625 2187.792969 C 1479.960938 2200.738281 1487.726562 2217.304688 1484.621094 2238.582031 Z M 1401.761719 2256.703125 C 1407.460938 2250.957031 1412.113281 2244.226562 1414.703125 2235.425781 C 1423.011719 2206.484375 1401.761719 2180.597656 1393.996094 2170.710938 C 1371.222656 2143.269531 1338.601562 2131.882812 1310.125 2126.703125 C 1288.386719 2107.03125 1272.855469 2084.820312 1263.535156 2060.433594 C 1254.738281 2037.136719 1253.179688 2017.515625 1254.738281 1998.828125 L 1395.546875 2060.433594 L 1458.21875 2276.378906 C 1441.132812 2280.46875 1418.871094 2275.289062 1401.761719 2256.703125 Z M 1371.222656 2269.078125 C 1353.101562 2280.46875 1332.921875 2287.765625 1311.683594 2290.355469 C 1284.769531 2293.410156 1260.945312 2288.234375 1242.824219 2280.984375 L 1298.21875 2215.753906 C 1334.460938 2222.480469 1371.222656 2229.210938 1406.9375 2236.980469 C 1399.695312 2256.703125 1378.464844 2266.488281 1371.222656 2269.078125 Z M 1216.941406 2268.042969 C 1215.910156 2267.523438 1214.351562 2267.523438 1213.320312 2268.042969 C 1200.378906 2278.964844 1172.933594 2297.550781 1135.140625 2299.675781 C 1124.28125 2300.140625 1092.1875 2300.140625 1064.214844 2283.574219 L 1159.992188 2191.417969 C 1177.609375 2194.007812 1194.679688 2197.164062 1211.761719 2200.21875 C 1238.175781 2204.933594 1265.089844 2209.539062 1291.503906 2214.25 L 1237.648438 2278.964844 C 1229.378906 2275.289062 1222.117188 2271.199219 1216.941406 2268.042969 Z M 1041.953125 2265.453125 C 1035.238281 2257.6875 1029.535156 2248.9375 1025.386719 2239.050781 C 1024.886719 2238.582031 1024.359375 2237.546875 1023.835938 2237.546875 L 1022.800781 2237.546875 C 1022.296875 2237.546875 1021.769531 2237.546875 1021.769531 2238.015625 C 1005.207031 2245.78125 986.558594 2247.332031 969.476562 2243.761719 L 1031.601562 2172.832031 C 1071.980469 2178.476562 1112.894531 2184.6875 1153.261719 2191.417969 L 1059.566406 2281.554688 C 1053.359375 2276.378906 1047.132812 2271.199219 1041.953125 2265.453125 Z M 963.261719 2241.171875 C 954.996094 2238.582031 947.230469 2234.390625 939.96875 2229.210938 C 915.113281 2211.09375 902.699219 2180.027344 908.90625 2155.179688 C 947.734375 2159.890625 986.054688 2165.066406 1024.882812 2170.710938 Z M 1004.179688 2107.546875 C 1014.53125 2107.03125 1025.386719 2108.117188 1036.269531 2109.617188 L 1076.65625 2172.832031 C 1061.628906 2170.710938 1046.625 2168.121094 1031.09375 2166.101562 L 1029.535156 2166.101562 C 989.675781 2160.355469 949.820312 2155.179688 909.941406 2150 C 917.703125 2131.882812 939.96875 2110.707031 1004.179688 2107.546875 Z M 1081.304688 2124.113281 C 1082.335938 2124.683594 1083.371094 2124.683594 1083.894531 2124.113281 C 1093.726562 2117.902344 1114.433594 2108.117188 1141.871094 2110.136719 C 1149.636719 2110.707031 1156.902344 2112.207031 1163.617188 2114.796875 L 1218.496094 2195.5625 C 1216.941406 2195.042969 1215.386719 2195.042969 1213.847656 2194.578125 C 1171.382812 2187.277344 1127.898438 2180.597656 1084.925781 2173.867188 L 1044.542969 2111.171875 C 1056.980469 2114.332031 1069.394531 2118.472656 1081.304688 2124.113281 Z M 1320.480469 2134.46875 C 1344.8125 2140.214844 1370.699219 2151.554688 1389.339844 2173.867188 C 1396.582031 2182.617188 1415.226562 2205.914062 1409.527344 2230.816406 C 1399.695312 2228.695312 1390.371094 2227.195312 1380.546875 2225.070312 Z M 1198.820312 2135.503906 C 1199.347656 2136.023438 1200.378906 2136.59375 1201.410156 2136.023438 C 1221.085938 2130.84375 1241.792969 2128.257812 1261.980469 2128.828125 C 1272.855469 2128.828125 1291.503906 2129.292969 1312.214844 2132.917969 L 1372.25 2223.519531 C 1347.925781 2218.859375 1323.070312 2214.25 1298.742188 2209.539062 L 1298.21875 2209.539062 C 1273.886719 2204.929688 1250.089844 2200.738281 1226.261719 2196.597656 L 1172.933594 2117.902344 C 1184.847656 2123.648438 1193.644531 2130.84375 1198.820312 2135.503906 Z M 1240.765625 1860.078125 L 1340.160156 1869.394531 L 1392.960938 2053.1875 L 1254.738281 1992.664062 C 1255.265625 1986.917969 1256.296875 1980.707031 1256.804688 1975.011719 C 1259.914062 1951.714844 1263.03125 1927.378906 1255.265625 1896.886719 C 1252.148438 1881.355469 1246.972656 1869.964844 1240.765625 1860.078125 Z M 1440.613281 1893.261719 C 1452.003906 1943.949219 1460.804688 1973.507812 1467.019531 1993.648438 C 1470.125 2003.019531 1472.195312 2010.785156 1474.265625 2017.515625 L 1407.988281 2083.734375 L 1372.25 1960.566406 Z M 1370.699219 1954.300781 L 1305.476562 1728.625 L 1395.546875 1635.4375 C 1397.636719 1638.492188 1399.171875 1641.597656 1401.253906 1644.753906 C 1409.527344 1660.753906 1410.578125 1673.230469 1411.609375 1697.5625 C 1412.636719 1718.738281 1414.195312 1747.214844 1421.460938 1794.324219 C 1426.117188 1823.371094 1430.261719 1844.078125 1435.4375 1869.394531 C 1436.472656 1875.140625 1438.027344 1880.785156 1439.0625 1885.960938 Z M 1215.386719 1830.566406 C 1200.378906 1816.070312 1186.40625 1802.660156 1177.609375 1772.632812 C 1156.375 1700.152344 1182.785156 1598.160156 1249.039062 1575.328125 C 1259.390625 1571.703125 1270.269531 1570.152344 1281.152344 1570.722656 L 1282.6875 1570.722656 C 1324.628906 1571.703125 1368.109375 1597.589844 1391.929688 1630.257812 L 1303.398438 1721.84375 L 1279.59375 1640.042969 C 1279.066406 1638.492188 1277.511719 1637.457031 1275.972656 1638.023438 C 1274.414062 1638.492188 1273.386719 1640.042969 1273.886719 1641.597656 L 1338.097656 1862.664062 L 1236.09375 1853.347656 C 1229.882812 1845.113281 1222.644531 1837.816406 1215.386719 1830.566406 Z M 1503.257812 1797.484375 C 1498.082031 1777.808594 1493.9375 1764.867188 1489.796875 1750.320312 C 1484.101562 1730.644531 1477.371094 1708.902344 1465.464844 1664.378906 C 1457.699219 1635.4375 1450.96875 1612.605469 1445.792969 1594.484375 C 1434.921875 1557.207031 1428.191406 1534.480469 1424.566406 1506.007812 C 1420.425781 1476.496094 1378.464844 1259.519531 1322.566406 1226.902344 C 1314.800781 1222.242188 1306.507812 1221.722656 1298.742188 1224.832031 C 1233 1251.753906 1220.054688 1340.800781 1235.585938 1392.105469 C 1249.039062 1436.578125 1273.886719 1544.265625 1278.5625 1565.542969 C 1268.207031 1565.542969 1257.324219 1567.097656 1247.5 1570.722656 C 1172.433594 1596.039062 1152.753906 1708.382812 1171.90625 1774.652344 C 1181.226562 1806.285156 1196.230469 1820.78125 1211.261719 1835.226562 C 1219.027344 1842.527344 1226.261719 1849.722656 1232.472656 1859.042969 C 1239.734375 1868.878906 1245.414062 1881.355469 1250.089844 1898.441406 C 1257.324219 1927.949219 1254.214844 1951.714844 1251.117188 1974.546875 C 1250.089844 1981.277344 1249.558594 1987.953125 1248.53125 1994.683594 C 1246.449219 2014.925781 1246.972656 2036.671875 1257.324219 2062.558594 C 1266.121094 2085.285156 1280.101562 2106.5625 1299.269531 2125.152344 C 1283.738281 2123.078125 1270.796875 2123.078125 1261.980469 2123.078125 C 1241.792969 2123.078125 1221.085938 2125.152344 1201.410156 2130.328125 C 1194.171875 2124.113281 1182.257812 2115.3125 1165.695312 2109.617188 L 1165.167969 2109.617188 C 1157.929688 2107.03125 1150.671875 2105.527344 1141.871094 2104.960938 C 1114.433594 2102.941406 1092.691406 2112.207031 1081.832031 2118.9375 C 1067.839844 2112.207031 1053.359375 2107.546875 1038.332031 2104.960938 L 1037.828125 2104.960938 C 1026.421875 2102.941406 1015.035156 2101.851562 1003.648438 2102.371094 C 947.738281 2104.960938 914.085938 2121.0625 903.726562 2150.570312 C 893.902344 2178.011719 907.875 2214.25 935.824219 2234.960938 C 944.113281 2241.171875 952.910156 2245.3125 962.761719 2247.902344 C 981.382812 2253.078125 1002.089844 2251.992188 1020.738281 2244.226562 C 1024.886719 2253.546875 1030.566406 2261.882812 1036.777344 2269.648438 C 1043.003906 2276.84375 1049.71875 2282.019531 1056.980469 2286.730469 C 1057.484375 2287.199219 1057.484375 2287.199219 1058.007812 2287.199219 C 1083.894531 2303.300781 1112.894531 2305.886719 1128.425781 2305.886719 L 1135.140625 2305.886719 C 1172.933594 2303.765625 1200.90625 2285.644531 1214.878906 2274.253906 C 1220.5625 2277.878906 1227.820312 2281.554688 1236.617188 2285.179688 C 1255.769531 2292.945312 1281.652344 2299.675781 1311.683594 2296 C 1333.421875 2293.410156 1354.660156 2286.164062 1372.78125 2274.253906 C 1376.925781 2272.703125 1386.753906 2268.613281 1396.078125 2260.277344 C 1411.078125 2276.378906 1429.226562 2283.574219 1445.273438 2283.574219 C 1450.96875 2283.574219 1456.144531 2282.589844 1460.804688 2280.984375 C 1464.945312 2279.433594 1468.570312 2277.878906 1471.675781 2275.289062 C 1485.65625 2264.933594 1488.242188 2245.3125 1489.277344 2238.582031 C 1489.796875 2233.871094 1489.796875 2229.78125 1489.796875 2225.640625 L 1505.847656 2260.84375 L 1506.363281 2261.3125 C 1508.953125 2264.46875 1520.859375 2276.84375 1530.695312 2276.84375 C 1532.25 2276.84375 1533.800781 2276.378906 1534.835938 2275.808594 L 1535.355469 2275.808594 C 1542.085938 2272.234375 1542.601562 2261.3125 1542.085938 2251.992188 C 1533.800781 2012.804688 1529.144531 1892.691406 1503.257812 1797.484375 " fill-opacity="1" fill-rule="nonzero"/></g><path fill="#ffffff" d="M 1708.269531 850.519531 L 1456.144531 850.519531 L 1456.144531 2285.644531 L 1581.429688 2285.644531 L 1447.863281 2408.863281 L 1479.960938 2446.65625 L 1622.847656 2341.558594 C 1633.203125 2322.972656 1643.554688 2304.28125 1653.390625 2285.644531 L 1659.085938 2285.644531 L 1653.390625 2509.820312 L 1707.75 2509.820312 L 1759.523438 2285.644531 L 3392.886719 2285.644531 L 3455.011719 2553.359375 L 3509.371094 2553.359375 L 3503.15625 2317.796875 C 3515.582031 2340.007812 3528.007812 2362.835938 3539.914062 2385.097656 L 3682.800781 2490.144531 L 3714.898438 2452.402344 L 3569.941406 2318.261719 C 3570.460938 2307.441406 3570.976562 2297.085938 3571.496094 2286.164062 L 3691.085938 2286.164062 L 3691.085938 850.519531 L 1708.269531 850.519531 " fill-opacity="1" fill-rule="nonzero"/><path fill="#14ae5c" d="M 2006.46875 2351.449219 L 2006.46875 2218.339844 L 2829.105469 2218.339844 L 2829.105469 2441.480469 L 2829.621094 2441.480469 L 2688.289062 2441.480469 L 2688.289062 2574.535156 L 2004.914062 2574.535156 M 2005.433594 2574.535156 L 1865.132812 2574.535156 L 1865.132812 2351.449219 L 2006.46875 2351.449219 " fill-opacity="1" fill-rule="nonzero"/><path fill="#14ae5c" d="M 1629.058594 1774.652344 L 2274.640625 1774.652344 L 2274.640625 1822.800781 L 1629.058594 1822.800781 Z M 2175.242188 1256.464844 L 1902.925781 1256.464844 L 1902.925781 1220.222656 L 2175.242188 1220.222656 Z M 2295.867188 1198.945312 L 1902.925781 1198.945312 L 1902.925781 1162.703125 L 2295.867188 1162.703125 Z M 1982.652344 2087.875 C 1982.652344 2109.621094 1964.535156 2127.738281 1942.789062 2127.738281 L 1753.828125 2127.738281 C 1753.828125 2120.492188 1753.308594 2113.296875 1751.757812 2105.996094 C 1749.167969 2096.675781 1746.578125 2087.875 1743.992188 2079.074219 C 1741.921875 2069.289062 1740.882812 2059.398438 1740.882812 2049.046875 L 1740.882812 2048.011719 L 1943.308594 2048.011719 C 1964.535156 2048.011719 1982.652344 2066.128906 1982.652344 2087.875 Z M 2298.972656 2128.257812 L 2060.828125 2128.257812 C 2041.15625 2128.257812 2025.625 2112.207031 2025.625 2093.050781 L 2025.625 2083.734375 C 2025.625 2064.113281 2041.671875 2048.578125 2060.828125 2048.578125 L 2298.972656 2048.578125 C 2318.644531 2048.578125 2334.175781 2064.578125 2334.175781 2083.734375 L 2334.175781 2093.050781 C 2334.695312 2112.207031 2318.644531 2128.257812 2298.972656 2128.257812 Z M 1629.058594 1606.394531 L 2338.316406 1606.394531 L 2338.316406 1722.414062 L 1629.058594 1722.414062 Z M 3042.917969 1856.453125 L 2758.695312 1650.398438 L 2508.125 1980.707031 L 2413.386719 1351.671875 L 3599.453125 1175.128906 L 3690.566406 1665.464844 L 3360.269531 1429.332031 Z M 3639.316406 1132.675781 L 2380.253906 1317.039062 L 2487.417969 2049.613281 L 3746.480469 1865.253906 L 3639.316406 1132.675781 " fill-opacity="1" fill-rule="nonzero"/><path fill="#14ae5c" d="M 3591.683594 981.5 L 3502.121094 981.5 C 3497.464844 981.5 3493.839844 977.929688 3493.839844 973.21875 C 3493.839844 968.558594 3497.464844 964.984375 3502.121094 964.984375 L 3591.683594 964.984375 C 3596.34375 964.984375 3599.96875 968.558594 3599.96875 973.21875 C 3599.96875 977.929688 3596.34375 981.5 3591.683594 981.5 Z M 3591.683594 1010.546875 L 3502.121094 1010.546875 C 3497.464844 1010.546875 3493.839844 1006.871094 3493.839844 1002.210938 C 3493.839844 997.601562 3497.464844 993.925781 3502.121094 993.925781 L 3591.683594 993.925781 C 3596.34375 993.925781 3599.96875 997.601562 3599.96875 1002.210938 C 3599.96875 1006.871094 3596.34375 1010.546875 3591.683594 1010.546875 Z M 3591.683594 1039.019531 L 3502.121094 1039.019531 C 3497.464844 1039.019531 3493.839844 1035.34375 3493.839844 1030.683594 C 3493.839844 1026.078125 3497.464844 1022.402344 3502.121094 1022.402344 L 3591.683594 1022.402344 C 3596.34375 1022.402344 3599.96875 1026.078125 3599.96875 1030.683594 C 3599.96875 1035.34375 3596.34375 1039.019531 3591.683594 1039.019531 Z M 3441.550781 1011.011719 C 3441.550781 1028.097656 3427.574219 1042.074219 3410.488281 1042.074219 L 1755.378906 1042.074219 C 1738.296875 1042.074219 1724.316406 1028.097656 1724.316406 1011.011719 L 1724.316406 982.070312 C 1724.316406 964.984375 1738.296875 951.007812 1755.378906 951.007812 L 3411.003906 951.007812 C 3428.089844 951.007812 3442.066406 964.984375 3442.066406 982.070312 Z M 1456.144531 928.175781 L 1456.144531 1071.121094 L 3691.085938 1071.121094 L 3691.085938 928.175781 L 1456.144531 928.175781 " fill-opacity="1" fill-rule="nonzero"/><path fill="#14ae5c" d="M 1790.585938 1889.121094 L 1967.640625 1915.472656 L 1967.640625 1893.730469 L 1839.25 1847.703125 L 1733.636719 1748.300781 L 1594.375 1726.503906 C 1581.949219 1726.503906 1543.636719 1724.433594 1507.917969 1695.957031 C 1461.839844 1658.734375 1457.179688 1605.355469 1456.664062 1596.609375 L 1439.578125 1596.609375 C 1436.992188 1615.710938 1434.402344 1655.578125 1452.003906 1700.617188 C 1465.980469 1736.859375 1487.207031 1760.675781 1500.667969 1773.617188 Z M 3373.214844 1932.558594 L 3196.15625 1959.011719 L 3196.15625 1937.269531 L 3324.546875 1891.140625 L 3430.160156 1791.738281 L 3569.425781 1770.042969 C 3581.847656 1770.042969 3620.160156 1767.921875 3655.882812 1739.445312 C 3701.957031 1702.171875 3706.617188 1648.847656 3707.132812 1640.042969 L 3725.253906 1640.042969 C 3727.84375 1659.199219 3730.429688 1699.117188 3712.828125 1744.160156 C 3698.851562 1780.398438 3677.625 1804.164062 3664.164062 1817.105469 L 3373.214844 1932.558594 " fill-opacity="1" fill-rule="nonzero"/><path fill="#ffffff" d="M 1964.015625 1913.972656 C 1972.816406 1915.992188 1985.757812 1918.578125 2001.289062 1919.613281 C 2022 1921.167969 2045.8125 1920.183594 2046.332031 1917.597656 C 2046.332031 1915.992188 2037.011719 1912.882812 1991.453125 1907.242188 C 2001.289062 1900.460938 2005.949219 1895.28125 2004.914062 1892.695312 C 2003.363281 1888.550781 1989.902344 1888.550781 1964.015625 1892.695312 Z M 1453.558594 1595.003906 C 1459.769531 1564.507812 1461.839844 1548.40625 1458.214844 1547.425781 C 1456.664062 1546.855469 1454.074219 1549.441406 1450.449219 1555.65625 C 1450.449219 1530.855469 1448.898438 1525.109375 1446.828125 1524.59375 C 1443.722656 1524.125 1439.0625 1539.660156 1436.992188 1550.011719 C 1432.847656 1568.597656 1433.882812 1584.128906 1435.4375 1595.003906 Z M 1686.523438 1640.613281 C 1686.523438 1655.578125 1707.234375 1665.464844 1727.425781 1676.285156 C 1736.226562 1651.433594 1721.730469 1607.429688 1721.730469 1607.429688 C 1704.644531 1614.726562 1686.523438 1626.636719 1686.523438 1640.613281 Z M 3199.78125 1935.714844 C 3174.414062 1931.523438 3160.4375 1931.523438 3158.882812 1935.714844 C 3157.847656 1938.769531 3162.507812 1943.480469 3172.34375 1950.210938 C 3127.300781 1955.855469 3117.464844 1959.011719 3117.464844 1960.566406 C 3117.464844 1963.15625 3141.796875 1964.191406 3162.507812 1962.585938 C 3178.039062 1961.601562 3190.980469 1959.011719 3199.78125 1956.890625 Z M 3728.359375 1638.492188 C 3729.914062 1627.671875 3730.429688 1612.140625 3726.808594 1593.449219 C 3724.734375 1583.09375 3720.078125 1567.5625 3716.96875 1568.132812 C 3715.417969 1568.132812 3713.347656 1573.777344 3713.347656 1599.195312 C 3709.722656 1592.984375 3707.132812 1590.394531 3705.582031 1590.859375 C 3702.472656 1591.894531 3704.027344 1607.945312 3710.238281 1638.492188 Z M 2217.175781 544.59375 C 2229.082031 526.941406 2234.257812 517.128906 2232.1875 515.578125 C 2231.152344 514.542969 2228.046875 516.101562 2223.386719 519.746094 C 2227.527344 500.046875 2227.527344 489.691406 2224.941406 488.65625 C 2220.796875 487.101562 2210.960938 501.597656 2195.429688 531.652344 Z M 2303.632812 450.863281 C 2337.28125 439.980469 2353.332031 431.183594 2352.8125 425.5 C 2352.296875 421.859375 2345.566406 419.796875 2332.105469 418.238281 C 2359.542969 403.738281 2364.71875 398.5625 2364.203125 396.5 C 2362.648438 393.382812 2340.386719 397.023438 2321.75 407.378906 C 2307.773438 415.144531 2297.9375 424.976562 2292.242188 432.214844 Z M 2272.570312 800.867188 L 2373.003906 847.929688 C 2385.429688 840.734375 2397.335938 833.433594 2409.761719 825.667969 C 2396.300781 812.257812 2376.109375 793.101562 2349.707031 771.824219 C 2308.289062 739.207031 2287.582031 722.640625 2261.179688 716.945312 C 2206.300781 705.554688 2154.53125 745.417969 2134.859375 762.503906 L 1957.285156 862.425781 L 2115.1875 1020.898438 L 2278.265625 1140.441406 L 2303.632812 1109.949219 L 2202.679688 977.359375 L 2112.078125 832.398438 L 2131.753906 864.03125 C 2177.828125 843.320312 2226.492188 821.578125 2272.570312 800.867188 Z M 3442.066406 1650.398438 C 3442.066406 1650.398438 3427.574219 1694.976562 3436.375 1719.257812 C 3456.5625 1708.382812 3477.273438 1698.546875 3477.273438 1683.585938 C 3477.273438 1670.074219 3459.152344 1658.164062 3442.066406 1650.398438 Z M 1950.554688 399.0625 C 1943.824219 409.417969 1936.058594 416.148438 1930.363281 420.800781 C 1920.527344 419.246094 1911.210938 424.421875 1908.101562 432.714844 C 1904.480469 442.542969 1909.65625 454.976562 1921.046875 459.125 C 1921.046875 461.714844 1922.082031 471.542969 1914.832031 480.339844 C 1909.65625 486.546875 1903.445312 489.136719 1900.855469 490.1875 C 1903.445312 499.492188 1906.550781 508.816406 1909.140625 518.140625 C 1914.316406 519.71875 1925.707031 522.773438 1940.203125 519.71875 C 1951.589844 517.105469 1959.875 511.925781 1964.015625 508.308594 L 1964.015625 476.195312 C 1969.191406 473.097656 1976.441406 467.398438 1982.136719 458.074219 C 1995.597656 436.335938 1989.382812 410.972656 1984.722656 392.328125 C 1982.136719 380.941406 1976.441406 363.851562 1963.5 344.703125 C 1964.535156 352.992188 1965.050781 376.289062 1950.554688 399.0625 Z M 3503.15625 2286.164062 L 3507.816406 2286.164062 L 3503.675781 2318.261719 Z M 3503.15625 2286.164062 " fill-opacity="1" fill-rule="nonzero"/><g clip-path="url(#id2)"><path fill="#000000" d="M 2271.535156 1155.507812 L 1884.808594 1155.507812 L 1884.808594 1186 L 2271.535156 1186 Z M 2277.226562 1191.75 L 1878.59375 1191.75 L 1878.59375 1149.242188 L 2277.226562 1149.242188 Z M 3743.375 1862.664062 L 3723.699219 1729.609375 C 3722.148438 1734.789062 3720.59375 1739.964844 3718.523438 1745.140625 C 3707.652344 1772.632812 3690.566406 1798.519531 3669.339844 1819.230469 C 3672.449219 1821.816406 3675.035156 1824.871094 3677.625 1828.546875 C 3685.90625 1839.9375 3691.085938 1854.898438 3692.121094 1870.429688 Z M 3687.980469 1897.871094 C 3668.824219 1949.644531 3587.542969 1953.835938 3584.953125 1994.683594 C 3582.367188 2029.371094 3636.726562 2042.832031 3632.585938 2075.96875 C 3630.511719 2091.5 3616.535156 2106.566406 3598.414062 2117.386719 C 3598.414062 2117.902344 3598.933594 2117.902344 3598.933594 2118.472656 C 3599.449219 2126.703125 3599.449219 2135.039062 3597.898438 2142.804688 C 3595.308594 2160.355469 3589.097656 2177.441406 3578.742188 2192.972656 L 3574.601562 2283.054688 L 3687.980469 2283.054688 Z M 3568.386719 2320.382812 C 3567.871094 2319.816406 3567.351562 2318.832031 3567.351562 2318.261719 L 3573.566406 2192.453125 C 3573.566406 2191.988281 3573.566406 2191.417969 3574.082031 2190.953125 C 3583.917969 2175.886719 3590.648438 2159.890625 3592.71875 2142.804688 C 3593.757812 2135.503906 3593.757812 2128.257812 3593.757812 2121.0625 C 3574.082031 2131.414062 3550.269531 2136.023438 3531.632812 2130.847656 C 3534.21875 2138.613281 3536.289062 2149.535156 3533.703125 2162.945312 C 3531.113281 2175.886719 3524.902344 2185.207031 3519.722656 2190.953125 L 3505.746094 2282.019531 L 3506.78125 2317.796875 L 3543.019531 2384.011719 L 3683.320312 2487.089844 L 3711.792969 2453.4375 Z M 3458.117188 2550.769531 L 3506.78125 2550.769531 L 3500.050781 2280.984375 L 3514.03125 2188.832031 C 3514.03125 2188.363281 3514.546875 2187.796875 3514.546875 2187.277344 C 3519.207031 2182.101562 3524.902344 2173.300781 3527.488281 2161.390625 C 3530.078125 2148.449219 3527.488281 2137.628906 3524.902344 2130.847656 C 3524.382812 2130.328125 3524.902344 2129.292969 3524.902344 2128.828125 C 3523.867188 2128.257812 3522.832031 2127.738281 3521.796875 2127.273438 C 3495.390625 2113.296875 3507.300781 2082.699219 3478.308594 2042.832031 C 3467.4375 2027.871094 3455.011719 2017.515625 3442.585938 2009.75 L 3393.402344 2273.21875 Z M 3202.886719 1955.390625 L 3376.835938 1929.503906 C 3377.871094 1929.503906 3378.90625 1929.503906 3379.425781 1930.539062 C 3410.488281 1900.460938 3476.238281 1871.464844 3472.09375 1833.15625 C 3470.023438 1815.035156 3453.457031 1803.695312 3436.890625 1792.773438 C 3436.890625 1792.773438 3436.890625 1793.34375 3436.375 1793.34375 L 3330.761719 1892.695312 C 3330.242188 1893.261719 3330.242188 1893.261719 3329.726562 1893.261719 L 3203.40625 1938.769531 L 3203.40625 1955.390625 Z M 3196.675781 1956.425781 L 3196.675781 1939.289062 C 3165.613281 1934.109375 3161.988281 1937.734375 3161.472656 1937.734375 C 3161.472656 1937.734375 3161.988281 1940.894531 3173.894531 1949.125 C 3174.933594 1949.644531 3175.449219 1951.246094 3174.933594 1952.230469 C 3174.414062 1953.265625 3173.894531 1954.300781 3172.34375 1954.300781 C 3148.011719 1957.410156 3134.550781 1959.996094 3127.300781 1961.03125 C 3135.585938 1961.601562 3148.527344 1961.601562 3161.988281 1961.03125 C 3173.894531 1961.03125 3185.804688 1959.011719 3196.675781 1956.425781 Z M 3444.140625 1654.539062 C 3441.03125 1664.378906 3433.265625 1695.441406 3438.445312 1715.113281 L 3439.996094 1714.648438 C 3458.117188 1705.328125 3475.203125 1695.957031 3475.203125 1684.050781 C 3474.683594 1674.730469 3463.8125 1664.378906 3444.140625 1654.539062 Z M 2490.007812 2045.992188 L 3116.949219 1954.300781 C 3118.5 1954.300781 3120.054688 1955.390625 3120.054688 1956.890625 L 3120.054688 1957.976562 C 3125.75 1955.855469 3138.175781 1953.835938 3165.09375 1950.210938 C 3157.847656 1944.464844 3155.257812 1940.324219 3156.8125 1936.183594 C 3158.363281 1931.523438 3165.09375 1928.417969 3199.78125 1934.109375 L 3326.621094 1888.085938 L 3431.195312 1789.71875 C 3414.628906 1779.363281 3400.132812 1769.007812 3401.167969 1754.511719 C 3402.203125 1740.535156 3417.734375 1730.179688 3434.820312 1721.328125 C 3434.304688 1720.859375 3433.785156 1720.859375 3433.785156 1719.824219 C 3424.984375 1694.40625 3438.445312 1651.433594 3439.480469 1648.847656 C 3438.445312 1648.378906 3437.410156 1647.808594 3436.375 1647.34375 C 3438.960938 1635.4375 3442.070312 1622.960938 3444.65625 1611.105469 C 3516.617188 1603.339844 3547.164062 1619.335938 3561.140625 1637.457031 C 3589.097656 1674.265625 3555.445312 1727.589844 3571.496094 1766.421875 L 3572.53125 1766.421875 C 3590.648438 1766.421875 3625.335938 1762.277344 3656.917969 1736.394531 C 3699.367188 1702.171875 3706.097656 1654.023438 3707.132812 1639.007812 C 3698.851562 1599.664062 3699.886719 1591.429688 3702.992188 1588.84375 L 3662.09375 1309.738281 L 3528.527344 1150.796875 L 2462.050781 1306.683594 L 2412.351562 1494.046875 C 2411.832031 1495.652344 2410.796875 1496.117188 2409.761719 1496.117188 L 2409.242188 1496.117188 Z M 2408.207031 1488.871094 L 2455.835938 1308.703125 L 2383.359375 1319.054688 Z M 2464.121094 1301.972656 L 3524.902344 1146.65625 L 3519.207031 1139.976562 L 3117.984375 853.675781 L 2985.96875 853.675781 L 2467.226562 1290.117188 Z M 2992.699219 847.929688 L 3109.183594 847.929688 L 3061.035156 813.8125 C 3053.789062 813.242188 3047.574219 810.652344 3041.363281 807.082031 Z M 3637.242188 1136.300781 L 3536.289062 1151.367188 L 3661.574219 1300.46875 Z M 3127.820312 853.675781 L 3522.832031 1135.265625 L 3523.347656 1135.835938 L 3531.632812 1145.621094 L 3639.316406 1130.085938 C 3639.832031 1130.085938 3640.867188 1130.085938 3641.386719 1130.65625 C 3641.902344 1131.125 3642.421875 1131.640625 3642.421875 1132.675781 L 3668.304688 1308.703125 L 3683.320312 1326.824219 C 3684.355469 1327.859375 3684.355469 1329.980469 3682.800781 1330.964844 C 3681.765625 1332 3679.695312 1332 3678.660156 1330.445312 L 3669.859375 1319.625 L 3688.496094 1446.46875 L 3688.496094 853.675781 Z M 3706.617188 1596.039062 C 3706.617188 1599.664062 3707.132812 1610.015625 3712.3125 1636.421875 L 3725.253906 1636.421875 C 3726.808594 1622.492188 3726.289062 1608.515625 3723.183594 1595.003906 C 3721.113281 1586.253906 3718.523438 1578.488281 3716.96875 1574.292969 C 3716.453125 1577.453125 3715.417969 1584.648438 3715.933594 1600.179688 C 3715.933594 1601.785156 3714.898438 1602.769531 3713.863281 1602.769531 C 3712.828125 1603.339844 3711.273438 1602.769531 3710.757812 1601.214844 C 3709.203125 1599.195312 3707.652344 1597.074219 3706.617188 1596.039062 Z M 3665.199219 1815.035156 C 3685.90625 1794.894531 3702.476562 1770.042969 3712.828125 1743.125 C 3716.453125 1733.234375 3719.558594 1723.914062 3721.628906 1714.648438 L 3721.628906 1714.078125 C 3728.359375 1686.171875 3727.84375 1660.753906 3725.773438 1642.632812 L 3713.347656 1642.632812 C 3711.792969 1660.289062 3703.511719 1707.917969 3661.058594 1741.570312 C 3628.960938 1767.457031 3593.757812 1772.0625 3574.601562 1772.632812 C 3576.152344 1775.6875 3578.226562 1778.792969 3580.8125 1781.382812 C 3604.109375 1807.269531 3638.796875 1796.398438 3665.199219 1815.035156 C 3664.683594 1815.035156 3665.199219 1815.035156 3665.199219 1815.035156 Z M 2803.21875 2249.402344 L 1986.277344 2249.402344 L 1986.277344 2331.203125 L 2670.167969 2331.203125 C 2671.722656 2331.203125 2673.273438 2332.757812 2673.273438 2334.363281 L 2673.273438 2466.847656 L 2803.21875 2466.847656 Z M 2667.578125 2337.417969 L 1850.636719 2337.417969 L 1850.636719 2554.859375 L 2667.578125 2554.859375 Z M 1770.394531 2229.78125 L 1721.210938 1966.210938 C 1708.785156 1973.976562 1696.363281 1984.332031 1685.488281 1999.394531 C 1656.5 2039.261719 1668.40625 2069.289062 1642.003906 2083.734375 C 1640.96875 2084.25 1639.933594 2084.820312 1638.894531 2085.285156 C 1638.894531 2085.855469 1639.414062 2086.839844 1638.894531 2087.410156 C 1636.308594 2094.085938 1633.71875 2104.960938 1636.308594 2117.902344 C 1638.894531 2130.328125 1644.589844 2138.613281 1649.25 2143.789062 C 1649.769531 2144.359375 1649.769531 2144.824219 1649.769531 2145.394531 L 1663.746094 2237.546875 L 1662.710938 2275.289062 L 1662.710938 2275.808594 L 1657.015625 2507.230469 L 1705.679688 2507.230469 Z M 1657.015625 2273.789062 L 1658.050781 2237.546875 L 1644.074219 2146.945312 C 1638.894531 2141.199219 1632.683594 2131.882812 1630.09375 2118.9375 C 1627.507812 2105.996094 1629.578125 2094.605469 1632.167969 2086.839844 C 1613.527344 2092.015625 1589.714844 2087.410156 1570.042969 2077.054688 C 1569.523438 2084.25 1570.042969 2091.5 1571.078125 2098.796875 C 1573.664062 2115.882812 1579.878906 2131.882812 1589.714844 2146.945312 C 1590.230469 2147.414062 1590.230469 2147.980469 1590.230469 2148.449219 L 1596.445312 2274.253906 C 1596.445312 2275.289062 1595.925781 2275.808594 1595.410156 2276.378906 L 1451.488281 2408.863281 L 1479.960938 2442.515625 L 1620.257812 2339.539062 Z M 1580.394531 2283.054688 L 1590.75 2273.21875 L 1585.054688 2149.535156 C 1574.699219 2134.003906 1568.488281 2117.386719 1565.898438 2099.265625 C 1564.863281 2091.5 1564.347656 2083.265625 1564.863281 2074.933594 C 1564.863281 2074.464844 1564.863281 2073.894531 1565.382812 2073.894531 C 1547.261719 2063.023438 1533.285156 2048.011719 1531.214844 2032.476562 C 1527.070312 1999.394531 1581.429688 1985.882812 1578.84375 1951.246094 C 1575.734375 1908.792969 1488.242188 1905.636719 1473.746094 1847.132812 C 1468.570312 1825.390625 1474.265625 1801.109375 1486.171875 1784.539062 C 1488.761719 1780.863281 1491.867188 1777.808594 1494.457031 1775.222656 C 1480.996094 1761.710938 1469.089844 1746.179688 1459.253906 1729.609375 L 1459.253906 2282.589844 L 1580.394531 2282.589844 Z M 1450.96875 1699.582031 C 1461.324219 1726.503906 1477.890625 1751.355469 1498.597656 1771.597656 L 1498.597656 1772.0625 C 1525 1753.476562 1559.6875 1763.832031 1582.464844 1738.410156 C 1585.054688 1735.824219 1587.125 1732.769531 1588.679688 1729.609375 C 1569.523438 1729.09375 1534.320312 1724.433594 1502.222656 1698.546875 C 1460.289062 1664.894531 1452.003906 1617.316406 1449.933594 1599.664062 L 1437.507812 1599.664062 C 1435.4375 1623.476562 1435.4375 1659.71875 1450.96875 1699.582031 Z M 1438.027344 1593.449219 L 1450.96875 1593.449219 C 1456.664062 1566.527344 1457.179688 1556.742188 1456.664062 1553.066406 C 1455.628906 1554.15625 1454.59375 1555.65625 1453.039062 1558.761719 C 1452.523438 1559.796875 1450.96875 1560.367188 1449.933594 1560.367188 C 1448.898438 1559.796875 1447.863281 1558.761719 1447.863281 1557.777344 C 1447.863281 1542.714844 1447.34375 1535.464844 1446.828125 1531.894531 C 1444.757812 1536.035156 1442.167969 1543.800781 1440.613281 1552.601562 C 1437.507812 1565.542969 1436.472656 1579.472656 1438.027344 1593.449219 Z M 1453.558594 1546.390625 L 1453.558594 1547.890625 L 1454.074219 1547.425781 C 1453.558594 1547.425781 1453.558594 1546.855469 1453.558594 1546.390625 Z M 1719.660156 1611.105469 C 1699.46875 1620.890625 1689.113281 1631.242188 1689.113281 1640.613281 C 1689.113281 1652.523438 1706.199219 1661.789062 1724.316406 1671.109375 L 1725.871094 1671.675781 C 1730.53125 1651.953125 1722.765625 1620.890625 1719.660156 1611.105469 Z M 1727.941406 1749.800781 C 1711.375 1760.675781 1694.808594 1772.0625 1692.738281 1790.183594 C 1688.597656 1827.976562 1754.34375 1857.023438 1785.40625 1887.515625 C 1785.925781 1887 1786.960938 1886.53125 1787.996094 1886.53125 L 1961.945312 1912.417969 L 1961.945312 1896.316406 L 1835.625 1850.757812 C 1835.105469 1850.757812 1835.105469 1850.292969 1834.589844 1850.292969 L 1728.976562 1750.890625 C 1727.941406 1750.320312 1727.941406 1749.800781 1727.941406 1749.800781 Z M 1967.121094 1896.316406 L 1967.121094 1913.402344 C 1978.511719 1915.992188 1989.902344 1917.597656 2001.808594 1918.578125 C 2015.269531 1919.613281 2028.210938 1919.613281 2036.496094 1918.578125 C 2029.246094 1917.027344 2016.304688 1915.007812 1991.453125 1911.847656 C 1990.417969 1911.847656 1989.382812 1910.8125 1988.867188 1909.828125 C 1988.347656 1908.792969 1988.867188 1907.242188 1989.902344 1906.671875 C 2001.808594 1898.441406 2002.324219 1895.28125 2002.324219 1895.28125 C 2001.808594 1894.296875 1998.183594 1891.140625 1967.121094 1896.316406 Z M 1748.132812 2079.644531 L 1762.109375 2153.625 L 1912.246094 2153.625 C 1932.4375 2153.625 1949.519531 2137.058594 1949.519531 2116.351562 C 1949.519531 2095.640625 1932.953125 2079.074219 1912.246094 2079.074219 L 1748.132812 2079.074219 Z M 2375.074219 847.929688 Z M 2169.027344 847.929688 L 2371.449219 847.929688 L 2272.570312 801.332031 Z M 3067.765625 67.203125 C 3067.765625 34.078125 3040.84375 7.15625 3007.710938 7.15625 C 2995.804688 7.160156 2983.898438 10.78125 2974.0625 17.515625 C 2957.496094 28.902344 2947.660156 47.019531 2947.660156 67.203125 C 2947.660156 100.347656 2974.578125 127.269531 3007.710938 127.269531 C 3040.84375 127.269531 3067.765625 100.347656 3067.765625 67.203125 Z M 3749.585938 1864.789062 C 3749.585938 1866.289062 3748.550781 1867.84375 3746.996094 1867.84375 L 3694.191406 1875.609375 L 3694.191406 2285.644531 C 3694.191406 2287.199219 3692.636719 2288.75 3691.085938 2288.75 L 3574.601562 2288.75 L 3573.046875 2316.707031 L 3718.007812 2450.28125 C 3719.042969 2451.316406 3719.042969 2453.4375 3718.007812 2454.421875 L 3717.488281 2454.992188 L 3736.644531 2477.71875 C 3697.816406 2539.847656 3675.035156 2569.355469 3667.789062 2566.300781 C 3662.09375 2563.714844 3666.753906 2539.328125 3682.285156 2493.25 C 3681.765625 2493.25 3681.765625 2493.25 3681.25 2492.734375 L 3538.363281 2387.6875 C 3537.84375 2387.6875 3537.84375 2387.117188 3537.328125 2386.601562 L 3506.265625 2329.652344 L 3511.957031 2553.359375 C 3511.957031 2554.394531 3511.441406 2554.859375 3510.921875 2555.378906 C 3510.40625 2555.949219 3509.371094 2556.414062 3508.851562 2556.414062 L 3508.335938 2556.414062 L 3502.640625 2584.421875 C 3417.21875 2591.101562 3373.730469 2591.101562 3372.695312 2584.421875 C 3371.660156 2578.675781 3398.0625 2568.890625 3451.90625 2554.394531 L 3391.332031 2288.75 L 2809.429688 2288.75 L 2809.429688 2469.4375 C 2809.429688 2470.988281 2807.878906 2472.542969 2806.324219 2472.542969 L 2673.273438 2472.542969 L 2673.273438 2557.449219 C 2673.273438 2559.003906 2671.722656 2560.554688 2670.167969 2560.554688 L 1847.53125 2560.554688 C 1845.980469 2560.554688 1844.425781 2559.003906 1844.425781 2557.449219 L 1844.425781 2334.363281 C 1844.425781 2332.757812 1845.980469 2331.203125 1847.53125 2331.203125 L 1980.582031 2331.203125 L 1980.582031 2288.75 L 1762.628906 2288.75 L 1711.375 2510.855469 C 1764.699219 2525.351562 1791.101562 2535.238281 1790.585938 2540.882812 C 1789.546875 2547.613281 1746.0625 2547.613281 1660.640625 2540.882812 L 1654.945312 2512.976562 L 1654.425781 2512.976562 C 1653.390625 2512.976562 1652.875 2512.40625 1652.355469 2511.941406 C 1651.839844 2511.371094 1651.320312 2510.386719 1651.320312 2509.820312 L 1657.015625 2286.164062 L 1625.953125 2343.113281 C 1625.953125 2343.679688 1625.4375 2343.679688 1624.917969 2344.148438 L 1482.03125 2449.246094 C 1482.03125 2449.246094 1481.511719 2449.246094 1480.996094 2449.8125 C 1496.527344 2495.839844 1501.1875 2520.171875 1495.492188 2522.761719 C 1488.761719 2526.386719 1465.464844 2496.875 1426.636719 2434.28125 L 1445.792969 2411.449219 L 1445.273438 2410.984375 C 1444.238281 2409.898438 1444.238281 2407.828125 1445.273438 2406.84375 L 1573.148438 2288.75 L 1455.628906 2288.75 C 1454.074219 2288.75 1452.523438 2287.199219 1452.523438 2285.644531 L 1452.523438 1728.625 C 1452.523438 1727.023438 1454.074219 1725.46875 1455.628906 1725.46875 L 1456.144531 1725.46875 C 1452.003906 1717.703125 1447.863281 1709.472656 1444.757812 1701.136719 C 1428.191406 1659.199219 1428.707031 1620.886719 1431.8125 1596.039062 C 1429.742188 1580.507812 1430.261719 1565.542969 1433.882812 1550.476562 C 1440.097656 1522.003906 1445.273438 1522.519531 1446.828125 1523.089844 C 1449.933594 1523.558594 1452.003906 1525.679688 1452.523438 1545.300781 L 1452.523438 850.515625 C 1452.523438 848.964844 1454.074219 847.460938 1455.628906 847.460938 L 1938.128906 847.460938 C 1939.683594 847.460938 1941.238281 848.964844 1941.238281 850.515625 C 1941.238281 852.070312 1939.683594 853.675781 1938.128906 853.675781 L 1458.734375 853.675781 L 1458.734375 1545.820312 C 1462.875 1547.421875 1464.945312 1552.03125 1455.628906 1596.605469 C 1456.664062 1611.105469 1463.394531 1659.71875 1505.84375 1693.9375 C 1537.425781 1719.257812 1572.113281 1723.449219 1590.230469 1723.914062 L 1591.265625 1723.914062 C 1607.316406 1685.085938 1574.183594 1631.8125 1601.621094 1595.003906 C 1615.597656 1576.882812 1646.144531 1560.367188 1718.105469 1568.597656 C 1720.695312 1580.507812 1723.800781 1592.984375 1726.386719 1604.839844 C 1725.351562 1605.355469 1724.316406 1605.925781 1723.28125 1606.390625 C 1724.316406 1608.980469 1737.777344 1651.953125 1728.976562 1677.320312 C 1728.976562 1677.839844 1728.460938 1678.40625 1727.941406 1678.875 C 1744.507812 1687.675781 1760.039062 1698.027344 1761.59375 1712.058594 C 1762.628906 1726.503906 1748.132812 1736.390625 1731.566406 1747.214844 L 1836.140625 1845.582031 L 1962.980469 1891.710938 C 1998.183594 1885.960938 2004.398438 1889.121094 2005.949219 1893.730469 C 2007.503906 1897.351562 2004.914062 1901.496094 1997.667969 1907.707031 C 2048.402344 1914.4375 2047.882812 1917.027344 2047.882812 1920.183594 C 2047.882812 1923.238281 2044.777344 1924.792969 2030.28125 1925.363281 L 2019.410156 1925.363281 C 2012.679688 1925.363281 2005.949219 1925.363281 1999.738281 1924.792969 C 1987.3125 1923.757812 1974.371094 1922.203125 1961.945312 1919.148438 L 1788.511719 1893.261719 C 1796.277344 1902.0625 1800.421875 1910.8125 1798.867188 1919.613281 C 1795.242188 1942.445312 1760.039062 1943.480469 1724.835938 1963.621094 C 1724.835938 1964.191406 1725.351562 1964.191406 1725.351562 1964.65625 L 1746.0625 2074.464844 L 1911.210938 2074.464844 C 1935.023438 2074.464844 1954.179688 2093.621094 1954.179688 2117.386719 C 1954.179688 2141.199219 1935.023438 2160.355469 1911.210938 2160.355469 L 1762.109375 2160.355469 L 1775.054688 2229.78125 L 1775.054688 2230.816406 L 1762.628906 2283.574219 L 1979.03125 2283.574219 L 1979.03125 2247.332031 C 1979.03125 2245.78125 1980.582031 2244.226562 1982.136719 2244.226562 L 2806.324219 2244.226562 C 2807.878906 2244.226562 2809.429688 2245.78125 2809.429688 2247.332031 L 2809.429688 2283.574219 L 3390.296875 2283.574219 L 3388.226562 2274.253906 L 3388.226562 2273.21875 L 3437.925781 2008.199219 C 3437.925781 2007.628906 3437.925781 2007.628906 3438.445312 2007.160156 C 3403.238281 1986.917969 3368.035156 1985.882812 3364.414062 1963.15625 C 3362.859375 1953.835938 3367 1945.035156 3374.765625 1936.699219 L 3201.335938 1962.585938 C 3188.910156 1965.742188 3176.484375 1967.246094 3163.542969 1968.332031 C 3158.363281 1968.796875 3150.597656 1968.796875 3143.351562 1968.796875 C 3131.445312 1968.796875 3119.539062 1968.332031 3116.949219 1965.742188 C 3116.429688 1965.175781 3115.914062 1964.191406 3115.914062 1963.15625 C 3115.914062 1962.585938 3115.914062 1961.601562 3116.429688 1961.03125 L 2488.96875 2052.667969 L 2488.453125 2052.667969 C 2487.933594 2052.667969 2487.417969 2052.667969 2486.898438 2052.203125 C 2486.382812 2051.632812 2485.863281 2051.167969 2485.863281 2050.082031 L 2381.804688 1346.496094 L 1643.039062 1346.496094 C 1641.484375 1346.496094 1639.929688 1344.941406 1639.929688 1343.390625 C 1639.929688 1341.886719 1641.484375 1340.335938 1643.039062 1340.335938 L 2380.769531 1340.335938 L 2377.144531 1317.039062 C 2377.144531 1315.433594 2378.179688 1313.878906 2379.734375 1313.878906 L 2457.90625 1302.488281 L 2462.050781 1287.527344 C 2462.050781 1286.957031 2462.566406 1286.441406 2463.085938 1285.972656 L 2977.167969 853.675781 L 2500.878906 853.675781 C 2500.359375 853.675781 2499.84375 853.675781 2499.84375 853.105469 C 2493.113281 858.851562 2454.800781 860.871094 2385.429688 859.320312 L 2379.734375 852.640625 C 2379.214844 853.105469 2378.699219 853.105469 2378.179688 853.105469 L 2156.601562 853.105469 L 2136.929688 861.90625 L 2205.785156 972.75 L 2306.738281 1105.238281 L 2306.738281 1105.753906 C 2346.601562 1084.0625 2368.863281 1075.726562 2372.488281 1080.902344 C 2377.144531 1087.117188 2354.367188 1114.554688 2304.148438 1161.71875 L 2280.851562 1139.40625 C 2280.335938 1139.976562 2279.300781 1140.441406 2278.78125 1140.441406 C 2278.265625 1140.441406 2277.746094 1140.441406 2277.226562 1139.976562 L 2114.152344 1019.8125 L 1955.734375 861.441406 C 1954.695312 860.40625 1954.695312 858.285156 1955.734375 857.246094 C 1956.769531 856.265625 1958.839844 856.265625 1959.875 857.246094 L 2117.773438 1015.722656 L 2278.265625 1133.710938 L 2300.523438 1107.359375 L 2200.609375 976.324219 L 2110.007812 830.84375 C 2108.972656 829.34375 2109.492188 827.789062 2111.042969 826.753906 C 2112.597656 825.667969 2114.152344 826.183594 2115.1875 827.789062 L 2133.824219 857.246094 C 2133.824219 857.246094 2134.339844 856.730469 2134.859375 856.730469 L 2155.050781 847.929688 L 2272.570312 795.121094 C 2273.605469 794.601562 2274.121094 794.601562 2275.15625 795.121094 L 2374.558594 841.714844 L 2406.65625 822.613281 C 2388.535156 804.492188 2369.378906 787.355469 2349.707031 771.824219 C 2308.808594 739.207031 2288.101562 723.210938 2262.734375 717.460938 C 2211.996094 706.589844 2163.332031 741.328125 2139 762.503906 C 2137.964844 763.539062 2135.894531 763.539062 2134.859375 762.039062 C 2133.824219 760.953125 2133.824219 758.878906 2135.378906 757.898438 C 2160.746094 735.582031 2211.480469 700.378906 2264.285156 711.300781 C 2291.207031 716.945312 2311.914062 733.5625 2353.847656 766.644531 C 2375.074219 783.214844 2395.265625 801.332031 2413.902344 820.488281 C 2414.421875 821.007812 2414.9375 822.042969 2414.9375 823.078125 C 2464.636719 833.433594 2493.113281 841.714844 2500.878906 847.929688 C 2501.394531 847.464844 2501.914062 846.894531 2502.949219 846.894531 L 2986.488281 846.894531 L 3039.808594 801.902344 C 3037.222656 799.78125 3034.632812 797.191406 3032.5625 794.601562 C 3023.761719 783.214844 3021.171875 767.683594 3025.832031 754.273438 C 3029.457031 743.917969 3036.703125 736.617188 3043.433594 730.976562 C 3046.539062 727.816406 3049.648438 725.230469 3052.234375 722.121094 C 3058.964844 713.320312 3063.105469 701.929688 3064.140625 689.558594 L 3064.140625 688.988281 C 3041.363281 684.847656 3024.277344 665.171875 3024.277344 641.410156 C 3024.277344 615.523438 3044.988281 594.246094 3070.355469 593.210938 L 3070.355469 94.15625 C 3060 116.929688 3037.222656 132.984375 3010.300781 132.984375 C 2974.0625 132.984375 2944.550781 103.460938 2944.550781 67.21875 C 2944.550781 54.277344 2948.175781 42.382812 2954.90625 32.03125 L 2363.683594 402.203125 C 2360.0625 405.296875 2353.332031 409.445312 2340.90625 416.175781 C 2350.226562 418.242188 2354.367188 420.828125 2355.402344 424.976562 C 2356.4375 430.675781 2350.742188 437.917969 2305.183594 453.449219 L 2235.8125 516.609375 C 2235.8125 520.210938 2232.1875 527.511719 2219.761719 546.097656 C 2219.246094 547.183594 2218.210938 547.183594 2217.175781 547.183594 C 2216.65625 547.183594 2216.140625 547.183594 2215.621094 546.617188 C 2214.066406 545.632812 2214.066406 544.027344 2215.101562 542.472656 C 2223.90625 529.53125 2227.527344 522.800781 2229.082031 519.175781 C 2228.046875 519.746094 2227.011719 520.730469 2225.457031 521.765625 C 2224.421875 522.335938 2223.386719 522.800781 2222.351562 521.765625 C 2221.316406 521.296875 2220.796875 519.746094 2220.796875 518.6875 C 2224.421875 499.519531 2224.421875 493.3125 2223.90625 491.246094 C 2221.832031 492.804688 2215.101562 500.046875 2198.019531 532.117188 C 2197.5 533.671875 2195.429688 534.242188 2193.878906 533.15625 C 2192.324219 532.6875 2191.808594 530.566406 2192.84375 529.0625 C 2216.140625 485.039062 2221.832031 482.957031 2225.976562 484.515625 C 2229.597656 486.066406 2231.671875 491.246094 2227.527344 511.953125 C 2229.082031 511.429688 2230.117188 510.921875 2231.667969 510.921875 L 2301.558594 447.238281 C 2301.558594 447.238281 2302.078125 447.238281 2302.078125 446.714844 C 2302.078125 446.714844 2302.597656 446.714844 2302.597656 446.207031 C 2349.1875 430.675781 2349.707031 424.449219 2349.707031 423.941406 C 2349.707031 423.941406 2348.671875 420.828125 2331.585938 418.761719 C 2330.550781 418.761719 2329.515625 417.734375 2329 416.175781 C 2329 415.144531 2329.515625 413.585938 2330.550781 413.0625 C 2333.140625 411.503906 2335.730469 410.476562 2338.316406 408.917969 L 2359.027344 395.972656 C 2352.296875 396.5 2337.28125 400.121094 2322.785156 407.886719 C 2311.914062 414.09375 2302.597656 421.859375 2294.3125 432.214844 C 2293.277344 433.265625 2291.207031 433.773438 2290.171875 432.742188 C 2289.136719 431.707031 2288.617188 429.625 2289.652344 428.59375 C 2298.453125 417.734375 2308.289062 409.445312 2320.199219 403.230469 C 2337.28125 393.914062 2357.992188 389.257812 2364.203125 391.324219 C 2364.71875 391.847656 2365.238281 391.847656 2365.753906 392.355469 L 2959.566406 20.625 C 2960.082031 20.121094 2961.117188 20.121094 2962.152344 20.121094 C 2964.742188 17.53125 2967.847656 14.941406 2970.953125 12.859375 C 2981.828125 5.621094 2994.769531 1.472656 3007.710938 1.472656 C 3037.222656 1.472656 3062.589844 21.152344 3070.355469 48.070312 C 3071.90625 48.070312 3073.460938 49.625 3073.460938 51.183594 L 3073.460938 594.222656 C 3098.3125 596.34375 3118.5 617.054688 3118.5 642.371094 C 3118.5 666.238281 3101.417969 685.859375 3078.636719 690 L 3078.636719 691.554688 C 3077.601562 707.65625 3071.90625 723.1875 3063.105469 734.007812 C 3060 738.148438 3055.859375 741.773438 3052.234375 744.929688 C 3046.539062 750.109375 3041.363281 754.714844 3039.292969 761.445312 C 3036.703125 769.210938 3038.257812 778.582031 3043.433594 785.3125 C 3050.164062 794.113281 3061.035156 798.257812 3071.90625 795.667969 C 3083.296875 793.078125 3091.582031 784.226562 3094.167969 772.835938 C 3095.203125 768.230469 3099.863281 765.070312 3104.523438 766.105469 C 3109.183594 767.195312 3112.289062 771.800781 3111.253906 776.460938 C 3107.113281 794.582031 3093.652344 808.613281 3075.53125 812.234375 C 3073.976562 812.703125 3072.425781 812.703125 3070.871094 813.21875 L 3119.019531 847.441406 L 3690.566406 847.441406 C 3692.121094 847.441406 3693.671875 848.941406 3693.671875 850.496094 L 3693.671875 1463.53125 C 3693.671875 1465.03125 3692.636719 1466.585938 3690.566406 1466.585938 L 3708.6875 1590.839844 C 3709.203125 1591.40625 3709.203125 1591.40625 3709.722656 1591.875 C 3710.238281 1569.664062 3712.3125 1567.539062 3715.933594 1567.074219 C 3720.59375 1566.503906 3724.734375 1575.875 3728.878906 1594.460938 C 3731.984375 1609.527344 3732.5 1624.492188 3730.949219 1640.023438 C 3733.535156 1659.179688 3734.054688 1685.582031 3727.324219 1715.660156 Z M 1784.890625 989.835938 C 1784.890625 981.5 1778.160156 974.304688 1769.359375 974.304688 C 1761.074219 974.304688 1753.828125 980.984375 1753.828125 989.835938 C 1753.828125 998.070312 1760.558594 1005.367188 1769.359375 1005.367188 C 1778.160156 1005.367188 1784.890625 998.636719 1784.890625 989.835938 Z M 1790.585938 989.835938 C 1790.585938 993.925781 1789.550781 997.601562 1787.476562 1000.65625 L 1805.078125 1015.152344 C 1806.117188 1016.1875 1806.632812 1018.3125 1805.597656 1019.347656 C 1805.078125 1019.8125 1804.042969 1020.332031 1803.527344 1020.332031 C 1803.007812 1020.332031 1801.972656 1020.332031 1801.457031 1019.8125 L 1783.855469 1005.367188 C 1780.230469 1008.992188 1775.054688 1011.011719 1769.359375 1011.011719 C 1757.449219 1011.011719 1748.132812 1001.691406 1748.132812 989.835938 C 1748.132812 977.929688 1757.449219 968.558594 1769.359375 968.558594 C 1781.265625 968.558594 1790.585938 978.394531 1790.585938 989.835938 Z M 1884.289062 1242.953125 L 2150.390625 1242.953125 L 2150.390625 1212.457031 L 1884.289062 1212.457031 Z M 1878.59375 1206.710938 L 2156.601562 1206.710938 L 2156.601562 1249.164062 L 1878.59375 1249.164062 Z M 1982.136719 392.332031 C 1979.03125 379.390625 1973.851562 366.445312 1967.121094 354.535156 C 1966.605469 366.96875 1963.5 384.058594 1953.144531 400.097656 C 1947.449219 408.894531 1940.71875 416.152344 1931.917969 422.367188 C 1931.402344 422.890625 1930.363281 422.890625 1929.847656 422.890625 C 1921.5625 421.332031 1913.28125 425.984375 1910.691406 433.242188 C 1909.140625 437.371094 1909.140625 442.039062 1911.210938 446.1875 C 1913.28125 450.839844 1917.421875 454.460938 1922.082031 456.019531 C 1923.117188 456.539062 1924.152344 457.570312 1924.152344 458.605469 C 1924.671875 462.75 1924.671875 472.578125 1917.421875 481.902344 C 1913.28125 487.082031 1908.621094 490.191406 1904.480469 491.730469 L 1911.726562 515.554688 C 1918.457031 517.617188 1928.292969 519.152344 1939.683594 516.585938 C 1947.449219 515.027344 1954.695312 511.410156 1961.425781 506.753906 L 1961.425781 475.691406 C 1961.425781 474.660156 1961.945312 473.609375 1962.980469 473.101562 C 1970.226562 468.433594 1975.921875 462.75 1980.066406 456.019531 C 1992.488281 435.308594 1986.277344 410.453125 1982.136719 392.332031 Z M 1836.660156 430.65625 C 1832 389.238281 1863.0625 361.792969 1866.167969 359.203125 C 1869.792969 330.207031 1892.054688 308.46875 1918.976562 305.878906 C 1941.238281 303.8125 1962.980469 315.703125 1974.371094 336.414062 C 1976.441406 347.296875 1977.992188 357.652344 1980.066406 368.527344 C 1983.171875 376.292969 1985.757812 383.535156 1987.832031 391.824219 C 1992.488281 410.976562 1998.703125 436.863281 1984.722656 460.160156 C 1980.066406 467.402344 1974.371094 473.609375 1967.121094 478.28125 L 1967.121094 508.820312 C 1967.121094 509.851562 1966.605469 510.378906 1966.085938 510.902344 C 1958.839844 516.585938 1950.039062 520.707031 1941.238281 522.777344 C 1936.578125 523.867188 1931.917969 524.332031 1927.777344 524.332031 C 1920.011719 524.332031 1913.28125 522.777344 1908.621094 521.277344 C 1907.585938 520.707031 1907.066406 520.191406 1906.550781 519.152344 L 1901.375 501.578125 C 1866.167969 492.257812 1840.800781 463.785156 1836.660156 430.65625 Z M 2264.285156 2079.601562 L 2034.941406 2079.601562 C 2014.75 2079.601562 1997.667969 2096.167969 1997.667969 2116.878906 C 1997.667969 2137.585938 2014.234375 2154.101562 2034.941406 2154.101562 L 2264.285156 2154.101562 C 2284.476562 2154.101562 2301.5625 2137.585938 2301.5625 2116.878906 C 2301.5625 2096.167969 2284.992188 2079.601562 2264.285156 2079.601562 Z M 2034.941406 2073.855469 L 2264.285156 2073.855469 C 2288.101562 2073.855469 2307.253906 2093.011719 2307.253906 2116.878906 C 2307.253906 2140.640625 2288.101562 2159.847656 2264.285156 2159.847656 L 2034.941406 2159.847656 C 2011.128906 2159.847656 1991.972656 2140.640625 1991.972656 2116.878906 C 1991.972656 2093.011719 2011.128906 2073.855469 2034.941406 2073.855469 Z M 2573.875 2469.394531 L 2081.535156 2469.394531 L 2081.535156 2479.75 L 2574.390625 2479.75 L 2574.390625 2469.394531 Z M 2517.960938 2439.417969 L 2081.535156 2439.417969 L 2081.535156 2453.863281 L 2517.960938 2453.863281 Z M 2573.875 2412.445312 L 2081.535156 2412.445312 L 2081.535156 2424.921875 L 2573.875 2424.921875 Z M 1963.5 2449.773438 L 1912.761719 2507.1875 C 1916.90625 2509.3125 1921.046875 2510.347656 1925.707031 2510.347656 L 1998.703125 2510.347656 C 2004.914062 2510.347656 2010.09375 2508.222656 2014.75 2505.167969 Z M 1907.066406 2388.113281 C 1901.375 2393.289062 1897.230469 2401.054688 1897.230469 2409.390625 L 1897.230469 2482.339844 C 1897.230469 2491.65625 1901.890625 2499.992188 1909.140625 2505.167969 L 1960.910156 2446.613281 Z M 2017.859375 2502.582031 C 2023.550781 2497.402344 2026.660156 2490.105469 2026.660156 2481.871094 L 2026.660156 2408.820312 C 2026.660156 2400.589844 2023.035156 2392.824219 2017.339844 2387.648438 L 1966.085938 2445.632812 Z M 1910.175781 2385.523438 C 1914.832031 2382.933594 1920.011719 2380.917969 1925.1875 2380.917969 L 1998.183594 2380.917969 C 2003.878906 2380.917969 2009.054688 2382.46875 2013.714844 2385.523438 L 1962.980469 2443.042969 L 1910.175781 2385.523438 " fill-opacity="1" fill-rule="nonzero"/></g><path fill="#14ae5c" d="M 1940.203125 519.746094 C 1926.222656 522.800781 1914.832031 520.210938 1909.140625 518.164062 C 1894.125 540.917969 1877.558594 573.535156 1870.3125 614.953125 C 1847.53125 741.796875 1930.882812 841.714844 1945.378906 859.320312 C 1964.015625 860.871094 2004.914062 861.90625 2048.917969 840.164062 C 2104.3125 813.242188 2130.71875 768.71875 2139.519531 752.71875 L 2050.992188 645.550781 C 2063.414062 649.640625 2096.546875 658.960938 2133.824219 645.550781 C 2200.089844 621.683594 2216.65625 549.203125 2217.691406 544.59375 L 2195.429688 532.117188 C 2189.21875 540.453125 2169.027344 566.804688 2132.269531 576.125 C 2110.527344 581.871094 2092.40625 579.28125 2081.535156 577.160156 C 2107.9375 558.574219 2136.929688 539.417969 2169.027344 520.210938 C 2216.65625 492.28125 2261.695312 469.503906 2303.632812 450.863281 L 2292.242188 432.742188 L 1964.015625 508.332031 C 1959.355469 511.429688 1951.589844 517.128906 1940.203125 519.746094 Z M 2079.464844 1496.117188 L 2024.070312 1558.761719 C 2028.210938 1560.832031 2032.871094 1562.386719 2038.046875 1562.386719 L 2117.257812 1562.386719 C 2123.988281 1562.386719 2129.683594 1560.367188 2134.859375 1556.742188 Z M 2017.859375 1429.332031 C 2011.128906 1435.078125 2006.984375 1443.308594 2006.984375 1452.628906 L 2006.984375 1531.894531 C 2006.984375 1542.246094 2012.164062 1550.996094 2019.929688 1556.742188 L 2075.839844 1493.0625 Z M 2138.484375 1554.15625 C 2144.695312 1548.40625 2148.320312 1540.640625 2148.320312 1531.894531 L 2148.320312 1452.628906 C 2148.320312 1443.308594 2144.179688 1435.542969 2137.964844 1429.902344 L 2082.570312 1493.0625 Z M 2079.464844 1489.4375 L 2134.859375 1426.742188 C 2130.199219 1423.636719 2123.988281 1421.566406 2117.773438 1421.566406 L 2038.566406 1421.566406 C 2032.351562 1421.566406 2026.660156 1423.636719 2022 1426.742188 Z M 1889.984375 1497.207031 L 1835.105469 1559.796875 C 1839.25 1561.921875 1843.90625 1563.421875 1849.085938 1563.421875 L 1928.292969 1563.421875 C 1935.023438 1563.421875 1940.71875 1561.351562 1945.894531 1557.777344 Z M 1828.894531 1430.367188 C 1822.164062 1436.113281 1818.023438 1444.347656 1818.023438 1453.664062 L 1818.023438 1532.875 C 1818.023438 1543.230469 1823.199219 1552.03125 1830.964844 1557.777344 L 1886.878906 1494.046875 Z M 1949.519531 1555.191406 C 1955.734375 1549.445312 1959.355469 1541.679688 1959.355469 1532.875 L 1959.355469 1453.664062 C 1959.355469 1444.347656 1955.214844 1436.582031 1949.003906 1430.9375 L 1893.609375 1494.046875 Z M 1889.984375 1490.476562 L 1945.378906 1427.777344 C 1940.71875 1424.722656 1934.507812 1422.601562 1928.292969 1422.601562 L 1849.085938 1422.601562 C 1842.871094 1422.601562 1837.179688 1424.722656 1832.519531 1427.777344 Z M 1700.503906 1496.117188 L 1645.109375 1558.761719 C 1649.25 1560.832031 1653.910156 1562.386719 1659.085938 1562.386719 L 1738.296875 1562.386719 C 1745.027344 1562.386719 1750.722656 1560.367188 1755.898438 1556.742188 Z M 1639.414062 1429.332031 C 1632.683594 1435.078125 1628.542969 1443.308594 1628.542969 1452.628906 L 1628.542969 1531.894531 C 1628.542969 1542.246094 1633.71875 1550.996094 1641.484375 1556.742188 L 1697.398438 1493.0625 Z M 1760.039062 1554.621094 C 1766.253906 1548.976562 1769.875 1541.210938 1769.875 1532.359375 L 1769.875 1453.199219 C 1769.875 1443.878906 1765.734375 1436.113281 1759.523438 1430.367188 L 1703.609375 1493.0625 Z M 1700.503906 1489.90625 L 1755.898438 1427.3125 C 1751.238281 1424.15625 1745.027344 1422.136719 1738.8125 1422.136719 L 1659.605469 1422.136719 C 1653.390625 1422.136719 1647.695312 1424.15625 1643.039062 1427.3125 Z M 1730.53125 1116.109375 C 1681.867188 1116.109375 1643.039062 1155.507812 1643.039062 1203.605469 C 1643.039062 1251.753906 1682.382812 1291.152344 1730.53125 1291.152344 C 1778.675781 1291.152344 1818.023438 1251.753906 1818.023438 1203.605469 C 1818.023438 1155.507812 1779.195312 1116.109375 1730.53125 1116.109375 Z M 3082.78125 1445.433594 C 3082.78125 1501.8125 3037.222656 1547.425781 2980.792969 1547.425781 C 2924.363281 1547.425781 2878.804688 1501.8125 2878.804688 1445.433594 C 2878.804688 1388.949219 2924.363281 1343.390625 2980.792969 1343.390625 C 3037.222656 1343.390625 3082.78125 1388.949219 3082.78125 1445.433594 " fill-opacity="1" fill-rule="nonzero"/></svg>